<svg width="70" height="70" viewBox="0 0 70 70" fill="none" xmlns="http://www.w3.org/2000/svg">
<circle cx="35" cy="35" r="35" fill="#F7F2EE"/>
<path d="M32.4883 39.3867C32.4883 32.3379 38.3418 33.2344 38.3594 29.5078C38.3418 27.6973 36.9707 26.5547 35.0195 26.5547C32.8047 26.5547 31.4512 27.9785 31.4688 30.2812H26.3711C26.3535 25.2715 30.168 22.0547 35.3008 22.0547C39.9414 22.0547 43.7207 24.7266 43.7383 29.2266C43.7207 34.9922 37.5859 34.377 37.5859 39.3164V39.8789H32.4883V39.3867ZM35.0547 48.3867C33.1914 48.3867 31.8555 47.1035 31.8555 45.3633C31.8555 43.623 33.1914 42.3398 35.0547 42.3398C36.8652 42.3398 38.2188 43.623 38.2188 45.3633C38.2188 47.1035 36.8652 48.3867 35.0547 48.3867Z" fill="#A5836A"/>
</svg>
