<svg width="82" height="82" viewBox="0 0 82 82" fill="none" xmlns="http://www.w3.org/2000/svg">
<g filter="url(#filter0_d_1177_21561)">
<circle cx="41" cy="41" r="35" fill="#F7F2EE"/>
</g>
<path d="M38.4883 45.3867C38.4883 38.3379 44.3418 39.2344 44.3594 35.5078C44.3418 33.6973 42.9707 32.5547 41.0195 32.5547C38.8047 32.5547 37.4512 33.9785 37.4688 36.2812H32.3711C32.3535 31.2715 36.168 28.0547 41.3008 28.0547C45.9414 28.0547 49.7207 30.7266 49.7383 35.2266C49.7207 40.9922 43.5859 40.377 43.5859 45.3164V45.8789H38.4883V45.3867ZM41.0547 54.3867C39.1914 54.3867 37.8555 53.1035 37.8555 51.3633C37.8555 49.623 39.1914 48.3398 41.0547 48.3398C42.8652 48.3398 44.2188 49.623 44.2188 51.3633C44.2188 53.1035 42.8652 54.3867 41.0547 54.3867Z" fill="#A5836A"/>
<defs>
<filter id="filter0_d_1177_21561" x="0" y="0" width="82" height="82" filterUnits="userSpaceOnUse" color-interpolation-filters="sRGB">
<feFlood flood-opacity="0" result="BackgroundImageFix"/>
<feColorMatrix in="SourceAlpha" type="matrix" values="0 0 0 0 0 0 0 0 0 0 0 0 0 0 0 0 0 0 127 0" result="hardAlpha"/>
<feOffset/>
<feGaussianBlur stdDeviation="3"/>
<feComposite in2="hardAlpha" operator="out"/>
<feColorMatrix type="matrix" values="0 0 0 0 0 0 0 0 0 0 0 0 0 0 0 0 0 0 0.05 0"/>
<feBlend mode="normal" in2="BackgroundImageFix" result="effect1_dropShadow_1177_21561"/>
<feBlend mode="normal" in="SourceGraphic" in2="effect1_dropShadow_1177_21561" result="shape"/>
</filter>
</defs>
</svg>
