<svg width="90" height="90" viewBox="0 0 90 90" fill="none" xmlns="http://www.w3.org/2000/svg">
<path d="M45 15C28.4198 15 15 28.7403 15 45.7218C15 55.8689 19.8885 65.3537 28.0756 71.0925C28.8954 71.6667 30.0133 71.4511 30.574 70.6129C31.1348 69.7733 30.9251 68.6286 30.1053 68.0543C22.8983 63.0028 18.5944 54.6543 18.5944 45.7218C18.5944 30.8123 30.4399 18.6808 45 18.6808C59.637 18.6808 71.4056 30.7284 71.4056 45.7218C71.4056 56.9378 64.818 66.8252 54.6213 70.912C52.8447 71.625 50.9152 71.3981 49.3291 70.289C46.5436 68.3431 46.7972 65.5004 46.7972 64.1133C53.9062 63.2044 59.4237 56.9785 59.4237 49.457C59.4237 42.8126 50.1952 28.9138 46.4461 23.7005C45.7278 22.7053 44.2722 22.7053 43.5539 23.7005C39.7417 29.0019 30.5763 42.8271 30.5763 49.457C30.5763 56.9785 36.0937 63.2044 43.2028 64.1133V65.3856C43.2028 72.1214 49.8198 76.7867 55.9323 74.3406C61.4882 72.1121 66.2329 68.2728 69.6515 63.2362C73.1502 58.0802 75 52.0236 75 45.7218C75 28.6967 61.6273 15 45 15ZM44.9963 27.9561C47.85 32.138 55.8293 44.3478 55.8293 49.457C55.8293 54.944 51.9173 59.5146 46.7972 60.3931V54.5254L51.6714 51.7292C52.5375 51.2323 52.847 50.1095 52.3618 49.2236C51.8765 48.3366 50.7811 48.0211 49.915 48.518L46.7972 50.3069V38.0287C46.7972 37.0124 45.992 36.1878 45 36.1878C44.008 36.1878 43.2028 37.0124 43.2028 38.0287V44.0801L40.085 42.2913C39.2198 41.7944 38.1235 42.1094 37.6382 42.9968C37.153 43.8837 37.4625 45.005 38.3272 45.5019L43.2028 48.2996V60.3931C38.0827 59.5146 34.1707 54.944 34.1707 49.457C34.1707 44.7463 41.0207 33.7623 44.9963 27.9561Z" fill="#A5836A"/>
</svg>
