<svg width="90" height="90" viewBox="0 0 90 90" fill="none" xmlns="http://www.w3.org/2000/svg">
<path d="M42.212 82.412C40.8304 82.412 39.5263 81.9043 38.5579 80.9856L21.3461 64.8845C21.0491 64.6065 20.8812 64.2197 20.8812 63.8208V44.7098C20.8812 43.8879 21.5914 43.2109 22.4823 43.2109H37.8606C38.5062 43.2109 39.0873 43.5736 39.3326 44.1296C39.5779 44.6857 39.4488 45.3384 38.984 45.7615L36.7631 47.8406C36.3628 48.2153 36.1433 48.7109 36.1433 49.2307C36.1433 49.7505 36.3628 50.234 36.7502 50.5966C37.2538 51.0802 37.8348 51.1769 38.2222 51.1769C38.6224 51.1769 39.2035 51.0802 39.7071 50.6087L44.2521 46.3538C44.5491 46.0758 44.9623 45.9186 45.3884 45.9186C45.8145 45.9186 46.2147 46.0758 46.5246 46.3538L66.5513 65.1142C67.5455 66.0329 68.0878 67.2538 68.0878 68.5472C68.0878 69.8406 67.5455 71.0494 66.5771 71.968C65.6474 72.8505 64.3562 73.3702 63.0263 73.3944C63.0005 74.6032 62.4969 75.7999 61.5156 76.7065C60.0049 78.1208 57.6161 78.5076 55.731 77.7098C55.4856 78.4109 55.0595 79.0636 54.4785 79.5955C52.49 81.4208 49.0941 81.3966 47.1702 79.5955L46.9766 79.4142C46.7312 79.9823 46.3568 80.5142 45.8661 80.9735C44.8848 81.9043 43.5936 82.412 42.212 82.412ZM24.0834 63.2043L40.8175 78.8702C41.5793 79.5713 42.8576 79.5713 43.6194 78.8702C44.3812 78.157 44.3812 76.9845 43.6194 76.2592C43.3095 75.9691 43.1546 75.5823 43.1546 75.1955C43.1546 74.8087 43.3095 74.434 43.6194 74.1318C44.2392 73.5516 45.2592 73.5516 45.879 74.1318L49.4428 77.468C50.1788 78.157 51.4829 78.157 52.2447 77.4559C52.6062 77.1175 52.8128 76.6461 52.8128 76.1505C52.8128 75.6669 52.6191 75.2197 52.2576 74.8691L52.2318 74.845C51.612 74.2647 51.612 73.3219 52.2318 72.7296C52.8516 72.1494 53.8587 72.1373 54.4914 72.7175L54.5301 72.7538L56.4799 74.579C57.2288 75.2801 58.52 75.2801 59.2818 74.579C60.0436 73.8538 60.0436 72.6812 59.2818 71.956C58.662 71.3757 58.662 70.4208 59.2947 69.8406C59.9145 69.2604 60.9345 69.2604 61.5543 69.8406C62.0321 70.2878 62.5873 70.3845 62.9488 70.3845C63.4653 70.3845 63.9689 70.1911 64.3304 69.8527L64.3433 69.8406C64.7178 69.49 64.9244 69.0307 64.9244 68.5472C64.9244 68.0637 64.7178 67.5922 64.3433 67.2538L45.4013 49.545L41.9796 52.7483C39.9782 54.6219 36.4532 54.6219 34.4906 52.7362C33.5092 51.8175 32.954 50.5846 32.954 49.2549C32.954 48.1428 33.3414 47.0791 34.0645 46.2087H24.0963V63.2043H24.0834Z" fill="#A5836A"/>
<path d="M64.395 66.72C63.9689 66.72 63.5687 66.5629 63.2588 66.2849L45.4014 49.5431L41.9797 52.7464C39.9783 54.6201 36.4533 54.6201 34.4906 52.7344C33.5093 51.8157 32.9541 50.5827 32.9541 49.253C32.9541 47.9234 33.4964 46.6783 34.5036 45.7355L41.192 39.4739C43.0514 37.7333 45.4659 36.6937 48.0096 36.5366C50.5533 36.3794 53.3939 36.7904 56.467 37.7454C60.4956 38.9904 64.4854 39.619 68.359 39.619H69.0305C69.9085 39.619 70.6316 40.2838 70.6316 41.1179V60.5552C70.6316 60.9299 70.4766 61.2926 70.2055 61.5706L65.583 66.2365C65.286 66.5387 64.8728 66.708 64.4467 66.72C64.4079 66.72 64.395 66.72 64.395 66.72ZM45.4014 45.9289C45.8275 45.9289 46.2277 46.086 46.5376 46.364L64.3563 63.0574L67.4294 59.9629V42.5926C63.517 42.4959 59.5014 41.819 55.4599 40.586C52.7742 39.7519 50.3209 39.3893 48.2162 39.5223C46.4601 39.6311 44.7557 40.3684 43.4516 41.5893L36.7632 47.8508C36.3629 48.2256 36.1434 48.7212 36.1434 49.2409C36.1434 49.7607 36.3629 50.2442 36.7503 50.6069C37.2538 51.0904 37.8349 51.1871 38.2222 51.1871C38.6225 51.1871 39.2036 51.0904 39.7071 50.619L44.2522 46.364C44.5621 46.086 44.9753 45.9289 45.4014 45.9289Z" fill="#A5836A"/>
<path d="M60.3922 72.4268C59.9791 72.4268 59.5788 72.2818 59.256 71.9917L49.701 63.0466C49.0813 62.4664 49.0813 61.5115 49.701 60.9313C50.3208 60.351 51.3409 60.351 51.9607 60.9313L61.5156 69.8763C62.1354 70.4565 62.1354 71.4115 61.5156 71.9917C61.2057 72.2818 60.7925 72.4268 60.3922 72.4268Z" fill="#A5836A"/>
<path d="M53.3551 75.3041C52.9419 75.3041 52.5416 75.159 52.2188 74.8689L45.1818 68.281C44.562 67.7008 44.562 66.7459 45.1818 66.1656C45.8015 65.5854 46.8216 65.5854 47.4414 66.1656L54.4785 72.7535C55.0982 73.3338 55.0982 74.2887 54.4785 74.8689C54.1815 75.159 53.7683 75.3041 53.3551 75.3041Z" fill="#A5836A"/>
<path d="M44.7815 76.7314C44.3683 76.7314 43.9681 76.5863 43.6453 76.2962L38.4675 71.449C37.8477 70.8688 37.8477 69.9138 38.4675 69.3336C39.0873 68.7534 40.1074 68.7534 40.7271 69.3336L45.9049 74.1808C46.5247 74.7611 46.5247 75.716 45.9049 76.2962C45.595 76.5863 45.1947 76.7314 44.7815 76.7314Z" fill="#A5836A"/>
<path d="M74.2083 66.9012C70.4638 66.9012 67.4165 64.0485 67.4165 60.543V41.6375C67.4165 38.132 70.4638 35.2793 74.2083 35.2793C77.9528 35.2793 81 38.132 81 41.6375V60.5551C81 64.0606 77.9528 66.9012 74.2083 66.9012ZM74.2083 38.2771C72.2327 38.2771 70.6187 39.7881 70.6187 41.6375V60.5551C70.6187 62.4045 72.2327 63.9155 74.2083 63.9155C76.1838 63.9155 77.7978 62.4045 77.7978 60.5551V41.6375C77.7978 39.7881 76.1967 38.2771 74.2083 38.2771Z" fill="#A5836A"/>
<path d="M17.2918 69.8876C13.5473 69.8876 10.5 67.0348 10.5 63.5293V44.6239C10.5 41.1184 13.5473 38.2656 17.2918 38.2656C21.0363 38.2656 24.0835 41.1184 24.0835 44.6239V63.5414C24.0835 67.0348 21.0363 69.8876 17.2918 69.8876ZM17.2918 41.2513C15.3162 41.2513 13.7022 42.7623 13.7022 44.6118V63.5293C13.7022 65.3788 15.3162 66.8898 17.2918 66.8898C19.2673 66.8898 20.8813 65.3788 20.8813 63.5293V44.6239C20.8813 42.7623 19.2673 41.2513 17.2918 41.2513Z" fill="#A5836A"/>
<path d="M44.4846 34.4589C44.1876 34.4589 43.8777 34.3743 43.6195 34.2171C43.103 33.9029 30.8882 26.4809 29.1321 18.4062C28.5898 15.904 29.0676 13.5952 30.5654 11.5403C32.1536 9.35235 34.7102 7.88971 37.3959 7.62378C39.9912 7.36993 42.5349 8.1073 44.4846 9.63037C46.4085 8.13147 48.9135 7.39411 51.47 7.61169C54.1558 7.84136 56.7253 9.27982 58.3522 11.4556C59.8887 13.5227 60.3923 15.8435 59.8629 18.3578C58.1456 26.4446 45.8662 33.9029 45.3497 34.2171C45.0786 34.3864 44.7816 34.4589 44.4846 34.4589ZM38.403 10.5853C38.1835 10.5853 37.9511 10.5974 37.7316 10.6216C35.9626 10.7908 34.2841 11.782 33.2124 13.2447C32.2052 14.6348 31.8953 16.1337 32.2698 17.826C33.5093 23.5556 41.7731 29.382 44.4846 31.1589C47.2091 29.3699 55.5115 23.5194 56.7253 17.7776C57.0868 16.0732 56.764 14.5622 55.731 13.1721C54.6464 11.7095 52.942 10.7545 51.186 10.5974C49.0684 10.4161 47.0799 11.1776 45.7242 12.7007C45.4143 13.0392 44.9753 13.2326 44.4975 13.2326C44.0198 13.1721 43.5678 13.0392 43.2709 12.6886C42.0442 11.3469 40.2753 10.5853 38.403 10.5853Z" fill="#A5836A"/>
</svg>
