<svg width="90" height="90" viewBox="0 0 90 90" fill="none" xmlns="http://www.w3.org/2000/svg">
<path d="M16.3422 51.1738H22.4906C24.0246 51.174 25.3565 52.0115 26.0883 53.2471L26.1459 53.3438L26.2543 53.3164L32.2152 51.8242C34.1081 51.3489 36.106 51.3837 37.9818 51.9199L49.6058 55.2432C51.2828 55.7226 52.6533 56.8354 53.4681 58.377C53.8106 59.0255 54.009 59.7192 54.1127 60.4277L54.139 60.6064L54.3099 60.5479L69.4906 55.2998C71.0871 54.7498 72.8019 54.8537 74.3187 55.5947L74.3197 55.5957L74.3412 55.6074C75.8632 56.3598 76.9961 57.6594 77.5336 59.2695C78.5714 62.3833 77.01 65.8165 73.9779 67.0801L51.8275 76.3105C49.3752 77.3325 46.7252 77.8496 44.0756 77.8496C42.4418 77.8496 40.8078 77.6533 39.2181 77.2559L26.2543 74.0146L26.1459 73.9873L26.0883 74.084C25.3565 75.3197 24.0247 76.1581 22.4906 76.1582H16.3422C14.0289 76.1581 12.1449 74.2732 12.1449 71.96V55.3711C12.145 53.0558 14.029 51.174 16.3422 51.1738ZM37.2787 65.6777C36.1701 65.4536 35.4509 64.3756 35.6722 63.2646C35.8935 62.1544 36.9799 61.4381 38.0853 61.6572L47.4281 63.5254H47.4291C48.5349 63.7445 49.6318 63.1061 49.9857 62.042C50.155 61.532 50.1335 60.9929 49.9349 60.502L49.8392 60.2939C49.5516 59.7494 49.0673 59.3571 48.476 59.1875L36.8539 55.8652C35.6669 55.5258 34.4052 55.5034 33.2045 55.8047L26.7972 57.4062L26.684 57.4346V69.8945L26.7972 69.9229L40.2084 73.2734C43.5359 74.1064 47.0944 73.8362 50.2465 72.5234L72.1898 63.3789V63.3818L72.3969 63.2949C73.4552 62.8532 74.0004 61.6542 73.639 60.5654C73.4503 60.0016 73.0537 59.5471 72.5228 59.2852C72.0584 59.056 71.5384 58.997 71.0404 59.1172L70.8285 59.1797L52.6722 65.457L52.6351 65.4697L52.6088 65.5C51.417 66.853 49.6968 67.6689 47.8627 67.6689C47.4519 67.6689 47.0368 67.6296 46.6224 67.5459L37.2797 65.6777H37.2787ZM16.3402 55.2744V55.4238L16.1927 55.4248L16.2455 71.958V72.1094L16.3969 72.1074L22.4867 72.0547L22.6674 72.0537L22.6332 71.876C22.5985 71.6984 22.613 71.5083 22.6351 71.2959L22.6361 71.2871V71.2793L22.5853 55.4238L22.5844 55.2744H16.3402Z" fill="#A5836A" stroke="#FAFAFA" stroke-width="0.3"/>
<path d="M58.2026 12.1426C69.04 12.1428 77.856 20.9607 77.856 31.7959C77.8557 42.6309 69.0399 51.449 58.2026 51.4492C47.3652 51.4492 38.5495 42.6311 38.5493 31.7959C38.5493 20.9605 47.3651 12.1426 58.2026 12.1426ZM58.2026 16.2432C49.6286 16.2432 42.6499 23.2196 42.6499 31.7959C42.6501 40.372 49.6287 47.3477 58.2026 47.3477C66.7763 47.3474 73.7542 40.3718 73.7544 31.7959C73.7544 23.2198 66.7765 16.2434 58.2026 16.2432Z" fill="#A5836A" stroke="#FAFAFA" stroke-width="0.3"/>
<path d="M49.5505 34.4199C50.4692 33.8856 51.632 34.1474 52.238 34.9912L52.3513 35.168C53.5574 37.2494 55.7962 38.5438 58.2019 38.5439C60.5325 38.5439 62.7089 37.3297 63.9373 35.3613L64.0535 35.168C64.5798 34.2498 65.7131 33.8943 66.6658 34.3232L66.8542 34.4199C67.7709 34.9505 68.1236 36.0868 67.696 37.0342L67.6003 37.2207C65.6666 40.5673 62.0628 42.6465 58.2019 42.6465C54.4618 42.6464 50.9639 40.6948 48.991 37.5303L48.8044 37.2207C48.2702 36.3021 48.5323 35.1419 49.3748 34.5342L49.5505 34.4199Z" fill="#A5836A" stroke="#FAFAFA" stroke-width="0.3"/>
<path d="M51.601 23.1445C52.7348 23.1445 53.6516 24.0626 53.6517 25.1943V27.3945C53.6517 28.5264 52.7348 29.4453 51.601 29.4453C50.4672 29.4452 49.5511 28.5263 49.5511 27.3945V25.1943C49.5512 24.0626 50.4672 23.1446 51.601 23.1445Z" fill="#A5836A" stroke="#FAFAFA" stroke-width="0.3"/>
<path d="M64.8031 23.1445C65.9369 23.1445 66.8538 24.0626 66.8539 25.1943V27.3945C66.8539 28.5264 65.937 29.4453 64.8031 29.4453C63.6693 29.4452 62.7533 28.5263 62.7533 27.3945V25.1943C62.7534 24.0626 63.6694 23.1446 64.8031 23.1445Z" fill="#A5836A" stroke="#FAFAFA" stroke-width="0.3"/>
</svg>
