<svg width="90" height="95" viewBox="0 0 90 95" fill="none" xmlns="http://www.w3.org/2000/svg">
<path d="M69.2664 76.9048H20.2438V21.8601C20.2438 19.3538 22.3236 17.3105 24.8827 17.3105H64.8098C67.3082 17.3105 69.2664 19.3061 69.2664 21.8601V76.9048ZM24.2953 72.8183H65.2149V21.8601C65.2149 21.649 65.1474 21.397 64.8098 21.397H24.8827C24.6059 21.397 24.2953 21.5877 24.2953 21.8601V72.8183Z" fill="#A5836A"/>
<path d="M16.665 72.8164H72.9127V76.9029H16.665V72.8164Z" fill="#A5836A"/>
<path d="M58.1925 76.9051H31.3179V52.7949H58.1925V76.9051ZM35.3693 72.8186H54.141V56.8814H35.3693V72.8186Z" fill="#A5836A"/>
<path d="M31.3179 39.0371H35.3693V46.1203H31.3179V39.0371Z" fill="#A5836A"/>
<path d="M42.7294 39.0371H46.7808V46.1203H42.7294V39.0371Z" fill="#A5836A"/>
<path d="M54.141 39.0371H58.1924V46.1203H54.141V39.0371Z" fill="#A5836A"/>
<path d="M31.3179 26.709H35.3693V33.9284H31.3179V26.709Z" fill="#A5836A"/>
<path d="M42.7294 26.709H46.7808V33.9284H42.7294V26.709Z" fill="#A5836A"/>
<path d="M54.141 26.709H58.1924V33.9284H54.141V26.709Z" fill="#A5836A"/>
<path d="M42.7294 54.9727H46.7808V74.8601H42.7294V54.9727Z" fill="#A5836A"/>
</svg>
