<svg width="20" height="20" viewBox="0 0 20 20" fill="none" xmlns="http://www.w3.org/2000/svg">
<path d="M18.2208 8.63035C17.6928 8.63035 17.2608 9.06235 17.2608 9.59035C17.2608 13.8144 13.824 17.2608 9.59041 17.2608C5.35681 17.2608 1.92 13.824 1.92 9.59035C1.92 5.35679 5.35681 1.92 9.59041 1.92C10.1184 1.92 10.5504 1.488 10.5504 0.96C10.5504 0.432 10.1184 0 9.59041 0C4.30081 0 0 4.30079 0 9.59035C0 14.88 4.30081 19.1808 9.59041 19.1808C14.88 19.1808 19.1808 14.88 19.1808 9.59035C19.1808 9.06235 18.7488 8.63035 18.2208 8.63035Z" fill="#A5836A"/>
<path d="M6.43225 7.95855C6.05785 7.58412 5.45305 7.58412 5.07865 7.95855C4.70425 8.33295 4.70425 8.93775 5.07865 9.31215L8.20824 12.4321C8.55384 12.7777 9.02424 12.9793 9.51384 12.9793H9.62904C10.157 12.9505 10.6466 12.6913 10.973 12.2689L17.069 4.42579C17.3954 4.00339 17.3186 3.40816 16.9058 3.08176C16.4834 2.75536 15.8882 2.83221 15.5618 3.24501L9.51384 11.0305L6.44185 7.95855H6.43225Z" fill="#A5836A"/>
</svg>
