<svg width="60" height="60" viewBox="0 0 60 60" fill="none" xmlns="http://www.w3.org/2000/svg">
<path d="M43.125 5.625H41.25C41.25 3.55687 39.5681 1.875 37.5 1.875H22.5C20.4319 1.875 18.75 3.55687 18.75 5.625H16.875C11.7056 5.625 7.5 9.83063 7.5 15V48.75C7.5 53.9194 11.7056 58.125 16.875 58.125H43.125C48.2944 58.125 52.5 53.9194 52.5 48.75V15C52.5 9.83063 48.2944 5.625 43.125 5.625ZM22.5 5.625H37.4981V9.375H22.5V5.625ZM48.75 48.75C48.75 51.8512 46.2262 54.375 43.125 54.375H16.875C13.7737 54.375 11.25 51.8512 11.25 48.75V15C11.25 11.8988 13.7737 9.375 16.875 9.375H18.75C18.75 11.4431 20.4319 13.125 22.5 13.125H37.5C39.5681 13.125 41.25 11.4431 41.25 9.375H43.125C46.2262 9.375 48.75 11.8988 48.75 15V48.75Z" fill="#BDBDBD"/>
<path d="M24.923 18.3603L21.2498 22.0334L20.0761 20.8597C19.343 20.1266 18.1561 20.1266 17.4248 20.8597C16.6917 21.5928 16.6917 22.7797 17.4248 23.5109L19.9242 26.0103C20.2898 26.3759 20.7698 26.5597 21.2498 26.5597C21.7298 26.5597 22.2098 26.3759 22.5755 26.0103L27.5761 21.0097C28.3092 20.2766 28.3092 19.0916 27.5761 18.3584C26.843 17.6253 25.658 17.6253 24.9248 18.3584L24.923 18.3603Z" fill="#BDBDBD"/>
<path d="M41.25 20.625H31.875C30.84 20.625 30 21.465 30 22.5C30 23.535 30.84 24.375 31.875 24.375H41.25C42.285 24.375 43.125 23.535 43.125 22.5C43.125 21.465 42.285 20.625 41.25 20.625Z" fill="#BDBDBD"/>
<path d="M24.923 29.6103L21.2498 33.2834L20.0761 32.1097C19.343 31.3766 18.1561 31.3766 17.4248 32.1097C16.6917 32.8428 16.6917 34.0297 17.4248 34.7609L19.9242 37.2603C20.2898 37.6259 20.7698 37.8097 21.2498 37.8097C21.7298 37.8097 22.2098 37.6259 22.5755 37.2603L27.5761 32.2597C28.3092 31.5266 28.3092 30.3416 27.5761 29.6084C26.843 28.8753 25.658 28.8753 24.9248 29.6084L24.923 29.6103Z" fill="#BDBDBD"/>
<path d="M41.25 31.875H31.875C30.84 31.875 30 32.715 30 33.75C30 34.785 30.84 35.625 31.875 35.625H41.25C42.285 35.625 43.125 34.785 43.125 33.75C43.125 32.715 42.285 31.875 41.25 31.875Z" fill="#BDBDBD"/>
<path d="M24.923 40.8603L21.2498 44.5334L20.0761 43.3597C19.343 42.6266 18.1561 42.6266 17.4248 43.3597C16.6917 44.0928 16.6917 45.2797 17.4248 46.0109L19.9242 48.5103C20.2898 48.8759 20.7698 49.0597 21.2498 49.0597C21.7298 49.0597 22.2098 48.8759 22.5755 48.5103L27.5761 43.5097C28.3092 42.7766 28.3092 41.5916 27.5761 40.8584C26.843 40.1253 25.658 40.1253 24.9248 40.8584L24.923 40.8603Z" fill="#BDBDBD"/>
<path d="M41.25 43.125H31.875C30.84 43.125 30 43.965 30 45C30 46.035 30.84 46.875 31.875 46.875H41.25C42.285 46.875 43.125 46.035 43.125 45C43.125 43.965 42.285 43.125 41.25 43.125Z" fill="#BDBDBD"/>
</svg>
