<svg width="80" height="80" viewBox="0 0 80 80" fill="none" xmlns="http://www.w3.org/2000/svg">
<path d="M40.0002 41.4477C39.8738 41.4477 39.7474 41.4285 39.6258 41.3893L4.8512 30.2311C4.34368 30.0684 4 29.5964 4 29.0639C4 28.5316 4.34368 28.0594 4.8512 27.8967L39.6259 16.7386C39.869 16.66 40.1314 16.66 40.3746 16.7386L75.1482 27.8967C75.6557 28.0594 75.9994 28.5316 75.9994 29.0639C75.9994 29.5964 75.6555 30.0684 75.1482 30.2311L40.3746 41.3892C40.253 41.4284 40.1266 41.4477 40.0002 41.4477ZM9.2376 29.0639L40.0002 38.9351L70.7627 29.0639L40.0002 19.1928L9.2376 29.0639Z" fill="black"/>
<path d="M40.0002 63.3204C39.8738 63.3204 39.7474 63.3014 39.6258 63.262L4.8512 52.104C4.34368 51.9412 4 51.4692 4 50.9369V42.7337C4 42.342 4.18656 41.9744 4.50368 41.7436C4.82064 41.5128 5.22656 41.4468 5.6 41.5664L40.0003 52.6048L74.3995 41.5664C74.772 41.4467 75.1798 41.5128 75.4958 41.7436C75.8128 41.9744 75.9995 42.342 75.9995 42.7337V50.9369C75.9995 51.4692 75.6557 51.9412 75.1483 52.104L40.3747 63.262C40.253 63.3014 40.1266 63.3204 40.0002 63.3204ZM6.4512 50.0425L40.0002 60.8081L73.5482 50.0425V44.4142L40.3746 55.059C40.1314 55.1376 39.869 55.1376 39.6259 55.059L6.4512 44.4142V50.0425Z" fill="black"/>
<path d="M40.0002 55.1172C39.8738 55.1172 39.7474 55.0982 39.6258 55.0588L4.8512 43.9009C4.34368 43.7382 4 43.266 4 42.7337C4 42.2012 4.34368 41.7292 4.8512 41.5665L26.1554 34.7307C26.3984 34.6523 26.661 34.6523 26.904 34.7307L40.0002 38.9332L53.0952 34.7307C53.3384 34.6523 53.6008 34.6523 53.844 34.7307L75.148 41.5665C75.6555 41.7292 75.9992 42.2012 75.9992 42.7337C75.9992 43.266 75.6554 43.7382 75.148 43.9009L40.3744 55.059C40.253 55.0982 40.1266 55.1172 40.0002 55.1172ZM9.23664 42.7337L40.0002 52.6048L70.7627 42.7337L53.4698 37.1848L40.3746 41.3875C40.1314 41.4659 39.869 41.4659 39.6259 41.3875L26.5298 37.1848L9.23664 42.7337Z" fill="black"/>
<path d="M39.9996 41.4465C39.4805 41.4465 38.9989 41.1152 38.8324 40.5952C38.6255 39.9507 38.9808 39.2605 39.6253 39.0536L74.3989 27.8955C75.0461 27.6867 75.7346 28.0449 75.9405 28.6885C76.1474 29.3328 75.792 30.0232 75.1476 30.2301L40.374 41.3881C40.2495 41.4281 40.1231 41.4465 39.9996 41.4465Z" fill="black"/>
<path d="M28.4718 37.1241C27.9529 37.1241 27.4702 36.792 27.3046 36.271C27.0986 35.6267 27.454 34.9372 28.0994 34.7313L61.7135 23.9974C62.3561 23.7876 63.0482 24.1468 63.2532 24.7921C63.4591 25.4366 63.1038 26.126 62.4585 26.332L28.8442 37.0659C28.7207 37.106 28.5954 37.1241 28.4718 37.1241Z" fill="black"/>
<path d="M18.1796 33.7643C17.6607 33.7643 17.1782 33.4321 17.0126 32.9112C16.8066 32.2669 17.162 31.5774 17.8073 31.3715L51.4223 20.6376C52.0657 20.4288 52.757 20.788 52.962 21.4325C53.1679 22.0768 52.8126 22.7662 52.1671 22.9721L18.5521 33.7061C18.4286 33.7462 18.3031 33.7643 18.1796 33.7643Z" fill="black"/>
<path d="M40 63.3224C39.3231 63.3224 38.7744 62.7737 38.7744 62.0968V53.8936C38.7744 53.2166 39.3231 52.668 40 52.668C40.677 52.668 41.2256 53.2166 41.2256 53.8936V62.0968C41.2258 62.7737 40.677 63.3224 40 63.3224Z" fill="black"/>
</svg>
