<svg width="71" height="70" viewBox="0 0 71 70" fill="none" xmlns="http://www.w3.org/2000/svg">
<g clip-path="url(#clip0_1100_19807)">
<path d="M22.375 18.5938C21.795 18.5944 21.239 18.825 20.8289 19.2351C20.4188 19.6452 20.1881 20.2013 20.1875 20.7813V43.203C20.1881 43.783 20.4187 44.3391 20.8288 44.7492C21.2389 45.1593 21.795 45.39 22.375 45.3905H48.6247C49.2047 45.39 49.7608 45.1593 50.1709 44.7492C50.581 44.3391 50.8117 43.783 50.8122 43.203V20.7812C50.8116 20.2013 50.581 19.6452 50.1709 19.2351C49.7608 18.825 49.2047 18.5944 48.6247 18.5938L22.375 18.5938ZM22.375 43.203V20.7812H48.6247L48.6263 43.203H22.375Z" fill="black"/>
<path d="M1.22635 41.6259C1.0905 41.6737 0.96545 41.748 0.858368 41.8443C0.751287 41.9407 0.664286 42.0572 0.602358 42.1872C0.54043 42.3173 0.504795 42.4583 0.497498 42.6021C0.490201 42.746 0.511386 42.8899 0.559837 43.0255C0.608287 43.1612 0.68305 43.2859 0.779833 43.3926C0.876617 43.4993 0.993515 43.5858 1.12382 43.6472C1.25412 43.7086 1.39527 43.7436 1.53915 43.7503C1.68304 43.757 1.82683 43.7352 1.96227 43.6862L9.61845 40.9518C9.83091 40.876 10.0147 40.7362 10.1446 40.5518C10.2746 40.3674 10.3443 40.1473 10.3442 39.9217V13.6718C10.3442 13.4469 10.2749 13.2275 10.1457 13.0435C10.0165 12.8594 9.83368 12.7196 9.62218 12.6432L2.0536 9.90885C1.91852 9.86004 1.77515 9.83831 1.63168 9.8449C1.4882 9.8515 1.34743 9.88629 1.21741 9.94729C0.9548 10.0705 0.751888 10.2929 0.653307 10.5657C0.554726 10.8385 0.568552 11.1393 0.691743 11.4019C0.814933 11.6645 1.0374 11.8674 1.3102 11.966L8.15674 14.4395V20.6001L2.30727 19.7002C2.16532 19.6784 2.02047 19.6848 1.88097 19.7189C1.74148 19.7531 1.61009 19.8144 1.49429 19.8994C1.37849 19.9843 1.28056 20.0913 1.20609 20.2141C1.13162 20.3369 1.08206 20.4731 1.06025 20.6151C1.03844 20.757 1.0448 20.9019 1.07897 21.0414C1.11314 21.1809 1.17445 21.3122 1.2594 21.428C1.34435 21.5438 1.45128 21.6418 1.57408 21.7162C1.69687 21.7907 1.83314 21.8403 1.97509 21.8621L8.15674 22.8131V39.151L1.22635 41.6259Z" fill="black"/>
<path d="M27.4088 52.5148L17.8948 51.5342L16.9269 41.4577C16.9103 41.2849 16.8527 41.1185 16.759 40.9723C16.6653 40.8262 16.5382 40.7044 16.3881 40.6171C16.238 40.5298 16.0693 40.4795 15.8959 40.4703C15.7226 40.4611 15.5495 40.4933 15.391 40.5642L1.14677 46.9446C1.01569 47.0033 0.897458 47.0872 0.79882 47.1916C0.700183 47.296 0.623073 47.4188 0.571894 47.553C0.468533 47.824 0.477067 48.125 0.595619 48.3897C0.71417 48.6545 0.933028 48.8613 1.20405 48.9646C1.47506 49.068 1.77604 49.0594 2.04077 48.9409L14.8949 43.1832L15.7531 52.1164L1.01005 61.4185C0.76473 61.5734 0.590956 61.8193 0.526956 62.1022C0.462956 62.3852 0.513973 62.6819 0.668785 62.9272C0.823597 63.1726 1.06952 63.3463 1.35246 63.4103C1.63539 63.4743 1.93217 63.4233 2.17749 63.2685L17.3749 53.6795L24.4742 54.4112L6.93803 68.0424C6.71045 68.221 6.56285 68.4824 6.52753 68.7695C6.49222 69.0566 6.57205 69.346 6.74958 69.5743C6.9271 69.8027 7.18785 69.9514 7.47478 69.988C7.76171 70.0246 8.05146 69.9461 8.28061 69.7696L24.5623 57.1135V68.906C24.5623 69.1961 24.6775 69.4743 24.8826 69.6794C25.0878 69.8845 25.366 69.9997 25.656 69.9997C25.9461 69.9997 26.2243 69.8845 26.4294 69.6794C26.6345 69.4743 26.7498 69.1961 26.7498 68.906V55.4131L27.968 54.4662C28.1404 54.3322 28.2687 54.1497 28.3365 53.9421C28.4043 53.7345 28.4084 53.5114 28.3482 53.3014C28.2881 53.0915 28.1664 52.9044 27.999 52.7642C27.8316 52.624 27.626 52.5371 27.4088 52.5148Z" fill="black"/>
<path d="M69.6903 11.966C69.9631 11.8674 70.1855 11.6645 70.3087 11.4019C70.4319 11.1393 70.4457 10.8385 70.3472 10.5657C70.2486 10.2929 70.0457 10.0705 69.7831 9.94729C69.5205 9.8241 69.2197 9.81027 68.9469 9.90885L61.3783 12.6432C61.1668 12.7196 60.984 12.8594 60.8548 13.0435C60.7256 13.2275 60.6563 13.4469 60.6563 13.6718V39.9217C60.6562 40.1473 60.7259 40.3674 60.8558 40.5518C60.9858 40.7362 61.1696 40.876 61.382 40.9519L69.0382 43.6862C69.3113 43.7832 69.6117 43.7679 69.8735 43.6436C70.1353 43.5193 70.337 43.2963 70.4345 43.0234C70.532 42.7504 70.5172 42.45 70.3934 42.188C70.2696 41.926 70.0469 41.7238 69.7741 41.6259L62.8437 39.151V22.8131L69.0254 21.8621C69.1673 21.8403 69.3036 21.7907 69.4264 21.7162C69.5492 21.6418 69.6561 21.5438 69.7411 21.428C69.826 21.3122 69.8873 21.1808 69.9215 21.0413C69.9557 20.9019 69.962 20.757 69.9402 20.615C69.9184 20.4731 69.8689 20.3368 69.7944 20.214C69.7199 20.0912 69.622 19.9843 69.5062 19.8994C69.3904 19.8144 69.259 19.7531 69.1195 19.7189C68.98 19.6848 68.8352 19.6784 68.6932 19.7002L62.8437 20.6001V14.4395L69.6903 11.966Z" fill="black"/>
<path d="M68.9591 48.9409C69.2238 49.0594 69.5248 49.068 69.7958 48.9646C70.0668 48.8613 70.2857 48.6545 70.4042 48.3897C70.5228 48.125 70.5313 47.824 70.428 47.553C70.3246 47.282 70.1178 47.0631 69.8531 46.9446L55.6088 40.5642C55.4504 40.4933 55.2773 40.4611 55.1039 40.4703C54.9305 40.4795 54.7618 40.5298 54.6118 40.6171C54.4617 40.7044 54.3345 40.8262 54.2408 40.9723C54.1471 41.1185 54.0896 41.2849 54.0729 41.4577L53.105 51.5342L43.5911 52.5148C43.3739 52.5371 43.1683 52.624 43.0009 52.7642C42.8334 52.9044 42.7118 53.0915 42.6517 53.3014C42.5915 53.5114 42.5956 53.7345 42.6634 53.9421C42.7311 54.1497 42.8595 54.3322 43.0319 54.4662L44.2501 55.4131V68.906C44.2501 69.1961 44.3653 69.4743 44.5704 69.6794C44.7756 69.8845 45.0538 69.9997 45.3438 69.9997C45.6339 69.9997 45.9121 69.8845 46.1172 69.6794C46.3224 69.4743 46.4376 69.1961 46.4376 68.906V57.1135L62.7192 69.7696C62.9483 69.9474 63.2386 70.027 63.5263 69.9909C63.814 69.9548 64.0756 69.8059 64.2536 69.5769C64.4316 69.348 64.5114 69.0577 64.4754 68.77C64.4394 68.4822 64.2907 68.2205 64.0619 68.0424L46.5257 54.4112L53.625 53.6795L68.8224 63.2685C69.0677 63.4233 69.3645 63.4743 69.6474 63.4103C69.9303 63.3463 70.1763 63.1726 70.3311 62.9272C70.4859 62.6819 70.5369 62.3852 70.4729 62.1022C70.4089 61.8193 70.2351 61.5734 69.9898 61.4185L55.2468 52.1164L56.105 43.1832L68.9591 48.9409Z" fill="black"/>
<path d="M45.3436 22.9688H25.6563C25.3662 22.9688 25.088 23.084 24.8829 23.2891C24.6778 23.4942 24.5625 23.7724 24.5625 24.0625V39.9218C24.5625 40.2119 24.6778 40.4901 24.8829 40.6952C25.088 40.9003 25.3662 41.0155 25.6563 41.0155H45.3436C45.6336 41.0155 45.9118 40.9003 46.1169 40.6952C46.3221 40.4901 46.4373 40.2119 46.4373 39.9218V24.0625C46.4373 23.7724 46.3221 23.4942 46.1169 23.2891C45.9118 23.084 45.6336 22.9688 45.3436 22.9688ZM44.2498 38.828H26.75V25.1562H44.2498L44.2498 38.828Z" fill="black"/>
<path d="M0.97187 1.99168L15.1905 11.8354C15.3734 11.962 15.5907 12.0298 15.8132 12.0298H24.0581C24.1192 11.2891 24.254 10.5563 24.4604 9.84228H16.155L2.21726 0.19298C1.97872 0.0286986 1.68476 -0.0342701 1.39985 0.0178848C1.11494 0.0700398 0.862348 0.23306 0.697469 0.471193C0.532589 0.709325 0.468884 1.00313 0.520324 1.28817C0.571765 1.5732 0.734151 1.8262 0.97187 1.99168Z" fill="black"/>
<path d="M55.1873 12.0287C55.4098 12.0287 55.627 11.9608 55.81 11.8343L70.0286 1.99056C70.2657 1.82486 70.4276 1.57195 70.4787 1.2872C70.5298 1.00245 70.4661 0.709035 70.3014 0.471181C70.1367 0.233326 69.8845 0.0703996 69.5999 0.018057C69.3154 -0.0342857 69.0217 0.0282189 68.7832 0.191891L54.8455 9.84117H46.54C46.7464 10.5552 46.8812 11.288 46.9424 12.0287L55.1873 12.0287Z" fill="black"/>
<path d="M27.2971 13.6718H43.7032C43.8513 13.6718 43.9978 13.6417 44.134 13.5834C44.2701 13.525 44.393 13.4397 44.4951 13.3324C44.5973 13.2252 44.6766 13.0983 44.7283 12.9595C44.78 12.8207 44.803 12.6729 44.7958 12.5249C44.6744 10.3476 43.7828 8.28434 42.2803 6.70382C40.7778 5.1233 38.7623 4.12848 36.5939 3.89711V1.09375C36.5939 0.803669 36.4786 0.52547 36.2735 0.320352C36.0684 0.115234 35.7902 0 35.5001 0C35.21 0 34.9318 0.115234 34.7267 0.320352C34.5216 0.52547 34.4064 0.803669 34.4064 1.09375V3.89711C32.2379 4.12848 30.2224 5.1233 28.7199 6.70382C27.2174 8.28434 26.3258 10.3476 26.2044 12.5249C26.1972 12.6729 26.2202 12.8207 26.2719 12.9595C26.3236 13.0983 26.4029 13.2252 26.5051 13.3324C26.6072 13.4397 26.7301 13.525 26.8662 13.5834C27.0024 13.6417 27.149 13.6718 27.2971 13.6718ZM35.5001 6.0156C37.1089 5.99985 38.6749 6.5331 39.9397 7.52734C41.2046 8.52159 42.0926 9.91739 42.4572 11.4844H28.543C28.9076 9.91739 29.7957 8.52159 31.0605 7.52734C32.3253 6.5331 33.8914 5.99985 35.5001 6.0156Z" fill="black"/>
<path d="M32.2766 33.791C32.4051 33.8553 32.545 33.8936 32.6883 33.9039C32.8316 33.9141 32.9755 33.8959 33.1118 33.8505C33.2481 33.8051 33.3741 33.7332 33.4826 33.6391C33.5911 33.5449 33.68 33.4303 33.7442 33.3018L34.8379 31.1143C34.9677 30.8548 34.989 30.5544 34.8973 30.2792C34.8055 30.004 34.6082 29.7765 34.3487 29.6467C34.0892 29.517 33.7889 29.4956 33.5136 29.5874C33.2384 29.6791 33.0109 29.8764 32.8812 30.1359L31.7874 32.3234C31.7231 32.4519 31.6848 32.5918 31.6746 32.7351C31.6644 32.8784 31.6826 33.0223 31.728 33.1586C31.7734 33.2948 31.8453 33.4208 31.9394 33.5293C32.0335 33.6379 32.1481 33.7268 32.2766 33.791Z" fill="black"/>
<path d="M36.6516 33.791C36.7801 33.8553 36.92 33.8937 37.0633 33.9039C37.2066 33.9141 37.3505 33.896 37.4868 33.8505C37.6231 33.8051 37.7491 33.7332 37.8576 33.6391C37.9661 33.5449 38.055 33.4303 38.1192 33.3018L39.2129 31.1143C39.3427 30.8548 39.364 30.5544 39.2723 30.2792C39.1805 30.004 38.9832 29.7765 38.7237 29.6467C38.4643 29.517 38.1639 29.4956 37.8886 29.5874C37.6134 29.6791 37.3859 29.8764 37.2562 30.1359L36.1624 32.3234C36.0982 32.4519 36.0598 32.5918 36.0496 32.7351C36.0394 32.8784 36.0576 33.0223 36.103 33.1586C36.1484 33.2948 36.2203 33.4208 36.3144 33.5294C36.4085 33.6379 36.5231 33.7268 36.6516 33.791Z" fill="black"/>
</g>
<defs>
<clipPath id="clip0_1100_19807">
<rect width="70" height="70" fill="white" transform="translate(0.5)"/>
</clipPath>
</defs>
</svg>
