<svg width="80" height="80" viewBox="0 0 80 80" fill="none" xmlns="http://www.w3.org/2000/svg">
<path d="M40.4573 69.0866C29.9581 69.0866 21.416 60.5445 21.416 50.0453C21.416 49.2564 22.0552 48.6172 22.8442 48.6172C23.633 48.6172 24.2722 49.2564 24.2722 50.0453C24.2722 58.9701 31.5327 66.2305 40.4573 66.2305C46.5755 66.2305 52.1048 62.8415 54.8861 57.3861C55.1544 56.8604 55.7141 56.5525 56.3058 56.614C56.893 56.6749 57.3819 57.0909 57.5368 57.6609L58.5331 61.3343C58.7395 62.0953 58.2899 62.8799 57.5285 63.0865C56.7685 63.2924 55.9823 62.8428 55.7763 62.0818L55.6336 61.5556C52.0719 66.2682 46.5096 69.0866 40.4573 69.0866Z" fill="black"/>
<path d="M51.72 60.7559C51.1013 60.7559 50.5312 60.3504 50.3494 59.7266C50.1286 58.9698 50.5637 58.1767 51.3211 57.9563L55.7592 56.6631C56.5157 56.4418 57.3091 56.8778 57.5294 57.6346C57.7504 58.3914 57.3152 59.1845 56.5579 59.405L52.1197 60.6983C51.9867 60.7373 51.852 60.7559 51.72 60.7559Z" fill="black"/>
<path d="M66.4198 76H13.5802C12.7912 76 12.1522 75.3608 12.1522 74.5718V35.2992H6.2016C5.4128 35.2992 4.77344 34.66 4.77344 33.8712V29.5869C4.77344 29.1258 4.99616 28.6934 5.37136 28.4251L39.1698 4.2664C39.6662 3.9112 40.3338 3.9112 40.8302 4.2664L57.1371 15.9222V13.1637C57.1371 12.3747 57.7763 11.7355 58.5653 11.7355H65.4696C66.2586 11.7355 66.8977 12.3747 66.8977 13.1637V22.899L74.6288 28.425C75.0038 28.6928 75.2265 29.1256 75.2265 29.5867V33.871C75.2265 34.6598 74.5874 35.299 73.7984 35.299H67.848V74.5718C67.848 75.3608 67.2086 76 66.4198 76ZM15.0082 73.1438H64.9917V33.871C64.9917 33.0821 65.631 32.4429 66.4198 32.4429H72.3702V30.3213L64.6393 24.7954C64.2643 24.527 64.0414 24.0947 64.0414 23.6336V14.5917H59.9933V18.6984C59.9933 19.2334 59.6944 19.7234 59.2184 19.9683C58.7419 20.2134 58.1706 20.1715 57.735 19.8602L40 7.18352L7.6296 30.3213V32.4429H13.58C14.369 32.4429 15.008 33.0821 15.008 33.871L15.0082 73.1438Z" fill="black"/>
<path d="M73.0019 76.0008H7.22976C6.4408 76.0008 5.80176 75.3617 5.80176 74.5727C5.80176 73.7837 6.44096 73.1445 7.22976 73.1445H73.0019C73.7909 73.1445 74.4301 73.7837 74.4301 74.5727C74.4299 75.3617 73.7907 76.0008 73.0019 76.0008Z" fill="black"/>
<path d="M13.582 35.3004C13.1326 35.3004 12.6898 35.0889 12.4119 34.6932C11.9586 34.0476 12.1143 33.1568 12.7596 32.7036L39.2951 14.064C39.7893 13.7168 40.4484 13.7185 40.9417 14.0678L67.2457 32.7075C67.889 33.163 68.041 34.0547 67.585 34.698C67.13 35.3414 66.2383 35.4944 65.5945 35.0374L40.1124 16.9806L14.4015 35.0411C14.1519 35.2163 13.8655 35.3004 13.582 35.3004Z" fill="black"/>
<path d="M57.7293 51.4694C56.9404 51.4694 56.3012 50.8302 56.3012 50.0413C56.3012 41.1166 49.0407 33.8562 40.1161 33.8562C33.9973 33.8562 28.4685 37.2451 25.6877 42.7C25.4199 43.2258 24.8617 43.5322 24.2681 43.4722C23.6809 43.4112 23.1917 42.9952 23.037 42.4258L22.0404 38.7528C21.834 37.9914 22.2836 37.207 23.0445 37.0002C23.8101 36.7933 24.5908 37.2438 24.797 38.0043L24.9397 38.531C28.5017 33.8186 34.0634 31 40.1161 31C50.6154 31 59.1573 39.5421 59.1573 50.0413C59.1575 50.8302 58.5183 51.4694 57.7293 51.4694Z" fill="black"/>
<path d="M24.4142 43.4824C23.7955 43.4824 23.2256 43.0769 23.0438 42.4531C22.8229 41.6958 23.2581 40.9032 24.0154 40.6829L28.4531 39.3901C29.2131 39.1675 30.003 39.6049 30.2234 40.3617C30.4442 41.119 30.009 41.9117 29.2517 42.132L24.8139 43.4248C24.6806 43.4638 24.5462 43.4824 24.4142 43.4824Z" fill="black"/>
</svg>
