<svg width="52" height="51" viewBox="0 0 52 51" fill="none" xmlns="http://www.w3.org/2000/svg">
<circle cx="26" cy="25.5" r="25.5" fill="#A5836A"/>
<path d="M19.3001 31.6995C24.9201 37.3195 32.1601 39.2095 36.7501 34.8295C37.4401 34.0395 37.4201 32.8295 36.6601 32.0695L32.7401 28.1495C31.9501 27.3595 30.6701 27.3595 29.8801 28.1495L29.2001 28.8295C28.2301 29.7995 25.8601 29.0095 23.9201 27.0695C21.9701 25.1195 21.1901 22.7595 22.1601 21.7895L22.8401 21.1095C23.6301 20.3195 23.6301 19.0395 22.8401 18.2495L18.9301 14.3395C18.1701 13.5795 16.9701 13.5595 16.1701 14.2495C11.7901 18.8395 13.6701 26.0795 19.3001 31.6995Z" fill="white"/>
</svg>
