<svg width="20" height="21" viewBox="0 0 20 21" fill="none" xmlns="http://www.w3.org/2000/svg">
<g clip-path="url(#clip0_1018_26131)">
<path d="M18.9648 13.3742L15.8118 11.5539C15.3368 11.2804 14.7727 11.2065 14.2432 11.3484C13.7138 11.4902 13.2622 11.8363 12.9876 12.3107C12.8235 12.5949 12.5356 12.9526 12.0961 13.0425C11.9095 13.0853 11.7157 13.0857 11.5289 13.0437C11.3422 13.0018 11.1671 12.9185 11.0168 12.8C9.83026 11.9094 8.32272 10.4021 7.43221 9.21546C7.31371 9.0651 7.23041 8.8901 7.18845 8.70331C7.14649 8.51653 7.14694 8.32271 7.18975 8.13612C7.27959 7.69663 7.63733 7.40878 7.92162 7.24464C8.39601 6.97003 8.7421 6.51846 8.88396 5.989C9.02583 5.45954 8.95188 4.89543 8.67834 4.42042L6.8578 1.26718C6.61217 0.836647 6.21921 0.509398 5.75134 0.345732C5.28347 0.182066 4.77222 0.193012 4.31178 0.376551L4.27358 0.391551C2.76951 0.98202 1.67022 1.43483 1.2178 1.88725C0.463537 2.64151 0.0555685 3.61042 0.00521691 4.76718C-0.0381815 5.76382 0.189358 6.88647 0.681467 8.10389C1.55647 10.2683 3.23385 12.656 5.40498 14.8271C7.57612 16.9983 9.96381 18.6758 12.1282 19.5507C13.2481 20.0032 14.2878 20.232 15.2229 20.232C15.3043 20.232 15.3851 20.2303 15.4651 20.2268C16.6217 20.1764 17.5906 19.7685 18.3449 19.0142C18.7972 18.5618 19.25 17.4625 19.8405 15.9586L19.8555 15.9204C20.0391 15.4599 20.05 14.9486 19.8864 14.4807C19.7227 14.0128 19.3954 13.6198 18.9648 13.3742ZM18.401 15.3492L18.386 15.3874C18.0995 16.1174 17.5032 17.6364 17.2399 17.9094C16.0497 19.0996 14.1216 18.6711 12.7138 18.1019C10.768 17.3154 8.50674 15.7191 6.50983 13.7222C4.51291 11.7253 2.91662 9.46401 2.1301 7.51823C1.561 6.11034 1.13248 4.18229 2.32221 2.99249C2.59565 2.72886 4.11455 2.13253 4.84455 1.84597L4.88279 1.83097C4.94344 1.80687 5.00808 1.7944 5.07334 1.79421C5.16134 1.79447 5.24768 1.81817 5.32348 1.86286C5.39928 1.90755 5.46181 1.97163 5.50463 2.0485L7.32494 5.20159C7.39174 5.3176 7.4098 5.45537 7.37515 5.58468C7.34051 5.71399 7.25599 5.82428 7.14014 5.89136C6.34576 6.34999 5.81963 7.03589 5.65869 7.823C5.57129 8.2261 5.57284 8.64341 5.66324 9.04584C5.75364 9.44828 5.93072 9.82616 6.18213 10.1532C7.16572 11.4639 8.76807 13.0662 10.0786 14.0496C10.4056 14.3011 10.7835 14.4781 11.1859 14.5685C11.5883 14.6589 12.0057 14.6605 12.4088 14.5731C13.1958 14.4121 13.8818 13.886 14.3404 13.0916C14.4079 12.9762 14.5181 12.892 14.6473 12.8574C14.7764 12.8228 14.914 12.8405 15.0302 12.9068L18.1833 14.7271C18.2894 14.7862 18.3702 14.8821 18.4104 14.9968C18.4505 15.1114 18.4472 15.2368 18.401 15.3492ZM10.3098 1.05233C10.3098 0.845132 10.3921 0.646418 10.5386 0.499905C10.6851 0.353392 10.8838 0.271082 11.091 0.271082C13.4435 0.271082 15.6996 1.20559 17.363 2.86901C19.0264 4.53244 19.9609 6.78853 19.9609 9.14096C19.9609 9.34817 19.8786 9.54688 19.7321 9.69339C19.5856 9.8399 19.3869 9.92221 19.1797 9.92221C18.9725 9.92221 18.7738 9.8399 18.6272 9.69339C18.4807 9.54688 18.3984 9.34817 18.3984 9.14096C18.3984 8.18134 18.2094 7.23112 17.8422 6.34454C17.475 5.45797 16.9367 4.65241 16.2581 3.97385C15.5796 3.2953 14.774 2.75704 13.8875 2.38981C13.0009 2.02258 12.0507 1.83358 11.091 1.83358C10.8838 1.83358 10.6851 1.75127 10.5386 1.60476C10.3921 1.45825 10.3098 1.25953 10.3098 1.05233ZM10.3098 7.38257C10.3098 7.17537 10.3921 6.97665 10.5386 6.83014C10.6851 6.68363 10.8838 6.60132 11.091 6.60132C11.7646 6.60132 12.4106 6.86889 12.8868 7.34516C13.3631 7.82144 13.6307 8.46741 13.6307 9.14096C13.6307 9.34817 13.5484 9.54688 13.4019 9.69339C13.2553 9.8399 13.0566 9.92221 12.8494 9.92221C12.6422 9.92221 12.4435 9.8399 12.297 9.69339C12.1505 9.54688 12.0682 9.34817 12.0682 9.14096C12.0682 8.88181 11.9652 8.63328 11.782 8.45003C11.5987 8.26678 11.3502 8.16383 11.091 8.16382C10.9884 8.16382 10.8869 8.14361 10.7921 8.10435C10.6973 8.06509 10.6112 8.00754 10.5386 7.93499C10.4661 7.86245 10.4085 7.77632 10.3693 7.68154C10.33 7.58675 10.3098 7.48516 10.3098 7.38257ZM10.3098 4.21749C10.3098 4.01029 10.3921 3.81157 10.5386 3.66506C10.6851 3.51855 10.8838 3.43624 11.091 3.43624C12.604 3.43626 14.055 4.0373 15.1249 5.10713C16.1947 6.17697 16.7958 7.62798 16.7958 9.14096C16.7958 9.34817 16.7135 9.54688 16.567 9.69339C16.4205 9.8399 16.2218 9.92221 16.0146 9.92221C15.8074 9.92221 15.6087 9.8399 15.4622 9.69339C15.3157 9.54688 15.2333 9.34817 15.2333 9.14096C15.2333 8.04237 14.7969 6.98878 14.0201 6.21196C13.2432 5.43514 12.1896 4.99872 11.091 4.9987C10.8838 4.9987 10.6851 4.91639 10.5386 4.76989C10.3921 4.62339 10.3098 4.42468 10.3098 4.21749Z" fill="white"/>
</g>
<defs>
<clipPath id="clip0_1018_26131">
<rect width="20" height="20" fill="white" transform="translate(0 0.230469)"/>
</clipPath>
</defs>
</svg>
