<svg width="73" height="73" viewBox="0 0 73 73" fill="none" xmlns="http://www.w3.org/2000/svg">
<g opacity="0.2">
<path d="M36.5 0C18.811 0 4.41992 14.3911 4.41992 32.0801C4.41992 34.0404 4.41992 49.2049 4.41992 49.4746C4.41992 53.0124 7.29815 55.8906 10.8359 55.8906H13.3425C14.2253 58.3798 16.6025 60.168 19.3906 60.168C22.9284 60.168 25.8066 57.2897 25.8066 53.752V36.3574C25.8066 32.8196 22.9284 29.9414 19.3906 29.9414C16.6025 29.9414 14.2253 31.7296 13.3425 34.2188H10.8359C10.0861 34.2188 9.36667 34.3492 8.69727 34.5866V32.0801C8.69727 16.7497 21.1696 4.27734 36.5 4.27734C51.8304 4.27734 64.3027 16.7497 64.3027 32.0801V34.5866C63.6333 34.3492 62.9139 34.2188 62.1641 34.2188H59.6575C58.7747 31.7296 56.3975 29.9414 53.6094 29.9414C50.0716 29.9414 47.1934 32.8196 47.1934 36.3574V53.752C47.1934 57.2897 50.0716 60.168 53.6094 60.168C54.2568 60.168 54.8819 60.0707 55.4716 59.8915C54.6716 62.5238 52.2224 64.4453 49.332 64.4453H42.5482C41.6653 61.9562 39.2881 60.168 36.5 60.168C32.9622 60.168 30.084 63.0462 30.084 66.584C30.084 70.1218 32.9622 73 36.5 73C39.2881 73 41.6653 71.2118 42.5482 68.7227H49.332C55.2283 68.7227 60.0254 63.9256 60.0254 58.0293V55.8906H62.1641C65.7019 55.8906 68.5801 53.0124 68.5801 49.4746C68.5801 49.2088 68.5801 34.0388 68.5801 32.0801C68.5801 14.3911 54.189 0 36.5 0ZM17.252 36.3574C17.252 35.1782 18.2114 34.2188 19.3906 34.2188C20.5699 34.2188 21.5293 35.1782 21.5293 36.3574V53.752C21.5293 54.9312 20.5699 55.8906 19.3906 55.8906C18.2114 55.8906 17.252 54.9312 17.252 53.752V36.3574ZM10.8359 38.4961H12.9746V51.6133H10.8359C9.65667 51.6133 8.69727 50.6539 8.69727 49.4746V40.6348C8.69727 39.4555 9.65667 38.4961 10.8359 38.4961ZM36.5 68.7227C35.3207 68.7227 34.3613 67.7632 34.3613 66.584C34.3613 65.4047 35.3207 64.4453 36.5 64.4453C37.6793 64.4453 38.6387 65.4047 38.6387 66.584C38.6387 67.7632 37.6793 68.7227 36.5 68.7227ZM55.748 53.752C55.748 54.9312 54.7886 55.8906 53.6094 55.8906C52.4301 55.8906 51.4707 54.9312 51.4707 53.752V36.3574C51.4707 35.1782 52.4301 34.2188 53.6094 34.2188C54.7886 34.2188 55.748 35.1782 55.748 36.3574V53.752ZM64.3027 49.4746C64.3027 50.6539 63.3433 51.6133 62.1641 51.6133H60.0254V38.4961H62.1641C63.3433 38.4961 64.3027 39.4555 64.3027 40.6348V49.4746Z" fill="white"/>
</g>
</svg>
