<svg width="43" height="43" viewBox="0 0 43 43" fill="none" xmlns="http://www.w3.org/2000/svg">
<path d="M34.4187 17.5895C33.7161 17.8042 32.9854 17.9129 32.2508 17.912C31.0145 17.912 28.1837 16.2099 24.2778 11.4082C23.9314 11.0125 23.5044 10.6954 23.0255 10.4781C22.5465 10.2608 22.0267 10.1484 21.5008 10.1484C20.9748 10.1484 20.455 10.2608 19.976 10.4781C19.4971 10.6954 19.0701 11.0125 18.7237 11.4082C14.8178 16.2099 11.987 17.912 10.7508 17.912C10.0161 17.9129 9.2854 17.8042 8.58284 17.5895C8.03564 17.4214 7.45491 17.3941 6.89434 17.5099C6.33377 17.6258 5.81147 17.8812 5.37575 18.2524C4.88915 18.6303 4.50819 19.1272 4.26967 19.6953C4.03115 20.2633 3.94312 20.8833 4.01409 21.4953L5.19659 30.9374C5.30626 31.8081 5.73169 32.6084 6.39219 33.1863C7.05268 33.7642 7.9023 34.0797 8.77992 34.0728H34.2574C35.135 34.0797 35.9847 33.7642 36.6451 33.1863C37.3056 32.6084 37.7311 31.8081 37.8408 30.9374L38.9874 21.4953C39.0624 20.8969 38.9851 20.2892 38.7628 19.7286C38.5404 19.168 38.1801 18.6725 37.7153 18.2882C37.271 17.9002 36.7349 17.6324 36.1579 17.5101C35.5809 17.3878 34.9821 17.4151 34.4187 17.5895Z" fill="url(#paint0_linear_1018_30307)"/>
<path d="M21.5003 8.95573C23.4793 8.95573 25.0837 7.35141 25.0837 5.37239C25.0837 3.39337 23.4793 1.78906 21.5003 1.78906C19.5213 1.78906 17.917 3.39337 17.917 5.37239C17.917 7.35141 19.5213 8.95573 21.5003 8.95573Z" fill="#FFD278"/>
<path d="M5.37532 16.1198C7.35434 16.1198 8.95866 14.5155 8.95866 12.5365C8.95866 10.5574 7.35434 8.95312 5.37532 8.95312C3.3963 8.95312 1.79199 10.5574 1.79199 12.5365C1.79199 14.5155 3.3963 16.1198 5.37532 16.1198Z" fill="#FFD278"/>
<path d="M37.6253 16.1198C39.6043 16.1198 41.2087 14.5155 41.2087 12.5365C41.2087 10.5574 39.6043 8.95312 37.6253 8.95312C35.6463 8.95312 34.042 10.5574 34.042 12.5365C34.042 14.5155 35.6463 16.1198 37.6253 16.1198Z" fill="#FFD278"/>
<path d="M34.042 39.4115H8.95866C8.48348 39.4115 8.02776 39.2227 7.69176 38.8867C7.35576 38.5507 7.16699 38.095 7.16699 37.6198C7.16699 37.1446 7.35576 36.6889 7.69176 36.3529C8.02776 36.0169 8.48348 35.8281 8.95866 35.8281H34.042C34.5172 35.8281 34.9729 36.0169 35.3089 36.3529C35.6449 36.6889 35.8337 37.1446 35.8337 37.6198C35.8337 38.095 35.6449 38.5507 35.3089 38.8867C34.9729 39.2227 34.5172 39.4115 34.042 39.4115Z" fill="url(#paint1_linear_1018_30307)"/>
<defs>
<linearGradient id="paint0_linear_1018_30307" x1="19.4034" y1="16.2506" x2="31.9888" y2="33.5555" gradientUnits="userSpaceOnUse">
<stop stop-color="#FFD671"/>
<stop offset="1" stop-color="#FFE29A"/>
</linearGradient>
<linearGradient id="paint1_linear_1018_30307" x1="7.16699" y1="37.6198" x2="35.8337" y2="37.6198" gradientUnits="userSpaceOnUse">
<stop stop-color="#F8C683"/>
<stop offset="1" stop-color="#EAB36B"/>
</linearGradient>
</defs>
</svg>
