<svg width="99" height="113" viewBox="0 0 99 113" fill="none" xmlns="http://www.w3.org/2000/svg">
<path d="M65.8046 0.796123C64.7778 -0.2306 62.9801 -0.23244 61.9516 0.796123L48.5545 14.1932C48.0402 14.7075 47.7578 15.392 47.7578 16.1206C47.7578 16.5291 47.8553 16.9192 48.0237 17.278L37.601 27.7007C36.5936 27.2526 35.3276 27.421 34.5263 28.2223L21.1292 41.6175C20.615 42.1318 20.3325 42.8163 20.3325 43.544C20.3325 44.2718 20.6159 44.9571 21.1292 45.4714L30.0606 54.4028C30.5749 54.9171 31.2594 55.1995 31.988 55.1995C32.7167 55.1995 33.4002 54.9162 33.9145 54.4028L74.7359 13.5814C75.2502 13.0671 75.5327 12.3826 75.5327 11.6549C75.5327 10.9272 75.2493 10.2418 74.7359 9.72751L65.8046 0.796123ZM49.4129 23.5367C49.3052 22.8964 49.043 22.3058 48.583 21.8458C48.1212 21.3849 47.5287 21.1227 46.8865 21.0159L49.2059 18.6966L51.102 20.5863C51.4534 20.9433 51.4562 21.4943 51.1066 21.843L49.4129 23.5367ZM42.1789 28.2499C42.6242 28.6952 43.2038 28.9841 43.8496 29.0991L42.1752 30.7735C41.833 31.1176 41.269 31.1148 40.9249 30.7735L39.0297 28.8718L41.3481 26.5534C41.4549 27.1956 41.7171 27.7881 42.1789 28.249V28.2499ZM46.6013 26.3483C46.0742 26.8598 45.4228 27.2057 44.8 27.2949C44.4853 27.3391 43.8873 27.3557 43.4798 26.949C42.7953 26.2645 43.0879 24.8155 44.1173 23.7851C44.7696 23.1329 45.5903 22.7759 46.2784 22.7759C46.6768 22.7759 47.0301 22.8955 47.2821 23.1467C47.9574 23.8219 47.6796 25.2387 46.6832 26.2664L46.6013 26.3483ZM73.4351 12.2805L32.6136 53.1019C32.2815 53.435 31.6945 53.4331 31.3624 53.1019L22.431 44.1705C22.2645 44.004 22.1734 43.7814 22.1734 43.544C22.1734 43.3067 22.2654 43.0849 22.431 42.9184L35.8281 29.5214C35.9946 29.3548 36.2173 29.2638 36.4546 29.2638C36.692 29.2638 36.9146 29.3558 37.0802 29.5204L39.6287 32.0771C40.6949 33.1333 42.4236 33.1305 43.4798 32.0734L52.4102 23.1439C53.4664 22.0887 53.4682 20.3609 52.4102 19.2882L49.8591 16.7453C49.6926 16.5788 49.6015 16.3561 49.6015 16.1188C49.6015 15.8814 49.6935 15.6588 49.8591 15.4922L63.2561 2.09517C63.5892 1.76305 64.1762 1.76305 64.5074 2.09517L73.4387 11.0265C73.6053 11.1931 73.6963 11.4157 73.6963 11.6531C73.6963 11.8904 73.6043 12.1122 73.4387 12.2787L73.4351 12.2805Z" fill="#584439"/>
<path d="M28.145 39.7072C26.0272 41.825 26.0272 45.2695 28.145 47.3874C29.203 48.4454 30.5941 48.9762 31.9851 48.9762C33.3762 48.9762 34.7663 48.4463 35.8252 47.3874C37.9431 45.2695 37.9431 41.825 35.8252 39.7072C33.7074 37.5893 30.262 37.5903 28.145 39.7072ZM29.4459 41.0081C29.9096 40.5444 30.4726 40.2491 31.0651 40.0927V47.001C30.4726 46.8446 29.9096 46.5492 29.4459 46.0856C28.0466 44.6862 28.0466 42.4083 29.4459 41.0081ZM34.5243 46.0865C34.0606 46.5502 33.4976 46.8446 32.9051 47.0019V40.0936C33.4976 40.25 34.0606 40.5453 34.5243 41.009C35.9236 42.4083 35.9236 44.6862 34.5243 46.0865Z" fill="#584439"/>
<path d="M63.8787 6.21875C62.426 6.21875 61.0616 6.78547 60.0386 7.81403C57.9207 9.93096 57.9207 13.3764 60.0386 15.4933C61.0966 16.5513 62.4876 17.0812 63.8777 17.0812C65.2679 17.0812 66.6571 16.5531 67.716 15.4951C68.7464 14.4703 69.3131 13.1059 69.3131 11.6532C69.3131 10.2005 68.7464 8.83708 67.7197 7.81587C66.6948 6.78547 65.3304 6.21875 63.8787 6.21875ZM63.8787 8.05875C64.8373 8.05875 65.738 8.4332 66.4188 9.11676C66.8742 9.5694 67.1778 10.1278 67.3388 10.7314H60.4259C60.5832 10.1398 60.8785 9.57676 61.3413 9.11308C62.0175 8.4332 62.9191 8.05875 63.8787 8.05875ZM66.417 14.1924C65.0176 15.5917 62.7406 15.5927 61.3395 14.1924C60.8758 13.7287 60.5805 13.1648 60.4241 12.5714H67.3397C67.1796 13.1767 66.8751 13.737 66.4188 14.1906L66.417 14.1924Z" fill="#584439"/>
<path d="M35.5293 72.9746C35.5234 73.6367 35.7548 74.2842 36.2236 74.917C36.6982 75.5498 37.3603 76.0947 38.2099 76.5518C39.0595 77.0029 40.0293 77.3047 41.1191 77.457L40.3281 79.0566C38.998 78.8398 37.8203 78.4209 36.7949 77.7998C35.7754 77.1729 35.0048 76.4053 34.4834 75.4971C33.9677 76.4053 33.1972 77.1729 32.1718 77.7998C31.1464 78.4209 29.9629 78.8398 28.6211 79.0566L27.83 77.457C28.9316 77.3047 29.9072 77.0029 30.7568 76.5518C31.6064 76.1006 32.2656 75.5586 32.7343 74.9258C33.2031 74.293 33.4375 73.6426 33.4375 72.9746V72.166H35.5293V72.9746ZM41.7168 82.0273H35.4062V87.5469H33.4375V82.0273H27.2324V80.4102H41.7168V82.0273ZM51.1084 74.3633H49.7197V78.8721C50.3525 78.8252 50.915 78.7695 51.4072 78.7051V77.2637H53.5693V75.9277H51.4072V74.3281H53.5693V71.6914H55.5557V81.4121H53.5693V78.8457H51.4336L51.5303 80.1465C50.2646 80.3574 48.917 80.501 47.4873 80.5771C46.0635 80.6533 44.5635 80.6914 42.9873 80.6914H42.46L42.2666 79.0742H44.0596V74.3633H42.6709V72.7812H51.1084V74.3633ZM50.1943 81.6934C51.3135 81.6934 52.2803 81.8076 53.0947 82.0361C53.9092 82.2646 54.5303 82.5986 54.958 83.0381C55.3916 83.4775 55.6084 84.002 55.6084 84.6113C55.6084 85.2207 55.3916 85.7451 54.958 86.1846C54.5244 86.6299 53.9004 86.9668 53.0859 87.1953C52.2715 87.4297 51.3076 87.5469 50.1943 87.5469C49.0693 87.5469 48.0996 87.4297 47.2852 87.1953C46.4707 86.9668 45.8467 86.6328 45.4131 86.1934C44.9795 85.7539 44.7627 85.2266 44.7627 84.6113C44.7627 83.9961 44.9766 83.4717 45.4043 83.0381C45.8379 82.5986 46.4619 82.2646 47.2764 82.0361C48.0967 81.8076 49.0693 81.6934 50.1943 81.6934ZM50.1943 83.2051C49.0693 83.2051 48.208 83.3252 47.6104 83.5654C47.0186 83.8057 46.7256 84.1543 46.7314 84.6113C46.7314 85.0684 47.0244 85.4199 47.6104 85.666C48.1963 85.9121 49.04 86.0352 50.1416 86.0352C51.2783 86.0352 52.1455 85.915 52.7432 85.6748C53.3467 85.4287 53.6514 85.0742 53.6572 84.6113C53.6514 84.1543 53.3496 83.8057 52.752 83.5654C52.1602 83.3252 51.3076 83.2051 50.1943 83.2051ZM45.9756 79.0479C46.8193 79.0244 47.4346 79.0039 47.8213 78.9863V74.3633H45.9756V79.0479ZM70.9766 87.5469H69.0957V71.6738H70.9766V87.5469ZM67.6719 86.8086H65.8262V81.5H63.3477V79.918H65.8262V77.5273H63.6289C63.2481 78.8984 62.6182 80.1406 61.7393 81.2539C60.8604 82.3672 59.6914 83.3516 58.2325 84.207L57.1075 82.8184C58.7129 81.8574 59.92 80.7529 60.7286 79.5049C61.543 78.2568 62.0235 76.8184 62.17 75.1895H57.9512V73.5898H64.1211C64.1211 74.4043 64.0684 75.1953 63.9629 75.9629H65.8262V72.043H67.6719V86.8086ZM12.2083 97.5391C12.2083 98.1725 12.3997 98.79 12.7825 99.3916C13.1654 99.9932 13.694 100.51 14.3685 100.943C15.043 101.372 15.7995 101.659 16.638 101.805L15.9681 103.09C14.9336 102.876 14.013 102.475 13.2064 101.887C12.3997 101.294 11.7936 100.583 11.388 99.7539C10.9779 100.583 10.3695 101.294 9.56281 101.887C8.76073 102.479 7.84699 102.88 6.8216 103.09L6.15168 101.805C6.98566 101.654 7.7399 101.363 8.41438 100.93C9.08885 100.492 9.61522 99.9749 9.99348 99.3779C10.3763 98.7764 10.5677 98.1634 10.5677 97.5391V96.623H12.2083V97.5391ZM17.0892 106.645H5.80988V105.387H17.0892V106.645ZM23.7649 105.154H17.9133V97.0469H23.7649V105.154ZM19.4172 103.938H22.2473V98.2637H19.4172V103.938ZM27.1692 100.615H29.0696V101.887H27.1692V108.203H25.6243V95.8711H27.1692V100.615ZM39.2179 103.555H30.5226V96.8145H39.1086V98.0586H32.0949V99.5488H38.8351V100.752H32.0949V102.324H39.2179V103.555ZM40.4484 106.74H29.1691V105.482H40.4484V106.74ZM51.0753 97.5801H49.38V99.9316H50.9932V101.135H47.2198V102.393H52.1007V103.623H40.835V102.393H45.6886V101.135H41.9151V99.9316H43.5421V97.5801H41.8468V96.3633H51.0753V97.5801ZM50.8429 107.971H42.2296V104.512H43.7745V106.727H50.8429V107.971ZM47.835 99.9316V97.5801H45.087V99.9316H47.835ZM58.4384 96.541C58.9853 96.541 59.4752 96.6595 59.9081 96.8965C60.3411 97.1335 60.6783 97.4684 60.9198 97.9014C61.1614 98.3298 61.2822 98.8197 61.2822 99.3711C61.2822 99.9225 61.1614 100.415 60.9198 100.848C60.6783 101.276 60.3411 101.609 59.9081 101.846C59.4752 102.083 58.9853 102.201 58.4384 102.201C57.8961 102.201 57.4085 102.083 56.9755 101.846C56.5471 101.609 56.2122 101.276 55.9706 100.848C55.7291 100.415 55.6083 99.9225 55.6083 99.3711C55.6083 98.8197 55.7291 98.3298 55.9706 97.9014C56.2122 97.4684 56.5471 97.1335 56.9755 96.8965C57.4085 96.6595 57.8961 96.541 58.4384 96.541ZM58.4384 97.7852C58.1558 97.7852 57.9052 97.8512 57.6864 97.9834C57.4677 98.111 57.2968 98.2956 57.1738 98.5371C57.0507 98.7741 56.9892 99.0521 56.9892 99.3711C56.9892 99.6947 57.0507 99.9772 57.1738 100.219C57.2968 100.456 57.4677 100.638 57.6864 100.766C57.9052 100.893 58.1558 100.957 58.4384 100.957C58.721 100.957 58.9716 100.893 59.1904 100.766C59.4137 100.638 59.5868 100.456 59.7099 100.219C59.8375 99.9772 59.9013 99.6947 59.9013 99.3711C59.9013 99.0521 59.8375 98.7741 59.7099 98.5371C59.5868 98.2956 59.4137 98.111 59.1904 97.9834C58.9716 97.8512 58.721 97.7852 58.4384 97.7852ZM66.1083 102.584H64.6454V99.7812H63.4423V102.502H61.9931V96.1035H63.4423V98.5371H64.6454V95.8711H66.1083V102.584ZM59.2724 104.348H64.6044V103.117H66.1083V108.066H57.7548V103.117H59.2724V104.348ZM64.6044 106.822V105.537H59.2724V106.822H64.6044ZM79.9109 100.684H81.7429V101.955H79.9109V108.189H78.366V95.8574H79.9109V100.684ZM76.6296 97.1426C76.6388 101.185 74.7748 104.133 71.0378 105.988L70.1765 104.826C71.6668 104.07 72.8175 103.163 73.6287 102.105C74.4399 101.048 74.9207 99.8132 75.0711 98.4004H70.8191V97.1426H76.6296ZM91.905 100.301H83.3737V96.0898H84.905V99.0703H91.905V100.301ZM93.1764 102.721H81.9108V101.49H93.1764V102.721ZM87.5163 103.623C88.405 103.623 89.1706 103.712 89.8132 103.89C90.4557 104.067 90.9479 104.327 91.2897 104.669C91.6361 105.006 91.8093 105.414 91.8093 105.893C91.8093 106.371 91.6361 106.781 91.2897 107.123C90.9479 107.465 90.4557 107.725 89.8132 107.902C89.1706 108.085 88.405 108.176 87.5163 108.176C86.6276 108.176 85.8597 108.085 85.2126 107.902C84.5654 107.725 84.0687 107.465 83.7223 107.123C83.3805 106.781 83.2096 106.371 83.2096 105.893C83.2096 105.414 83.3805 105.006 83.7223 104.669C84.0687 104.327 84.5654 104.067 85.2126 103.89C85.8597 103.712 86.6276 103.623 87.5163 103.623ZM87.4616 104.812C86.582 104.812 85.9121 104.904 85.4518 105.086C84.9961 105.268 84.7682 105.537 84.7682 105.893C84.7637 106.253 84.9961 106.526 85.4655 106.713C85.9395 106.895 86.6231 106.986 87.5163 106.986C88.405 106.986 89.084 106.895 89.5534 106.713C90.0228 106.526 90.2598 106.253 90.2643 105.893C90.2598 105.533 90.0205 105.264 89.5466 105.086C89.0726 104.904 88.3776 104.812 87.4616 104.812Z" fill="#584439"/>
</svg>
