<svg width="100" height="119" viewBox="0 0 100 119" fill="none" xmlns="http://www.w3.org/2000/svg">
<path d="M73.625 31.5H62.25V21.875C62.25 15.4963 53.7944 10.5 43 10.5C32.2056 10.5 23.75 15.4963 23.75 21.875V34.125C23.75 40.5037 32.2056 45.5 43 45.5H73.625C74.321 45.4992 74.9882 45.2224 75.4803 44.7303C75.9724 44.2382 76.2492 43.571 76.25 42.875V34.125C76.2492 33.429 75.9724 32.7618 75.4803 32.2697C74.9882 31.7776 74.321 31.5008 73.625 31.5ZM60.5 31.5H53.3638C56.1433 30.5792 58.6134 28.9064 60.5 26.6671V31.5ZM43 12.25C52.6494 12.25 60.5 16.5677 60.5 21.875C60.5 27.1823 52.6494 31.5 43 31.5C33.3506 31.5 25.5 27.1823 25.5 21.875C25.5 16.5677 33.3506 12.25 43 12.25ZM41.25 43.7012V37.625C41.25 37.3929 41.1578 37.1704 40.9937 37.0063C40.8296 36.8422 40.6071 36.75 40.375 36.75C40.1429 36.75 39.9204 36.8422 39.7563 37.0063C39.5922 37.1704 39.5 37.3929 39.5 37.625V43.556C38.3216 43.4241 37.1527 43.2186 36 42.9407V40.25C36 40.0179 35.9078 39.7954 35.7437 39.6313C35.5796 39.4672 35.3571 39.375 35.125 39.375C34.8929 39.375 34.6704 39.4672 34.5063 39.6313C34.3422 39.7954 34.25 40.0179 34.25 40.25V42.4477C33.0407 42.0698 31.8691 41.5809 30.75 40.9869V35C30.75 34.7679 30.6578 34.5454 30.4937 34.3813C30.3296 34.2172 30.1071 34.125 29.875 34.125C29.6429 34.125 29.4204 34.2172 29.2563 34.3813C29.0922 34.5454 29 34.7679 29 35V39.8755C26.8127 38.2688 25.5 36.2821 25.5 34.125V26.6671C28.5095 30.5836 35.1234 33.25 43 33.25H66.6474C66.0686 34.003 65.7533 34.9253 65.75 35.875V41.125C65.7533 42.0747 66.0686 42.997 66.6474 43.75H62.25V37.625C62.25 37.3929 62.1578 37.1704 61.9937 37.0063C61.8296 36.8422 61.6071 36.75 61.375 36.75C61.1429 36.75 60.9204 36.8422 60.7563 37.0063C60.5922 37.1704 60.5 37.3929 60.5 37.625V43.75H57V41.125C57 40.8929 56.9078 40.6704 56.7437 40.5063C56.5796 40.3422 56.3571 40.25 56.125 40.25C55.8929 40.25 55.6704 40.3422 55.5063 40.5063C55.3422 40.6704 55.25 40.8929 55.25 41.125V43.75H51.75V37.625C51.75 37.3929 51.6578 37.1704 51.4937 37.0063C51.3296 36.8422 51.1071 36.75 50.875 36.75C50.6429 36.75 50.4204 36.8422 50.2563 37.0063C50.0922 37.1704 50 37.3929 50 37.625V43.75H46.5V41.125C46.5 40.8929 46.4078 40.6704 46.2437 40.5063C46.0796 40.3422 45.8571 40.25 45.625 40.25C45.3929 40.25 45.1704 40.3422 45.0063 40.5063C44.8422 40.6704 44.75 40.8929 44.75 41.125V43.75H43C42.4093 43.75 41.8259 43.7337 41.25 43.7012ZM74.5 42.875C74.4998 43.107 74.4075 43.3294 74.2435 43.4935C74.0794 43.6575 73.857 43.7498 73.625 43.75H70.125C69.429 43.7492 68.7618 43.4724 68.2697 42.9803C67.7776 42.4882 67.5008 41.821 67.5 41.125V35.875C67.5008 35.179 67.7776 34.5118 68.2697 34.0197C68.7618 33.5276 69.429 33.2508 70.125 33.25H73.625C73.857 33.2502 74.0794 33.3425 74.2435 33.5065C74.4075 33.6706 74.4998 33.893 74.5 34.125V42.875ZM43 27.125C48.9861 27.125 53.5 24.8683 53.5 21.875C53.5 18.8817 48.9861 16.625 43 16.625C37.0139 16.625 32.5 18.8817 32.5 21.875C32.5 24.8683 37.0139 27.125 43 27.125ZM43 18.375C48.0082 18.375 51.75 20.2224 51.75 21.875C51.75 23.5276 48.0082 25.375 43 25.375C37.9918 25.375 34.25 23.5276 34.25 21.875C34.25 20.2224 37.9918 18.375 43 18.375ZM71 36.75V40.25C71 40.4821 70.9078 40.7046 70.7437 40.8687C70.5796 41.0328 70.3571 41.125 70.125 41.125C69.8929 41.125 69.6704 41.0328 69.5063 40.8687C69.3422 40.7046 69.25 40.4821 69.25 40.25V36.75C69.25 36.5179 69.3422 36.2954 69.5063 36.1313C69.6704 35.9672 69.8929 35.875 70.125 35.875C70.3571 35.875 70.5796 35.9672 70.7437 36.1313C70.9078 36.2954 71 36.5179 71 36.75Z" fill="#584439"/>
<path d="M48.8144 85.6543H42.5565V86.8496H47.0214V90.7871H38.0038V91.9297H47.4608V93.4238H36.0526V89.416H45.0702V88.3262H36.0175V86.8496H40.5878V85.6543H34.33V84.0898H48.8144V85.6543ZM47.5136 79.6953H42.8466C42.9931 80.082 43.2978 80.4424 43.7607 80.7764C44.2235 81.1045 44.8271 81.3828 45.5712 81.6113C46.3153 81.834 47.1679 81.9805 48.1288 82.0508L47.5136 83.5449C46.1015 83.4336 44.8798 83.1494 43.8485 82.6924C42.8232 82.2354 42.0673 81.6523 41.581 80.9434C41.0946 81.6523 40.3358 82.2354 39.3046 82.6924C38.2792 83.1494 37.0605 83.4336 35.6483 83.5449L35.0331 82.0508C35.9823 81.9805 36.829 81.834 37.5732 81.6113C38.3232 81.3828 38.9296 81.1045 39.3925 80.7764C39.8612 80.4424 40.1689 80.082 40.3153 79.6953H35.6659V78.1484H47.5136V79.6953ZM55.0419 82.1738C55.0419 83 55.2031 83.835 55.5253 84.6787C55.8476 85.5225 56.3105 86.293 56.914 86.9902C57.5175 87.6816 58.2236 88.2148 59.0322 88.5898L57.9248 90.1543C57.0517 89.75 56.2871 89.1494 55.6308 88.3525C54.9746 87.5557 54.4619 86.6445 54.0927 85.6191C53.7236 86.7383 53.2021 87.7314 52.5283 88.5986C51.8544 89.4658 51.0693 90.1133 50.1728 90.541L49.0478 88.9766C49.8564 88.5957 50.5654 88.0391 51.1748 87.3066C51.7841 86.5742 52.2529 85.7568 52.581 84.8545C52.915 83.9521 53.0849 83.0586 53.0908 82.1738V80.873H49.6455V79.2383H58.3642V80.873H55.0419V82.1738ZM61.8095 83.8613H64.2529V85.4961H61.8095V93.5469H59.8232V77.6914H61.8095V83.8613ZM30.068 113.191C29.1565 113.191 28.3795 112.979 27.7369 112.556C27.0943 112.127 26.6135 111.514 26.2945 110.717L27.9078 110.156C28.1174 110.658 28.4 111.034 28.7555 111.284C29.1155 111.535 29.5439 111.66 30.0406 111.66C30.4234 111.66 30.7652 111.592 31.066 111.455C31.3713 111.318 31.6083 111.129 31.7769 110.888C31.9501 110.646 32.0367 110.375 32.0367 110.074C32.0367 109.751 31.9342 109.47 31.7291 109.233C31.5286 108.996 31.2415 108.816 30.8678 108.693C30.4986 108.566 30.0588 108.502 29.5484 108.502H29.2203V107.135H29.5484C30.2183 107.13 30.7424 107.012 31.1207 106.779C31.4989 106.542 31.6904 106.214 31.6949 105.795C31.6949 105.535 31.622 105.303 31.4762 105.098C31.3349 104.893 31.1366 104.733 30.8814 104.619C30.6308 104.501 30.3459 104.441 30.0269 104.441C29.594 104.441 29.218 104.551 28.899 104.77C28.58 104.988 28.3362 105.307 28.1676 105.727L26.5543 105.18C26.8505 104.446 27.3017 103.885 27.9078 103.498C28.5139 103.106 29.2294 102.91 30.0543 102.91C30.6969 102.91 31.2756 103.026 31.7906 103.259C32.3056 103.491 32.7066 103.812 32.9937 104.223C33.2854 104.633 33.4312 105.093 33.4312 105.604C33.4358 106.132 33.2763 106.583 32.9527 106.957C32.6337 107.326 32.1734 107.604 31.5719 107.791V107.825C32.2828 108.03 32.8297 108.345 33.2125 108.769C33.5999 109.192 33.7913 109.701 33.7867 110.293C33.7867 110.844 33.6272 111.341 33.3082 111.783C32.9892 112.225 32.5448 112.572 31.9752 112.822C31.4101 113.068 30.7743 113.191 30.068 113.191ZM34.8706 105.945H36.5386V106.984H36.5864C36.7642 106.602 37.0262 106.301 37.3726 106.082C37.7235 105.863 38.1291 105.754 38.5894 105.754C39.0952 105.754 39.5259 105.884 39.8814 106.144C40.2368 106.399 40.5034 106.766 40.6812 107.244H40.7222C40.8726 106.784 41.1392 106.422 41.522 106.157C41.9093 105.888 42.3674 105.754 42.896 105.754C43.3973 105.754 43.828 105.875 44.188 106.116C44.5526 106.358 44.8283 106.706 45.0151 107.162C45.2065 107.613 45.3023 108.151 45.3023 108.775V113H43.6206V109.049C43.6252 108.493 43.5181 108.064 43.2993 107.764C43.0851 107.458 42.7821 107.303 42.3901 107.299C42.1213 107.303 41.8752 107.379 41.6519 107.524C41.4331 107.666 41.2577 107.887 41.1255 108.188C40.9933 108.484 40.9273 108.853 40.9273 109.295V113H39.2456V109.049C39.2456 108.493 39.1362 108.064 38.9175 107.764C38.7033 107.458 38.398 107.303 38.0015 107.299C37.7326 107.303 37.4888 107.381 37.27 107.531C37.0513 107.677 36.8735 107.903 36.7368 108.208C36.6047 108.509 36.5386 108.885 36.5386 109.336V113H34.8706V105.945ZM59.433 114.23H57.9017V101.857H59.433V114.23ZM52.7747 102.746C53.3991 102.746 53.9551 102.926 54.4427 103.286C54.9349 103.646 55.32 104.157 55.598 104.817C55.876 105.478 56.015 106.246 56.015 107.121C56.015 107.996 55.876 108.764 55.598 109.425C55.32 110.086 54.9349 110.596 54.4427 110.956C53.9551 111.316 53.3991 111.496 52.7747 111.496C52.155 111.496 51.6012 111.316 51.1136 110.956C50.626 110.596 50.2432 110.086 49.9652 109.425C49.6872 108.764 49.5482 107.996 49.5482 107.121C49.5482 106.251 49.6872 105.485 49.9652 104.824C50.2432 104.163 50.626 103.653 51.1136 103.293C51.6012 102.928 52.155 102.746 52.7747 102.746ZM52.7747 104.141C52.4284 104.145 52.1231 104.266 51.8587 104.503C51.599 104.735 51.3939 105.075 51.2435 105.521C51.0977 105.968 51.0247 106.501 51.0247 107.121C51.0247 107.741 51.0977 108.276 51.2435 108.728C51.3939 109.174 51.599 109.516 51.8587 109.753C52.1231 109.99 52.4284 110.111 52.7747 110.115C53.1257 110.111 53.4333 109.99 53.6976 109.753C53.9619 109.516 54.167 109.174 54.3128 108.728C54.4632 108.276 54.5384 107.741 54.5384 107.121C54.5384 106.501 54.4632 105.968 54.3128 105.521C54.167 105.075 53.9619 104.735 53.6976 104.503C53.4333 104.266 53.1257 104.145 52.7747 104.141ZM65.2337 103.812C65.2337 104.337 65.343 104.838 65.5618 105.316C65.7851 105.795 66.1132 106.219 66.5462 106.588C66.9791 106.957 67.5032 107.24 68.1184 107.436L67.3118 108.639C66.6601 108.415 66.095 108.09 65.6165 107.661C65.138 107.228 64.7597 106.72 64.4817 106.137C64.2083 106.802 63.8186 107.381 63.3128 107.873C62.8115 108.365 62.2076 108.739 61.5012 108.994L60.6946 107.777C61.3417 107.554 61.8886 107.235 62.3352 106.82C62.7864 106.401 63.1236 105.923 63.3469 105.385C63.5702 104.847 63.6842 104.282 63.6887 103.689V102.514H65.2337V103.812ZM70.5794 104.838H72.3157V106.109H70.5794V109.227H69.0481V101.871H70.5794V104.838ZM66.5598 109.527C67.412 109.527 68.1503 109.621 68.7747 109.808C69.399 109.99 69.8775 110.259 70.2102 110.614C70.5475 110.965 70.7161 111.382 70.7161 111.865C70.7161 112.348 70.5497 112.765 70.2171 113.116C69.8844 113.472 69.4036 113.741 68.7747 113.923C68.1503 114.11 67.412 114.203 66.5598 114.203C65.7031 114.203 64.9602 114.11 64.3313 113.923C63.707 113.741 63.2262 113.472 62.8889 113.116C62.5562 112.765 62.3899 112.348 62.3899 111.865C62.3899 111.382 62.5562 110.965 62.8889 110.614C63.2262 110.259 63.7092 109.99 64.3382 109.808C64.9671 109.621 65.7076 109.527 66.5598 109.527ZM66.5598 110.73C65.7076 110.73 65.0514 110.826 64.5911 111.018C64.1354 111.209 63.9075 111.492 63.9075 111.865C63.9075 112.234 64.1354 112.517 64.5911 112.713C65.0514 112.904 65.7076 113 66.5598 113C67.412 113 68.066 112.904 68.5217 112.713C68.9775 112.517 69.2076 112.234 69.2122 111.865C69.2076 111.492 68.9752 111.209 68.5149 111.018C68.0592 110.826 67.4075 110.73 66.5598 110.73Z" fill="#584439"/>
</svg>
