<svg width="100" height="119" viewBox="0 0 100 119" fill="none" xmlns="http://www.w3.org/2000/svg">
<path d="M77.0008 1.79565L72.3089 2.9669C72.1534 3.00577 72.0109 3.0861 71.8977 3.19969L58.7939 16.3035C58.7897 16.3076 58.7839 16.3087 58.7798 16.3129C58.7756 16.317 58.7745 16.3227 58.7704 16.327L56.3793 18.7181C56.375 18.7222 56.3693 18.7233 56.3651 18.7275C56.361 18.7317 56.3598 18.7374 56.3557 18.7416L51.9135 23.1839L50.6293 21.8979C50.064 21.3326 49.3112 21.0204 48.5101 21.0186C48.5075 21.0186 48.5053 21.0186 48.5032 21.0186C47.7008 21.0186 46.9467 21.3304 46.3796 21.8979L45.9542 22.3229C45.385 22.8921 45.0728 23.6488 45.0745 24.4538C45.0762 25.0623 45.2567 25.6428 45.591 26.1342C45.2978 26.8598 44.4016 28.3917 42.006 28.6422C42.0008 28.6426 41.9956 28.6426 41.9904 28.6426C40.4128 28.7013 38.9625 29.315 37.9061 30.3714L26.9269 41.3507C25.8096 42.4675 25.1951 43.9985 25.1968 45.6608C25.1985 47.5853 26.0307 49.5171 27.4762 50.9566L28.9002 52.3904C30.2446 53.7348 31.973 54.5399 33.7674 54.6573C33.9199 54.6673 34.0715 54.6725 34.2218 54.6725C35.8815 54.6725 37.3935 54.0665 38.5181 52.9419L49.4974 41.9627C50.5231 40.9374 51.1122 39.6011 51.2033 38.096C51.2171 37.9971 51.2163 37.9224 51.2128 37.9216C51.4512 35.4771 53.0064 34.5702 53.7333 34.2773C54.2252 34.6121 54.806 34.7926 55.415 34.7943H55.4219C56.2243 34.7943 56.9784 34.4821 57.5455 33.9146L57.97 33.49C58.5345 32.9307 58.8467 32.1836 58.8493 31.3859C58.8515 30.577 58.5362 29.8147 57.9631 29.2416L56.6867 27.9635L58.7058 25.9444C58.716 25.9351 58.7293 25.9321 58.7392 25.9222C58.7491 25.9123 58.7521 25.899 58.7614 25.8888L61.1383 23.5118C61.1402 23.5099 61.1429 23.5094 61.1448 23.5076C61.1466 23.5057 61.1471 23.503 61.149 23.5011L63.553 21.0972C63.5549 21.0953 63.5575 21.0948 63.5594 21.0929C63.5613 21.091 63.5618 21.0884 63.5637 21.0865L76.6743 7.97585C76.7879 7.86226 76.8686 7.71974 76.9075 7.5634L78.0736 2.86671C78.1483 2.56569 78.0598 2.24739 77.8399 2.028C77.6197 1.80903 77.3014 1.72093 77.0008 1.79565ZM33.8832 52.8922C32.5171 52.8028 31.1917 52.1805 30.153 51.1418L28.7278 49.7067C27.6093 48.5924 26.9671 47.1176 26.9658 45.6591C26.9648 44.7915 27.1992 43.9819 27.6272 43.3017L36.5721 52.2466C35.8077 52.7314 34.8814 52.9599 33.8832 52.8922ZM32.2312 45.4039L40.8213 36.8133C41.4372 36.1971 42.4396 36.1979 43.0555 36.8133C43.6713 37.4292 43.6713 38.4312 43.0555 39.047L34.4649 47.6376L32.2312 45.4039ZM57.0803 31.3812C57.079 31.7051 56.9525 32.0087 56.7236 32.235C56.7223 32.2358 56.7214 32.2371 56.7201 32.2384L56.2947 32.6638C55.8128 33.1458 55.0285 33.1458 54.5465 32.6638C54.3344 32.4527 54.0304 32.362 53.7384 32.4237C52.4082 32.7044 49.8001 34.1784 49.4563 37.8222C49.4473 37.8654 49.4417 37.909 49.4395 37.9531C49.3821 39.0349 48.9696 39.989 48.2467 40.7119L37.8928 51.0658L35.7154 48.8885L44.3062 40.2978C45.6118 38.9922 45.6118 36.8682 44.3062 35.5626C43.0006 34.2566 40.8753 34.2566 39.5706 35.5626L30.9803 44.1534L28.803 41.976L39.1569 31.6221C39.8932 30.8862 40.9168 30.4565 42.0405 30.4112C42.0734 30.4107 42.1058 30.409 42.1381 30.4051L42.1386 30.4068C45.6942 30.0583 47.1644 27.4571 47.4451 26.1304C47.5068 25.8375 47.4166 25.5331 47.205 25.3214C46.9726 25.0895 46.8443 24.7799 46.8435 24.4495C46.843 24.1187 46.9713 23.8077 47.205 23.5741L47.6304 23.1487C47.8636 22.9159 48.1732 22.7876 48.5032 22.7876H48.5062C48.8362 22.788 49.1458 22.9163 49.3782 23.1487L56.7106 30.4906C56.9499 30.7299 57.0812 31.046 57.0803 31.3812ZM60.5183 21.6303L58.2436 19.3553L59.4076 18.1914L61.6822 20.4664L60.5183 21.6303ZM58.1081 24.0404L55.8333 21.7656L56.9929 20.606L59.2676 22.8811L58.1081 24.0404ZM54.5826 23.0163L56.8575 25.2912L55.44 26.7086L53.1649 24.4339L54.5826 23.0163ZM75.2495 6.89874L62.9329 19.2156L60.6583 16.9407L72.9752 4.62403L76.0023 3.86824L75.2495 6.89874Z" fill="#584439"/>
<path d="M11.1137 79.6426C11.1137 80.3105 11.2631 80.9521 11.5619 81.5674C11.8607 82.1826 12.3002 82.7275 12.8803 83.2021C13.4604 83.6709 14.1605 84.0254 14.9809 84.2656L14.0316 85.8125C13.1234 85.5312 12.3412 85.1123 11.685 84.5557C11.0287 83.999 10.516 83.3369 10.1469 82.5693C9.77773 83.4014 9.25332 84.125 8.57363 84.7402C7.89394 85.3496 7.08828 85.8008 6.15664 86.0938L5.18984 84.5469C6.01015 84.2832 6.71621 83.9023 7.30801 83.4043C7.8998 82.9004 8.34805 82.3262 8.65273 81.6816C8.95742 81.0312 9.10976 80.3516 9.10976 79.6426V78.1836H11.1137V79.6426ZM18.4437 86.1992H16.4574V77.6914H18.4437V86.1992ZM9.86562 88.5898H16.475V86.9375H18.4437V93.3711H7.91445V86.9375H9.86562V88.5898ZM16.475 91.7715V90.1016H9.86562V91.7715H16.475ZM25.9018 82.1738C25.9018 83 26.0629 83.835 26.3852 84.6787C26.7075 85.5225 27.1703 86.293 27.7739 86.9902C28.3774 87.6816 29.0834 88.2148 29.892 88.5898L28.7846 90.1543C27.9116 89.75 27.1469 89.1494 26.4907 88.3525C25.8344 87.5557 25.3217 86.6445 24.9526 85.6191C24.5834 86.7383 24.062 87.7314 23.3881 88.5986C22.7143 89.4658 21.9291 90.1133 21.0327 90.541L19.9077 88.9766C20.7162 88.5957 21.4252 88.0391 22.0346 87.3066C22.644 86.5742 23.1127 85.7568 23.4409 84.8545C23.7748 83.9521 23.9448 83.0586 23.9506 82.1738V80.873H20.5053V79.2383H29.2241V80.873H25.9018V82.1738ZM32.6694 83.8613H35.1127V85.4961H32.6694V93.5469H30.683V77.6914H32.6694V83.8613ZM48.143 86.6914H36.9809V79.0449H48.0024V80.6445H38.9497V85.0918H48.143V86.6914ZM49.7427 91.5605H35.2407V89.9434H49.7427V91.5605ZM62.7202 83.7734H65.146V85.4258H62.7202V93.582H60.7339V77.6738H62.7202V83.7734ZM58.1851 85.0391H52.8589V88.2031C54.23 88.1914 55.4253 88.1504 56.4448 88.0801C57.4702 88.0098 58.5015 87.8809 59.5386 87.6934L59.732 89.293C58.6128 89.5039 57.5025 89.6475 56.4009 89.7236C55.3052 89.7998 54.0132 89.8379 52.5249 89.8379H52.2085H50.9077V83.4746H56.2339V80.6621H50.8726V79.0625H58.1851V85.0391ZM78.4752 93.582H76.5064V77.6738H78.4752V93.582ZM69.9146 78.8164C70.7173 78.8164 71.4322 79.0479 72.0591 79.5107C72.692 79.9736 73.1871 80.6299 73.5445 81.4795C73.9019 82.3291 74.0806 83.3164 74.0806 84.4414C74.0806 85.5664 73.9019 86.5537 73.5445 87.4033C73.1871 88.2529 72.692 88.9092 72.0591 89.3721C71.4322 89.835 70.7173 90.0664 69.9146 90.0664C69.1177 90.0664 68.4058 89.835 67.7789 89.3721C67.1519 88.9092 66.6597 88.2529 66.3023 87.4033C65.9449 86.5537 65.7662 85.5664 65.7662 84.4414C65.7662 83.3223 65.9449 82.3379 66.3023 81.4883C66.6597 80.6387 67.1519 79.9824 67.7789 79.5195C68.4058 79.0508 69.1177 78.8164 69.9146 78.8164ZM69.9146 80.6094C69.4693 80.6152 69.0767 80.7705 68.7369 81.0752C68.4029 81.374 68.1392 81.8105 67.9459 82.3848C67.7584 82.959 67.6646 83.6445 67.6646 84.4414C67.6646 85.2383 67.7584 85.9268 67.9459 86.5068C68.1392 87.0811 68.4029 87.5205 68.7369 87.8252C69.0767 88.1299 69.4693 88.2852 69.9146 88.291C70.3658 88.2852 70.7613 88.1299 71.1011 87.8252C71.441 87.5205 71.7047 87.0811 71.8922 86.5068C72.0855 85.9268 72.1822 85.2383 72.1822 84.4414C72.1822 83.6445 72.0855 82.959 71.8922 82.3848C71.7047 81.8105 71.441 81.374 71.1011 81.0752C70.7613 80.7705 70.3658 80.6152 69.9146 80.6094ZM93.6148 93.582H91.6461V84.9512H88.4469V89.75H80.8883V78.9219H82.857V82.8594H86.5133V78.9219H88.4469V83.3516H91.6461V77.6738H93.6148V93.582ZM86.5133 88.1504V84.4062H82.857V88.1504H86.5133ZM36.5871 108.762H31.7199V109.814C32.8319 109.883 33.6955 110.106 34.3107 110.484C34.9259 110.858 35.2336 111.359 35.2336 111.988C35.2336 112.453 35.0627 112.852 34.7209 113.185C34.3791 113.517 33.8846 113.77 33.2375 113.943C32.5949 114.117 31.8293 114.203 30.9406 114.203C30.0474 114.203 29.2772 114.117 28.63 113.943C27.9875 113.77 27.493 113.517 27.1466 113.185C26.8048 112.852 26.6339 112.453 26.6339 111.988C26.6339 111.355 26.9438 110.851 27.5636 110.478C28.188 110.099 29.063 109.876 30.1886 109.808V108.762H25.3214V107.531H36.5871V108.762ZM30.9406 110.949C30.0428 110.954 29.3592 111.043 28.8898 111.216C28.4204 111.389 28.188 111.646 28.1925 111.988C28.188 112.33 28.4204 112.59 28.8898 112.768C29.3592 112.941 30.0428 113.027 30.9406 113.027C31.8338 113.027 32.5129 112.941 32.9777 112.768C33.4471 112.59 33.6841 112.33 33.6886 111.988C33.6841 111.646 33.4471 111.389 32.9777 111.216C32.5129 111.043 31.8338 110.954 30.9406 110.949ZM35.5754 103.621H32.0412C32.1323 103.963 32.3511 104.282 32.6974 104.578C33.0438 104.874 33.5041 105.125 34.0783 105.33C34.6525 105.535 35.311 105.672 36.0539 105.74L35.5207 106.957C34.4041 106.843 33.4471 106.579 32.6496 106.164C31.8566 105.745 31.2938 105.218 30.9611 104.585C30.6284 105.214 30.0633 105.738 29.2658 106.157C28.4728 106.576 27.5181 106.843 26.4015 106.957L25.8683 105.74C26.6066 105.672 27.2629 105.535 27.8371 105.33C28.4113 105.125 28.8716 104.874 29.2179 104.578C29.5688 104.282 29.7899 103.963 29.881 103.621H26.3605V102.391H35.5754V103.621ZM46.7491 105.426H48.4854V106.684H46.7491V110.758H45.2042V101.871H46.7491V105.426ZM43.3995 102.801C43.3995 103.885 43.1716 104.868 42.7159 105.747C42.2602 106.622 41.5994 107.376 40.7335 108.01C39.8676 108.639 38.824 109.131 37.6026 109.486L36.96 108.27C37.8943 108.001 38.7032 107.657 39.3868 107.237C40.0749 106.813 40.6173 106.33 41.0137 105.788C41.4102 105.246 41.6518 104.66 41.7384 104.031H37.4796V102.801H43.3995ZM47.2276 113.971H38.8194V109.855H40.3507V112.727H47.2276V113.971ZM61.7275 104.469V105.002C61.7275 105.973 61.691 106.88 61.6181 107.723C61.5452 108.561 61.3948 109.518 61.1669 110.594L59.6493 110.457C59.8726 109.514 60.0299 108.55 60.121 107.565L52.8407 107.928L52.6493 106.684L60.1962 106.41C60.2144 105.964 60.2236 105.316 60.2236 104.469V104.25H53.0048V103.006H61.7275V104.469ZM62.9716 112.658H51.706V111.387H62.9716V112.658ZM73.6942 114.203H72.1629V101.857H73.6942V114.203ZM70.0028 103.156C70.0073 104.446 69.825 105.631 69.4559 106.711C69.0913 107.791 68.4852 108.782 67.6375 109.685C66.7944 110.587 65.6733 111.373 64.2743 112.043L63.4539 110.812C65.0444 110.061 66.2385 109.16 67.036 108.112C67.8381 107.06 68.3075 105.818 68.4442 104.387H64.0829V103.156H70.0028Z" fill="#584439"/>
</svg>
