<svg width="13" height="15" viewBox="0 0 13 15" fill="none" xmlns="http://www.w3.org/2000/svg">
<path d="M10.9375 6.375C11.6484 6.375 12.25 6.97656 12.25 7.6875V12.9375C12.25 13.6758 11.6484 14.25 10.9375 14.25H1.3125C0.574219 14.25 0 13.6758 0 12.9375V7.6875C0 6.97656 0.574219 6.375 1.3125 6.375H1.96875V4.40625C1.96875 2.13672 3.82812 0.25 6.125 0.25C8.39453 0.25 10.2812 2.13672 10.2812 4.40625V6.375H10.9375ZM8.09375 6.375V4.40625C8.09375 3.33984 7.19141 2.4375 6.125 2.4375C5.03125 2.4375 4.15625 3.33984 4.15625 4.40625V6.375H8.09375Z" fill="#A5836A"/>
</svg>
