<svg width="29" height="20" viewBox="0 0 29 20" fill="none" xmlns="http://www.w3.org/2000/svg">
<path d="M25.584 1.38672H6.24C4.8672 1.38672 3.744 2.50992 3.744 3.88272V4.81872C3.744 5.16192 4.0248 5.44272 4.368 5.44272C4.7112 5.44272 4.992 5.16192 4.992 4.81872V3.88272C4.992 3.75792 5.0232 3.63312 5.0544 3.50832L12.0432 9.49872L5.0544 15.4891C5.0232 15.3643 4.992 15.2395 4.992 15.1147V14.1787C4.992 13.8355 4.7112 13.5547 4.368 13.5547C4.0248 13.5547 3.744 13.8355 3.744 14.1787V15.1147C3.744 16.4875 4.8672 17.6107 6.24 17.6107H25.584C26.9568 17.6107 28.08 16.4875 28.08 15.1147V3.88272C28.08 2.50992 26.9568 1.38672 25.584 1.38672ZM5.9904 2.66592C6.0528 2.63472 6.1464 2.63472 6.24 2.63472H25.584C25.6776 2.63472 25.7712 2.63472 25.8336 2.66592L16.3176 10.8091C16.068 10.9963 15.756 10.9963 15.5064 10.8091L5.9904 2.66592ZM25.584 16.3627H6.24C6.1464 16.3627 6.0528 16.3627 5.9904 16.3315L13.0104 10.3099L14.6952 11.7763C15.0384 12.0883 15.4752 12.2443 15.912 12.2443C16.3488 12.2443 16.7856 12.0883 17.1288 11.7763L18.8136 10.3099L25.8336 16.3315C25.7712 16.3627 25.6776 16.3627 25.584 16.3627ZM26.832 15.1147C26.832 15.2395 26.8008 15.3643 26.7696 15.4891L19.7808 9.49872L26.7696 3.50832C26.8008 3.63312 26.832 3.75792 26.832 3.88272V15.1147ZM1.872 7.93872C1.872 7.59552 2.1528 7.31472 2.496 7.31472H6.24C6.5832 7.31472 6.864 7.59552 6.864 7.93872C6.864 8.28192 6.5832 8.56272 6.24 8.56272H2.496C2.1528 8.56272 1.872 8.28192 1.872 7.93872ZM6.24 11.6827H0.624C0.2808 11.6827 0 11.4019 0 11.0587C0 10.7155 0.2808 10.4347 0.624 10.4347H6.24C6.5832 10.4347 6.864 10.7155 6.864 11.0587C6.864 11.4019 6.5832 11.6827 6.24 11.6827Z" fill="white"/>
</svg>
