<svg width="61" height="60" viewBox="0 0 61 60" fill="none" xmlns="http://www.w3.org/2000/svg">
<path d="M24.9688 35.5328C24.2375 34.8016 23.0562 34.8016 22.325 35.5328L18.3312 39.5266L16.85 38.0453C16.4937 37.6891 15.9875 37.4641 15.5 37.5016C14.9937 37.5016 14.5062 37.7266 14.1687 38.0828L7.79375 44.7766C5.6 46.9703 5.6 50.5328 7.79375 52.7266C8.8625 53.7953 10.2688 54.3766 11.7688 54.3766C13.2687 54.3766 14.675 53.7953 15.7062 52.7641L22.4375 46.3703C22.8125 46.0141 23.0187 45.5453 23.0187 45.0391C23.0187 44.5328 22.8312 44.0453 22.475 43.6891L20.9937 42.2078L24.9875 38.2141C25.7188 37.4828 25.7188 36.3016 24.9875 35.5703L24.9688 35.5328ZM13.0812 50.0641C12.3687 50.7766 11.1312 50.7766 10.4375 50.0641C9.70625 49.3328 9.70625 48.1516 10.475 47.3828L15.5562 42.0578L18.4625 44.9641L13.1 50.0641H13.0812Z" fill="#F6BC50"/>
<path d="M36.125 43.125C25.7937 43.125 17.375 34.7063 17.375 24.375C17.375 14.0437 25.775 5.625 36.125 5.625C46.475 5.625 54.875 14.0437 54.875 24.375C54.875 34.7063 46.4563 43.125 36.125 43.125ZM36.125 9.375C27.8563 9.375 21.125 16.1063 21.125 24.375C21.125 32.6437 27.8563 39.375 36.125 39.375C44.3937 39.375 51.125 32.6437 51.125 24.375C51.125 16.1063 44.3937 9.375 36.125 9.375Z" fill="white"/>
<path d="M33.3133 31.8766C32.8258 31.8766 32.357 31.6891 31.982 31.3328L26.357 25.7078C25.6258 24.9766 25.6258 23.7953 26.357 23.0641C27.0883 22.3328 28.2695 22.3328 29.0008 23.0641L33.2945 27.3578L43.2133 17.4391C43.9445 16.7078 45.1258 16.7078 45.857 17.4391C46.5883 18.1703 46.5883 19.3516 45.857 20.0828L34.607 31.3328C34.232 31.7078 33.7633 31.8766 33.2758 31.8766H33.3133Z" fill="#F6BC50"/>
</svg>
