<svg width="80" height="71" viewBox="0 0 80 71" fill="none" xmlns="http://www.w3.org/2000/svg">
<path fill-rule="evenodd" clip-rule="evenodd" d="M50.3949 55.4911C49.0417 55.4911 48.7546 53.4817 50.1079 53.1536L52.3223 52.5385V48.4788C51.2971 48.7658 49.6568 49.545 49.2467 48.0687C48.8777 46.5924 50.846 46.4284 52.3223 46.0183V41.9996C51.2971 42.2456 49.6568 43.0248 49.2467 41.5895C48.8777 40.0722 50.846 39.9082 52.3223 39.5391V35.4794C51.2971 35.7254 49.6568 36.5046 49.2467 35.0693C48.8777 33.552 50.846 33.388 52.3223 33.0189V25.6375C51.5842 25.6375 50.1899 25.8016 50.1899 24.4483V19.2814H44.1208C43.4647 19.2814 42.9316 18.7483 42.9316 18.0921V10.9978C42.9316 10.3417 43.4647 9.80859 44.1208 9.80859H73.8103C74.4664 9.80859 74.9995 10.3417 74.9995 10.9978V18.0921C74.9995 18.7483 74.4664 19.2814 73.8103 19.2814H67.7002V24.4483C67.7002 25.8016 66.3059 25.6375 65.6088 25.6375V29.4512C66.675 29.1642 68.2743 28.4261 68.6433 29.8613C69.0534 31.3376 67.044 31.5016 65.6088 31.9117V35.9715C66.675 35.6844 68.2743 34.9463 68.6433 36.3815C69.0534 37.8578 67.044 38.0218 65.6088 38.4319V42.4917C66.675 42.2046 68.2743 41.4665 68.6433 42.9017C69.0534 44.378 67.044 44.542 65.6088 44.9521V49.0119C66.675 48.6838 68.2743 47.9867 68.6433 49.422C69.0534 50.8982 67.044 51.0623 65.6088 51.4313V60.0019C65.6088 60.658 65.0757 61.1911 64.4196 61.1911H53.5115C52.8554 61.1911 52.3223 60.658 52.3223 60.0019V54.999L50.3949 55.4911ZM34.2379 61.1911C28.0048 61.1911 21.7716 61.1911 15.5385 61.1911C15.1284 61.1911 14.7183 60.9451 14.5133 60.576L5.16354 44.378C4.95851 44.0089 4.95851 43.5579 5.16354 43.1888L14.5133 26.9908C14.7183 26.6217 15.1284 26.4167 15.5385 26.4167H34.2379C34.689 26.4167 35.0581 26.6217 35.2631 26.9908L44.6539 43.1888C44.8589 43.5579 44.8589 44.0089 44.6539 44.378L35.2631 60.576C35.0581 60.9451 34.689 61.1911 34.2379 61.1911ZM16.2356 58.8127H23.699V52.7026H20.4184C20.0083 52.7026 19.5982 52.4975 19.3932 52.1285L14.9234 44.378C14.7183 44.0089 14.7183 43.5579 14.9234 43.1888L19.3932 35.4794C19.5982 35.1103 20.0083 34.8642 20.4184 34.8642H23.699V28.7951H16.2356L7.54199 43.8039L16.2356 58.8127ZM26.0774 58.8127H33.5818L42.2344 43.8039L33.5818 28.7951H26.0774V34.8642H29.358C29.7681 34.8642 30.1782 35.1103 30.3832 35.4794L34.8531 43.1888C35.0581 43.5579 35.0581 44.0089 34.8531 44.378L30.3832 52.1285C30.1782 52.4975 29.7681 52.7026 29.358 52.7026H26.0774V58.8127ZM51.3791 16.9029H72.6211V12.187H45.31V16.9029H51.3791ZM53.5115 23.2591H65.3217V19.2814H52.5684V23.2591H53.5115ZM54.7007 51.9234L63.2303 49.627V45.5672L54.7007 47.8637V51.9234ZM63.2303 52.0874L54.7007 54.3839V58.8127H63.2303V52.0874ZM63.2303 43.1068V39.047L54.7007 41.3435V45.4032L63.2303 43.1068ZM63.2303 36.5866V32.5268L54.7007 34.8232V38.883L63.2303 36.5866ZM63.2303 30.0664V25.6375H54.7007V32.3628L63.2303 30.0664ZM21.1155 50.3241H28.6609L32.4336 43.8039L28.6609 37.2427H21.1155L17.3428 43.8039L21.1155 50.3241Z" fill="black"/>
</svg>
