<svg width="62" height="62" viewBox="0 0 62 62" fill="none" xmlns="http://www.w3.org/2000/svg">
<path d="M7.75 52.7961C6.94728 52.7961 6.29688 52.1452 6.29688 51.3429V17.0781C6.29688 16.2759 6.94728 15.625 7.75 15.625C8.55272 15.625 9.20312 16.2759 9.20312 17.0781V51.3429C9.20312 52.1452 8.55272 52.7961 7.75 52.7961Z" fill="#201E1F"/>
<path d="M48.4375 28.5773C47.6353 28.5773 46.9844 27.9264 46.9844 27.1242V17.0781C46.9844 16.2759 47.6353 15.625 48.4375 15.625C49.2397 15.625 49.8906 16.2759 49.8906 17.0781V27.1242C49.8906 27.9264 49.2397 28.5773 48.4375 28.5773Z" fill="#201E1F"/>
<path d="M51.343 20.2761C51.0876 20.2761 50.8293 20.2089 50.5957 20.068L28.094 6.53954L5.59279 20.068C4.90597 20.4814 4.0129 20.26 3.59854 19.5713C3.18511 18.8835 3.40743 17.9914 4.09521 17.578L27.3452 3.59923C27.8059 3.32109 28.3821 3.32109 28.8428 3.59923L52.0923 17.578C52.7801 17.9914 53.0034 18.8835 52.589 19.5713C52.3165 20.0254 51.8359 20.2761 51.343 20.2761Z" fill="#201E1F"/>
<path d="M44.5616 52.7969H4.84375C4.04103 52.7969 3.39062 52.146 3.39062 51.3438C3.39062 50.5415 4.04103 49.8906 4.84375 49.8906H44.5616C45.3638 49.8906 46.0147 50.5415 46.0147 51.3438C46.0147 52.146 45.3638 52.7969 44.5616 52.7969Z" fill="#201E1F"/>
<path d="M28.0938 43.1094C27.291 43.1094 26.6406 42.4585 26.6406 41.6562V20.3438C26.6406 19.5415 27.291 18.8906 28.0938 18.8906C28.8965 18.8906 29.5469 19.5415 29.5469 20.3438V41.6562C29.5469 42.4585 28.8965 43.1094 28.0938 43.1094Z" fill="#201E1F"/>
<path d="M39.942 43.1094H17.4375C16.6348 43.1094 15.9844 42.4585 15.9844 41.6562V20.3438C15.9844 19.5415 16.6348 18.8906 17.4375 18.8906H38.75C39.5522 18.8906 40.2031 19.5415 40.2031 20.3438V31C40.2031 31.8022 39.5522 32.4531 38.75 32.4531H18.8906V40.2031H39.942C40.7443 40.2031 41.3951 40.854 41.3951 41.6562C41.3951 42.4585 40.7443 43.1094 39.942 43.1094ZM18.8906 29.5469H37.2969V21.7969H18.8906V29.5469Z" fill="#201E1F"/>
<path d="M52.3125 58.6106H44.5625C43.7603 58.6106 43.1094 57.9598 43.1094 57.1575V48.3763C40.1 46.5315 38.2656 43.2923 38.2656 39.72C38.2656 35.8393 40.4302 32.3513 43.9154 30.6172C44.3657 30.393 44.9002 30.4176 45.3279 30.6824C45.7555 30.9473 46.0156 31.4147 46.0156 31.918V37.7825C46.0156 39.1183 47.1017 40.2044 48.4375 40.2044C49.7733 40.2044 50.8594 39.1183 50.8594 37.7825V31.918C50.8594 31.4147 51.1195 30.9473 51.5471 30.6824C51.9757 30.4176 52.5102 30.393 52.9596 30.6172C56.4448 32.3513 58.6094 35.8393 58.6094 39.72C58.6094 43.2923 56.775 46.5315 53.7656 48.3763V57.1575C53.7656 57.9598 53.1147 58.6106 52.3125 58.6106ZM46.0156 55.7044H50.8594V47.522C50.8594 46.9705 51.1716 46.4672 51.6654 46.2212C54.1554 44.9819 55.7031 42.49 55.7031 39.72C55.7031 37.8459 54.9945 36.0995 53.7656 34.7817V37.7825C53.7656 40.72 51.375 43.1106 48.4375 43.1106C45.5 43.1106 43.1094 40.72 43.1094 37.7825V34.7817C41.8805 36.0995 41.1719 37.8459 41.1719 39.72C41.1719 42.49 42.7196 44.9819 45.2096 46.2212C45.7034 46.4672 46.0156 46.9705 46.0156 47.522V55.7044Z" fill="#201E1F"/>
</svg>
