<svg width="48" height="48" viewBox="0 0 48 48" fill="none" xmlns="http://www.w3.org/2000/svg">
<path d="M23.3347 47.9979H4.69046C4.17727 47.998 3.67706 47.8367 3.26071 47.5368C2.84436 47.2368 2.533 46.8136 2.37074 46.3269C2.20848 45.8402 2.20356 45.3148 2.35666 44.8252C2.50977 44.3356 2.81315 43.9065 3.2238 43.5988L6.91003 40.8346C4.10107 37.9868 2.04889 34.4822 0.940098 30.6396C-0.16869 26.797 -0.298897 22.7382 0.561318 18.8325C1.42153 14.9268 3.24488 11.298 5.86552 8.27611C8.48617 5.25425 11.821 2.93521 15.5667 1.52991C19.3123 0.124611 23.35 -0.32237 27.3125 0.22962C31.2751 0.781609 35.0367 2.31506 38.2553 4.6905C41.4739 7.06595 44.0473 10.208 45.7416 13.831C47.4359 17.4539 48.1973 21.4428 47.9565 25.4348C47.4992 31.623 44.6968 37.4034 40.1212 41.5965C35.5455 45.7896 29.5416 48.0791 23.3347 47.9979ZM5.21401 45.3794H23.3347C28.8736 45.461 34.2349 43.4268 38.3246 39.6919C42.4143 35.957 44.9242 30.8029 45.3421 25.2813C45.5303 22.1449 45.025 19.0055 43.8622 16.0863C42.6993 13.1671 40.9075 10.5397 38.6141 8.39101C36.3206 6.2423 33.5818 4.62495 30.5924 3.65393C27.6029 2.6829 24.4362 2.38204 21.3173 2.77272C17.2363 3.28127 13.3888 4.95614 10.2365 7.59636C7.0842 10.2366 4.761 13.73 3.54569 17.6574C2.33037 21.5847 2.27457 25.7792 3.38498 29.7375C4.49539 33.6958 6.72484 37.2497 9.80579 39.9728C9.95105 40.1017 10.0658 40.2613 10.1418 40.44C10.2177 40.6188 10.253 40.8121 10.245 41.0061C10.237 41.2001 10.1859 41.3899 10.0955 41.5618C10.0051 41.7337 9.8776 41.8833 9.72223 41.9998L5.21401 45.3794Z" fill="#201E1F"/>
<path d="M16.2762 37.5229H14.9605C13.9187 37.5218 12.92 37.1076 12.1834 36.3712C11.4467 35.6349 11.0324 34.6365 11.0312 33.5952V21.7949C11.0324 20.7536 11.4467 19.7552 12.1834 19.0188C12.92 18.2825 13.9187 17.8683 14.9605 17.8672H16.2762C17.318 17.8683 18.3167 18.2825 19.0534 19.0188C19.79 19.7552 20.2043 20.7536 20.2055 21.7949V33.5952C20.2043 34.6365 19.79 35.6349 19.0534 36.3712C18.3167 37.1076 17.318 37.5218 16.2762 37.5229ZM14.9605 20.4857C14.6132 20.4861 14.2803 20.6241 14.0348 20.8696C13.7892 21.115 13.6511 21.4478 13.6507 21.7949V33.5952C13.6511 33.9423 13.7892 34.2751 14.0348 34.5205C14.2803 34.766 14.6132 34.904 14.9605 34.9044H16.2762C16.6235 34.904 16.9564 34.766 17.2019 34.5205C17.4475 34.2751 17.5856 33.9423 17.586 33.5952V21.7949C17.5856 21.4478 17.4475 21.115 17.2019 20.8696C16.9564 20.6241 16.6235 20.4861 16.2762 20.4857H14.9605Z" fill="#201E1F"/>
<path d="M31.7135 37.5252H22.9648C22.3339 37.5269 21.709 37.4034 21.1261 37.162C20.5433 36.9206 20.0141 36.566 19.5693 36.1188L18.9938 35.5443C18.5463 35.0993 18.1914 34.5701 17.9498 33.9872C17.7082 33.4044 17.5845 32.7794 17.586 32.1484V21.5943C17.5851 21.0715 17.6896 20.5539 17.8931 20.0723C18.0966 19.5906 18.3949 19.1549 18.7704 18.7909C19.3681 18.2062 19.9678 17.5978 20.5696 16.966C22.5719 14.8597 24.4477 12.6368 26.1872 10.3089C26.5478 9.81997 27.0176 9.42194 27.5593 9.14655C28.101 8.87116 28.6995 8.72601 29.3072 8.72266C29.9603 8.72412 30.604 8.87773 31.1873 9.17128C31.7707 9.46483 32.2775 9.89024 32.6677 10.4138C33.0317 10.9384 33.2621 11.5439 33.3389 12.1777C33.4157 12.8115 33.3367 13.4545 33.1085 14.0508C32.2933 16.1809 31.2906 18.7909 30.6365 20.4906H34.8941C35.374 20.4904 35.8482 20.5958 36.2829 20.799C36.7176 21.0023 37.1023 21.2987 37.4098 21.667C37.7173 22.0354 37.9401 22.4668 38.0623 22.9307C38.1846 23.3947 38.2034 23.8798 38.1173 24.3518L36.4383 33.5839C36.2375 34.6901 35.6545 35.6907 34.791 36.4111C33.9274 37.1314 32.8382 37.5257 31.7135 37.5252ZM29.4325 11.3403H29.4231C29.2045 11.3313 28.987 11.3753 28.7891 11.4685C28.5911 11.5617 28.4187 11.7014 28.2865 11.8756C26.4846 14.2871 24.5413 16.5897 22.4668 18.7713C21.8435 19.4259 21.2224 20.0561 20.6037 20.6619C20.4781 20.7826 20.3781 20.9274 20.3097 21.0876C20.2412 21.2478 20.2058 21.4202 20.2055 21.5944V32.1484C20.205 32.4354 20.2613 32.7196 20.3712 32.9847C20.4811 33.2498 20.6424 33.4905 20.8459 33.6929L21.4206 34.2666C21.831 34.6749 22.3859 34.9049 22.9648 34.9067H31.7136C32.2248 34.9069 32.7199 34.7276 33.1125 34.4002C33.5051 34.0727 33.7702 33.6179 33.8615 33.115L35.5405 23.883C35.5578 23.7884 35.554 23.6911 35.5295 23.5981C35.505 23.5051 35.4603 23.4186 35.3986 23.3447C35.337 23.2709 35.2598 23.2115 35.1726 23.1708C35.0855 23.13 34.9904 23.109 34.8942 23.109H29.6842C29.3653 23.11 29.051 23.0333 28.7686 22.8855C28.4861 22.7377 28.2439 22.5233 28.063 22.2609C27.8821 21.9984 27.7679 21.6959 27.7303 21.3794C27.6928 21.0629 27.733 20.742 27.8474 20.4445C28.4384 18.9094 29.6859 15.6678 30.6614 13.1158C30.737 12.9172 30.7631 12.7024 30.7374 12.4915C30.7118 12.2806 30.6352 12.079 30.5142 11.9043C30.3932 11.7296 30.2315 11.587 30.0431 11.4887C29.8546 11.3905 29.6451 11.3395 29.4325 11.3403Z" fill="#201E1F"/>
</svg>
