<svg width="70" height="71" viewBox="0 0 70 71" fill="none" xmlns="http://www.w3.org/2000/svg">
<g clip-path="url(#clip0_1018_24983)">
<path d="M35.5 66C35.3272 66 35.1543 65.9644 34.9942 65.8933L5.76504 53.1849C5.29992 52.9841 5 52.5266 5 52.0208V18.9792C5 18.4734 5.29992 18.0159 5.76504 17.8151L34.9942 5.10675C35.317 4.96442 35.683 4.96442 36.0058 5.10675L65.235 17.8151C65.7001 18.0159 66 18.4734 66 18.9792V52.0208C66 52.5266 65.7001 52.9841 65.235 53.1849L36.0058 65.8933C35.8457 65.9644 35.6728 66 35.5 66ZM7.54167 51.1872L35.5 63.3414L63.4583 51.1872V19.8128L35.5 7.65604L7.54167 19.8128V51.1872Z" fill="black"/>
<path d="M64.729 53.2916C64.5613 53.2916 64.3859 53.2586 64.2233 53.1848L35.4999 40.6976L6.7765 53.1848C6.13855 53.4644 5.38367 53.1696 5.10409 52.5266C4.82705 51.8835 5.12188 51.1337 5.76492 50.8541L34.9941 38.1458C35.3169 38.0035 35.6829 38.0035 36.0057 38.1458L65.2348 50.8541C65.8779 51.1337 66.1727 51.8835 65.8957 52.5266C65.6873 53.0069 65.217 53.2916 64.729 53.2916Z" fill="black"/>
<path d="M49.9872 31.6366C49.8195 31.6366 49.6441 31.6036 49.4814 31.5299L35.4997 25.4476L21.518 31.5299C20.8801 31.812 20.1252 31.5146 19.8481 30.8716C19.5686 30.2285 19.8608 29.4787 20.5064 29.1991L34.9939 22.8958C35.3167 22.7535 35.6827 22.7535 36.0055 22.8958L50.493 29.1991C51.1386 29.4787 51.4309 30.2285 51.1513 30.8716C50.9454 31.3519 50.4778 31.6366 49.9872 31.6366Z" fill="black"/>
<path d="M45.8392 33.4642C45.2775 33.4642 44.764 33.0906 44.6115 32.5212C44.4311 31.8426 44.8327 31.1462 45.5113 30.9657L49.1942 29.977L48.2055 26.2942C48.025 25.6155 48.4266 24.9191 49.1052 24.7387C49.794 24.5582 50.4802 24.9572 50.6632 25.6384L51.9798 30.5489C52.1603 31.2275 51.7587 31.9239 51.0801 32.1044L46.1696 33.421C46.0577 33.4489 45.9485 33.4642 45.8392 33.4642Z" fill="black"/>
<path d="M25.1604 33.4671C25.0511 33.4671 24.9418 33.4544 24.83 33.4239L19.9195 32.1073C19.2409 31.9268 18.8393 31.2279 19.0197 30.5518L20.3363 25.6413C20.5193 24.9627 21.2132 24.5636 21.8944 24.7415C22.573 24.922 22.9746 25.6209 22.7941 26.297L21.8054 29.9799L25.4883 30.9686C26.1669 31.1491 26.5685 31.848 26.388 32.5241C26.233 33.0935 25.7196 33.4671 25.1604 33.4671Z" fill="black"/>
<path d="M35.5013 40.5834C34.7998 40.5834 34.2305 40.014 34.2305 39.3125V6.27083C34.2305 5.56933 34.7998 5 35.5013 5C36.2028 5 36.7721 5.56933 36.7721 6.27083V39.3125C36.7721 40.014 36.2028 40.5834 35.5013 40.5834Z" fill="black"/>
</g>
<defs>
<clipPath id="clip0_1018_24983">
<rect width="61" height="61" fill="white" transform="translate(5 5)"/>
</clipPath>
</defs>
</svg>
