<svg width="80" height="71" viewBox="0 0 80 71" fill="none" xmlns="http://www.w3.org/2000/svg">
<path d="M74.7812 31.8117C67.0812 19.4596 67.4021 19.4596 66.25 19.4596H53.125V18.0013C53.125 17.6145 52.9714 17.2436 52.6979 16.9701C52.4244 16.6966 52.0534 16.543 51.6667 16.543H7.91667C7.52989 16.543 7.15896 16.6966 6.88547 16.9701C6.61198 17.2436 6.45833 17.6145 6.45833 18.0013V42.793C6.07156 42.793 5.70063 42.9466 5.42714 43.2201C5.15365 43.4936 5 43.8645 5 44.2513V50.0846C5 50.4714 5.15365 50.8424 5.42714 51.1158C5.70063 51.3893 6.07156 51.543 6.45833 51.543H14.3625C14.931 52.8411 15.8656 53.9455 17.0518 54.7209C18.238 55.4964 19.6245 55.9094 21.0417 55.9094C22.4589 55.9094 23.8453 55.4964 25.0316 54.7209C26.2178 53.9455 27.1523 52.8411 27.7208 51.543H53.7375C54.306 52.8411 55.2406 53.9455 56.4268 54.7209C57.613 55.4964 58.9995 55.9094 60.4167 55.9094C61.8339 55.9094 63.2203 55.4964 64.4066 54.7209C65.5928 53.9455 66.5273 52.8411 67.0958 51.543H73.5417C73.9284 51.543 74.2994 51.3893 74.5729 51.1158C74.8464 50.8424 75 50.4714 75 50.0846C75 31.2576 75.1021 32.3367 74.7812 31.8117ZM70.9167 31.1263H60.4167C60.0299 31.1263 59.659 30.9727 59.3855 30.6992C59.112 30.4257 58.9583 30.0547 58.9583 29.668V22.3763H65.4479L70.9167 31.1263ZM56.0417 22.3763V29.668C56.0417 30.8283 56.5026 31.9411 57.3231 32.7616C58.1435 33.582 59.2563 34.043 60.4167 34.043H72.0833V36.9596H70.625C70.2382 36.9596 69.8673 37.1133 69.5938 37.3868C69.3203 37.6603 69.1667 38.0312 69.1667 38.418C69.1667 38.8047 69.3203 39.1757 69.5938 39.4492C69.8673 39.7227 70.2382 39.8763 70.625 39.8763H72.0833V42.793H64.7917C63.5374 41.828 61.9992 41.3048 60.4167 41.3048C58.8341 41.3048 57.296 41.828 56.0417 42.793H53.125V22.3763H56.0417ZM9.375 19.4596H50.2083V42.793H25.4167C24.1624 41.828 22.6242 41.3048 21.0417 41.3048C19.4591 41.3048 17.921 41.828 16.6667 42.793H9.375V19.4596ZM7.91667 48.6263V45.7096H14.3625C13.9573 46.6285 13.7486 47.622 13.75 48.6263H7.91667ZM21.0417 53.0013C20.1764 53.0013 19.3305 52.7447 18.611 52.264C17.8916 51.7833 17.3308 51.1 16.9997 50.3005C16.6686 49.5011 16.5819 48.6215 16.7507 47.7728C16.9195 46.9241 17.3362 46.1446 17.9481 45.5327C18.5599 44.9209 19.3395 44.5042 20.1881 44.3354C21.0368 44.1666 21.9165 44.2532 22.7159 44.5843C23.5153 44.9155 24.1986 45.4762 24.6793 46.1957C25.1601 46.9152 25.4167 47.761 25.4167 48.6263C25.4167 49.7866 24.9557 50.8994 24.1353 51.7199C23.3148 52.5404 22.202 53.0013 21.0417 53.0013ZM28.3333 48.6263C28.3347 47.622 28.1261 46.6285 27.7208 45.7096H51.6667C55.1667 45.7096 53.125 45.1263 53.125 48.6263H28.3333ZM60.4167 53.0013C59.5514 53.0013 58.7055 52.7447 57.986 52.264C57.2666 51.7833 56.7058 51.1 56.3747 50.3005C56.0436 49.5011 55.9569 48.6215 56.1257 47.7728C56.2945 46.9241 56.7112 46.1446 57.3231 45.5327C57.9349 44.9209 58.7145 44.5042 59.5631 44.3354C60.4118 44.1666 61.2915 44.2532 62.0909 44.5843C62.8903 44.9155 63.5736 45.4762 64.0543 46.1957C64.5351 46.9152 64.7917 47.761 64.7917 48.6263C64.7917 49.7866 64.3307 50.8994 63.5103 51.7199C62.6898 52.5404 61.577 53.0013 60.4167 53.0013ZM72.0833 48.6263H67.7083C67.7097 47.622 67.5011 46.6285 67.0958 45.7096H72.0833V48.6263Z" fill="black"/>
<path d="M21.0404 47.168C20.6536 47.168 20.2827 47.3216 20.0092 47.5951C19.7357 47.8686 19.582 48.2395 19.582 48.6263C19.582 49.0131 19.7357 49.384 20.0092 49.6575C20.2827 49.931 20.6536 50.0846 21.0404 50.0846C21.4271 50.0846 21.7981 49.931 22.0716 49.6575C22.3451 49.384 22.4987 49.0131 22.4987 48.6263C22.4987 48.2395 22.3451 47.8686 22.0716 47.5951C21.7981 47.3216 21.4271 47.168 21.0404 47.168Z" fill="black"/>
<path d="M60.4154 47.168C60.0286 47.168 59.6577 47.3216 59.3842 47.5951C59.1107 47.8686 58.957 48.2395 58.957 48.6263C58.957 49.0131 59.1107 49.384 59.3842 49.6575C59.6577 49.931 60.0286 50.0846 60.4154 50.0846C60.8021 50.0846 61.1731 49.931 61.4466 49.6575C61.7201 49.384 61.8737 49.0131 61.8737 48.6263C61.8737 48.2395 61.7201 47.8686 61.4466 47.5951C61.1731 47.3216 60.8021 47.168 60.4154 47.168Z" fill="black"/>
<path d="M23.9583 38.4193H35.625C36.0118 38.4193 36.3827 38.2656 36.6562 37.9921C36.9297 37.7186 37.0833 37.3477 37.0833 36.9609V25.2943C37.0833 24.9075 36.9297 24.5366 36.6562 24.2631C36.3827 23.9896 36.0118 23.8359 35.625 23.8359H23.9583C23.5716 23.8359 23.2006 23.9896 22.9271 24.2631C22.6536 24.5366 22.5 24.9075 22.5 25.2943V36.9609C22.5 37.3477 22.6536 37.7186 22.9271 37.9921C23.2006 38.2656 23.5716 38.4193 23.9583 38.4193ZM25.4167 26.7526H28.3333V28.2109C28.3333 28.5977 28.487 28.9686 28.7605 29.2421C29.034 29.5156 29.4049 29.6693 29.7917 29.6693C30.1784 29.6693 30.5494 29.5156 30.8229 29.2421C31.0964 28.9686 31.25 28.5977 31.25 28.2109V26.7526H34.1667V35.5026H25.4167V26.7526Z" fill="black"/>
</svg>
