<svg width="56" height="55" viewBox="0 0 56 55" fill="none" xmlns="http://www.w3.org/2000/svg">
<path d="M17.3214 54.9997C16.2674 54.9997 15.237 54.6888 14.3607 54.1061C13.4843 53.5234 12.8012 52.6953 12.3979 51.7264C11.9945 50.7574 11.889 49.6913 12.0946 48.6627C12.3002 47.634 12.8078 46.6892 13.5531 45.9476C14.2984 45.206 15.248 44.701 16.2817 44.4964C17.3155 44.2918 18.387 44.3968 19.3608 44.7982C20.3346 45.1995 21.1669 45.8792 21.7525 46.7512C22.3381 47.6232 22.6506 48.6484 22.6506 49.6971C22.6506 51.1035 22.0892 52.4522 21.0897 53.4466C20.0903 54.4411 18.7348 54.9997 17.3214 54.9997ZM17.3214 47.0458C16.7944 47.0458 16.2792 47.2013 15.841 47.4927C15.4028 47.784 15.0613 48.1981 14.8596 48.6825C14.658 49.167 14.6052 49.7001 14.708 50.2144C14.8108 50.7287 15.0646 51.2011 15.4372 51.5719C15.8099 51.9427 16.2847 52.1952 16.8016 52.2975C17.3184 52.3998 17.8542 52.3473 18.3411 52.1466C18.828 51.946 19.2442 51.6061 19.5369 51.1701C19.8297 50.7341 19.986 50.2215 19.986 49.6971C19.986 48.994 19.7053 48.3196 19.2056 47.8224C18.7059 47.3252 18.0281 47.0458 17.3214 47.0458Z" fill="#201E1F"/>
<path d="M35.9718 54.9997C34.9178 54.9997 33.8874 54.6888 33.011 54.1061C32.1347 53.5234 31.4516 52.6953 31.0482 51.7264C30.6449 50.7574 30.5394 49.6913 30.745 48.6627C30.9506 47.634 31.4582 46.6892 32.2035 45.9476C32.9488 45.206 33.8984 44.701 34.9321 44.4964C35.9659 44.2918 37.0374 44.3968 38.0112 44.7982C38.985 45.1995 39.8173 45.8792 40.4029 46.7512C40.9885 47.6232 41.301 48.6484 41.301 49.6971C41.301 51.1035 40.7395 52.4522 39.7401 53.4466C38.7407 54.4411 37.3852 54.9997 35.9718 54.9997ZM35.9718 47.0458C35.4448 47.0458 34.9296 47.2013 34.4914 47.4927C34.0532 47.784 33.7117 48.1981 33.51 48.6825C33.3083 49.167 33.2556 49.7001 33.3584 50.2144C33.4612 50.7287 33.715 51.2011 34.0876 51.5719C34.4603 51.9427 34.9351 52.1952 35.452 52.2975C35.9688 52.3998 36.5046 52.3473 36.9915 52.1466C37.4784 51.946 37.8945 51.6061 38.1873 51.1701C38.4801 50.7341 38.6364 50.2215 38.6364 49.6971C38.6364 48.994 38.3557 48.3196 37.856 47.8224C37.3562 47.3252 36.6785 47.0458 35.9718 47.0458Z" fill="#201E1F"/>
<path d="M43.9649 47.0456H11.9896C10.2229 47.0456 8.52852 46.3472 7.27924 45.1042C6.02996 43.8612 5.32812 42.1752 5.32812 40.4173C5.32812 38.6594 6.02996 36.9735 7.27924 35.7304C8.52852 34.4874 10.2229 33.7891 11.9896 33.7891H33.3065C33.6599 33.7891 33.9987 33.9287 34.2486 34.1773C34.4984 34.4259 34.6388 34.7631 34.6388 35.1147C34.6388 35.4663 34.4984 35.8035 34.2486 36.0521C33.9987 36.3007 33.6599 36.4404 33.3065 36.4404H11.9896C10.9296 36.4404 9.91297 36.8594 9.1634 37.6052C8.41383 38.351 7.99273 39.3626 7.99273 40.4173C7.99273 41.4721 8.41383 42.4836 9.1634 43.2295C9.91297 43.9753 10.9296 44.3943 11.9896 44.3943H43.9649C44.3183 44.3943 44.6572 44.5339 44.907 44.7825C45.1569 45.0312 45.2972 45.3683 45.2972 45.7199C45.2972 46.0715 45.1569 46.4087 44.907 46.6573C44.6572 46.9059 44.3183 47.0456 43.9649 47.0456Z" fill="#201E1F"/>
<path d="M29.3108 29.8122C28.9575 29.8122 28.6186 29.6726 28.3687 29.424C28.1189 29.1754 27.9785 28.8382 27.9785 28.4866V20.5327C27.9785 20.1811 28.1189 19.8439 28.3687 19.5953C28.6186 19.3467 28.9575 19.207 29.3108 19.207C29.6642 19.207 30.003 19.3467 30.2529 19.5953C30.5028 19.8439 30.6431 20.1811 30.6431 20.5327V28.4866C30.6431 28.8382 30.5028 29.1754 30.2529 29.424C30.003 29.6726 29.6642 29.8122 29.3108 29.8122Z" fill="#201E1F"/>
<path d="M22.6487 28.4891C22.2954 28.4891 21.9565 28.3494 21.7066 28.1008C21.4568 27.8522 21.3164 27.515 21.3164 27.1634V21.8608C21.3164 21.5092 21.4568 21.172 21.7066 20.9234C21.9565 20.6748 22.2954 20.5352 22.6487 20.5352C23.0021 20.5352 23.3409 20.6748 23.5908 20.9234C23.8406 21.172 23.981 21.5092 23.981 21.8608V27.1634C23.981 27.515 23.8406 27.8522 23.5908 28.1008C23.3409 28.3494 23.0021 28.4891 22.6487 28.4891Z" fill="#201E1F"/>
<path d="M35.9729 28.4891C35.6196 28.4891 35.2807 28.3494 35.0308 28.1008C34.781 27.8522 34.6406 27.515 34.6406 27.1634V21.8608C34.6406 21.5092 34.781 21.172 35.0308 20.9234C35.2807 20.6748 35.6196 20.5352 35.9729 20.5352C36.3263 20.5352 36.6652 20.6748 36.915 20.9234C37.1649 21.172 37.3052 21.5092 37.3052 21.8608V27.1634C37.3052 27.515 37.1649 27.8522 36.915 28.1008C36.6652 28.3494 36.3263 28.4891 35.9729 28.4891Z" fill="#201E1F"/>
<path d="M39.7036 15.2333H15.9886C15.6352 15.2333 15.2963 15.0937 15.0465 14.8451C14.7966 14.5965 14.6562 14.2593 14.6562 13.9077C14.6562 13.5561 14.7966 13.2189 15.0465 12.9703C15.2963 12.7217 15.6352 12.582 15.9886 12.582H39.7036C40.0569 12.582 40.3958 12.7217 40.6456 12.9703C40.8955 13.2189 41.0359 13.5561 41.0359 13.9077C41.0359 14.2593 40.8955 14.5965 40.6456 14.8451C40.3958 15.0937 40.0569 15.2333 39.7036 15.2333Z" fill="#201E1F"/>
<path d="M42.2207 36.4406H16.787C15.8795 36.4378 14.9997 36.1288 14.2914 35.5642C13.5831 34.9996 13.0881 34.2127 12.8874 33.332L7.16113 8.31296C7.09764 8.01778 6.93373 7.75345 6.69707 7.56458C6.46041 7.37572 6.1655 7.27389 5.86214 7.2763H1.3323C0.978955 7.2763 0.640078 7.13664 0.390223 6.88803C0.140367 6.63942 0 6.30224 0 5.95065C0 5.59907 0.140367 5.26188 0.390223 5.01327C0.640078 4.76467 0.978955 4.625 1.3323 4.625H5.86214C6.76971 4.62783 7.6495 4.93679 8.3578 5.50142C9.0661 6.06605 9.56105 6.85297 9.76179 7.73365L15.4907 32.7527C15.5541 33.0474 15.7176 33.3114 15.9537 33.5002C16.1898 33.689 16.4841 33.7911 16.787 33.7893H42.2207C42.4778 33.7916 42.7298 33.7184 42.9454 33.5791C43.161 33.4398 43.3306 33.2404 43.4331 33.0059L51.2591 15.2302H49.5617C49.2084 15.2302 48.8695 15.0905 48.6196 14.8419C48.3698 14.5933 48.2294 14.2561 48.2294 13.9046C48.2294 13.553 48.3698 13.2158 48.6196 12.9672C48.8695 12.7186 49.2084 12.5789 49.5617 12.5789H51.2537C51.6965 12.5783 52.1325 12.6874 52.5222 12.8965C52.9119 13.1055 53.2432 13.408 53.486 13.7764C53.7288 14.1448 53.8755 14.5676 53.9128 15.0066C53.9501 15.4456 53.8769 15.8869 53.6998 16.2907L45.8792 34.0545C45.5723 34.7657 45.0617 35.3713 44.411 35.7957C43.7604 36.22 42.9986 36.4443 42.2207 36.4406Z" fill="#201E1F"/>
<path d="M44.6315 19.0233C44.1067 19.024 43.5869 18.9215 43.1019 18.7218C42.617 18.5221 42.1765 18.229 41.8057 17.8594L35.2108 11.2987C34.5085 10.6016 33.9715 9.75731 33.6391 8.82737C33.3067 7.89743 33.1872 6.90536 33.2893 5.92359C33.3915 4.94182 33.7127 3.99514 34.2295 3.15267C34.7463 2.31021 35.4457 1.59323 36.2766 1.05408C37.5629 0.236539 39.09 -0.12213 40.6079 0.0368255C42.1258 0.195781 43.5445 0.862938 44.6315 1.92901C45.8517 0.758318 47.4676 0.0837063 49.1621 0.037596C50.8565 -0.00851423 52.5071 0.577207 53.7898 1.67979C54.4658 2.27999 55.0105 3.01203 55.3903 3.83048C55.7701 4.64893 55.9767 5.53632 55.9974 6.43755C56.0189 7.33677 55.8574 8.23102 55.5224 9.06645C55.1874 9.90189 54.686 10.6612 54.0482 11.2987L47.4533 17.8594C47.083 18.2285 46.6432 18.5213 46.159 18.721C45.6747 18.9208 45.1557 19.0235 44.6315 19.0233ZM39.8539 2.64221C39.1083 2.63877 38.3782 2.85461 37.7555 3.26261C37.2525 3.58364 36.8283 4.01278 36.514 4.51848C36.1998 5.02418 36.0035 5.59355 35.9395 6.18471C35.8756 6.77586 35.9457 7.37376 36.1447 7.93439C36.3437 8.49502 36.6665 9.00413 37.0893 9.42424L43.6842 15.9849C43.9382 16.2256 44.2755 16.3599 44.6262 16.3599C44.9769 16.3599 45.3142 16.2256 45.5681 15.9849L52.163 9.42424C52.5472 9.04211 52.849 8.58608 53.0501 8.08398C53.2512 7.58189 53.3473 7.04428 53.3326 6.50399C53.3179 5.96369 53.1927 5.43205 52.9646 4.94153C52.7364 4.45101 52.4102 4.0119 52.0058 3.65103C51.1838 2.98403 50.1389 2.65059 49.0803 2.71745C48.0217 2.78431 47.0276 3.24654 46.2969 4.01161L45.5681 4.73674C45.3183 4.98536 44.9795 5.12508 44.6262 5.12516C44.451 5.12529 44.2775 5.09106 44.1157 5.02441C43.9538 4.95776 43.8068 4.86 43.6829 4.73674L42.8409 3.8976C42.0509 3.10305 40.9771 2.65174 39.8539 2.64221Z" fill="#201E1F"/>
</svg>
