<svg width="70" height="61" viewBox="0 0 70 61" fill="none" xmlns="http://www.w3.org/2000/svg">
<path d="M20.6182 21.043C21.5955 20.7034 22.7219 19.9536 23.7119 18.9668C24.6871 17.9508 25.4062 16.8322 25.7412 15.8223V15.8213C25.8764 15.4148 25.9403 15.0549 25.9375 14.7666C25.9346 14.4745 25.8637 14.278 25.7578 14.1699L18.6689 6.94531C18.2617 6.52868 18.2617 5.85511 18.6689 5.43848L18.6699 5.43652C18.7952 5.3124 18.9498 5.21652 19.125 5.16797L19.5498 5.05371C20.5472 4.80461 21.576 4.67774 22.6143 4.67773C26.072 4.67773 29.3208 6.05125 31.7646 8.54102C34.207 11.0263 35.5527 14.337 35.5527 17.8545C35.5527 18.3139 35.5286 18.7687 35.4834 19.2168L35.3672 20.3994L48.7793 6.7334C50.0799 5.40985 51.8093 4.67773 53.6475 4.67773C55.4886 4.67775 57.2176 5.40991 58.5166 6.7334C61.1159 9.38167 61.1972 13.6398 58.7617 16.3887L58.5186 16.6504L44.2549 31.1787L58.7588 45.9541H58.7598C59.8997 47.1172 60.5299 48.6674 60.5332 50.3154L60.5264 50.623C60.4529 52.1561 59.8312 53.5871 58.7578 54.6777L58.7568 54.6768C57.6864 55.7672 56.2835 56.4035 54.7793 56.4785L54.4775 56.4854C52.8527 56.4822 51.3297 55.8378 50.1895 54.6777V54.6768L31.5625 35.6963L21.6445 45.8027L21.5566 45.8916L20.208 52.0576C20.1665 52.2534 20.0697 52.4284 19.9316 52.5693L19.9326 52.5703C19.8363 52.6703 19.7254 52.7417 19.5957 52.8008V52.7998L11.7822 56.3965L11.7793 56.3984C11.3907 56.5679 10.9266 56.4791 10.624 56.1748L10.623 56.1738L9.98633 55.5264C9.68214 55.2164 9.59509 54.7557 9.7627 54.3643V54.3623L13.3018 46.3789C13.3536 46.2559 13.4273 46.1448 13.5205 46.0498L13.5215 46.0488C13.6614 45.9098 13.8341 45.8102 14.0234 45.7656L14.0244 45.7646L20.0801 44.3906L30.0879 34.1934L26.4199 30.4561L26.1885 30.5244H26.1875C25.0292 30.8615 23.829 31.0341 22.6162 31.0342C19.1598 31.0342 15.91 29.6609 13.4678 27.1758C11.0255 24.6843 9.68067 21.375 9.68066 17.8545C9.68066 16.645 9.84304 15.448 10.1582 14.3018V14.3008C10.2081 14.1245 10.2982 13.9695 10.4229 13.8389L10.4238 13.8369C10.8208 13.4306 11.5127 13.4318 11.9121 13.8369H11.9131L19.0127 21.0723C19.1179 21.1707 19.3098 21.2372 19.5928 21.2393C19.8746 21.2412 20.2254 21.1781 20.6182 21.043ZM27.2451 12.6641H27.2441C27.4945 12.9183 27.7978 13.3395 27.9463 13.9707C28.0948 14.6023 28.0861 15.4344 27.7285 16.5049C27.2817 17.838 26.3792 19.2459 25.1963 20.4717L25.1953 20.4736C24.0603 21.6107 22.7728 22.4919 21.541 22.9717L21.2949 23.0625C20.694 23.2692 20.1244 23.3789 19.6025 23.3789C18.5407 23.3789 17.8838 22.9389 17.5166 22.5664L12.4883 17.4443V17.4434L11.7793 16.8008V17.8545C11.7794 23.9487 16.6448 28.9014 22.6162 28.9014C23.8959 28.9013 25.1477 28.6777 26.3369 28.2314L26.875 28.0303L26.9668 27.9961L27.0352 28.0654L51.6758 53.1729C52.4221 53.9303 53.4159 54.3493 54.4785 54.3525C55.5331 54.3525 56.5243 53.9342 57.2725 53.1719L57.4092 53.0264C58.0719 52.2844 58.4343 51.329 58.4346 50.3193L58.4287 50.1162C58.3815 49.1748 58.0246 48.2972 57.4092 47.6045L57.2734 47.459L32.6328 22.3574L32.5664 22.29L32.5986 22.2021L32.7959 21.6504V21.6494C33.2325 20.4402 33.4531 19.1656 33.4531 17.8545C33.4546 14.9086 32.3272 12.1389 30.2754 10.0498C28.2272 7.96299 25.507 6.81447 22.5078 6.81445H21.502L27.2451 12.6641ZM14.998 47.7178L12.7432 52.8037L12.7412 52.8086L12.2188 53.8691L12.29 53.8379L12.2559 53.9111L18.2871 51.0713L19.2246 46.7598L14.998 47.7178ZM57.0391 8.23535C55.2295 6.39201 52.0645 6.39269 50.2598 8.23438L35.9961 22.7646L38.6494 25.4668L50.8447 13.0449L50.8457 13.0439C51.2439 12.6421 51.9254 12.6444 52.3232 13.0469C52.5199 13.2454 52.6279 13.5135 52.6279 13.7939C52.6279 14.0763 52.5205 14.342 52.3252 14.543L52.3242 14.5439L40.126 26.9727L42.7812 29.6748L57.0381 15.1494C57.9435 14.2269 58.4423 12.9995 58.4424 11.6914C58.4424 10.3846 57.943 9.15473 57.0391 8.23535Z" fill="black" stroke="black" stroke-width="0.3"/>
<path d="M53.876 48.6426C54.1214 48.6426 54.3536 48.7295 54.541 48.8867L54.6191 48.958L54.6885 49.0371C54.8414 49.2271 54.9238 49.4627 54.9238 49.7109C54.9238 49.9913 54.8156 50.259 54.6152 50.4619L54.6162 50.4629C54.2201 50.8702 53.5291 50.8648 53.1318 50.4639L53.1309 50.4629C52.934 50.2601 52.8262 49.9915 52.8262 49.7109C52.8262 49.4272 52.9341 49.1595 53.1318 48.958C53.329 48.7573 53.5939 48.6426 53.876 48.6426Z" fill="black" stroke="black" stroke-width="0.3"/>
</svg>
