<svg width="61" height="60" viewBox="0 0 61 60" fill="none" xmlns="http://www.w3.org/2000/svg">
<path d="M52.0755 29.2243C50.7555 29.2243 49.6755 30.3043 49.6755 31.6243C49.6755 42.1843 41.0835 50.8003 30.4995 50.8003C19.9155 50.8003 11.3234 42.2083 11.3234 31.6243C11.3234 21.0404 19.9155 12.4484 30.4995 12.4484C31.8195 12.4484 32.8995 11.3684 32.8995 10.0484C32.8995 8.72844 31.8195 7.64844 30.4995 7.64844C17.2755 7.64844 6.52344 18.4004 6.52344 31.6243C6.52344 44.8483 17.2755 55.6003 30.4995 55.6003C43.7235 55.6003 54.4755 44.8483 54.4755 31.6243C54.4755 30.3043 53.3955 29.2243 52.0755 29.2243Z" fill="#A5836A"/>
<path d="M22.6036 27.5429C21.6676 26.6068 20.1556 26.6068 19.2196 27.5429C18.2836 28.4789 18.2836 29.9909 19.2196 30.9269L27.0436 38.7269C27.9076 39.5909 29.0836 40.0946 30.3076 40.0946H30.5956C31.9156 40.0226 33.1396 39.3749 33.9556 38.3189L49.1956 18.711C50.0116 17.655 49.8196 16.1669 48.7876 15.3509C47.7316 14.5349 46.2436 14.727 45.4276 15.759L30.3076 35.2229L22.6276 27.5429H22.6036Z" fill="#A5836A"/>
</svg>
