<svg width="40" height="40" viewBox="0 0 40 40" fill="none" xmlns="http://www.w3.org/2000/svg">
<g clip-path="url(#clip0_1018_25450)">
<path d="M20 2.125C9.23112 2.125 0.5 8.963 0.5 17.3984C0.5 22.8519 4.14975 27.6375 9.64062 30.3382C6.91388 39.6804 5.31163 40.2881 16.5371 32.4296C17.6616 32.5872 18.8186 32.6701 20 32.6701C30.7689 32.6701 39.5 25.8321 39.5 17.3967C39.5 8.963 30.7689 2.125 20 2.125Z" fill="white"/>
<path d="M17.3739 13.9368C16.8588 12.4857 14.8893 12.4841 14.3758 13.9352C12.7768 18.8947 10.635 21.9546 11.9513 22.5574C13.703 23.3521 13.7404 21.5646 14.1596 20.7699H17.59C18.0076 21.5613 18.0483 23.3504 19.7984 22.5574C21.1195 21.9546 19.0038 18.9906 17.3739 13.9368ZM14.7511 18.7907L15.8756 15.6203L16.9985 18.7907H14.7511Z" fill="#584439"/>
<path d="M9.2179 22.73C7.27115 22.73 8.42165 20.0374 8.0934 15.0242C7.39627 14.904 5.2334 15.5069 5.2334 13.9306C5.2334 13.3277 5.72902 12.837 6.33677 12.837C10.4285 13.1295 13.2008 12.0732 13.2008 13.9306C13.2008 15.5345 11.1289 14.8893 10.3408 15.0242C10.0158 20.0211 11.1614 22.73 9.2179 22.73Z" fill="#584439"/>
<path d="M21.8747 22.5663C19.9913 22.5663 21.137 20.0232 20.7973 13.9522C20.7973 12.4735 23.0935 12.4751 23.0935 13.9522V20.5172C24.1806 20.6618 26.5628 19.981 26.5628 21.541C26.5612 23.1773 24.0018 22.3583 21.8747 22.5663Z" fill="#584439"/>
<path d="M32.2787 22.2408L29.6397 18.7682L29.2497 19.1565V21.594C29.2497 22.2115 28.7459 22.712 28.1235 22.712C26.1687 22.712 27.3403 19.8975 26.999 13.95C26.999 13.3342 27.5028 12.832 28.1235 12.832C29.8217 12.832 29.0888 15.2338 29.248 16.3518C32.433 13.3082 32.3567 12.9848 33.0115 12.9848C33.915 12.9848 34.4692 14.1077 33.8679 14.704L31.3037 17.2504L34.0727 20.8953C34.9762 22.0734 33.1708 23.4238 32.2787 22.2408Z" fill="#584439"/>
</g>
<defs>
<clipPath id="clip0_1018_25450">
<rect width="39" height="39" fill="white" transform="translate(0.5 0.5)"/>
</clipPath>
</defs>
</svg>
