<svg width="33" height="32" viewBox="0 0 33 32" fill="none" xmlns="http://www.w3.org/2000/svg">
<path d="M30.8437 21.03L25.7988 18.1175C25.0388 17.6799 24.1362 17.5617 23.2891 17.7887C22.442 18.0157 21.7195 18.5693 21.2801 19.3283C21.0176 19.7831 20.557 20.3555 19.8538 20.4992C19.5552 20.5677 19.2451 20.5684 18.9463 20.5012C18.6474 20.4341 18.3674 20.3009 18.1268 20.1113C16.2284 18.6863 13.8163 16.2746 12.3915 14.376C12.2019 14.1354 12.0687 13.8554 12.0015 13.5566C11.9344 13.2577 11.9351 12.9476 12.0036 12.649C12.1473 11.9459 12.7197 11.4853 13.1746 11.2227C13.9336 10.7833 14.4874 10.0608 14.7143 9.21365C14.9413 8.36651 14.823 7.46393 14.3853 6.70392L11.4725 1.65873C11.0795 0.969886 10.4507 0.446288 9.70215 0.184422C8.95356 -0.0774439 8.13554 -0.0599315 7.39885 0.233732L7.33772 0.257732C4.93122 1.20248 3.17235 1.92698 2.44847 2.65086C1.24166 3.85767 0.58891 5.40792 0.508347 7.25873C0.43891 8.85336 0.802972 10.6496 1.59035 12.5975C2.99035 16.0605 5.67416 19.8809 9.14797 23.3547C12.6218 26.8285 16.4421 29.5125 19.9052 30.9123C21.697 31.6364 23.3604 32.0025 24.8567 32.0025C24.9869 32.0025 25.1161 31.9997 25.2442 31.9941C27.0948 31.9136 28.645 31.2608 29.8518 30.054C30.5755 29.3301 31.3 27.5712 32.2448 25.165L32.2688 25.1039C32.5625 24.3671 32.58 23.549 32.3182 22.8004C32.0563 22.0518 31.5326 21.423 30.8437 21.03ZM29.9417 24.19L29.9177 24.2512C29.4592 25.4192 28.5052 27.8495 28.0838 28.2862C26.1795 30.1906 23.0946 29.505 20.842 28.5943C17.7288 27.3359 14.1108 24.7818 10.9157 21.5867C7.72066 18.3917 5.1666 14.7737 3.90816 11.6604C2.9976 9.4078 2.31197 6.32292 4.21553 4.41923C4.65303 3.99742 7.08328 3.0433 8.25128 2.5848L8.31247 2.5608C8.4095 2.52224 8.51293 2.50229 8.61735 2.50198C8.75814 2.5024 8.89628 2.54032 9.01756 2.61183C9.13884 2.68334 9.23889 2.78586 9.30741 2.90886L12.2199 7.9538C12.3268 8.13942 12.3557 8.35985 12.3002 8.56674C12.2448 8.77364 12.1096 8.9501 11.9242 9.05742C10.6532 9.79123 9.81141 10.8887 9.55391 12.148C9.41406 12.793 9.41654 13.4607 9.56119 14.1046C9.70583 14.7485 9.98915 15.3531 10.3914 15.8763C11.9652 17.9735 14.5289 20.5371 16.6257 22.1107C17.1489 22.5129 17.7535 22.7963 18.3974 22.9409C19.0414 23.0856 19.7091 23.088 20.354 22.9482C21.6133 22.6907 22.7108 21.8489 23.4447 20.5779C23.5526 20.3931 23.729 20.2584 23.9357 20.2031C24.1423 20.1477 24.3625 20.1761 24.5483 20.2822L29.5932 23.1947C29.7631 23.2891 29.8924 23.4427 29.9566 23.6261C30.0208 23.8096 30.0155 24.0102 29.9417 24.19ZM16.9957 1.31498C16.9957 0.983461 17.1274 0.665519 17.3618 0.431098C17.5962 0.196678 17.9141 0.0649819 18.2457 0.0649819C22.0096 0.0649819 25.6193 1.56019 28.2808 4.22167C30.9423 6.88315 32.4375 10.4929 32.4375 14.2568C32.4375 14.5883 32.3058 14.9063 32.0713 15.1407C31.8369 15.3751 31.519 15.5068 31.1875 15.5068C30.8559 15.5068 30.538 15.3751 30.3036 15.1407C30.0692 14.9063 29.9375 14.5883 29.9375 14.2568C29.9375 12.7214 29.6351 11.201 29.0475 9.78252C28.4599 8.364 27.5987 7.0751 26.513 5.98942C25.4273 4.90373 24.1384 4.04252 22.7199 3.45495C21.3014 2.86739 19.781 2.56497 18.2457 2.56498C17.9141 2.56498 17.5962 2.43329 17.3618 2.19887C17.1274 1.96445 16.9957 1.6465 16.9957 1.31498ZM16.9957 11.4434C16.9957 11.1118 17.1274 10.7939 17.3618 10.5595C17.5962 10.3251 17.9141 10.1934 18.2457 10.1934C19.3233 10.1934 20.3569 10.6215 21.1189 11.3835C21.881 12.1456 22.3091 13.1791 22.3091 14.2568C22.3091 14.5883 22.1774 14.9063 21.943 15.1407C21.7086 15.3751 21.3906 15.5068 21.0591 15.5068C20.7276 15.5068 20.4096 15.3751 20.1752 15.1407C19.9408 14.9063 19.8091 14.5883 19.8091 14.2568C19.8091 13.8422 19.6444 13.4445 19.3512 13.1513C19.058 12.8581 18.6603 12.6934 18.2457 12.6934C18.0815 12.6934 17.919 12.661 17.7673 12.5982C17.6156 12.5354 17.4778 12.4433 17.3618 12.3272C17.2457 12.2112 17.1536 12.0734 17.0908 11.9217C17.028 11.7701 16.9957 11.6075 16.9957 11.4434ZM16.9957 6.37923C16.9957 6.04771 17.1274 5.72977 17.3618 5.49535C17.5962 5.26093 17.9141 5.12923 18.2457 5.12923C20.6664 5.12927 22.9881 6.09092 24.6998 7.80266C26.4116 9.5144 27.3733 11.836 27.3733 14.2568C27.3733 14.5883 27.2416 14.9063 27.0072 15.1407C26.7728 15.3751 26.4549 15.5068 26.1233 15.5068C25.7918 15.5068 25.4739 15.3751 25.2395 15.1407C25.005 14.9063 24.8733 14.5883 24.8733 14.2568C24.8733 12.499 24.175 10.8133 22.9321 9.57039C21.6892 8.32748 20.0034 7.6292 18.2457 7.62917C17.9141 7.62917 17.5962 7.49748 17.3618 7.26308C17.1274 7.02867 16.9957 6.71074 16.9957 6.37923Z" fill="white"/>
</svg>
