<svg width="21" height="14" viewBox="0 0 21 14" fill="none" xmlns="http://www.w3.org/2000/svg">
<path d="M2.56641 11.791C4.10449 10.9365 6.15527 9.08106 6.15527 7.5918C6.15527 7.25 6.10644 6.59082 5.95996 6.39551C5.47168 7.10352 4.51953 7.44531 3.61621 7.44531C1.41894 7.44531 0.271484 5.6875 0.271483 3.83203C0.271483 1.92774 1.56543 -0.000974928 4.32422 -0.000975169C6.66797 -0.000975374 9.37793 1.68359 9.37793 5.58984C9.37793 8.12891 8.03516 11.2051 4.27539 13.6953C4.12891 13.7441 4.00684 13.8418 3.95801 13.8906L2.56641 11.791ZM13.4551 11.791C14.9932 10.9365 17.0684 9.08105 17.0684 7.5918C17.0684 7.25 17.0195 6.59082 16.873 6.39551C16.3848 7.10352 15.4082 7.44531 14.5049 7.44531C12.3076 7.44531 11.1602 5.6875 11.1602 3.83203C11.1602 1.92774 12.4541 -0.00097588 15.2129 -0.000976121C17.5566 -0.000976326 20.2666 1.68359 20.2666 5.58984C20.2666 8.12891 18.9238 11.2051 15.1641 13.6953C15.0176 13.7441 14.9199 13.8418 14.8711 13.8906L13.4551 11.791Z" fill="#A5836A"/>
</svg>
