<svg width="21" height="15" viewBox="0 0 21 15" fill="none" xmlns="http://www.w3.org/2000/svg">
<path d="M17.9717 2.59961C16.4336 3.4541 14.3828 5.30957 14.3828 6.79883C14.3828 7.14062 14.4316 7.7998 14.5781 7.99512C15.0664 7.28711 16.0186 6.94531 16.9219 6.94531C19.1191 6.94531 20.2666 8.70312 20.2666 10.5586C20.2666 12.4629 18.9727 14.3916 16.2139 14.3916C13.8701 14.3916 11.1602 12.707 11.1602 8.80078C11.1602 6.26172 12.5029 3.18555 16.2627 0.695312C16.4092 0.646484 16.5312 0.548828 16.5801 0.5L17.9717 2.59961ZM7.08301 2.59961C5.54492 3.4541 3.46973 5.30957 3.46973 6.79883C3.46973 7.14062 3.51855 7.7998 3.66504 7.99512C4.15332 7.28711 5.12988 6.94531 6.0332 6.94531C8.23047 6.94531 9.37793 8.70312 9.37793 10.5586C9.37793 12.4629 8.08398 14.3916 5.3252 14.3916C2.98145 14.3916 0.271484 12.707 0.271484 8.80078C0.271484 6.26172 1.61426 3.18555 5.37402 0.695312C5.52051 0.646484 5.61816 0.548828 5.66699 0.5L7.08301 2.59961Z" fill="#A5836A"/>
</svg>
