<svg width="60" height="60" viewBox="0 0 60 60" fill="none" xmlns="http://www.w3.org/2000/svg">
<path d="M51.025 48.6916C53.4372 45.7514 54.7489 42.1001 54.7489 38.2491C54.7489 29.1512 47.3472 21.7495 38.2494 21.7495C38.2494 12.6517 30.8477 5.25 21.7498 5.25C12.652 5.25 5.25031 12.6517 5.25031 21.7495C5.25031 25.6005 6.56203 29.2519 8.97426 32.1921L5.73375 35.4326C5.26186 35.9045 5.11997 36.614 5.37571 37.231C5.6298 37.8481 6.23368 38.2491 6.90027 38.2491H21.7498C21.7498 47.3469 29.1515 54.7486 38.2494 54.7486H53.099C53.7655 54.7486 54.3694 54.346 54.6235 53.7306C54.8793 53.1135 54.7374 52.404 54.2655 51.9321L51.025 48.6916ZM10.8833 34.9492L12.4161 33.4164C13.0612 32.7712 13.0612 31.7284 12.4161 31.0833C9.92298 28.5902 8.55022 25.2755 8.55022 21.7495C8.55022 14.4716 14.4719 8.54991 21.7498 8.54991C29.0278 8.54991 34.9495 14.4716 34.9495 21.7495C34.9495 29.0275 29.0278 34.9492 21.7498 34.9492H10.8833ZM38.2494 51.4487C30.9714 51.4487 25.0498 45.527 25.0498 38.2491C25.0498 38.1352 25.0646 38.0263 25.0679 37.9141C31.5077 36.5942 36.5928 31.509 37.9144 25.0676C38.0266 25.0643 38.1372 25.0494 38.2494 25.0494C45.5273 25.0494 51.449 30.9711 51.449 38.2491C51.449 41.775 50.0762 45.0898 47.5832 47.5829C46.938 48.228 46.938 49.2708 47.5832 49.9159L49.116 51.4487H38.2494Z" fill="#BDBDBD"/>
<path d="M25.0795 27.4125L25.5316 27.8646C25.8533 28.1864 26.2757 28.3481 26.6981 28.3481C27.1205 28.3481 27.5429 28.1864 27.8646 27.8646C28.5098 27.2195 28.5098 26.1767 27.8646 25.5316L27.4125 25.0795C27.9917 24.0978 28.3481 22.9676 28.3481 21.7483C28.3481 18.1085 25.388 15.1484 21.7482 15.1484C18.1085 15.1484 15.1484 18.1085 15.1484 21.7483C15.1484 25.388 18.1085 28.3481 21.7482 28.3481C22.9692 28.3481 24.0978 27.9933 25.0795 27.4125ZM18.4483 21.7483C18.4483 19.9284 19.9284 18.4483 21.7482 18.4483C23.5681 18.4483 25.0482 19.9284 25.0482 21.7483C25.0482 22.0419 24.997 22.3208 24.9244 22.5914L24.5647 22.2317C23.9196 21.5866 22.8768 21.5866 22.2317 22.2317C21.5866 22.8768 21.5866 23.9196 22.2317 24.5647L22.5914 24.9244C22.3208 24.997 22.0403 25.0482 21.7482 25.0482C19.9284 25.0482 18.4483 23.5681 18.4483 21.7483Z" fill="#BDBDBD"/>
<path d="M39.7247 32.5656C39.1637 31.4469 37.3339 31.4469 36.7729 32.5656L31.8231 42.4653C31.4155 43.2804 31.7455 44.272 32.5606 44.6795C33.3757 45.0871 34.3657 44.7571 34.7748 43.942L35.1444 43.2045H41.3549L41.7244 43.942C42.0148 44.5211 42.5956 44.8544 43.2028 44.8544C43.4503 44.8544 43.7027 44.7983 43.9387 44.6812C44.7538 44.2736 45.0837 43.282 44.6762 42.4669L39.7264 32.5672L39.7247 32.5656ZM36.7944 39.9029L38.2496 36.9924L39.7049 39.9029H36.7944Z" fill="#BDBDBD"/>
</svg>
