<svg width="52" height="44" viewBox="0 0 52 44" fill="none" xmlns="http://www.w3.org/2000/svg">
<path d="M41.6974 23.7644V4.77401C41.6974 2.14408 39.5533 0 36.9235 0H4.77386C2.14401 0 0 2.14408 0 4.77401V23.7644C0 26.3943 2.14401 28.5384 4.77386 28.5384H6.13631V34.263C6.13631 35.3192 6.99181 36.1747 8.05853 36.1747C8.60774 36.1747 9.13582 35.9318 9.50548 35.5093L15.5362 28.5279H36.9341C39.5533 28.5384 41.6974 26.3943 41.6974 23.7644ZM14.9342 25.9507C14.5539 25.9507 14.2054 26.1092 13.9519 26.3943L8.71335 32.4463V27.2393C8.71335 26.5211 8.13246 25.9402 7.41427 25.9402H4.77386C3.56983 25.9402 2.5876 24.9579 2.5876 23.7539V4.77401C2.5876 3.56994 3.56983 2.58768 4.77386 2.58768H36.9235C38.1275 2.58768 39.1098 3.56994 39.1098 4.77401V23.7644C39.1098 24.9685 38.1275 25.9507 36.9235 25.9507H14.9342Z" fill="white"/>
<path d="M42.2155 43.3324C42.5852 43.7654 43.1133 43.9978 43.6519 43.9978C43.8737 43.9978 44.1061 43.9555 44.3278 43.871C45.0883 43.5859 45.5741 42.8888 45.5741 42.0755V36.3509H46.9366C49.5664 36.3509 51.7104 34.2068 51.7104 31.5769V12.5865C51.7104 9.95658 49.5664 7.8125 46.9366 7.8125C46.2184 7.8125 45.6375 8.39341 45.6375 9.10106C45.6375 9.81927 46.2184 10.4002 46.9366 10.4002C48.1406 10.4002 49.1228 11.3824 49.1228 12.5865V31.5769C49.1228 32.781 48.1406 33.7632 46.9366 33.7632H44.2856C43.5674 33.7632 42.9865 34.3441 42.9865 35.0624V40.2694L37.7479 34.2174C37.505 33.9322 37.1459 33.7738 36.7657 33.7738H17.3323C16.6141 33.7738 16.0332 34.3547 16.0332 35.0729C16.0332 35.7911 16.6141 36.372 17.3323 36.372H36.1743L42.2155 43.3324Z" fill="white"/>
<path d="M20.8467 16.2638C21.6983 16.2638 22.3887 15.5734 22.3887 14.7217C22.3887 13.8701 21.6983 13.1797 20.8467 13.1797C19.9951 13.1797 19.3047 13.8701 19.3047 14.7217C19.3047 15.5734 19.9951 16.2638 20.8467 16.2638Z" fill="white"/>
<path d="M26.0147 16.2638C26.8663 16.2638 27.5567 15.5734 27.5567 14.7217C27.5567 13.8701 26.8663 13.1797 26.0147 13.1797C25.163 13.1797 24.4727 13.8701 24.4727 14.7217C24.4727 15.5734 25.163 16.2638 26.0147 16.2638Z" fill="white"/>
<path d="M15.6846 16.2638C16.5362 16.2638 17.2266 15.5734 17.2266 14.7217C17.2266 13.8701 16.5362 13.1797 15.6846 13.1797C14.833 13.1797 14.1426 13.8701 14.1426 14.7217C14.1426 15.5734 14.833 16.2638 15.6846 16.2638Z" fill="white"/>
</svg>
