<svg width="13" height="10" viewBox="0 0 13 10" fill="none" xmlns="http://www.w3.org/2000/svg">
<path d="M2.73 0C3.37 0 3.9 0.159999 4.32 0.479999C4.74 0.779998 5.06 1.19 5.28 1.71C5.5 2.21 5.61 2.77 5.61 3.39C5.61 4.21 5.44 5 5.1 5.76C4.78 6.52 4.33 7.2 3.75 7.8C3.17 8.4 2.51 8.87 1.77 9.21L0 7.8C0.54 7.58 1.03 7.31 1.47 6.99C1.93 6.67 2.32 6.31 2.64 5.91C2.96 5.51 3.19 5.1 3.33 4.68L3.18 4.59C3.08 4.65 2.96 4.71 2.82 4.77C2.68 4.81 2.48 4.83 2.22 4.83C1.9 4.83 1.58 4.75 1.26 4.59C0.94 4.41 0.67 4.16 0.45 3.84C0.23 3.5 0.12 3.08 0.12 2.58C0.12 2.04 0.24 1.58 0.48 1.2C0.72 0.819999 1.04 0.529999 1.44 0.329999C1.84 0.109999 2.27 0 2.73 0ZM9.48 0C10.12 0 10.65 0.159999 11.07 0.479999C11.49 0.779998 11.81 1.19 12.03 1.71C12.25 2.21 12.36 2.77 12.36 3.39C12.36 4.21 12.19 5 11.85 5.76C11.53 6.52 11.08 7.2 10.5 7.8C9.92 8.4 9.26 8.87 8.52 9.21L6.75 7.8C7.29 7.58 7.78 7.31 8.22 6.99C8.68 6.67 9.07 6.31 9.39 5.91C9.71 5.51 9.94 5.1 10.08 4.68L9.93 4.59C9.83 4.65 9.71 4.71 9.57 4.77C9.43 4.81 9.23 4.83 8.97 4.83C8.65 4.83 8.33 4.75 8.01 4.59C7.69 4.41 7.42 4.16 7.2 3.84C6.98 3.5 6.87 3.08 6.87 2.58C6.87 2.04 6.99 1.58 7.23 1.2C7.47 0.819999 7.79 0.529999 8.19 0.329999C8.59 0.109999 9.02 0 9.48 0Z" fill="#A5836A"/>
</svg>
