<svg width="13" height="10" viewBox="0 0 13 10" fill="none" xmlns="http://www.w3.org/2000/svg">
<path d="M2.88 9.21C2.26 9.21 1.73 9.06 1.29 8.76C0.87 8.44 0.55 8.02 0.33 7.5C0.11 6.98 0 6.42 0 5.82C0 4.98 0.17 4.19 0.51 3.45C0.85 2.69 1.3 2.01 1.86 1.41C2.44 0.81 3.1 0.34 3.84 0L5.61 1.41C5.07 1.61 4.57 1.88 4.11 2.22C3.67 2.54 3.29 2.9 2.97 3.3C2.67 3.7 2.44 4.11 2.28 4.53L2.43 4.62C2.53 4.54 2.65 4.48 2.79 4.44C2.93 4.4 3.13 4.38 3.39 4.38C3.71 4.38 4.03 4.47 4.35 4.65C4.67 4.81 4.94 5.06 5.16 5.4C5.38 5.72 5.49 6.13 5.49 6.63C5.49 7.17 5.37 7.63 5.13 8.01C4.89 8.39 4.57 8.69 4.17 8.91C3.79 9.11 3.36 9.21 2.88 9.21ZM9.6 9.21C8.98 9.21 8.45 9.06 8.01 8.76C7.59 8.44 7.27 8.02 7.05 7.5C6.83 6.98 6.72 6.42 6.72 5.82C6.72 4.98 6.89 4.19 7.23 3.45C7.57 2.69 8.02 2.01 8.58 1.41C9.16 0.81 9.82 0.34 10.56 0L12.36 1.41C11.82 1.61 11.32 1.88 10.86 2.22C10.4 2.54 10.01 2.9 9.69 3.3C9.39 3.7 9.16 4.11 9 4.53L9.15 4.62C9.25 4.54 9.37 4.48 9.51 4.44C9.65 4.4 9.85 4.38 10.11 4.38C10.43 4.38 10.75 4.47 11.07 4.65C11.39 4.81 11.66 5.06 11.88 5.4C12.1 5.72 12.21 6.13 12.21 6.63C12.21 7.17 12.09 7.63 11.85 8.01C11.63 8.39 11.32 8.69 10.92 8.91C10.52 9.11 10.08 9.21 9.6 9.21Z" fill="#A5836A"/>
</svg>
