<svg width="64" height="64" viewBox="0 0 64 64" fill="none" xmlns="http://www.w3.org/2000/svg">
<rect width="64" height="64" rx="32" fill="#EEEEEE"/>
<path d="M41.8039 34.0906V22.339C41.8039 20.7116 40.4771 19.3848 38.8497 19.3848H18.9542C17.3268 19.3848 16 20.7116 16 22.339V34.0906C16 35.7181 17.3268 37.0449 18.9542 37.0449H19.7974V40.5874C19.7974 41.241 20.3268 41.7704 20.9869 41.7704C21.3268 41.7704 21.6536 41.6201 21.8824 41.3586L25.6144 37.0384H38.8562C40.4771 37.0449 41.8039 35.7181 41.8039 34.0906ZM25.2418 35.4436C25.0065 35.4436 24.7909 35.5416 24.634 35.7181L21.3922 39.4632V36.241C21.3922 35.7965 21.0327 35.4371 20.5882 35.4371H18.9542C18.2092 35.4371 17.6013 34.8292 17.6013 34.0841V22.339C17.6013 21.5939 18.2092 20.9861 18.9542 20.9861H38.8497C39.5948 20.9861 40.2026 21.5939 40.2026 22.339V34.0906C40.2026 34.8357 39.5948 35.4436 38.8497 35.4436H25.2418Z" fill="black"/>
<path d="M42.1245 46.2011C42.3532 46.4691 42.68 46.6129 43.0134 46.6129C43.1506 46.6129 43.2944 46.5867 43.4317 46.5344C43.9023 46.358 44.2029 45.9266 44.2029 45.4233V41.8808H45.0461C46.6735 41.8808 48.0003 40.554 48.0003 38.9266V27.175C48.0003 25.5475 46.6735 24.2207 45.0461 24.2207C44.6016 24.2207 44.2421 24.5802 44.2421 25.0181C44.2421 25.4625 44.6016 25.822 45.0461 25.822C45.7912 25.822 46.399 26.4299 46.399 27.175V38.9266C46.399 39.6717 45.7912 40.2795 45.0461 40.2795H43.4055C42.9611 40.2795 42.6016 40.639 42.6016 41.0834V44.3057L39.3598 40.5606C39.2095 40.3841 38.9872 40.2861 38.7519 40.2861H26.7258C26.2814 40.2861 25.9219 40.6455 25.9219 41.09C25.9219 41.5344 26.2814 41.8939 26.7258 41.8939H38.3859L42.1245 46.2011Z" fill="black"/>
<path d="M28.9015 29.4495C29.4285 29.4495 29.8558 29.0223 29.8558 28.4953C29.8558 27.9682 29.4285 27.541 28.9015 27.541C28.3745 27.541 27.9473 27.9682 27.9473 28.4953C27.9473 29.0223 28.3745 29.4495 28.9015 29.4495Z" fill="black"/>
<path d="M32.0988 29.4495C32.6258 29.4495 33.053 29.0223 33.053 28.4953C33.053 27.9682 32.6258 27.541 32.0988 27.541C31.5718 27.541 31.1445 27.9682 31.1445 28.4953C31.1445 29.0223 31.5718 29.4495 32.0988 29.4495Z" fill="black"/>
<path d="M25.7062 29.4495C26.2332 29.4495 26.6605 29.0223 26.6605 28.4953C26.6605 27.9682 26.2332 27.541 25.7062 27.541C25.1792 27.541 24.752 27.9682 24.752 28.4953C24.752 29.0223 25.1792 29.4495 25.7062 29.4495Z" fill="black"/>
</svg>
