<svg width="48" height="50" viewBox="0 0 48 50" fill="none" xmlns="http://www.w3.org/2000/svg">
<path d="M45.346 18.005H34V8.80501C34 8.06241 33.705 7.35022 33.1799 6.82511C32.6548 6.30001 31.9426 6.00501 31.2 6.00501H24V5.00501C24 4.7398 23.8946 4.48544 23.7071 4.29791C23.5196 4.11037 23.2652 4.00501 23 4.00501H21.898C21.6685 2.87472 21.0553 1.85854 20.1623 1.12864C19.2692 0.398732 18.1514 0 16.998 0C15.8446 0 14.7268 0.398732 13.8337 1.12864C12.9407 1.85854 12.3275 2.87472 12.098 4.00501H11C10.7348 4.00501 10.4804 4.11037 10.2929 4.29791C10.1054 4.48544 10 4.7398 10 5.00501V6.00501H2.8C2.05739 6.00501 1.3452 6.30001 0.820101 6.82511C0.294999 7.35022 0 8.06241 0 8.80501V43.205C0 43.9476 0.294999 44.6598 0.820101 45.1849C1.3452 45.71 2.05739 46.005 2.8 46.005H26V47.351C26.0011 48.0546 26.281 48.729 26.7785 49.2265C27.276 49.724 27.9504 50.004 28.654 50.005H45.346C46.0496 50.004 46.724 49.724 47.2215 49.2265C47.719 48.729 47.9989 48.0546 48 47.351V20.659C47.9989 19.9555 47.719 19.281 47.2215 18.7835C46.724 18.286 46.0496 18.0061 45.346 18.005ZM17 2.00501C17.6183 2.00758 18.2206 2.2011 18.7247 2.5591C19.2288 2.9171 19.6099 3.4221 19.816 4.00501H14.184C14.3901 3.4221 14.7712 2.9171 15.2753 2.5591C15.7794 2.2011 16.3817 2.00758 17 2.00501ZM12 6.00501H22V8.00501H12V6.00501ZM2.8 44.005C2.58783 44.005 2.38434 43.9207 2.23431 43.7707C2.08429 43.6207 2 43.4172 2 43.205V8.80501C2 8.69996 2.02069 8.59593 2.0609 8.49887C2.1011 8.40181 2.16003 8.31361 2.23431 8.23933C2.3086 8.16504 2.39679 8.10611 2.49385 8.06591C2.59091 8.02571 2.69494 8.00501 2.8 8.00501H10V9.00501C10 9.27023 10.1054 9.52458 10.2929 9.71212C10.4804 9.89966 10.7348 10.005 11 10.005H23C23.2652 10.005 23.5196 9.89966 23.7071 9.71212C23.8946 9.52458 24 9.27023 24 9.00501V8.00501H31.2C31.3051 8.00501 31.4091 8.02571 31.5061 8.06591C31.6032 8.10611 31.6914 8.16504 31.7657 8.23933C31.84 8.31361 31.8989 8.40181 31.9391 8.49887C31.9793 8.59593 32 8.69996 32 8.80501V18.005H28.654C27.9504 18.0061 27.276 18.286 26.7785 18.7835C26.281 19.281 26.0011 19.9555 26 20.659V44.005H2.8ZM46 47.351C46 47.5245 45.9311 47.6908 45.8085 47.8135C45.6858 47.9361 45.5195 48.005 45.346 48.005H28.654C28.5681 48.005 28.4831 47.9881 28.4037 47.9552C28.3244 47.9224 28.2523 47.8742 28.1916 47.8135C28.1308 47.7527 28.0827 47.6806 28.0498 47.6013C28.0169 47.5219 28 47.4369 28 47.351V20.659C28 20.5731 28.0169 20.4881 28.0498 20.4087C28.0827 20.3294 28.1308 20.2573 28.1916 20.1966C28.2523 20.1358 28.3244 20.0877 28.4037 20.0548C28.4831 20.0219 28.5681 20.005 28.654 20.005H45.346C45.5195 20.005 45.6858 20.0739 45.8085 20.1966C45.9311 20.3192 46 20.4856 46 20.659V47.351Z" fill="#A5836A"/>
<path d="M43 22.0078H31C30.7348 22.0078 30.4804 22.1132 30.2929 22.3007C30.1054 22.4882 30 22.7426 30 23.0078V29.0078C30 29.273 30.1054 29.5274 30.2929 29.7149C30.4804 29.9025 30.7348 30.0078 31 30.0078H43C43.2652 30.0078 43.5196 29.9025 43.7071 29.7149C43.8946 29.5274 44 29.273 44 29.0078V23.0078C44 22.7426 43.8946 22.4882 43.7071 22.3007C43.5196 22.1132 43.2652 22.0078 43 22.0078ZM42 28.0078H32V24.0078H42V28.0078Z" fill="#F6BC50"/>
<path d="M43 32.0078H31C30.7348 32.0078 30.4804 32.1132 30.2929 32.3007C30.1054 32.4882 30 32.7426 30 33.0078V45.0078C30 45.273 30.1054 45.5274 30.2929 45.7149C30.4804 45.9025 30.7348 46.0078 31 46.0078H43C43.2652 46.0078 43.5196 45.9025 43.7071 45.7149C43.8946 45.5274 44 45.273 44 45.0078V33.0078C44 32.7426 43.8946 32.4882 43.7071 32.3007C43.5196 32.1132 43.2652 32.0078 43 32.0078ZM36 40.0078V38.0078H38V40.0078H36ZM32 38.0078H34V40.0078H32V38.0078ZM36 36.0078V34.0078H38V36.0078H36ZM40 38.0078H42V40.0078H40V38.0078ZM42 36.0078H40V34.0078H42V36.0078ZM34 34.0078V36.0078H32V34.0078H34ZM32 42.0078H34V44.0078H32V42.0078ZM36 44.0078V42.0078H42V44.0078H36Z" fill="#A5836A"/>
<path opacity="0.6" d="M7 16.0078H27C27.2652 16.0078 27.5196 15.9025 27.7071 15.7149C27.8946 15.5274 28 15.273 28 15.0078C28 14.7426 27.8946 14.4882 27.7071 14.3007C27.5196 14.1132 27.2652 14.0078 27 14.0078H7C6.73478 14.0078 6.48043 14.1132 6.29289 14.3007C6.10536 14.4882 6 14.7426 6 15.0078C6 15.273 6.10536 15.5274 6.29289 15.7149C6.48043 15.9025 6.73478 16.0078 7 16.0078Z" fill="#A5836A"/>
<path opacity="0.6" d="M21 20.0078H7C6.73478 20.0078 6.48043 20.1132 6.29289 20.3007C6.10536 20.4882 6 20.7426 6 21.0078C6 21.273 6.10536 21.5274 6.29289 21.7149C6.48043 21.9025 6.73478 22.0078 7 22.0078H21C21.2652 22.0078 21.5196 21.9025 21.7071 21.7149C21.8946 21.5274 22 21.273 22 21.0078C22 20.7426 21.8946 20.4882 21.7071 20.3007C21.5196 20.1132 21.2652 20.0078 21 20.0078Z" fill="#A5836A"/>
<path opacity="0.6" d="M21 26.0078H7C6.73478 26.0078 6.48043 26.1132 6.29289 26.3007C6.10536 26.4882 6 26.7426 6 27.0078C6 27.273 6.10536 27.5274 6.29289 27.7149C6.48043 27.9025 6.73478 28.0078 7 28.0078H21C21.2652 28.0078 21.5196 27.9025 21.7071 27.7149C21.8946 27.5274 22 27.273 22 27.0078C22 26.7426 21.8946 26.4882 21.7071 26.3007C21.5196 26.1132 21.2652 26.0078 21 26.0078Z" fill="#A5836A"/>
</svg>
