<svg width="48" height="48" viewBox="0 0 48 48" fill="none" xmlns="http://www.w3.org/2000/svg">
<g clip-path="url(#clip0_1177_2287)">
<path d="M44 0H9C7.93948 0.0011118 6.92271 0.422896 6.1728 1.1728C5.4229 1.92271 5.00111 2.93947 5 4V6H4C2.93948 6.00111 1.92271 6.4229 1.1728 7.1728C0.422896 7.9227 0.0011118 8.93947 0 10L0 34C0.0011118 35.0605 0.422896 36.0773 1.1728 36.8272C1.92271 37.5771 2.93948 37.9989 4 38H5C5.26522 38 5.51957 37.8946 5.70711 37.7071C5.89464 37.5196 6 37.2652 6 37C6 36.7348 5.89464 36.4804 5.70711 36.2929C5.51957 36.1054 5.26522 36 5 36H4C3.46975 35.9994 2.9614 35.7885 2.58646 35.4135C2.21152 35.0386 2.00061 34.5302 2 34V10C2.00061 9.46975 2.21152 8.9614 2.58646 8.58646C2.9614 8.21152 3.46975 8.00061 4 8H14.26C14.612 8.0005 14.9577 8.0939 15.262 8.27077C15.5664 8.44764 15.8187 8.7017 15.9934 9.0073L17.9807 12.4736C18.4169 13.24 19.048 13.8774 19.8101 14.3211C20.5722 14.7648 21.4381 14.999 22.32 15H38C38.5302 15.0006 39.0386 15.2115 39.4135 15.5865C39.7885 15.9614 39.9994 16.4698 40 17V34C39.999 34.7024 40.1843 35.3926 40.5371 36H37C36.7348 36 36.4804 36.1054 36.2929 36.2929C36.1054 36.4804 36 36.7348 36 37C36 37.2652 36.1054 37.5196 36.2929 37.7071C36.4804 37.8946 36.7348 38 37 38H44C45.0605 37.9989 46.0773 37.5771 46.8272 36.8272C47.5771 36.0773 47.9989 35.0605 48 34V4C47.9989 2.93947 47.5771 1.92271 46.8272 1.1728C46.0773 0.422896 45.0605 0.0011118 44 0ZM46 34C46 34.5304 45.7893 35.0391 45.4142 35.4142C45.0391 35.7893 44.5304 36 44 36C43.4696 36 42.9609 35.7893 42.5858 35.4142C42.2107 35.0391 42 34.5304 42 34V17C41.9989 15.9395 41.5771 14.9227 40.8272 14.1728C40.0773 13.4229 39.0605 13.0011 38 13H22.32C21.7907 12.9992 21.2711 12.8584 20.8139 12.5918C20.3566 12.3253 19.978 11.9425 19.7165 11.4824L17.7285 8.0142C17.3789 7.40283 16.874 6.89462 16.265 6.54094C15.6559 6.18726 14.9643 6.00066 14.26 6H7V4C7.00061 3.46975 7.21152 2.9614 7.58646 2.58646C7.9614 2.21152 8.46975 2.00061 9 2H44C44.5302 2.00061 45.0386 2.21152 45.4135 2.58646C45.7885 2.9614 45.9994 3.46975 46 4V34Z" fill="#A5836A"/>
<path d="M30 26H12C10.9395 26.0011 9.92271 26.4229 9.1728 27.1728C8.4229 27.9227 8.00111 28.9395 8 30V44C8.00111 45.0605 8.4229 46.0773 9.1728 46.8272C9.92271 47.5771 10.9395 47.9989 12 48H30C31.0605 47.9989 32.0773 47.5771 32.8272 46.8272C33.5771 46.0773 33.9989 45.0605 34 44V30C33.9989 28.9395 33.5771 27.9227 32.8272 27.1728C32.0773 26.4229 31.0605 26.0011 30 26ZM12 28H30C30.5303 28.0006 31.0386 28.2115 31.4135 28.5865C31.7885 28.9614 31.9994 29.4698 32 30V35.5859L28.707 32.293C28.6142 32.2001 28.504 32.1264 28.3827 32.0761C28.2614 32.0258 28.1313 32 28 32C27.8687 32 27.7387 32.0258 27.6173 32.0761C27.496 32.1264 27.3858 32.2001 27.293 32.293L20 39.5859L15.707 35.293C15.6142 35.2001 15.504 35.1264 15.3827 35.0761C15.2614 35.0258 15.1313 35 15 35C14.8687 35 14.7387 35.0258 14.6173 35.0761C14.496 35.1264 14.3858 35.2001 14.293 35.293L10 39.5859V30C10.0006 29.4698 10.2115 28.9614 10.5865 28.5865C10.9614 28.2115 11.4698 28.0006 12 28ZM10 44V42.4141L15 37.4141L19.293 41.707L23.5863 46H12C11.4698 45.9994 10.9614 45.7885 10.5865 45.4135C10.2115 45.0386 10.0006 44.5302 10 44ZM30 46H26.4146L21.4146 41L28 34.4141L32 38.4141V44C31.9994 44.5302 31.7885 45.0386 31.4135 45.4135C31.0386 45.7885 30.5303 45.9994 30 46Z" fill="#F6BC50"/>
<path d="M20 36C20.5933 36 21.1734 35.8241 21.6667 35.4944C22.1601 35.1648 22.5446 34.6962 22.7716 34.148C22.9987 33.5999 23.0581 32.9967 22.9424 32.4147C22.8266 31.8328 22.5409 31.2982 22.1213 30.8787C21.7018 30.4591 21.1672 30.1734 20.5853 30.0576C20.0033 29.9419 19.4001 30.0013 18.8519 30.2284C18.3038 30.4554 17.8352 30.8399 17.5056 31.3333C17.1759 31.8266 17 32.4067 17 33C17.0009 33.7954 17.3172 34.5579 17.8796 35.1204C18.4421 35.6828 19.2046 35.9991 20 36ZM20 32C20.1978 32 20.3911 32.0586 20.5556 32.1685C20.72 32.2784 20.8482 32.4346 20.9239 32.6173C20.9996 32.8 21.0194 33.0011 20.9808 33.1951C20.9422 33.3891 20.847 33.5673 20.7071 33.7071C20.5673 33.847 20.3891 33.9422 20.1951 33.9808C20.0011 34.0194 19.8 33.9996 19.6173 33.9239C19.4346 33.8482 19.2784 33.72 19.1685 33.5556C19.0586 33.3911 19 33.1978 19 33C19.0002 32.7349 19.1057 32.4806 19.2932 32.2932C19.4806 32.1057 19.7349 32.0002 20 32Z" fill="#F6BC50"/>
</g>
<defs>
<clipPath id="clip0_1177_2287">
<rect width="48" height="48" fill="white"/>
</clipPath>
</defs>
</svg>
