<svg width="54" height="54" viewBox="0 0 54 54" fill="none" xmlns="http://www.w3.org/2000/svg">
<path d="M13.6768 48.7383C13.0878 48.7383 12.6102 48.2612 12.6102 47.6716V46.9539C12.6102 44.5185 14.5914 42.5372 17.0268 42.5372H22.4096C23.4049 42.5372 24.2143 41.7279 24.2143 40.7331C24.2143 39.7383 23.4049 38.9289 22.4096 38.9289H10.693C8.45182 38.9289 6.62891 37.106 6.62891 34.8654C6.62891 32.6237 8.45182 30.8008 10.693 30.8008H14.2206C14.8096 30.8008 15.2872 31.2779 15.2872 31.8674C15.2872 32.457 14.8096 32.9341 14.2206 32.9341H10.693C9.62839 32.9341 8.76224 33.8008 8.76224 34.8654C8.76224 35.9299 9.62839 36.7956 10.693 36.7956H22.4096C24.581 36.7956 26.3477 38.5622 26.3477 40.7331C26.3477 42.9039 24.581 44.6706 22.4096 44.6706H17.0268C15.768 44.6706 14.7435 45.6945 14.7435 46.9539V47.6716C14.7435 48.2612 14.2659 48.7383 13.6768 48.7383Z" fill="#A5836A"/>
<path d="M49.4208 53.3326H3.91302C1.75521 53.3326 0 51.5774 0 49.4201V21.3617C0 19.2044 1.75521 17.4492 3.91302 17.4492H20.1745C20.7635 17.4492 21.2411 17.9263 21.2411 18.5159C21.2411 19.1055 20.7635 19.5826 20.1745 19.5826H3.91302C2.93177 19.5826 2.13333 20.3805 2.13333 21.3617V49.4201C2.13333 50.4013 2.93177 51.1992 3.91302 51.1992H49.4208C50.4021 51.1992 51.2 50.4013 51.2 49.4201V21.3617C51.2 20.3805 50.4021 19.5826 49.4208 19.5826H29.1781C28.5891 19.5826 28.1115 19.1055 28.1115 18.5159C28.1115 17.9263 28.5891 17.4492 29.1781 17.4492H49.4208C51.5781 17.4492 53.3333 19.2044 53.3333 21.3617V49.4201C53.3333 51.5774 51.5781 53.3326 49.4208 53.3326Z" fill="#A5836A"/>
<path d="M43.2053 53.3336C42.6163 53.3336 42.1387 52.8565 42.1387 52.2669V18.6565C42.1387 18.0669 42.6163 17.5898 43.2053 17.5898C43.7944 17.5898 44.272 18.0669 44.272 18.6565V52.2669C44.272 52.8565 43.7944 53.3336 43.2053 53.3336Z" fill="#A5836A"/>
<path d="M47.7356 31.3802C47.1465 31.3802 46.6689 30.9031 46.6689 30.3135V28.2542C46.6689 27.6646 47.1465 27.1875 47.7356 27.1875C48.3247 27.1875 48.8023 27.6646 48.8023 28.2542V30.3135C48.8023 30.9031 48.3247 31.3802 47.7356 31.3802Z" fill="#A5836A"/>
<path d="M47.7356 37.5599C47.1465 37.5599 46.6689 37.0828 46.6689 36.4932V34.4339C46.6689 33.8443 47.1465 33.3672 47.7356 33.3672C48.3247 33.3672 48.8023 33.8443 48.8023 34.4339V36.4932C48.8023 37.0828 48.3247 37.5599 47.7356 37.5599Z" fill="#A5836A"/>
<path d="M47.7356 43.7346C47.1465 43.7346 46.6689 43.2576 46.6689 42.668V40.6096C46.6689 40.0201 47.1465 39.543 47.7356 39.543C48.3247 39.543 48.8023 40.0201 48.8023 40.6096V42.668C48.8023 43.2576 48.3247 43.7346 47.7356 43.7346Z" fill="#A5836A"/>
<path d="M14.2211 32.9321C13.9878 32.9321 13.755 32.855 13.5633 32.705C13.2253 32.4404 13.0789 31.9987 13.192 31.5842L15.6024 22.7602C15.6399 22.6237 15.7045 22.4956 15.792 22.3842L31.9394 1.76854C32.6987 0.798746 33.7899 0.183121 35.0128 0.0341627C36.2357 -0.113754 37.4425 0.221663 38.4118 0.982079C40.4128 2.54979 40.7659 5.45291 39.1982 7.45395L23.0513 28.0696C22.9638 28.1821 22.855 28.2748 22.731 28.3435L14.7404 32.7967C14.5784 32.8873 14.3993 32.9321 14.2211 32.9321ZM17.6039 23.53L15.919 29.6977L21.5045 26.5852L37.5191 6.13937C38.3612 5.06333 38.1717 3.50395 37.0961 2.66125C36.5753 2.25291 35.9232 2.07166 35.2701 2.15187C34.6133 2.23208 34.0269 2.56229 33.6185 3.08312L17.6039 23.53Z" fill="#F6BC50"/>
<path d="M22.2108 28.4809C21.9806 28.4809 21.7489 28.4069 21.5535 28.2538L15.9733 23.883C15.5098 23.5194 15.428 22.8496 15.7916 22.3861C16.1556 21.9215 16.8254 21.8403 17.289 22.2038L22.8692 26.5746C23.3327 26.9382 23.4145 27.608 23.0509 28.0715C22.8405 28.3403 22.5275 28.4809 22.2108 28.4809Z" fill="#F6BC50"/>
<path d="M34.161 13.222C33.9308 13.222 33.6991 13.1481 33.5037 12.9949L27.9235 8.62515C27.46 8.26265 27.3782 7.59182 27.7418 7.12827C28.1043 6.66369 28.7751 6.58244 29.2392 6.94598L34.8194 11.3158C35.2829 11.6783 35.3647 12.3491 35.0011 12.8127C34.7912 13.0814 34.4777 13.222 34.161 13.222Z" fill="#F6BC50"/>
</svg>
