<svg width="85" height="80" viewBox="0 0 85 80" fill="none" xmlns="http://www.w3.org/2000/svg">
<path d="M13.7837 72.4062V73.6406H0.986874V72.4062H6.59625V69.4219H2.11187V68.2188H4.19V63.8281H2.065V62.6094H12.6275V63.8281H10.5025V68.2188H12.5962V69.4219H8.08062V72.4062H13.7837ZM5.67437 68.2188H9.01812V63.8281H5.67437V68.2188ZM19.2256 63.8906C19.2178 65.6641 20.46 67.2891 22.585 67.9688L21.8662 69.1406C20.2725 68.625 19.1162 67.5859 18.5069 66.25C17.8897 67.7891 16.6631 69 14.9756 69.5781L14.2256 68.4062C16.4131 67.6562 17.7178 65.8438 17.7256 63.9062V63.5469H14.6631V62.3281H22.2412V63.5469H19.2256V63.8906ZM25.3194 61.3281V64.7812H27.3506V66.0156H25.3194V69.7344H23.835V61.3281H25.3194ZM20.8037 70.0625C23.6866 70.0625 25.4678 71.0234 25.4756 72.6719C25.4678 74.3281 23.6944 75.3047 20.8037 75.2969C17.9053 75.3047 16.1162 74.3281 16.1162 72.6719C16.1162 71.0234 17.9131 70.0625 20.8037 70.0625ZM20.8037 71.25C18.7881 71.25 17.5928 71.75 17.585 72.6719C17.5928 73.6094 18.7803 74.1328 20.8037 74.125C22.8194 74.1328 24.0069 73.6094 24.0069 72.6719C24.0069 71.75 22.8116 71.25 20.8037 71.25ZM40.4331 68.1562V69.3594H27.6675V68.1562H30.7456V66.2812C29.6597 65.8359 29.0425 65.125 29.0425 64.2031C29.0425 62.5469 30.98 61.5625 34.0425 61.5625C37.1284 61.5625 39.0581 62.5469 39.0581 64.2031C39.0581 65.125 38.4409 65.8359 37.355 66.2812V68.1562H40.4331ZM34.0425 70.3125C37.0659 70.3125 38.8941 71.2109 38.8862 72.7969C38.8941 74.4062 37.0659 75.3125 34.0425 75.3125C31.0112 75.3125 29.1831 74.4062 29.1831 72.7969C29.1831 71.2109 31.0112 70.3125 34.0425 70.3125ZM34.0425 71.4531C31.9253 71.4531 30.6909 71.9375 30.6987 72.7969C30.6909 73.6875 31.9175 74.1641 34.0425 74.1719C36.1675 74.1641 37.3862 73.6875 37.3862 72.7969C37.3862 71.9375 36.1597 71.4531 34.0425 71.4531ZM34.0425 62.7344C31.8941 62.7266 30.5894 63.25 30.5894 64.2031C30.5894 65.1406 31.9097 65.6641 34.0425 65.6719C36.2066 65.6641 37.5191 65.1406 37.5269 64.2031C37.5191 63.25 36.2144 62.7266 34.0425 62.7344ZM32.23 68.1562H35.8706V66.6719C35.3237 66.7656 34.7066 66.8125 34.0425 66.8125C33.3862 66.8125 32.7769 66.7656 32.23 66.6719V68.1562ZM50.2388 62.9688V64.1719H46.4263V66.75H49.6294V67.9219H46.4263V70.8281C48.2153 70.8125 49.4575 70.7656 50.895 70.4844L51.0356 71.7031C49.4184 72.0078 48.0591 72.0469 45.9263 72.0469H45.0044V62.9688H50.2388ZM56.5356 61.3281V75.3125H55.1138V61.3281H56.5356ZM53.645 61.625V74.625H52.2388V67.7812H50.3481V66.5625H52.2388V61.625H53.645ZM69.4619 61.3281V75.3438H67.9619V61.3281H69.4619ZM61.9619 62.375C64.0712 62.375 65.5869 64.2891 65.5869 67.2812C65.5869 70.2812 64.0712 72.2031 61.9619 72.2031C59.8681 72.2031 58.3447 70.2812 58.3525 67.2812C58.3447 64.2891 59.8681 62.375 61.9619 62.375ZM61.9619 63.7188C60.6728 63.7188 59.7822 65.0859 59.79 67.2812C59.7822 69.5 60.6728 70.8672 61.9619 70.8594C63.2587 70.8672 64.1494 69.5 64.1494 67.2812C64.1494 65.0859 63.2587 63.7188 61.9619 63.7188ZM84.0131 72.3438V73.5781H71.2162V72.3438H84.0131ZM82.8569 62.6719V63.8906H80.7319V68.5469H82.8256V69.75H72.3412V68.5469H74.4194V63.8906H72.2944V62.6719H82.8569ZM75.9037 68.5469H79.2475V63.8906H75.9037V68.5469Z" fill="#584439"/>
<g clip-path="url(#clip0_1018_20472)">
<path d="M42.6902 14.2687C49.1789 14.2687 54.439 12.3399 54.439 9.96054C54.439 7.58119 49.1789 5.65234 42.6902 5.65234C36.2015 5.65234 30.9414 7.58119 30.9414 9.96054C30.9414 12.3399 36.2015 14.2687 42.6902 14.2687Z" stroke="#584439" stroke-width="1.76" stroke-linecap="round" stroke-linejoin="round"/>
<path d="M32.75 23.7139V37.7419" stroke="#584439" stroke-width="1.76" stroke-linecap="round" stroke-linejoin="round"/>
<path d="M42.6913 19.0371C37.2009 19.0371 32.75 21.0872 32.75 23.713C32.75 26.3389 37.2009 28.4676 42.6913 28.4676L41.3357 30.8056L42.6913 33.1436L41.3357 35.4816L42.6913 37.8196L41.3357 40.1576L42.6913 42.4956C37.2009 42.4956 32.75 40.367 32.75 37.7411" stroke="#584439" stroke-width="1.76" stroke-linecap="round" stroke-linejoin="round"/>
<path d="M32.8537 17.7249C27.3726 16.1332 23.7109 13.2514 23.7109 9.96062C23.7109 4.94762 32.208 0.883789 42.6898 0.883789C53.1715 0.883789 61.6686 4.94762 61.6686 9.96062C61.6686 14.9736 53.1715 19.0374 42.6898 19.0374" stroke="#584439" stroke-width="1.76" stroke-linecap="round" stroke-linejoin="round"/>
<path d="M46.3555 32.8767C55.0825 32.0597 61.6675 28.3822 61.6675 23.9691V9.96094" stroke="#584439" stroke-width="1.76" stroke-linecap="round" stroke-linejoin="round"/>
<path d="M23.7109 9.96094V23.9691C23.7109 26.4197 25.7415 28.6434 29.0418 30.2765" stroke="#584439" stroke-width="1.76" stroke-linecap="round" stroke-linejoin="round"/>
</g>
<defs>
<clipPath id="clip0_1018_20472">
<rect width="43.3802" height="43.3802" fill="white" transform="translate(21)"/>
</clipPath>
</defs>
</svg>
