<svg width="134" height="113" viewBox="0 0 134 113" fill="none" xmlns="http://www.w3.org/2000/svg">
<path d="M96.9082 62.2441C97.2107 61.614 97.968 61.3585 98.6035 61.6758V61.6768L102.782 63.7725L102.79 63.7803L102.807 63.791C102.84 63.8135 102.874 63.8398 102.91 63.8711C102.943 63.8997 102.987 63.9396 103.027 63.9717C103.124 64.0491 103.159 64.0656 103.198 64.1133C103.21 64.1287 103.222 64.1491 103.239 64.1816C103.255 64.2117 103.278 64.256 103.304 64.2988L103.303 64.2998L103.309 64.3076C103.363 64.3899 103.408 64.4723 103.429 64.5449L103.432 64.5439C103.434 64.5546 103.434 64.5646 103.437 64.5713C103.438 64.5745 103.439 64.5773 103.44 64.5801C103.442 64.5927 103.443 64.6077 103.443 64.6367C103.443 64.6662 103.445 64.7129 103.454 64.7666L103.453 64.7676C103.468 64.875 103.478 64.949 103.468 65.0186L103.466 65.0332V65.0469C103.466 65.0695 103.46 65.0954 103.448 65.1348C103.442 65.155 103.436 65.1753 103.427 65.2012C103.418 65.2258 103.408 65.2545 103.399 65.2852H103.4C103.384 65.331 103.373 65.371 103.367 65.3994C103.36 65.4308 103.356 65.4486 103.349 65.4668L101.259 69.6338C101.03 70.0784 100.586 70.332 100.116 70.332C99.9299 70.332 99.7257 70.2822 99.5459 70.1924C98.9101 69.8745 98.6596 69.1148 98.9746 68.4971V68.4951L99.6201 67.2041L99.8174 66.8105L99.3906 66.9219L79.2393 72.1719L78.7305 72.3047L79.1982 72.5439L79.8877 72.8955L79.8896 72.8965C80.4857 73.1946 80.7425 73.881 80.5127 74.4746L80.4609 74.5918C80.2322 75.0363 79.7884 75.29 79.3184 75.29C79.132 75.29 78.9278 75.2393 78.748 75.1494L74.5957 73.0664C74.5703 73.0417 74.5326 73.008 74.4893 72.9844H74.4902C74.4078 72.9373 74.334 72.876 74.2539 72.7959L74.1377 72.6807C74.0874 72.6038 74.0389 72.5174 74.0029 72.4336H74C73.986 72.3919 73.9709 72.3549 73.9609 72.335C73.9532 72.3195 73.9483 72.309 73.9443 72.2998C73.9426 72.2959 73.9412 72.2931 73.9404 72.291C73.9399 72.2896 73.9396 72.2885 73.9395 72.2881H73.9365C73.9336 72.2747 73.9336 72.2628 73.9307 72.2549C73.9293 72.2512 73.9271 72.2482 73.9258 72.2451C73.924 72.2327 73.9238 72.2177 73.9238 72.1895C73.9238 72.1598 73.9218 72.1128 73.9121 72.0586H73.9141C73.9064 72.005 73.9008 71.9641 73.8994 71.9287C73.8983 71.898 73.9008 71.8851 73.9014 71.8828L73.916 71.8467V71.8086C73.916 71.786 73.9206 71.7599 73.9326 71.7207C73.9388 71.7004 73.9463 71.6802 73.9551 71.6543C73.9634 71.6298 73.9727 71.6009 73.9814 71.5703L73.9805 71.5693C73.997 71.5238 74.0074 71.4843 74.0137 71.4561C74.0207 71.4244 74.0252 71.4061 74.0322 71.3877L76.124 67.2197V67.2188C76.4418 66.5833 77.1879 66.3318 77.8213 66.6484C78.4571 66.9663 78.7076 67.726 78.3926 68.3438L78.3916 68.3457L77.7471 69.6367L77.5498 70.0303L77.9756 69.9189L98.1279 64.6689L98.6367 64.5361L98.168 64.2969L97.4795 63.9453L97.4775 63.9443L97.3633 63.8799C96.8128 63.5323 96.6109 62.8283 96.9062 62.249L96.9082 62.2441Z" fill="#584439" stroke="white" stroke-width="0.4"/>
<path d="M35.4229 61.6475C36.0429 61.3441 36.8048 61.597 37.1221 62.2188C37.4361 62.8342 37.1739 63.5961 36.5488 63.915L35.8623 64.251L35.377 64.4883L35.9004 64.624L56.0518 69.8604L56.4785 69.9707L56.2812 69.5771L55.6367 68.2881C55.333 67.668 55.5861 66.9062 56.208 66.5889C56.7851 66.2945 57.4912 66.506 57.8398 67.0488L57.9043 67.1621L60.001 71.3408C60.0015 71.342 60.0031 71.3451 60.0049 71.3516C60.0074 71.3606 60.01 71.372 60.0137 71.3896C60.0197 71.4184 60.0297 71.4672 60.0488 71.5186V71.5195C60.0764 71.6022 60.101 71.6918 60.1133 71.7773C60.1232 71.847 60.114 71.9217 60.0986 72.0293H60.0996C60.09 72.0834 60.0898 72.1306 60.0898 72.1602C60.0898 72.1888 60.0877 72.2033 60.0859 72.2158C60.0847 72.2187 60.0843 72.2222 60.083 72.2256C60.08 72.2335 60.0792 72.2453 60.0762 72.2588H60.0732C60.0648 72.2921 60.0471 72.3307 60.0156 72.3936L60.0107 72.4043C59.9662 72.5083 59.9321 72.5816 59.8828 72.6426C59.8416 72.6838 59.8009 72.7254 59.7598 72.7666C59.6798 72.8465 59.6057 72.907 59.5234 72.9541L59.5 72.9678L59.4814 72.9863C59.4658 73.002 59.455 73.0119 59.4463 73.0195C59.4439 73.0217 59.4416 73.0225 59.4404 73.0234L55.2646 75.1201L55.2607 75.1221C55.0734 75.222 54.886 75.2598 54.6943 75.2598C54.283 75.2597 53.8919 75.0661 53.6475 74.7197L53.5527 74.5625C53.2513 73.943 53.5042 73.1831 54.125 72.8662L54.8145 72.5146L55.2832 72.2754L54.7744 72.1426L34.6221 66.8916L34.1963 66.7812L34.3926 67.1748L35.0381 68.4658C35.3406 69.0856 35.0872 69.8461 34.4658 70.1631L34.4629 70.165C34.2757 70.2649 34.0889 70.3027 33.8975 70.3027C33.4274 70.3027 32.9835 70.0491 32.7549 69.6045L30.6582 65.4268C30.6579 65.4261 30.6574 65.4225 30.6553 65.415C30.6528 65.4061 30.6501 65.3953 30.6465 65.3779C30.6404 65.3491 30.6288 65.3 30.6094 65.248H30.6104C30.5827 65.1652 30.5581 65.0749 30.5459 64.9893C30.5424 64.965 30.5436 64.9349 30.5498 64.8916C30.5529 64.87 30.5569 64.8475 30.5615 64.8213C30.566 64.7963 30.571 64.7668 30.5752 64.7373L30.5732 64.7363C30.5827 64.6826 30.584 64.6358 30.584 64.6064C30.584 64.5779 30.5851 64.5633 30.5869 64.5508C30.5882 64.5478 30.5905 64.5445 30.5918 64.541C30.5929 64.5381 30.5916 64.534 30.5928 64.5303C30.6326 64.4381 30.6715 64.3643 30.7197 64.292L30.7314 64.2754L30.7393 64.2559C30.7772 64.161 30.7896 64.1245 30.8115 64.1025C30.8305 64.0835 30.854 64.066 30.8887 64.0391C30.92 64.0147 30.9633 63.981 31.0029 63.9414C31.0775 63.8668 31.1337 63.8121 31.21 63.7686L31.2324 63.7549L31.2441 63.7441L35.4219 61.6465L35.4229 61.6475Z" fill="#584439" stroke="white" stroke-width="0.4"/>
<path d="M66.6953 12.7627C66.8959 12.7126 67.1114 12.7109 67.3301 12.7617L102.52 21.9404C102.588 21.9637 102.637 21.9941 102.74 22.0459V22.0439C102.774 22.0637 102.806 22.08 102.824 22.0879C102.853 22.1002 102.861 22.1038 102.865 22.1064V22.1074L102.873 22.1123C103.003 22.1901 103.122 22.288 103.203 22.4014C103.205 22.4071 103.208 22.4142 103.211 22.4209C103.215 22.4303 103.222 22.4423 103.231 22.4561V22.457C103.298 22.5635 103.363 22.6939 103.4 22.8193L103.405 22.8359L103.413 22.8516C103.418 22.8605 103.42 22.8672 103.432 22.9082C103.44 22.9366 103.453 22.9729 103.474 23.0146C103.478 23.0463 103.481 23.0745 103.484 23.0908C103.492 23.1272 103.495 23.1451 103.495 23.1582V51.5967C103.495 51.751 103.459 51.8977 103.408 52.041L103.325 52.1816L103.32 52.1924C103.289 52.2661 103.232 52.3476 103.167 52.4268C103.152 52.4411 103.135 52.4576 103.11 52.4785C103.091 52.4947 103.068 52.5147 103.045 52.5361C102.963 52.5908 102.885 52.6423 102.797 52.6934C102.739 52.7225 102.687 52.7487 102.623 52.7744C102.6 52.7825 102.58 52.7906 102.564 52.7969C102.548 52.8035 102.535 52.8068 102.521 52.8115L67.3291 61.9922C67.2297 62.0168 67.1152 62.0293 67.0137 62.0293C66.9116 62.0293 66.7961 62.017 66.6963 61.9922H66.6973L31.4971 52.8105L31.4727 52.8047H31.4688L31.4492 52.7949C31.4373 52.789 31.4214 52.7814 31.4023 52.7744H31.4033L31.2285 52.6934L31.2178 52.6885L31.1016 52.627C31.064 52.6029 31.0269 52.5751 30.9883 52.543L30.9805 52.5361L30.8623 52.4297C30.8045 52.3588 30.7549 52.2744 30.6963 52.1719L30.6895 52.1602L30.6582 52.1172C30.6491 52.1052 30.643 52.0975 30.6377 52.0898C30.627 52.0745 30.6278 52.0717 30.6289 52.0762L30.626 52.0654L30.623 52.0557L30.5859 51.9443C30.5529 51.8317 30.5323 51.7164 30.5322 51.5967V23.1582C30.5322 23.1439 30.535 23.126 30.5771 23.0557L30.6055 23.0078V22.9521C30.6055 22.9357 30.6072 22.9141 30.6113 22.8896L30.6289 22.8105C30.6676 22.6841 30.718 22.5729 30.792 22.4619L30.791 22.4609C30.8023 22.445 30.8116 22.4315 30.8164 22.4209C30.8194 22.4142 30.8211 22.4071 30.8232 22.4014C30.9086 22.2952 31.0194 22.1977 31.1582 22.1094L31.1621 22.1064C31.1663 22.1038 31.1751 22.0999 31.2031 22.0879C31.2215 22.08 31.2527 22.0635 31.2861 22.0439L31.2871 22.0459C31.3899 21.9945 31.438 21.9636 31.5059 21.9404L66.6943 12.7617L66.6953 12.7627ZM66.9482 43.7324L37.5566 51.4033L36.8145 51.5967L37.5566 51.79L66.9482 59.4609L66.999 59.4736L67.0488 59.4609L96.4414 51.79L97.1826 51.5967L96.4414 51.4033L67.0488 43.7324L66.999 43.7188L66.9482 43.7324ZM100.612 25.9307L96.1689 29.2451L96.0879 29.3057V48.7002L96.2373 48.7393L100.682 49.8984L100.932 49.9629V25.6924L100.612 25.9307ZM65.4814 23.2578L40.5918 29.7549L40.4424 29.7939V48.0273L40.6934 47.9619L65.583 41.4648L65.7324 41.4258V23.1924L65.4814 23.2578ZM65.4814 15.6748L35.0625 23.624L34.6611 23.7295L34.9941 23.9775L39.5107 27.3516L39.5879 27.4092L39.6816 27.3848L65.583 20.623L65.7324 20.584V15.6094L65.4814 15.6748ZM68.2656 20.584L68.415 20.623L94.3164 27.3848L94.4092 27.4092L94.4863 27.3516L99.0039 23.9775L99.3369 23.7295L98.9346 23.624L68.5156 15.6895L68.2656 15.624V20.584ZM93.5547 29.7939L93.4053 29.7549L68.5156 23.2578L68.2656 23.1924V41.4404L68.415 41.4795L93.3047 47.9619L93.5547 48.0273V29.7939ZM37.9092 29.3203L37.8291 29.2607L33.3857 25.9307L33.0654 25.6914V49.9629L33.3154 49.8984L37.7598 48.7393L37.9092 48.7002V29.3203Z" fill="#584439" stroke="white" stroke-width="0.4"/>
<path d="M13.893 95.375C15.1821 95.375 16.2368 96.1094 16.8618 97.375H20.2993V94.3281H21.7836V108.344H20.2993V103H16.9399C16.3383 104.391 15.2446 105.203 13.893 105.203C11.8305 105.203 10.3539 103.281 10.3461 100.281C10.3539 97.2891 11.8305 95.375 13.893 95.375ZM13.893 96.7188C12.6352 96.7188 11.7602 98.0859 11.7524 100.281C11.7602 102.5 12.6352 103.867 13.893 103.859C15.1664 103.867 16.0414 102.5 16.0336 100.281C16.0414 98.0859 15.1664 96.7188 13.893 96.7188ZM17.268 98.5938C17.3852 99.1094 17.4399 99.6719 17.4399 100.281C17.4399 100.812 17.393 101.305 17.3149 101.766H20.2993V98.5938H17.268ZM36.2411 102.234V103.469H33.0068V108.312H31.4911V103.469H28.1474V108.312H26.6161V103.469H23.4443V102.234H36.2411ZM29.8193 94.8594C32.7802 94.8594 34.8036 96.0547 34.8036 97.9375C34.8036 99.8125 32.7724 101.008 29.8193 101C26.8583 101.008 24.8349 99.8125 24.8349 97.9375C24.8349 96.0547 26.8583 94.8594 29.8193 94.8594ZM29.8193 96.0625C27.7411 96.0547 26.3661 96.7734 26.3661 97.9375C26.3661 99.0938 27.7489 99.7969 29.8193 99.7969C31.8818 99.7969 33.2724 99.0938 33.2724 97.9375C33.2724 96.7734 31.8896 96.0547 29.8193 96.0625ZM41.6674 103.562C41.6674 104.766 42.2689 106.047 43.5268 106.797C44.808 105.977 45.433 104.641 45.433 103.562V102.906H46.8861V103.562C46.8861 105.016 47.8549 106.43 49.6674 107.031L48.933 108.125C47.558 107.641 46.6283 106.711 46.1361 105.562C45.6908 106.688 44.8471 107.719 43.558 108.25C42.2221 107.742 41.3783 106.758 40.9486 105.609C40.433 106.711 39.5033 107.633 38.183 108.125L37.4486 107.031C39.2377 106.383 40.2299 104.922 40.2299 103.562V102.906H41.6674V103.562ZM48.4174 94.3438V102.312H46.9174V94.3438H48.4174ZM40.8236 95.1094C42.9721 95.1094 44.5502 96.4688 44.5424 98.4219C44.5502 100.344 42.9721 101.695 40.8236 101.703C38.6674 101.695 37.0814 100.344 37.0893 98.4219C37.0814 96.4688 38.6674 95.1094 40.8236 95.1094ZM40.8236 96.3594C39.5033 96.3594 38.5424 97.1797 38.5424 98.4219C38.5424 99.6328 39.5033 100.453 40.8236 100.453C42.1361 100.453 43.0893 99.6328 43.0893 98.4219C43.0893 97.1797 42.1361 96.3594 40.8236 96.3594ZM61.4843 98.4062V99.6094H51.828V94.8438H53.3124V98.4062H61.4843ZM62.9374 101.359V102.578H50.1405V101.359H62.9374ZM61.5624 106.781V107.984H51.7343V103.875H53.2186V106.781H61.5624ZM71.8836 96.8125C71.8758 98.6094 73.1258 100.32 75.2586 101.031L74.493 102.203C72.9149 101.664 71.7586 100.57 71.1493 99.1875C70.5321 100.695 69.3133 101.891 67.6649 102.469L66.8836 101.297C69.0711 100.555 70.3758 98.75 70.3836 96.8281V96.4688H67.3211V95.2656H74.8993V96.4688H71.8836V96.8125ZM77.9774 94.3281V97.9219H80.0086V99.1562H77.9774V102.75H76.493V94.3281H77.9774ZM77.9774 103.469V108.328H76.493V104.672H68.743V103.469H77.9774ZM84.2005 94.9531C86.0677 94.9531 87.4974 96.0156 87.8099 97.5938H90.4974V94.3281H92.013V101.844H90.4974V98.8125H87.8099C87.5208 100.422 86.0833 101.492 84.2005 101.484C82.0833 101.492 80.5365 100.156 80.5443 98.2188C80.5365 96.3047 82.0833 94.9531 84.2005 94.9531ZM84.2005 96.2031C82.8958 96.2031 81.974 97.0156 81.9661 98.2188C81.974 99.4141 82.8958 100.242 84.2005 100.234C85.4896 100.242 86.4271 99.4141 86.4193 98.2188C86.4271 97.0156 85.4896 96.2031 84.2005 96.2031ZM84.3724 102.516V104.141H90.5286V102.516H92.013V108.141H82.8724V102.516H84.3724ZM84.3724 106.938H90.5286V105.312H84.3724V106.938ZM103.491 103.125C106.514 103.125 108.444 104.102 108.444 105.719C108.444 107.328 106.514 108.305 103.491 108.297C100.483 108.305 98.5452 107.328 98.553 105.719C98.5452 104.102 100.483 103.125 103.491 103.125ZM103.491 104.266C101.366 104.266 100.037 104.805 100.037 105.719C100.037 106.625 101.373 107.156 103.491 107.156C105.623 107.156 106.959 106.625 106.959 105.719C106.959 104.805 105.639 104.266 103.491 104.266ZM108.334 95V96.1875C108.326 97.2969 108.326 98.4609 107.944 99.9062L106.475 99.7344C106.858 98.3203 106.858 97.2969 106.85 96.2188H98.678V95H108.334ZM109.928 100.766V101.969H97.1936V100.766H102.287V98.1406H103.772V100.766H109.928ZM121.511 94.3281V98.4844H123.542V99.7188H121.511V104.484H120.011V94.3281H121.511ZM117.729 95.4062C117.729 99.0625 115.221 101.719 111.136 102.969L110.495 101.766C113.784 100.781 115.839 98.9219 116.104 96.6094H111.089V95.4062H117.729ZM122.104 106.812V108.031H112.62V103.453H114.12V106.812H122.104Z" fill="#584439"/>
</svg>
