<svg width="183" height="113" viewBox="0 0 183 113" fill="none" xmlns="http://www.w3.org/2000/svg">
<path d="M74.8809 23.0215C76.8474 23.0217 78.4481 24.6273 78.4482 26.6025C78.4482 28.1507 77.4566 29.4719 76.0732 29.9648L75.9609 30.0059V30.6592L76.0303 30.71L86.9463 38.6504C87.5893 39.1184 87.8563 39.9382 87.6104 40.6943C87.3644 41.4503 86.6658 41.9569 85.8721 41.957H63.8789C63.0851 41.9569 62.3853 41.4489 62.1406 40.6943C61.8958 39.9391 62.1618 39.1183 62.8047 38.6504L73.7305 30.7041L73.8008 30.6533V29.0898C73.801 28.4939 74.2849 28.0107 74.8809 28.0107C75.6571 28.0105 76.2881 27.3788 76.2881 26.6025C76.2879 25.8207 75.6588 25.1819 74.8809 25.1816C74.0859 25.1816 73.4591 25.8062 73.459 26.6025C73.459 27.1987 72.975 27.6826 72.3789 27.6826C71.7829 27.6824 71.2988 27.1985 71.2988 26.6025C71.299 24.6292 72.9134 23.0215 74.8809 23.0215ZM74.7764 32.6143L65.3242 39.4893L65.4229 39.625V39.7969H84.8516L84.4297 39.4893L74.9766 32.6143L74.877 32.541L74.7764 32.6143Z" fill="#584439" stroke="white" stroke-width="0.34"/>
<path d="M73.2197 13.6699H76.6572C77.2533 13.6699 77.7373 14.1539 77.7373 14.75C77.7373 15.3461 77.2533 15.8301 76.6572 15.8301H73.2197C72.6236 15.8301 72.1396 15.3461 72.1396 14.75C72.1396 14.1539 72.6236 13.6699 73.2197 13.6699Z" fill="#584439" stroke="white" stroke-width="0.34"/>
<path d="M111.131 23.0215C113.097 23.0217 114.698 24.6273 114.698 26.6025C114.698 28.1507 113.707 29.4719 112.323 29.9648L112.211 30.0059V30.6592L112.28 30.71L123.196 38.6504C123.839 39.1184 124.106 39.9382 123.86 40.6943C123.614 41.4503 122.916 41.9569 122.122 41.957H100.129C99.3351 41.9569 98.6353 41.4489 98.3906 40.6943C98.1458 39.9391 98.4118 39.1183 99.0547 38.6504L109.98 30.7041L110.051 30.6533V29.0898C110.051 28.4939 110.535 28.0107 111.131 28.0107C111.907 28.0105 112.538 27.3788 112.538 26.6025C112.538 25.8207 111.909 25.1819 111.131 25.1816C110.336 25.1816 109.709 25.8062 109.709 26.6025C109.709 27.1987 109.225 27.6826 108.629 27.6826C108.033 27.6824 107.549 27.1985 107.549 26.6025C107.549 24.6292 109.163 23.0215 111.131 23.0215ZM111.026 32.6143L101.574 39.4893L101.151 39.7969H121.102L120.68 39.4893L111.227 32.6143L111.127 32.541L111.026 32.6143Z" fill="#584439" stroke="white" stroke-width="0.34"/>
<path d="M56.75 10.2988H129.25C129.846 10.2988 130.33 10.7828 130.33 11.3789V68.6211C130.33 69.2172 129.846 69.7012 129.25 69.7012H56.75C56.1539 69.7012 55.6699 69.2172 55.6699 68.6211V11.3789C55.6699 10.7828 56.1539 10.2988 56.75 10.2988ZM57.8301 67.541H91.9199V19.5576H57.8301V67.541ZM94.0801 67.541H128.17V19.5576H94.0801V67.541ZM57.8301 17.3984H91.9199V12.459H57.8301V17.3984ZM94.0801 17.3984H128.17V12.459H94.0801V17.3984Z" fill="#584439" stroke="white" stroke-width="0.34"/>
<path d="M109.47 13.6699H112.907C113.503 13.6699 113.987 14.1539 113.987 14.75C113.987 15.3461 113.503 15.8301 112.907 15.8301H109.47C108.874 15.8301 108.39 15.3461 108.39 14.75C108.39 14.1539 108.874 13.6699 109.47 13.6699Z" fill="#584439" stroke="white" stroke-width="0.34"/>
<path d="M47.0565 92.8691V95.3828H51.2577V92.8691H52.9276V100.709H45.4218V92.8691H47.0565ZM47.0565 99.3555H51.2577V96.7012H47.0565V99.3555ZM57.6561 91.7617V103.363H55.9686V91.7617H57.6561ZM58.0253 105.789V107.16H47.2675V102.203H48.9374V105.789H58.0253ZM69.3027 95.7168C69.3115 98.6348 71.0429 101.509 73.4687 102.59L72.4843 103.961C70.6562 103.082 69.2324 101.298 68.4941 99.127C67.7646 101.438 66.3144 103.337 64.4336 104.26L63.414 102.889C65.8838 101.746 67.624 98.7227 67.6328 95.7168V93.0625H69.3027V95.7168ZM76.58 91.7441V107.512H74.8925V91.7441H76.58ZM86.5693 93.959C86.5693 96.5342 89.2852 98.9512 92.2822 99.4961L91.5439 100.902C89.0215 100.34 86.71 98.7051 85.6904 96.4902C84.6445 98.6963 82.3418 100.349 79.8193 100.902L79.0811 99.4961C82.0781 98.9336 84.7852 96.5166 84.7939 93.959V92.7812H86.5693V93.959ZM92.9502 104.031V105.438H78.5537V104.031H92.9502ZM100.25 92.7461V94.0996H95.8731V95.8223H99.6348V97.123H95.8731V99.0039C97.9297 98.9951 99.3272 98.916 100.918 98.6172L101.076 99.9355C99.2657 100.296 97.7539 100.34 95.2754 100.34H94.2559V92.7461H100.25ZM107 91.7441V101.184H105.4V91.7441H107ZM103.889 91.9902V101.061H102.307V97.0176H100.373V95.6465H102.307V91.9902H103.889ZM107 101.904V107.283H96.4707V101.904H107ZM98.1231 103.24V105.947H105.348V103.24H98.1231ZM122.017 91.7441V101.746H120.417V91.7441H122.017ZM119.064 91.9727V101.254H117.464V97.7031H115.847V96.3145H117.464V91.9727H119.064ZM116.269 93.5371V94.873H108.499V93.5371H111.558V91.8672H113.21V93.5371H116.269ZM112.384 95.5762C114.309 95.5762 115.68 96.7012 115.671 98.3535C115.68 100.006 114.309 101.131 112.384 101.131C110.468 101.131 109.088 100.006 109.097 98.3535C109.088 96.7012 110.468 95.5762 112.384 95.5762ZM112.384 96.8242C111.303 96.8154 110.573 97.4131 110.573 98.3535C110.573 99.2852 111.303 99.8916 112.384 99.8828C113.465 99.8916 114.203 99.2852 114.212 98.3535C114.203 97.4131 113.465 96.8154 112.384 96.8242ZM116.743 101.957C120.083 101.957 122.096 102.95 122.105 104.717C122.096 106.466 120.083 107.468 116.743 107.459C113.403 107.468 111.399 106.466 111.399 104.717C111.399 102.95 113.412 101.957 116.743 101.957ZM116.743 103.24C114.414 103.24 113.078 103.75 113.069 104.717C113.078 105.666 114.405 106.193 116.743 106.193C119.09 106.193 120.417 105.666 120.417 104.717C120.417 103.75 119.072 103.24 116.743 103.24ZM136.717 91.7441V107.494H135.029V99.3555H131.514V97.9668H135.029V91.7441H136.717ZM131.584 93.4141C131.575 97.9932 129.8 101.939 124.447 104.576L123.533 103.258C127.699 101.228 129.589 98.3975 129.897 94.7676H124.254V93.4141H131.584Z" fill="#584439"/>
</svg>
