<svg width="81" height="92" viewBox="0 0 81 92" fill="none" xmlns="http://www.w3.org/2000/svg">
<path d="M73.7118 1.75998L69.1106 2.90858C68.9581 2.9467 68.8184 3.02547 68.7074 3.13686L55.8572 15.9871C55.853 15.9911 55.8474 15.9922 55.8433 15.9963C55.8392 16.0004 55.8381 16.006 55.8341 16.0102L53.4893 18.355C53.4851 18.359 53.4795 18.3601 53.4754 18.3642C53.4713 18.3683 53.4702 18.3739 53.4662 18.3781L49.1099 22.7343L47.8506 21.4733C47.2962 20.9189 46.558 20.6127 45.7724 20.611C45.7698 20.611 45.7677 20.611 45.7656 20.611C44.9787 20.611 44.2392 20.9168 43.6831 21.4733L43.266 21.89C42.7078 22.4482 42.4015 23.1903 42.4032 23.9797C42.4049 24.5765 42.582 25.1457 42.9098 25.6276C42.6222 26.3392 41.7434 27.8414 39.3941 28.087C39.389 28.0875 39.3839 28.0875 39.3789 28.0875C37.8317 28.1451 36.4095 28.7469 35.3736 29.7828L24.6068 40.5496C23.5111 41.6449 22.9085 43.1463 22.9102 44.7764C22.9119 46.6636 23.728 48.558 25.1455 49.9696L26.5419 51.3757C27.8603 52.6942 29.5552 53.4836 31.315 53.5988C31.4645 53.6085 31.6131 53.6136 31.7605 53.6136C33.3881 53.6136 34.8709 53.0194 35.9737 51.9166L46.7405 41.1498C47.7464 40.1443 48.3241 38.8339 48.4135 37.358C48.427 37.261 48.4262 37.1877 48.4228 37.1869C48.6566 34.7897 50.1817 33.9003 50.8945 33.6132C51.3768 33.9414 51.9465 34.1184 52.5437 34.1201H52.5504C53.3373 34.1201 54.0768 33.8139 54.6329 33.2574L55.0492 32.8411C55.6028 32.2926 55.909 31.5599 55.9115 30.7777C55.9136 29.9844 55.6045 29.2369 55.0424 28.6749L53.7907 27.4215L55.7707 25.4414C55.7807 25.4323 55.7938 25.4294 55.8035 25.4197C55.8132 25.41 55.8162 25.3969 55.8253 25.3869L58.1562 23.0559C58.1581 23.0541 58.1607 23.0536 58.1625 23.0518C58.1644 23.0499 58.1649 23.0473 58.1667 23.0455L60.5242 20.688C60.526 20.6862 60.5286 20.6857 60.5305 20.6838C60.5323 20.682 60.5328 20.6794 60.5346 20.6775L73.3916 7.8206C73.503 7.70921 73.5822 7.56945 73.6203 7.41614L74.7638 2.81032C74.8371 2.51513 74.7502 2.20299 74.5347 1.98784C74.3187 1.77311 74.0065 1.68671 73.7118 1.75998ZM31.4285 51.8679C30.0889 51.7802 28.7891 51.1699 27.7705 50.1513L26.3729 48.744C25.276 47.6513 24.6462 46.2049 24.6449 44.7747C24.644 43.9238 24.8738 43.1299 25.2935 42.4629L34.0654 51.2347C33.3158 51.7101 32.4074 51.9342 31.4285 51.8679ZM29.8085 44.5244L38.2324 36.1001C38.8363 35.4957 39.8193 35.4966 40.4233 36.1001C41.0272 36.704 41.0272 37.6866 40.4233 38.2906L31.999 46.7149L29.8085 44.5244ZM54.1768 30.773C54.1755 31.0907 54.0514 31.3884 53.8269 31.6103C53.8257 31.6112 53.8248 31.6124 53.8235 31.6137L53.4064 32.0309C52.9337 32.5035 52.1646 32.5035 51.6919 32.0309C51.484 31.8238 51.1858 31.7348 50.8995 31.7954C49.5951 32.0707 47.0374 33.5162 46.7003 37.0894C46.6914 37.1318 46.6859 37.1746 46.6838 37.2178C46.6275 38.2787 46.223 39.2143 45.514 39.9232L35.3605 50.0768L33.2253 47.9416L41.6498 39.5171C42.9301 38.2368 42.9301 36.1539 41.6498 34.8736C40.3695 33.5928 38.2853 33.5928 37.0059 34.8736L28.5818 43.2981L26.4466 41.1629L36.6001 31.0093C37.3222 30.2877 38.326 29.8663 39.428 29.8218C39.4602 29.8214 39.4919 29.8197 39.5237 29.8159L39.5241 29.8176C43.011 29.4758 44.4527 26.9249 44.728 25.6238C44.7885 25.3367 44.7 25.0381 44.4925 24.8306C44.2646 24.6031 44.1388 24.2995 44.138 23.9755C44.1376 23.6511 44.2634 23.3461 44.4925 23.117L44.9096 22.6998C45.1384 22.4715 45.442 22.3458 45.7656 22.3458H45.7686C46.0921 22.3462 46.3958 22.472 46.6236 22.6998L53.8142 29.8997C54.0489 30.1343 54.1776 30.4444 54.1768 30.773ZM57.5482 21.2108L55.3175 18.9799L56.459 17.8385L58.6896 20.0694L57.5482 21.2108ZM55.1847 23.5743L52.9539 21.3435L54.091 20.2064L56.3217 22.4374L55.1847 23.5743ZM51.7273 22.57L53.9582 24.8009L52.5682 26.1909L50.3371 23.9602L51.7273 22.57ZM71.9944 6.76433L59.9161 18.8429L57.6855 16.612L69.7641 4.53364L72.7326 3.79247L71.9944 6.76433Z" fill="#584439"/>
<path d="M5.80938 75.0781C5.80938 76.9219 7.15313 78.625 9.30938 79.2969L8.59063 80.4688C6.95 79.9375 5.71563 78.8359 5.09063 77.4219C4.45 78.9531 3.2 80.1562 1.5125 80.7188L0.762501 79.5469C2.91875 78.8359 4.30156 77.0391 4.29375 75.0781V73.7812H5.80938V75.0781ZM12.3406 73.3281V80.8438H10.8406V73.3281H12.3406ZM4.6375 81.5156V83.1094H10.8719V81.5156H12.3406V87.1406H3.16875V81.5156H4.6375ZM4.6375 85.9375H10.8719V84.2656H4.6375V85.9375ZM18.9388 77.4531C18.9388 79.6484 20.4153 82.125 22.5325 83.125L21.6888 84.3125C20.1028 83.5469 18.8606 81.9609 18.2356 80.125C17.595 82.1172 16.2981 83.8594 14.6888 84.6562L13.8294 83.4688C15.9309 82.4531 17.47 79.8047 17.47 77.4531V75.9688H14.3294V74.7344H21.9856V75.9688H18.9388V77.4531ZM24.9856 73.3281V78.8906H27.22V80.1406H24.9856V87.3281H23.4856V73.3281H24.9856ZM38.7713 79.9531V81.1719H29.0056V74.5781H38.6306V75.7969H30.49V79.9531H38.7713ZM40.2244 84.2656V85.4844H27.4275V84.2656H40.2244ZM51.6975 73.3281V78.7969H53.9163V80.0469H51.6975V87.3438H50.1975V73.3281H51.6975ZM47.7288 74.5938V79.7188H42.8225V82.7656C45.2288 82.75 47.01 82.6641 49.0413 82.2969L49.1819 83.5156C47.0178 83.9062 45.1506 84.0078 42.4788 84H41.3538V78.5156H46.2444V75.8125H41.3069V74.5938H47.7288ZM65.7175 73.3281V87.3438H64.2175V73.3281H65.7175ZM58.2175 74.375C60.3269 74.375 61.8425 76.2891 61.8425 79.2812C61.8425 82.2812 60.3269 84.2031 58.2175 84.2031C56.1238 84.2031 54.6003 82.2812 54.6081 79.2812C54.6003 76.2891 56.1238 74.375 58.2175 74.375ZM58.2175 75.7188C56.9284 75.7188 56.0378 77.0859 56.0456 79.2812C56.0378 81.5 56.9284 82.8672 58.2175 82.8594C59.5144 82.8672 60.405 81.5 60.405 79.2812C60.405 77.0859 59.5144 75.7188 58.2175 75.7188ZM79.1438 73.3281V87.3438H77.6594V79.6406H74.5813V83.8906H68.0188V74.4375H69.5031V77.9844H73.1125V74.4375H74.5813V78.4375H77.6594V73.3281H79.1438ZM69.5031 82.6719H73.1125V79.1719H69.5031V82.6719Z" fill="#584439"/>
</svg>
