<svg width="109" height="114" viewBox="0 0 109 114" fill="none" xmlns="http://www.w3.org/2000/svg">
<g clip-path="url(#clip0_1220_22102)">
<path d="M56.4214 94.5215V55.3144L47.1838 57.1782V61.7801C47.1838 62.6847 46.8146 63.5134 46.2246 64.1053C45.6346 64.7003 44.8086 65.0676 43.9069 65.0676H26.7871C26.3484 65.784 25.828 66.4457 25.2379 67.0377C23.3045 68.9774 20.6267 70.1825 17.6735 70.1795C14.7234 70.1795 12.0426 68.9774 10.1091 67.0377C8.17566 65.098 6.97444 62.4115 6.97746 59.4488C6.97746 56.4891 8.17566 53.7996 10.1091 51.8599C12.0426 49.9202 14.7204 48.7151 17.6735 48.7181C20.6236 48.7181 23.3045 49.9202 25.2379 51.8599C25.828 52.4519 26.3484 53.1136 26.7871 53.83H42.0854C42.1822 53.4657 42.3516 53.1075 42.5967 52.7827L49.9342 43.0902C48.8691 39.9211 48.3457 36.6518 48.3457 33.4008C48.3457 28.3344 49.6044 23.3288 52.0129 18.8635C53.205 16.6536 54.6816 14.5743 56.4244 12.6892V5.01839C56.4244 4.10469 56.0583 3.28509 55.4623 2.68405C54.8632 2.08605 54.0462 1.71875 53.1354 1.71875H5.00467C4.09391 1.71875 3.27696 2.08605 2.67786 2.68405C2.08178 3.28509 1.71567 4.10469 1.71567 5.01839V17.5856C1.71567 18.0621 1.33139 18.4446 0.859375 18.4446V23.6081C1.33442 23.6081 1.71567 23.9936 1.71567 24.4671V108.971C1.71567 109.396 1.79434 109.796 1.93655 110.167C2.17558 110.78 2.59314 111.308 3.12567 111.681C3.6582 112.055 4.30269 112.27 5.00467 112.27H53.1324C54.0432 112.27 54.8601 111.903 55.4592 111.302C56.0553 110.701 56.4214 109.881 56.4214 108.968V101.397C56.4214 100.92 56.8057 100.538 57.2777 100.538V95.3745C56.8027 95.3745 56.4214 94.989 56.4214 94.5154V94.5215ZM14.6447 14.5075H44.1035C44.5786 14.5075 44.9598 14.893 44.9598 15.3666C44.9598 15.8401 44.5756 16.2256 44.1035 16.2256H14.6447C14.1697 16.2256 13.7885 15.8401 13.7885 15.3666C13.7885 14.893 14.1727 14.5075 14.6447 14.5075ZM14.6447 25.736H44.1035C44.5786 25.736 44.9598 26.1215 44.9598 26.5951C44.9598 27.0686 44.5756 27.4541 44.1035 27.4541H14.6447C14.1697 27.4541 13.7885 27.0686 13.7885 26.5951C13.7885 26.1215 14.1727 25.736 14.6447 25.736ZM14.6447 36.9645H44.1035C44.5786 36.9645 44.9598 37.35 44.9598 37.8236C44.9598 38.2971 44.5756 38.6826 44.1035 38.6826H14.6447C14.1697 38.6826 13.7885 38.2971 13.7885 37.8236C13.7885 37.35 14.1727 36.9645 14.6447 36.9645ZM47.1838 100.277C47.1838 101.182 46.8146 102.01 46.2246 102.602C45.6346 103.197 44.8086 103.564 43.9069 103.564H15.9488C15.0472 103.564 14.2211 103.194 13.6311 102.602C13.0381 102.01 12.6719 101.182 12.6719 100.277V95.6204C12.6719 94.7158 13.0411 93.8871 13.6311 93.2952C14.2211 92.7002 15.0472 92.3329 15.9488 92.3329H43.9069C44.8086 92.3329 45.6346 92.7032 46.2246 93.2952C46.8177 93.8871 47.1838 94.7158 47.1838 95.6204V100.277ZM47.1838 81.0255C47.1838 81.9301 46.8146 82.7588 46.2246 83.3507C45.6346 83.9457 44.8086 84.313 43.9069 84.313H15.9488C15.0472 84.313 14.2211 83.9426 13.6311 83.3507C13.0381 82.7588 12.6719 81.9301 12.6719 81.0255V76.3689C12.6719 75.4644 13.0411 74.6356 13.6311 74.0437C14.2211 73.4487 15.0472 73.0814 15.9488 73.0814H43.9069C44.8086 73.0814 45.6346 73.4518 46.2246 74.0437C46.8177 74.6356 47.1838 75.4644 47.1838 76.3689V81.0255Z" fill="white"/>
<path d="M1.71561 17.588V5.0208C1.71561 4.1071 2.08172 3.2875 2.6778 2.68646C3.2769 2.08846 4.09385 1.72116 5.00461 1.72116H53.1324C54.0431 1.72116 54.8601 2.08846 55.4592 2.68646C56.0552 3.2875 56.4214 4.1071 56.4214 5.0208V12.6916C54.6785 14.5767 53.2019 16.6561 52.0098 18.8659C49.6013 23.3312 48.3426 28.3368 48.3426 33.4032C48.3426 36.6512 48.866 39.9235 49.9311 43.0926L42.5936 52.7851C42.3455 53.1099 42.1791 53.4681 42.0823 53.8324H26.784C26.3453 53.116 25.8249 52.4543 25.2348 51.8623C23.3014 49.9226 20.6236 48.7175 17.6704 48.7205C14.7203 48.7205 12.0395 49.9226 10.106 51.8623C8.17258 53.8021 6.97135 56.4885 6.97438 59.4512C6.97438 62.4109 8.17258 65.1004 10.106 67.0401C12.0395 68.9798 14.7173 70.1849 17.6704 70.1819C20.6206 70.1819 23.3014 68.9798 25.2348 67.0401C25.8249 66.4481 26.3453 65.7864 26.784 65.07H43.9038C44.8055 65.07 45.6315 64.6997 46.2215 64.1077C46.8146 63.5158 47.1807 62.6871 47.1807 61.7825V57.1806L56.4183 55.3168V94.5239C56.4183 95.0005 56.8026 95.383 57.2746 95.383C57.7466 95.383 58.1309 94.9975 58.1309 94.5239V55.7812C63.7982 61.0206 71.1931 63.8254 78.7121 63.8254C84.5458 63.8254 90.4612 62.1346 95.6927 58.5861C99.9953 55.6689 103.324 51.7986 105.572 47.4335C107.82 43.0714 108.994 38.2145 108.994 33.3121C108.994 27.927 107.578 22.4843 104.616 17.591C99.5354 9.19771 91.0724 4.15567 82.0768 3.13572C81.6048 3.08108 81.1812 3.42106 81.1267 3.89461C81.1267 3.90068 81.1267 3.90371 81.1267 3.90675C81.0813 4.37422 81.4172 4.79313 81.8831 4.84473C90.3764 5.81307 98.3524 10.5607 103.151 18.4835C105.944 23.1005 107.281 28.2276 107.281 33.3121C107.281 37.9383 106.174 42.528 104.053 46.6442C101.932 50.7604 98.7971 54.4061 94.7366 57.1594C89.7925 60.5137 84.222 62.1043 78.7152 62.1043C71.178 62.1043 63.774 59.1173 58.3215 53.5714C58.1188 53.3649 57.8253 53.2739 57.5409 53.3315L45.2049 55.8207C45.1111 55.8389 45.0203 55.848 44.9356 55.848C44.5816 55.848 44.2881 55.7023 44.0581 55.4655C43.8312 55.2288 43.695 54.8979 43.698 54.5792C43.698 54.3302 43.7707 54.0844 43.9613 53.8294L51.5711 43.7756C51.7466 43.5449 51.7919 43.2414 51.6951 42.9682C50.5907 39.8507 50.0552 36.6178 50.0552 33.4062C50.0552 28.6283 51.2443 23.8989 53.5166 19.6886C55.789 15.4752 59.1415 11.781 63.4774 9.052C67.1719 6.72981 71.184 5.35774 75.2386 4.86902C75.7045 4.81134 76.0374 4.39244 75.989 3.928C75.989 3.92193 75.989 3.91889 75.989 3.91282C75.9315 3.44231 75.5048 3.10537 75.0358 3.16001C70.7362 3.67908 66.479 5.13615 62.5697 7.59494C60.963 8.60578 59.4865 9.74411 58.137 10.9856V5.02383C58.137 3.63962 57.5742 2.37987 56.6695 1.47224C55.7678 0.564612 54.5121 0 53.1324 0H5.00461C3.62486 0 2.36917 0.564612 1.46749 1.46921C0.562791 2.37683 0 3.63659 0 5.0208V17.588C0 18.0645 0.384272 18.4501 0.85629 18.4501C1.32831 18.4501 1.71258 18.0645 1.71258 17.591L1.71561 17.588ZM24.7568 60.3072H25.8339C26.2152 60.3072 26.5329 60.0583 26.6448 59.7123C26.5753 62.0952 25.5889 64.2413 24.0215 65.8168C22.4511 67.3892 20.3119 68.3788 17.9367 68.4486C18.2786 68.3363 18.5298 68.0175 18.5298 67.635V66.5544C18.5298 66.0778 18.1455 65.6953 17.6735 65.6953C17.2014 65.6953 16.8172 66.0808 16.8172 66.5544V67.635C16.8172 68.0175 17.0653 68.3363 17.4102 68.4486C15.035 68.3788 12.8958 67.3892 11.3254 65.8168C9.75808 64.2413 8.77168 62.0952 8.70209 59.7123C8.81404 60.0553 9.13175 60.3072 9.51299 60.3072H10.5902C11.0652 60.3072 11.4465 59.9217 11.4465 59.4482C11.4465 58.9746 11.0622 58.5891 10.5902 58.5891H9.51299C9.13175 58.5891 8.81404 58.838 8.70209 59.1841C8.77168 56.8012 9.75808 54.655 11.3254 53.0796C12.8958 51.5072 15.035 50.5176 17.4102 50.4478C17.0683 50.5601 16.8172 50.8788 16.8172 51.2613V52.342C16.8172 52.8185 17.2014 53.201 17.6735 53.201C18.1455 53.201 18.5298 52.8155 18.5298 52.342V51.2613C18.5298 50.8788 18.2816 50.5601 17.9367 50.4478C20.3119 50.5176 22.4511 51.5072 24.0215 53.0796C25.5889 54.655 26.5753 56.8012 26.6448 59.1841C26.5329 58.8411 26.2152 58.5891 25.8339 58.5891H24.7568C24.2817 58.5891 23.9005 58.9746 23.9005 59.4482C23.9005 59.9217 24.2848 60.3072 24.7568 60.3072ZM44.9386 57.5661C45.1141 57.5661 45.2896 57.5479 45.4681 57.5176V61.7764C45.4681 62.2136 45.2956 62.5991 45.0112 62.8844C44.7268 63.1698 44.3395 63.3428 43.9068 63.3428H27.6403C28.1093 62.1346 28.3726 60.8202 28.3695 59.4451C28.3695 58.07 28.1093 56.7587 27.6403 55.5475H42.1579C42.3001 55.9573 42.5271 56.3307 42.8236 56.6464C43.341 57.1958 44.0944 57.5661 44.9446 57.5631L44.9386 57.5661Z" fill="#201E1F"/>
<path d="M56.4214 101.405V108.976C56.4214 109.89 56.0552 110.709 55.4592 111.31C54.8601 111.908 54.0431 112.276 53.1324 112.279H5.00461C4.30263 112.279 3.66117 112.06 3.12561 111.69C2.59308 111.316 2.1725 110.788 1.93649 110.175C1.79428 109.805 1.71561 109.404 1.71561 108.979V24.4723C1.71561 23.9958 1.33133 23.6133 0.859316 23.6133C0.387297 23.6133 0 23.9988 0 24.4723V108.976C0 109.616 0.12103 110.23 0.338885 110.794C0.701976 111.732 1.33739 112.531 2.14829 113.098C2.95617 113.666 3.94862 113.997 5.00763 113.997H53.1354C54.5151 113.997 55.7708 113.432 56.6755 112.524C57.5802 111.62 58.143 110.357 58.143 108.973V101.402C58.143 100.926 57.7587 100.543 57.2867 100.543C56.8147 100.543 56.4304 100.929 56.4304 101.402L56.4214 101.405Z" fill="#201E1F"/>
<path d="M42.1543 55.5508H27.6367C28.1057 56.7589 28.369 58.0733 28.3659 59.4484C28.3659 60.8235 28.1057 62.1349 27.6367 63.3461H43.9032C44.3389 63.3461 44.7232 63.173 45.0076 62.8877C45.292 62.6024 45.4645 62.2138 45.4645 61.7797V57.5209C45.286 57.5512 45.1105 57.5694 44.935 57.5694C44.0878 57.5694 43.3344 57.2021 42.8139 56.6527C42.5174 56.34 42.2905 55.9636 42.1483 55.5538L42.1543 55.5508Z" fill="#F6BC50"/>
<path d="M43.906 74.8008H15.948C15.5123 74.8008 15.128 74.9738 14.8436 75.2591C14.5592 75.5445 14.3867 75.933 14.3867 76.3671V81.0237C14.3867 81.4608 14.5592 81.8463 14.8436 82.1316C15.128 82.417 15.5153 82.59 15.948 82.59H43.906C44.3417 82.59 44.726 82.417 45.0104 82.1316C45.2949 81.8463 45.4673 81.4577 45.4673 81.0237V76.3671C45.4673 75.93 45.2949 75.5445 45.0104 75.2591C44.726 74.9738 44.3387 74.8008 43.906 74.8008Z" fill="#F6BC50"/>
<path d="M43.9068 73.082H15.9488C15.0471 73.082 14.2211 73.4524 13.631 74.0443C13.038 74.6362 12.6719 75.4649 12.6719 76.3695V81.0261C12.6719 81.9307 13.041 82.7594 13.631 83.3513C14.2211 83.9463 15.0471 84.3136 15.9488 84.3136H43.9068C44.8085 84.3136 45.6345 83.9432 46.2245 83.3513C46.8176 82.7594 47.1837 81.9307 47.1837 81.0261V76.3695C47.1837 75.4649 46.8146 74.6362 46.2245 74.0443C45.6345 73.4493 44.8085 73.082 43.9068 73.082ZM45.4681 81.0261C45.4681 81.4632 45.2956 81.8487 45.0112 82.134C44.7268 82.4194 44.3395 82.5924 43.9068 82.5924H15.9488C15.5131 82.5924 15.1288 82.4194 14.8444 82.134C14.5599 81.8487 14.3875 81.4601 14.3875 81.0261V76.3695C14.3875 75.9324 14.5599 75.5469 14.8444 75.2616C15.1288 74.9762 15.5161 74.8032 15.9488 74.8032H43.9068C44.3425 74.8032 44.7268 74.9762 45.0112 75.2616C45.2956 75.5469 45.4681 75.9354 45.4681 76.3695V81.0261Z" fill="#201E1F"/>
<path d="M43.906 94.0508H15.948C15.5123 94.0508 15.128 94.2238 14.8436 94.5092C14.5592 94.7945 14.3867 95.183 14.3867 95.6171V100.274C14.3867 100.711 14.5592 101.096 14.8436 101.382C15.128 101.667 15.5153 101.84 15.948 101.84H43.906C44.3417 101.84 44.726 101.667 45.0104 101.382C45.2949 101.096 45.4673 100.708 45.4673 100.274V95.6171C45.4673 95.18 45.2949 94.7945 45.0104 94.5092C44.726 94.2238 44.3387 94.0508 43.906 94.0508Z" fill="#F6BC50"/>
<path d="M43.9068 92.3281H15.9488C15.0471 92.3281 14.2211 92.6985 13.631 93.2904C13.038 93.8823 12.6719 94.711 12.6719 95.6156V100.272C12.6719 101.177 13.041 102.005 13.631 102.597C14.2211 103.192 15.0471 103.56 15.9488 103.56H43.9068C44.8085 103.56 45.6345 103.189 46.2245 102.597C46.8176 102.005 47.1837 101.177 47.1837 100.272V95.6156C47.1837 94.711 46.8146 93.8823 46.2245 93.2904C45.6345 92.6954 44.8085 92.3281 43.9068 92.3281ZM45.4681 100.275C45.4681 100.712 45.2956 101.098 45.0112 101.383C44.7268 101.669 44.3395 101.842 43.9068 101.842H15.9488C15.5131 101.842 15.1288 101.669 14.8444 101.383C14.5599 101.098 14.3875 100.709 14.3875 100.275V95.6187C14.3875 95.1815 14.5599 94.796 14.8444 94.5107C15.1288 94.2253 15.5161 94.0523 15.9488 94.0523H43.9068C44.3425 94.0523 44.7268 94.2253 45.0112 94.5107C45.2956 94.796 45.4681 95.1846 45.4681 95.6187V100.275Z" fill="#201E1F"/>
<path d="M24.7559 58.5906H25.833C26.2143 58.5906 26.532 58.8395 26.6439 59.1855C26.5743 56.8026 25.5879 54.6565 24.0206 53.081C22.4502 51.5086 20.311 50.519 17.9358 50.4492C18.2777 50.5615 18.5288 50.8803 18.5288 51.2627V52.3434C18.5288 52.82 18.1446 53.2025 17.6726 53.2025C17.2005 53.2025 16.8163 52.8169 16.8163 52.3434V51.2627C16.8163 50.8803 17.0644 50.5615 17.4093 50.4492C15.0341 50.519 12.8949 51.5086 11.3245 53.081C9.75716 54.6565 8.77076 56.8026 8.70117 59.1855C8.81313 58.8425 9.13083 58.5906 9.51208 58.5906H10.5892C11.0643 58.5906 11.4455 58.9761 11.4455 59.4496C11.4455 59.9232 11.0613 60.3087 10.5892 60.3087H9.51208C9.13083 60.3087 8.81313 60.0598 8.70117 59.7137C8.77076 62.0966 9.75716 64.2428 11.3245 65.8182C12.8949 67.3906 15.0341 68.3802 17.4093 68.45C17.0674 68.3377 16.8163 68.019 16.8163 67.6365V66.5558C16.8163 66.0793 17.2005 65.6968 17.6726 65.6968C18.1446 65.6968 18.5288 66.0823 18.5288 66.5558V67.6365C18.5288 68.019 18.2807 68.3377 17.9358 68.45C20.311 68.3802 22.4502 67.3906 24.0206 65.8182C25.5879 64.2428 26.5743 62.0966 26.6439 59.7137C26.532 60.0567 26.2143 60.3087 25.833 60.3087H24.7559C24.2808 60.3087 23.8996 59.9232 23.8996 59.4496C23.8996 58.9761 24.2838 58.5906 24.7559 58.5906ZM22.1325 56.2684L18.2717 60.0658C17.9963 60.336 17.5757 60.3906 17.2429 60.1964L14.2141 58.4418C13.8026 58.205 13.6634 57.6769 13.8994 57.2671C14.1354 56.8542 14.6619 56.7146 15.0704 56.9514L17.5334 58.3781L20.9313 55.039C21.2702 54.7051 21.8118 54.7111 22.1446 55.0511C22.4775 55.3911 22.4714 55.9345 22.1325 56.2684Z" fill="white"/>
<path d="M20.9357 55.0357L17.5378 58.3748L15.0748 56.9481C14.6633 56.7114 14.1398 56.851 13.9038 57.2638C13.6678 57.6767 13.807 58.2018 14.2185 58.4386L17.2473 60.1931C17.5801 60.3874 18.0007 60.3328 18.2761 60.0626L22.1369 56.2651C22.4758 55.9312 22.4819 55.3879 22.149 55.0479C21.8162 54.7079 21.2746 54.7018 20.9357 55.0357Z" fill="#201E1F"/>
<path d="M75.2417 4.86678C71.1872 5.3555 67.172 6.72757 63.4806 9.04976C59.1447 11.7757 55.7921 15.473 53.5198 19.6863C51.2474 23.8997 50.0583 28.626 50.0583 33.404C50.0583 36.6125 50.5939 39.8454 51.6983 42.9659C51.7951 43.2391 51.7467 43.5427 51.5742 43.7734L43.9644 53.8271C43.7738 54.0821 43.7042 54.328 43.7012 54.5769C43.7012 54.8956 43.8343 55.2265 44.0612 55.4633C44.2912 55.7031 44.5847 55.8458 44.9387 55.8458C45.0234 55.8458 45.1142 55.8367 45.208 55.8185L57.544 53.3293C57.8284 53.2716 58.1189 53.3627 58.3247 53.5691C63.7801 59.1151 71.1842 62.102 78.7183 62.102C84.2252 62.102 89.7956 60.5114 94.7397 57.1571C98.7972 54.4039 101.932 50.7582 104.056 46.642C106.177 42.5258 107.285 37.936 107.285 33.3099C107.285 28.2253 105.95 23.0983 103.154 18.4812C98.3555 10.5554 90.3796 5.8078 81.8863 4.84249C81.4203 4.79089 81.0844 4.37198 81.1298 3.90451C79.4263 3.76184 77.7047 3.76488 75.9891 3.92272C76.0375 4.3902 75.7046 4.8091 75.2387 4.86374L75.2417 4.86678ZM95.9167 21.6412C96.1437 21.6412 96.3645 21.7323 96.5219 21.8932C96.6792 22.0541 96.773 22.2756 96.773 22.5003V45.3853C96.773 45.6129 96.6822 45.8345 96.5219 45.9924C96.3615 46.1533 96.1406 46.2443 95.9167 46.2443H89.3085C89.1995 47.237 88.7548 48.1324 88.0891 48.8003C87.3205 49.5713 86.2524 50.0509 85.0784 50.0509C83.9045 50.0509 82.8364 49.5713 82.0678 48.8003C81.4022 48.1324 80.9543 47.237 80.8484 46.2443H70.9966C70.8876 47.237 70.4428 48.1324 69.7772 48.8003C69.0086 49.5713 67.9405 50.0509 66.7665 50.0509C65.5926 50.0509 64.5245 49.5713 63.7559 48.8003C63.0903 48.1324 62.6424 47.237 62.5365 46.2443H59.1658C58.9389 46.2443 58.718 46.1533 58.5607 45.9924C58.4003 45.8315 58.3095 45.6099 58.3095 45.3853V31.1C58.3095 30.9148 58.367 30.7357 58.476 30.59L62.4367 25.2019C62.5971 24.9834 62.8542 24.8528 63.1266 24.8528H73.3869V22.5003C73.3869 22.2726 73.4777 22.051 73.638 21.8932C73.7984 21.7323 74.0193 21.6412 74.2432 21.6412H95.9198H95.9167Z" fill="white"/>
<path d="M82.0679 42.7635C82.8365 41.9924 83.9046 41.5128 85.0786 41.5128C86.2526 41.5128 87.3207 41.9924 88.0892 42.7635C88.5733 43.2492 88.9425 43.8532 89.1482 44.5271H95.0606V23.3633H75.0996V44.5271H81.0119C81.2177 43.8532 81.5868 43.2461 82.071 42.7635H82.0679ZM79.7593 29.4678H89.3752C89.8502 29.4678 90.2314 29.8533 90.2314 30.3268C90.2314 30.8004 89.8472 31.1859 89.3752 31.1859H79.7593C79.2842 31.1859 78.903 30.8004 78.903 30.3268C78.903 29.8533 79.2873 29.4678 79.7593 29.4678ZM78.903 37.005C78.903 36.5285 79.2873 36.146 79.7593 36.146H89.3752C89.8502 36.146 90.2314 36.5315 90.2314 37.005C90.2314 37.4786 89.8472 37.8641 89.3752 37.8641H79.7593C79.2842 37.8641 78.903 37.4786 78.903 37.005Z" fill="#F6BC50"/>
<path d="M73.6312 21.8926C73.4709 22.0535 73.3801 22.2751 73.3801 22.4997V24.8522H63.1197C62.8474 24.8522 62.5902 24.9828 62.4299 25.2013L58.4692 30.5894C58.3602 30.7382 58.3027 30.9173 58.3027 31.0994V45.3847C58.3027 45.6123 58.3935 45.8339 58.5539 45.9918C58.7142 46.1527 58.9351 46.2437 59.159 46.2437H62.5297C62.6387 47.2364 63.0834 48.1319 63.7491 48.7997C64.5176 49.5707 65.5857 50.0503 66.7597 50.0503C67.9337 50.0503 69.0018 49.5707 69.7704 48.7997C70.436 48.1319 70.8838 47.2364 70.9897 46.2437H80.8416C80.9506 47.2364 81.3953 48.1319 82.061 48.7997C82.8295 49.5707 83.8976 50.0503 85.0716 50.0503C86.2456 50.0503 87.3137 49.5707 88.0823 48.7997C88.7479 48.1319 89.1958 47.2364 89.3017 46.2437H95.9099C96.1369 46.2437 96.3577 46.1527 96.5151 45.9918C96.6754 45.8309 96.7662 45.6093 96.7662 45.3847V22.4997C96.7662 22.272 96.6754 22.0504 96.5151 21.8926C96.3547 21.7347 96.1338 21.6406 95.9099 21.6406H74.2334C74.0064 21.6406 73.7856 21.7317 73.6282 21.8926H73.6312ZM68.5601 47.5855C68.0971 48.0469 67.4678 48.3322 66.7628 48.3322C66.0578 48.3322 65.4284 48.0469 64.9655 47.5855C64.5025 47.121 64.2211 46.4896 64.2211 45.7823C64.2211 45.0751 64.5055 44.4437 64.9655 43.9792C65.4284 43.5178 66.0578 43.2325 66.7628 43.2325C67.4678 43.2325 68.0971 43.5178 68.5601 43.9792C69.023 44.4437 69.3044 45.0751 69.3044 45.7823C69.3044 46.4896 69.02 47.121 68.5601 47.5855ZM73.3801 44.5256H70.8324C70.6267 43.8517 70.2575 43.2446 69.7734 42.762C69.0049 41.9909 67.9368 41.5113 66.7628 41.5113C65.5888 41.5113 64.5207 41.9909 63.7521 42.762C63.268 43.2477 62.8989 43.8517 62.6931 44.5256H60.0183V31.3817L63.5555 26.5734H73.3831V44.5256H73.3801ZM86.875 47.5855C86.4121 48.0469 85.7827 48.3322 85.0777 48.3322C84.3727 48.3322 83.7433 48.0469 83.2804 47.5855C82.8174 47.121 82.5361 46.4896 82.5361 45.7823C82.5361 45.0751 82.8205 44.4437 83.2804 43.9792C83.7433 43.5178 84.3727 43.2325 85.0777 43.2325C85.7827 43.2325 86.4121 43.5178 86.875 43.9792C87.3379 44.4437 87.6193 45.0751 87.6193 45.7823C87.6193 46.4896 87.3349 47.121 86.875 47.5855ZM75.0957 23.3618H95.0567V44.5256H89.1443C88.9386 43.8517 88.5694 43.2446 88.0853 42.762C87.3168 41.9909 86.2487 41.5113 85.0747 41.5113C83.9007 41.5113 82.8326 41.9909 82.064 42.762C81.5799 43.2477 81.2108 43.8517 81.005 44.5256H75.0927V23.3618H75.0957Z" fill="#201E1F"/>
<path d="M60.0186 31.3864V44.5304H62.6934C62.8992 43.8565 63.2683 43.2494 63.7524 42.7667C64.521 41.9957 65.5891 41.5161 66.7631 41.5161C67.9371 41.5161 69.0052 41.9957 69.7737 42.7667C70.2578 43.2524 70.627 43.8565 70.8327 44.5304H73.3804V26.5781H63.5527L60.0156 31.3864H60.0186ZM65.3894 29.9537H69.459C69.686 29.9537 69.9068 30.0447 70.0642 30.2056C70.2215 30.3665 70.3153 30.5881 70.3153 30.8127V37.0052C70.3153 37.2329 70.2245 37.4545 70.0642 37.6123C69.9038 37.7702 69.6829 37.8643 69.459 37.8643H63.94C63.7131 37.8643 63.4922 37.7732 63.3349 37.6123C63.1745 37.4515 63.0837 37.2299 63.0837 37.0052V33.4081C63.0837 33.2624 63.1231 33.1137 63.1927 32.9862L64.642 30.3908C64.7933 30.1206 65.0807 29.9506 65.3894 29.9506V29.9537Z" fill="white"/>
<path d="M68.6022 36.1432V31.6719H65.8911L64.7988 33.6298V36.1432H68.6022Z" fill="white"/>
<path d="M63.084 33.4076V37.0047C63.084 37.2324 63.1748 37.454 63.3351 37.6118C63.4955 37.7727 63.7164 37.8638 63.9403 37.8638H69.4593C69.6862 37.8638 69.9071 37.7727 70.0644 37.6118C70.2218 37.4509 70.3156 37.2293 70.3156 37.0047V30.8122C70.3156 30.5845 70.2248 30.3629 70.0644 30.2051C69.904 30.0472 69.6832 29.9531 69.4593 29.9531H65.3896C65.081 29.9531 64.7935 30.1231 64.6422 30.3933L63.1929 32.9887C63.1233 33.1162 63.084 33.2649 63.084 33.4106V33.4076ZM65.8919 31.6743H68.603V36.1456H64.7996V33.6322L65.8949 31.6743H65.8919Z" fill="#201E1F"/>
<path d="M66.7643 43.2305C66.0593 43.2305 65.4299 43.5158 64.967 43.9772C64.5041 44.4417 64.2227 45.073 64.2227 45.7803C64.2227 46.4876 64.5071 47.119 64.967 47.5834C65.4299 48.0448 66.0593 48.3302 66.7643 48.3302C67.4693 48.3302 68.0987 48.0448 68.5616 47.5834C69.0245 47.119 69.3059 46.4876 69.3059 45.7803C69.3059 45.073 69.0215 44.4417 68.5616 43.9772C68.0987 43.5158 67.4693 43.2305 66.7643 43.2305Z" fill="white"/>
<path d="M85.0787 43.2305C84.3737 43.2305 83.7444 43.5158 83.2814 43.9772C82.8185 44.4417 82.5371 45.073 82.5371 45.7803C82.5371 46.4876 82.8215 47.119 83.2814 47.5834C83.7444 48.0448 84.3737 48.3302 85.0787 48.3302C85.7837 48.3302 86.4131 48.0448 86.876 47.5834C87.339 47.119 87.6204 46.4876 87.6204 45.7803C87.6204 45.073 87.336 44.4417 86.876 43.9772C86.4131 43.5158 85.7837 43.2305 85.0787 43.2305Z" fill="white"/>
<path d="M79.7586 31.1869H89.3745C89.8496 31.1869 90.2308 30.8014 90.2308 30.3278C90.2308 29.8543 89.8465 29.4688 89.3745 29.4688H79.7586C79.2836 29.4688 78.9023 29.8543 78.9023 30.3278C78.9023 30.8014 79.2866 31.1869 79.7586 31.1869Z" fill="#201E1F"/>
<path d="M90.2308 37.0036C90.2308 36.527 89.8465 36.1445 89.3745 36.1445H79.7586C79.2836 36.1445 78.9023 36.53 78.9023 37.0036C78.9023 37.4771 79.2866 37.8627 79.7586 37.8627H89.3745C89.8496 37.8627 90.2308 37.4771 90.2308 37.0036Z" fill="#201E1F"/>
<path d="M14.6454 16.2298H44.1042C44.5792 16.2298 44.9604 15.8443 44.9604 15.3708C44.9604 14.8972 44.5762 14.5117 44.1042 14.5117H14.6454C14.1703 14.5117 13.7891 14.8972 13.7891 15.3708C13.7891 15.8443 14.1733 16.2298 14.6454 16.2298Z" fill="#201E1F"/>
<path d="M14.6454 27.4564H44.1042C44.5792 27.4564 44.9604 27.0709 44.9604 26.5973C44.9604 26.1238 44.5762 25.7383 44.1042 25.7383H14.6454C14.1703 25.7383 13.7891 26.1238 13.7891 26.5973C13.7891 27.0709 14.1733 27.4564 14.6454 27.4564Z" fill="#201E1F"/>
<path d="M14.6454 38.6869H44.1042C44.5792 38.6869 44.9604 38.3014 44.9604 37.8278C44.9604 37.3543 44.5762 36.9688 44.1042 36.9688H14.6454C14.1703 36.9688 13.7891 37.3543 13.7891 37.8278C13.7891 38.3014 14.1733 38.6869 14.6454 38.6869Z" fill="#201E1F"/>
</g>
<defs>
<clipPath id="clip0_1220_22102">
<rect width="109" height="114" fill="white"/>
</clipPath>
</defs>
</svg>
