<svg width="130" height="75" viewBox="0 0 130 75" fill="none" xmlns="http://www.w3.org/2000/svg">
<g clip-path="url(#clip0_1220_22075)">
<path d="M30.5898 50.4453L31.0357 58.9065C31.5262 59.3121 31.9753 59.7589 32.3735 60.2438C33.4755 61.5842 34.2208 63.2068 34.4724 64.9433H81.168C81.1999 64.3666 81.2827 63.7867 81.4292 63.2099C81.9293 61.2325 83.0727 59.5878 84.5792 58.4533C86.0857 57.3156 87.9585 56.6787 89.9332 56.6818C90.825 56.6818 91.7328 56.8118 92.6373 57.0811C94.7235 57.7054 96.4594 58.9794 97.6728 60.605C98.6252 61.879 99.2526 63.3684 99.4851 64.9433H106.941C107.929 64.9433 108.779 64.5631 109.397 63.9483C110.012 63.3335 110.391 62.4874 110.391 61.5209C110.391 61.4575 110.391 61.3909 110.384 61.3244L109.811 50.4453H30.5898Z" fill="white"/>
<path d="M19.2192 58.7256C20.7671 57.4263 22.7705 56.6784 24.914 56.6784C25.5255 56.6784 26.1466 56.7386 26.7741 56.8654C27.6213 57.0365 28.4239 57.3154 29.166 57.6862L28.7392 49.5926L27.2614 21.5948L26.7549 12.015C26.7326 11.5555 26.5193 11.1308 26.188 10.8171C25.8568 10.5034 25.4204 10.3164 24.9586 10.3164H8.05248C7.67346 10.3164 7.33903 10.4432 7.07786 10.6523C6.81668 10.8615 6.63195 11.1562 6.55551 11.5143L2.12833 32.9936C1.91493 34.0266 1.80664 35.0882 1.80664 36.153C1.80664 36.4319 1.81301 36.7139 1.82894 36.9928L2.8577 56.5041L3.06791 60.478C3.11887 61.4224 3.41189 62.2938 3.87054 63.0132C4.326 63.7294 4.94389 64.2871 5.61912 64.6072C6.07139 64.8227 6.54596 64.9368 7.03645 64.9368H16.1615C16.1775 64.6389 16.203 64.3442 16.2475 64.0463C16.5788 61.8755 17.6744 60.0217 19.2224 58.7256H19.2192ZM8.07796 36.0865C7.81041 36.0865 7.55561 35.966 7.38362 35.7632C7.21163 35.5572 7.14156 35.2879 7.18933 35.0249L10.7311 15.9984C10.8107 15.5706 11.1834 15.2632 11.6197 15.2632H21.4519C21.9328 15.2632 22.3278 15.6371 22.3532 16.1156L23.3565 35.1421C23.3693 35.3893 23.2801 35.627 23.1113 35.8076C22.9393 35.9851 22.7036 36.0865 22.4552 36.0865H8.07796Z" fill="white"/>
<path d="M26.4131 58.6287C25.9035 58.5273 25.4034 58.4766 24.9129 58.4766C23.193 58.4766 21.6069 59.0755 20.3838 60.1022C19.1608 61.129 18.2976 62.5804 18.0301 64.3201C17.9727 64.6877 17.9473 65.0522 17.9473 65.4166C17.9473 67.2007 18.6066 68.9278 19.7373 70.3C20.8679 71.6722 22.4573 72.6799 24.3014 73.0507C24.811 73.1521 25.311 73.2028 25.8015 73.2028C27.5215 73.2028 29.1076 72.6038 30.3306 71.5771C31.5537 70.5503 32.4168 69.0989 32.6844 67.3592C32.7417 66.9916 32.7672 66.6272 32.7672 66.2627C32.7672 64.4786 32.1079 62.7515 30.9772 61.3793C29.8465 60.0072 28.2572 58.9994 26.4131 58.6287Z" fill="#F6BC50"/>
<path d="M92.1211 58.7998C91.3853 58.5811 90.6496 58.4766 89.9361 58.4766C88.3532 58.4766 86.8658 58.9868 85.6714 59.8836C84.4802 60.7836 83.5852 62.067 83.1807 63.6483C83.031 64.2346 82.9609 64.8272 82.9609 65.4134C82.9609 67.0581 83.5247 68.6743 84.5184 70.0053C85.5121 71.3362 86.9295 72.3725 88.6271 72.8795C89.3628 73.0982 90.0986 73.2028 90.812 73.2028C92.395 73.2028 93.8824 72.6926 95.0768 71.7957C96.268 70.8958 97.163 69.6123 97.5675 68.031C97.7172 67.4447 97.7872 66.8521 97.7872 66.2659C97.7872 64.6212 97.2235 63.005 96.2298 61.6741C95.236 60.3431 93.8187 59.3068 92.1211 58.7998Z" fill="#F6BC50"/>
<path d="M12.3714 17.0625L9.16406 34.2922H21.5029L20.5951 17.0625H12.3714Z" fill="#F6BC50"/>
<path d="M23.1065 35.8062C23.2785 35.6287 23.3677 35.3878 23.3518 35.1407L22.3485 16.1142C22.323 15.6388 21.9249 15.2617 21.4471 15.2617H11.615C11.1786 15.2617 10.806 15.5691 10.7263 15.9969L7.18458 35.0234C7.13681 35.2864 7.20688 35.5558 7.37887 35.7618C7.55086 35.9678 7.80566 36.085 8.07321 36.085H22.4504C22.6988 36.085 22.9345 35.9836 23.1065 35.8062ZM9.16248 34.2914L12.3698 17.0617H20.5935L21.5013 34.2914H9.16248Z" fill="#201E1F"/>
<path d="M37.7301 1.79673H29.7102C29.242 1.79673 28.8534 1.97419 28.57 2.25623C28.2865 2.54144 28.1113 2.92805 28.1113 3.38438C28.1113 3.41607 28.1113 3.44459 28.1113 3.47945L30.4937 48.6499H109.718L109.122 37.3399H83.3779C82.8778 37.3399 82.4765 36.9374 82.4765 36.4431C82.4765 35.9487 82.881 35.5463 83.3779 35.5463H109.027L108.53 26.1249H93.3375C92.8374 26.1249 92.4361 25.7225 92.4361 25.2281C92.4361 24.7337 92.8406 24.3313 93.3375 24.3313H108.434L107.938 14.9099H83.3747C82.8747 14.9099 82.4733 14.5075 82.4733 14.0131C82.4733 13.5187 82.8778 13.1163 83.3747 13.1163H107.842L107.339 3.57769C107.313 3.09601 107.094 2.65235 106.75 2.32595C106.402 1.99954 105.947 1.80307 105.466 1.80307H44.9506C44.4505 1.80307 44.0492 1.40061 44.0492 0.90625H38.6315C38.6315 1.40378 38.227 1.80307 37.7301 1.80307V1.79673Z" fill="#F6BC50"/>
<path d="M129.099 24.325H110.246L109.75 14.9037H119.139C119.639 14.9037 120.04 14.5012 120.04 14.0068C120.04 13.5125 119.636 13.11 119.139 13.11H109.654L109.148 3.47953C109.097 2.50982 108.657 1.64153 107.998 1.02041C107.339 0.392952 106.444 0 105.469 0H44.9534C44.4534 0 44.0521 0.402459 44.0521 0.896818C44.0521 1.39118 44.4566 1.79364 44.9534 1.79364H105.469C105.95 1.79364 106.405 1.98694 106.753 2.31652C107.1 2.64292 107.319 3.08658 107.342 3.56826L107.845 13.1069H83.3776C82.8775 13.1069 82.4762 13.5093 82.4762 14.0037C82.4762 14.498 82.8807 14.9005 83.3776 14.9005H107.941L108.437 24.3218H93.3404C92.8403 24.3218 92.439 24.7243 92.439 25.2187C92.439 25.713 92.8435 26.1155 93.3404 26.1155H108.533L109.03 35.5368H83.3808C82.8807 35.5368 82.4794 35.9393 82.4794 36.4336C82.4794 36.928 82.8839 37.3305 83.3808 37.3305H109.125L109.721 48.6405H30.4966L28.1142 3.47002C28.1142 3.43833 28.1142 3.40664 28.1142 3.37812C28.1142 2.92179 28.2894 2.53517 28.5729 2.24997C28.8595 1.96793 29.2481 1.79047 29.7131 1.79047H37.733C38.233 1.79047 38.6344 1.38801 38.6344 0.893649C38.6344 0.39929 38.2299 0 37.7298 0H29.7099C28.7671 0 27.904 0.373938 27.2893 0.985549C26.6746 1.59716 26.3019 2.45278 26.3019 3.38129C26.3019 3.44467 26.3019 3.50488 26.3083 3.56826L26.5918 8.91748C26.1013 8.66396 25.5439 8.51819 24.9579 8.51819H8.05174C7.26186 8.51819 6.51975 8.78755 5.94326 9.25339C5.36358 9.71923 4.94316 10.3847 4.78709 11.1516L0.356723 32.634C0.117846 33.7875 0 34.9696 0 36.1548C0 36.4653 0.00955508 36.779 0.0254802 37.0896L1.05424 56.6009L1.26446 60.5748C1.35364 62.248 2.01612 63.7692 3.0417 64.8878C3.55449 65.4487 4.15964 65.9082 4.83487 66.2314C5.51009 66.5547 6.25857 66.7385 7.03254 66.7385H16.2373C16.4921 68.4751 17.2342 70.0976 18.3362 71.4381C19.7153 73.1144 21.6645 74.3535 23.9387 74.813C24.5629 74.9398 25.1872 75 25.7987 75C27.9422 75 29.9456 74.2521 31.4935 72.9528C33.0415 71.6567 34.1371 69.8029 34.4683 67.6321C34.5129 67.3342 34.5384 67.0364 34.5543 66.7416H81.2596C81.4921 68.3135 82.1195 69.806 83.0718 71.08C84.2853 72.7056 86.0244 73.9796 88.1074 74.6039C89.0119 74.8732 89.9228 75.0031 90.8114 75.0031C92.7862 75.0031 94.659 74.3662 96.1655 73.2285C97.672 72.094 98.8122 70.4493 99.3155 68.4719C99.462 67.8952 99.5448 67.3152 99.5766 66.7385H106.944C108.409 66.7385 109.734 66.1617 110.68 65.2174C111.629 64.273 112.202 62.9611 112.202 61.5192C112.202 61.4241 112.202 61.3259 112.196 61.2308L111.578 49.4993L110.938 37.3368H119.142C119.642 37.3368 120.044 36.9343 120.044 36.44C120.044 35.9456 119.639 35.5432 119.142 35.5432H110.842L110.345 26.1218H129.102C129.602 26.1218 130.003 25.7193 130.003 25.225C130.003 24.7306 129.599 24.3282 129.102 24.3282L129.099 24.325ZM16.1576 64.9417H7.03254C6.54204 64.9417 6.06747 64.8276 5.6152 64.6121C4.93997 64.292 4.32526 63.7343 3.86662 63.0181C3.41116 62.3019 3.11495 61.4273 3.06399 60.4829L2.85378 56.509L1.82502 36.9977C1.80909 36.7157 1.80272 36.4368 1.80272 36.1579C1.80272 35.09 1.91102 34.0316 2.12441 32.9985L6.5516 11.516C6.62485 11.1579 6.81277 10.8664 7.07394 10.6541C7.33511 10.4449 7.66954 10.3182 8.04856 10.3182H24.9579C25.4197 10.3182 25.856 10.5051 26.1873 10.8189C26.5185 11.1326 26.7287 11.5572 26.7542 12.0167L27.2606 21.5965L28.7385 49.5944L29.1653 57.6879C28.42 57.3171 27.6205 57.0383 26.7733 56.8671C26.1491 56.7404 25.5248 56.6802 24.9133 56.6802C22.7697 56.6802 20.7664 57.4281 19.2184 58.7273C17.6705 60.0234 16.5749 61.8773 16.2436 64.048C16.199 64.3459 16.1736 64.6438 16.1576 64.9385V64.9417ZM32.6847 67.3596C32.4172 69.0994 31.5572 70.5507 30.331 71.5775C29.1048 72.6042 27.5186 73.2032 25.8019 73.2032C25.3114 73.2032 24.8082 73.1556 24.3017 73.0511C22.4544 72.6803 20.8683 71.6694 19.7376 70.3004C18.6069 68.9282 17.9476 67.2043 17.9476 65.417C17.9476 65.0526 17.9763 64.6882 18.0304 64.3206C18.298 62.5808 19.1579 61.1294 20.3842 60.1027C21.6104 59.0759 23.1965 58.477 24.9133 58.477C25.4038 58.477 25.907 58.5245 26.4134 58.6291C28.2607 58.9999 29.8469 60.0108 30.9776 61.3798C32.1082 62.7519 32.7675 64.4758 32.7675 66.2631C32.7675 66.6276 32.7389 66.992 32.6847 67.3596ZM97.5637 68.0314C97.1624 69.6127 96.2642 70.8962 95.073 71.7962C93.8818 72.6961 92.3912 73.2032 90.8083 73.2032C90.0948 73.2032 89.3591 73.0986 88.6233 72.8799C86.9257 72.3729 85.5116 71.3335 84.5147 70.0057C83.5209 68.6747 82.9572 67.0617 82.9572 65.4138C82.9572 64.8276 83.0272 64.235 83.1769 63.6487C83.5783 62.0674 84.4764 60.784 85.6676 59.884C86.8588 58.984 88.3494 58.477 89.9324 58.477C90.6458 58.477 91.3816 58.5816 92.1173 58.8002C93.8149 59.3072 95.2291 60.3467 96.226 61.6745C97.2197 63.0054 97.7835 64.6184 97.7835 66.2663C97.7835 66.8526 97.7134 67.4452 97.5637 68.0314ZM110.39 61.3227C110.393 61.3893 110.396 61.4526 110.396 61.5192C110.396 62.4857 110.02 63.3318 109.402 63.9466C108.785 64.5614 107.934 64.9385 106.947 64.9417H99.4906C99.2581 63.3699 98.6307 61.8773 97.6784 60.6034C96.4649 58.9777 94.7258 57.7037 92.6428 57.0795C91.7383 56.8101 90.8274 56.6802 89.9388 56.6802C87.9672 56.6802 86.0912 57.3171 84.5847 58.4516C83.0782 59.5861 81.938 61.2308 81.4347 63.2082C81.2882 63.785 81.2054 64.3649 81.1736 64.9417H34.4747C34.2199 63.2051 33.4778 61.5826 32.3758 60.2421C31.9745 59.7572 31.5254 59.3072 31.0381 58.9048L30.5922 50.4436H109.816L110.39 61.3227Z" fill="#201E1F"/>
</g>
<defs>
<clipPath id="clip0_1220_22075">
<rect width="130" height="75" fill="white"/>
</clipPath>
</defs>
</svg>
