<svg width="115" height="95" viewBox="0 0 115 95" fill="none" xmlns="http://www.w3.org/2000/svg">
<g clip-path="url(#clip0_1220_22084)">
<path d="M1.7461 48.4829V61.8635C1.7461 62.4052 1.96156 62.8852 2.31554 63.2422C2.66952 63.5961 3.15278 63.8115 3.69452 63.8115H50.1273C50.1119 63.3961 50.0996 62.9775 50.0996 62.559C50.0996 53.6037 53.7317 45.4855 59.6047 39.6168C65.4746 33.7482 73.5915 30.1138 82.5487 30.1138C85.2297 30.1138 87.8306 30.44 90.3239 31.0524V3.6941C90.3239 3.15248 90.1084 2.6724 89.7544 2.31542C89.4005 1.96151 88.9172 1.74609 88.3755 1.74609H54.9999V21.4077C54.9999 21.6385 54.9075 21.8632 54.7444 22.0232C54.5813 22.1863 54.3566 22.2787 54.1288 22.2787H37.9443C37.7134 22.2787 37.4887 22.1863 37.3287 22.0232C37.1655 21.8601 37.0732 21.6355 37.0732 21.4077V1.74609H3.69452C3.15278 1.74609 2.6726 1.96151 2.31554 2.31542C1.96156 2.66932 1.7461 3.15248 1.7461 3.6941V41.5033C1.7461 41.9865 1.35518 42.3773 0.875 42.3773V47.612C1.35826 47.612 1.7461 48.0028 1.7461 48.4829Z" fill="white"/>
<path d="M53.2537 1.74609H38.8145V20.5368H53.2537V1.74609Z" fill="#F6BC50"/>
<path d="M82.5506 31.8594C74.0705 31.8594 66.3969 35.2938 60.8379 40.8516C55.2789 46.4094 51.8438 54.0784 51.8438 62.5597C51.8438 71.0411 55.2789 78.71 60.8379 84.2679C66.3969 89.8257 74.0675 93.2601 82.5506 93.2601C91.0307 93.2601 98.7044 89.8257 104.263 84.2679C109.822 78.71 113.258 71.0411 113.258 62.5597C113.258 54.0784 109.822 46.4094 104.263 40.8516C98.7044 35.2938 91.0338 31.8594 82.5506 31.8594ZM81.6765 36.3647C81.6765 35.8816 82.0674 35.4938 82.5476 35.4938C83.0277 35.4938 83.4187 35.8846 83.4187 36.3647V39.8207C83.4187 40.3038 83.0277 40.6916 82.5476 40.6916C82.0674 40.6916 81.6765 40.3007 81.6765 39.8207V36.3647ZM55.479 62.5597C55.479 62.0766 55.8699 61.6888 56.3501 61.6888H59.8067C60.29 61.6888 60.6778 62.0797 60.6778 62.5597C60.6778 63.0398 60.2869 63.4306 59.8067 63.4306H56.3501C55.8668 63.4306 55.479 63.0398 55.479 62.5597ZM63.2911 74.6817L60.2992 76.4081C59.8806 76.6482 59.3481 76.5066 59.108 76.0881C58.8679 75.6695 59.0095 75.1372 59.4281 74.8971L62.42 73.1707C62.8386 72.9306 63.3711 73.0722 63.6112 73.4907C63.8513 73.9093 63.7097 74.4417 63.2911 74.6817ZM63.6112 51.6257C63.3711 52.0442 62.8356 52.1857 62.42 51.9457L59.4281 50.2193C59.0095 49.9792 58.8679 49.4438 59.108 49.0283C59.3481 48.6098 59.8837 48.4682 60.2992 48.7083L63.2911 50.4347C63.7097 50.6747 63.8513 51.2102 63.6112 51.6257ZM69.0133 39.119C69.4319 38.879 69.9644 39.0205 70.2045 39.4391L71.9313 42.4303C72.1714 42.8488 72.0298 43.3812 71.6112 43.6213C71.1925 43.8613 70.66 43.7198 70.4199 43.3012L68.6931 40.31C68.4531 39.8914 68.5946 39.3591 69.0133 39.119ZM71.9344 82.6861L70.2076 85.6804C69.9675 86.0989 69.4319 86.2405 69.0163 86.0005C68.5977 85.7604 68.4561 85.2249 68.6962 84.8095L70.423 81.8152C70.6631 81.3966 71.1987 81.2551 71.6142 81.4951C72.0329 81.7351 72.1744 82.2706 71.9344 82.6861ZM72.079 56.5126C72.3191 56.0941 72.8547 55.9525 73.2702 56.1925L82.4121 61.4703L94.3335 49.7884C94.6783 49.4499 95.2292 49.4561 95.5678 49.8007C95.9064 50.1454 95.9003 50.6963 95.5555 51.0348L83.1601 63.1783C82.88 63.4522 82.4521 63.5076 82.1136 63.3106L72.3961 57.7005C71.9774 57.4604 71.8359 56.925 72.0759 56.5095L72.079 56.5126ZM83.4217 88.7517C83.4217 89.2348 83.0308 89.6226 82.5506 89.6226C82.0705 89.6226 81.6795 89.2317 81.6795 88.7517V85.2957C81.6795 84.8126 82.0705 84.4248 82.5506 84.4248C83.0308 84.4248 83.4217 84.8156 83.4217 85.2957V88.7517ZM96.0849 85.9974C95.6663 86.2374 95.1338 86.0958 94.8937 85.6773L93.1669 82.683C92.9268 82.2645 93.0684 81.7321 93.487 81.492C93.9057 81.252 94.4382 81.3935 94.6783 81.8121L96.4051 84.8064C96.6452 85.2249 96.5036 85.7573 96.0849 85.9974ZM96.4051 40.31L94.6783 43.3012C94.4382 43.7198 93.9026 43.8613 93.487 43.6213C93.0684 43.3812 92.9268 42.8458 93.1669 42.4303L94.8937 39.4391C95.1338 39.0205 95.6694 38.879 96.0849 39.119C96.5036 39.3591 96.6452 39.8945 96.4051 40.31ZM105.993 76.0912C105.753 76.5097 105.218 76.6512 104.802 76.4112L101.81 74.6848C101.392 74.4447 101.25 73.9093 101.49 73.4938C101.73 73.0753 102.266 72.9337 102.681 73.1738L105.673 74.9002C106.092 75.1402 106.233 75.6757 105.993 76.0912ZM109.622 62.5597C109.622 63.0429 109.231 63.4306 108.751 63.4306H105.295C104.811 63.4306 104.423 63.0398 104.423 62.5597C104.423 62.0797 104.814 61.6888 105.295 61.6888H108.751C109.234 61.6888 109.622 62.0797 109.622 62.5597ZM105.993 49.0252C106.233 49.4438 106.092 49.9762 105.673 50.2162L102.681 51.9426C102.263 52.1827 101.73 52.0411 101.49 51.6226C101.25 51.204 101.392 50.6717 101.81 50.4316L104.802 48.7052C105.221 48.4651 105.753 48.6067 105.993 49.0252Z" fill="white"/>
<path d="M92.0714 31.5343V3.69291C92.0714 2.67428 91.6559 1.74798 90.9879 1.08017C90.3231 0.415452 89.3935 0 88.3746 0H3.69369C2.67793 0 1.74835 0.415452 1.0804 1.08325C0.41554 1.74798 0 2.67736 0 3.69291V41.5021C0 41.9853 0.390916 42.3761 0.871095 42.3761C1.35128 42.3761 1.74219 41.9853 1.74219 41.5021V3.69291C1.74219 3.15128 1.95766 2.6712 2.31164 2.31422C2.66561 1.96032 3.14887 1.7449 3.69061 1.7449H37.0662V21.4065C37.0662 21.6373 37.1585 21.862 37.3217 22.022C37.4848 22.1851 37.7095 22.2775 37.9373 22.2775H54.1218C54.3527 22.2775 54.5774 22.1851 54.7374 22.022C54.9006 21.8589 54.9929 21.6343 54.9929 21.4065V1.7449H88.3685C88.9102 1.7449 89.3904 1.96032 89.7475 2.31422C90.1014 2.66812 90.3169 3.15128 90.3169 3.69291V31.0543C87.8267 30.4419 85.2227 30.1156 82.5417 30.1156C73.5845 30.1156 65.4645 33.747 59.5977 39.6187C53.7278 45.4874 50.0926 53.6025 50.0926 62.5609C50.0926 62.9825 50.1018 63.398 50.1203 63.8134H3.69369C3.15195 63.8134 2.67177 63.598 2.31471 63.2441C1.96073 62.8902 1.74527 62.407 1.74527 61.8654V48.4848C1.74527 48.0016 1.35435 47.6139 0.874174 47.6139C0.393994 47.6139 0 47.9985 0 48.4817V61.8623C0 62.8809 0.41554 63.8072 1.08348 64.475C1.74835 65.1429 2.67793 65.5583 3.69677 65.5552H50.2434C50.9545 73.3165 54.4019 80.293 59.61 85.4969C65.4799 91.3656 73.5968 95 82.554 95C91.5112 95 99.6312 91.3686 105.498 85.4969C111.368 79.6283 115.003 71.5131 115.003 62.5578C115.003 53.6025 111.371 45.4843 105.498 39.6156C101.798 35.9166 97.2056 33.1069 92.0714 31.5343ZM53.2538 20.5356H38.8145V1.7449H53.2538V20.5356ZM104.261 84.2629C98.7016 89.8207 91.031 93.2551 82.5478 93.2551C74.0647 93.2551 66.3941 89.8207 60.8351 84.2629C55.2761 78.705 51.841 71.0361 51.841 62.5547C51.841 54.0734 55.2761 46.4044 60.8351 40.8466C66.3941 35.2888 74.0647 31.8544 82.5478 31.8544C91.031 31.8544 98.7016 35.2888 104.261 40.8466C109.82 46.4044 113.255 54.0734 113.255 62.5547C113.255 71.0361 109.82 78.705 104.261 84.2629Z" fill="#201E1F"/>
<path d="M83.1607 63.179L95.5561 51.0355C95.9009 50.697 95.907 50.1461 95.5684 49.8015C95.2299 49.4568 94.6789 49.4506 94.3341 49.7891L82.4127 61.471L73.2709 56.1933C72.8522 55.9532 72.3197 56.0948 72.0796 56.5133C71.8396 56.9318 71.9811 57.4642 72.3998 57.7043L82.1173 63.3144C82.4558 63.5114 82.8837 63.456 83.1638 63.1821L83.1607 63.179Z" fill="#201E1F"/>
<path d="M82.5508 40.6939C83.034 40.6939 83.4219 40.303 83.4219 39.8229V36.367C83.4219 35.8838 83.031 35.4961 82.5508 35.4961C82.0706 35.4961 81.6797 35.8869 81.6797 36.367V39.8229C81.6797 40.3061 82.0706 40.6939 82.5508 40.6939Z" fill="#201E1F"/>
<path d="M82.5508 84.4219C82.0675 84.4219 81.6797 84.8127 81.6797 85.2928V88.7487C81.6797 89.2319 82.0706 89.6196 82.5508 89.6196C83.031 89.6196 83.4219 89.2288 83.4219 88.7487V85.2928C83.4219 84.8096 83.031 84.4219 82.5508 84.4219Z" fill="#201E1F"/>
<path d="M70.4236 43.3029C70.6637 43.7214 71.1993 43.8629 71.6149 43.6229C72.0335 43.3829 72.1751 42.8474 71.935 42.4319L70.2082 39.4407C69.9681 39.0222 69.4325 38.8806 69.017 39.1206C68.5983 39.3607 68.4567 39.8961 68.6968 40.3116L70.4236 43.3029Z" fill="#201E1F"/>
<path d="M94.6789 81.8118C94.4388 81.3933 93.9032 81.2517 93.4877 81.4917C93.069 81.7318 92.9274 82.2672 93.1675 82.6827L94.8943 85.677C95.1344 86.0956 95.67 86.2371 96.0856 85.9971C96.5042 85.757 96.6458 85.2216 96.4057 84.8061L94.6789 81.8118Z" fill="#201E1F"/>
<path d="M63.292 50.433L60.3002 48.7066C59.8815 48.4665 59.349 48.6081 59.1089 49.0266C58.8689 49.4452 59.0104 49.9775 59.4291 50.2176L62.421 51.944C62.8396 52.1841 63.3721 52.0425 63.6122 51.624C63.8523 51.2054 63.7107 50.673 63.292 50.433Z" fill="#201E1F"/>
<path d="M105.677 74.8979L102.685 73.1714C102.266 72.9314 101.734 73.0729 101.494 73.4915C101.254 73.91 101.395 74.4424 101.814 74.6824L104.806 76.4089C105.224 76.6489 105.757 76.5073 105.997 76.0888C106.237 75.6703 106.095 75.1379 105.677 74.8979Z" fill="#201E1F"/>
<path d="M60.6813 62.5584C60.6813 62.0753 60.2904 61.6875 59.8102 61.6875H56.3535C55.8703 61.6875 55.4824 62.0783 55.4824 62.5584C55.4824 63.0385 55.8733 63.4293 56.3535 63.4293H59.8102C60.2935 63.4293 60.6813 63.0385 60.6813 62.5584Z" fill="#201E1F"/>
<path d="M104.42 62.5584C104.42 63.0416 104.811 63.4293 105.291 63.4293H108.748C109.231 63.4293 109.619 63.0385 109.619 62.5584C109.619 62.0783 109.228 61.6875 108.748 61.6875H105.291C104.808 61.6875 104.42 62.0783 104.42 62.5584Z" fill="#201E1F"/>
<path d="M62.417 73.1675L59.4252 74.8939C59.0065 75.134 58.8649 75.6695 59.105 76.0849C59.3451 76.5034 59.8807 76.645 60.2963 76.405L63.2881 74.6785C63.7068 74.4385 63.8483 73.903 63.6083 73.4876C63.3682 73.069 62.8326 72.9275 62.417 73.1675Z" fill="#201E1F"/>
<path d="M101.49 51.624C101.73 52.0425 102.265 52.1841 102.681 51.944L105.673 50.2176C106.092 49.9775 106.233 49.4421 105.993 49.0266C105.753 48.6081 105.217 48.4665 104.802 48.7066L101.81 50.433C101.391 50.673 101.25 51.2085 101.49 51.624Z" fill="#201E1F"/>
<path d="M71.6149 81.4917C71.1962 81.2517 70.6637 81.3933 70.4236 81.8118L68.6968 84.8061C68.4567 85.2246 68.5983 85.757 69.017 85.9971C69.4356 86.2371 69.9681 86.0956 70.2082 85.677L71.935 82.6827C72.1751 82.2642 72.0335 81.7318 71.6149 81.4917Z" fill="#201E1F"/>
<path d="M96.0856 39.1167C95.6669 38.8767 95.1344 39.0183 94.8943 39.4368L93.1675 42.428C92.9274 42.8466 93.069 43.379 93.4877 43.619C93.9063 43.859 94.4388 43.7175 94.6789 43.2989L96.4057 40.3077C96.6458 39.8892 96.5042 39.3568 96.0856 39.1167Z" fill="#201E1F"/>
</g>
<defs>
<clipPath id="clip0_1220_22084">
<rect width="115" height="95" fill="white"/>
</clipPath>
</defs>
</svg>
