<svg width="183" height="183" viewBox="0 0 183 183" fill="none" xmlns="http://www.w3.org/2000/svg">
<circle cx="91.5" cy="91.5" r="91.5" fill="white"/>
<path d="M108.018 74.3988V65.7965H109.86C110.569 65.7965 111.141 65.2225 111.141 64.5152V55.8438C111.141 55.1365 110.569 54.5625 109.86 54.5625H70.1387C69.4301 54.5625 68.8574 55.1365 68.8574 55.8438V64.5152C68.8574 65.2225 69.4301 65.7965 70.1387 65.7965H71.9811V74.3988C71.9811 75.1061 72.5538 75.6801 73.2624 75.6801H77.6532V130.156C77.6532 130.863 78.2259 131.438 78.9345 131.438H101.063C101.771 131.438 102.344 130.863 102.344 130.156V75.6801H106.735C107.444 75.6801 108.018 75.1061 108.018 74.3988ZM71.4212 57.125H108.58V63.234H71.4212V57.125ZM99.7842 128.875H80.2183V75.6801H99.7842V128.875ZM105.456 73.1176H74.5462V65.7965H105.456V73.1176Z" fill="#424242"/>
<path d="M83.938 98.8908C84.4595 99.3675 85.2692 99.3329 85.7484 98.8101L88.7196 95.5583V113.15C88.7196 113.857 89.2924 114.431 90.0009 114.431C90.7094 114.431 91.2821 113.857 91.2821 113.15V95.5583L94.2534 98.8101C94.5058 99.0869 94.853 99.2265 95.1989 99.2265C95.5077 99.2265 95.8165 99.1163 96.0638 98.8908C96.5852 98.4129 96.6224 97.6032 96.1445 97.0804L90.9452 91.393C90.9388 91.3866 90.9298 91.384 90.9234 91.3776C90.6902 91.1329 90.3648 90.9766 89.9996 90.9766C89.6345 90.9766 89.309 91.1329 89.0758 91.3776C89.0694 91.384 89.0605 91.3866 89.054 91.393L83.8547 97.0804C83.3781 97.6032 83.414 98.4142 83.9355 98.8908H83.938Z" fill="#424242"/>
</svg>
