<svg width="98" height="98" viewBox="0 0 98 98" fill="none" xmlns="http://www.w3.org/2000/svg">
<path d="M67.8352 3.06251H26.3904C25.9842 3.06251 25.5948 3.22384 25.3076 3.511C25.0204 3.79817 24.8591 4.18765 24.8591 4.59376V49.2159C21.6453 49.5073 18.5811 50.7087 16.0257 52.6793C13.4703 54.6499 11.5295 57.308 10.4308 60.3422C9.33203 63.3764 9.12091 66.6609 9.82214 69.8108C10.5234 72.9607 12.1079 75.8454 14.39 78.127C16.6721 80.4085 19.5572 81.9923 22.7073 82.6927C25.8574 83.3932 29.1418 83.1812 32.1757 82.0818C35.2096 80.9823 37.8673 79.0408 39.8372 76.4849C41.8072 73.929 43.0078 70.8645 43.2984 67.6506H55.3141C55.7976 71.5711 57.7234 75.1712 60.7164 77.7492L62.7223 79.4765C64.6336 81.1239 66.0182 83.2971 66.7036 85.7255L69.0004 93.8243C69.07 94.0689 69.1994 94.2923 69.3769 94.4743C69.5544 94.6564 69.7745 94.7913 70.0172 94.8671C70.1657 94.9143 70.3207 94.938 70.4766 94.9375C70.8306 94.9374 71.1737 94.8145 71.4474 94.5899L88.0216 81.0031C88.3131 80.7643 88.5063 80.4264 88.5642 80.054C88.6221 79.6817 88.5407 79.301 88.3355 78.985L84.7785 73.5C83.2577 71.1602 82.4492 68.4291 82.451 65.6386V44.025C82.4512 43.9537 82.4461 43.8826 82.4356 43.8121C81.0407 33.8927 71.5638 23.5032 69.3725 21.2139V4.59376C69.3725 4.39216 69.3327 4.19254 69.2554 4.00636C69.1781 3.82018 69.0647 3.6511 68.9219 3.50883C68.779 3.36656 68.6095 3.2539 68.423 3.17731C68.2365 3.10072 68.0368 3.06171 67.8352 3.06251ZM66.3039 21.7591C66.3009 21.7999 66.3009 21.8408 66.3039 21.8816V52.1728L58.3981 44.1169C57.7631 43.4654 57.0052 42.9465 56.1682 42.5903C55.3312 42.234 54.4318 42.0475 53.5222 42.0415C52.6125 42.0355 51.7107 42.2101 50.8691 42.5553C50.0275 42.9004 49.2627 43.4093 48.6193 44.0522C47.9758 44.6952 47.4664 45.4596 47.1205 46.3009C46.7747 47.1423 46.5993 48.0439 46.6046 48.9536C46.6099 49.8632 46.7958 50.7628 47.1514 51.6C47.507 52.4373 48.0252 53.1957 48.6762 53.8311L51.1262 56.2382C53.2581 58.3363 54.5969 61.1085 54.9145 64.0828L54.9681 64.5881H45.2737V6.12501H66.3039V21.7591ZM36.221 52.2937V6.12501H42.2112V59.9806C41.0058 56.8896 38.9238 54.2179 36.221 52.2937ZM33.1585 6.12501V50.5496C31.4961 49.8256 29.7277 49.3747 27.9216 49.2144V6.12501H33.1585ZM26.398 80.0339C23.646 80.0342 20.9557 79.2186 18.6672 77.6902C16.3786 76.1619 14.5945 73.9894 13.5404 71.4473C12.4863 68.9052 12.2095 66.1077 12.745 63.4083C13.2804 60.7089 14.6042 58.2289 16.5488 56.2816C18.4935 54.3344 20.9718 53.0074 23.6704 52.4684C26.3691 51.9293 29.167 52.2025 31.7105 53.2532C34.2539 54.304 36.4288 56.0852 37.9602 58.3718C39.4916 60.6583 40.3107 63.3475 40.314 66.0995V66.1179V66.1347C40.3047 69.821 38.835 73.3535 36.2268 75.9585C33.6186 78.5636 30.0844 80.029 26.398 80.0339ZM85.0204 79.5025L71.3157 90.7419L69.6543 84.8894C69.6145 84.7486 69.5486 84.6184 69.5012 84.4791L81.598 74.1569C81.7894 74.5015 81.9916 74.8414 82.2105 75.1737L85.0204 79.5025ZM79.3885 44.1306V65.6447C79.3893 67.5432 79.6996 69.429 80.3072 71.2276L68.2256 81.5391C67.3248 79.8817 66.1365 78.3978 64.716 77.1566L62.7101 75.4294C60.2223 73.2897 58.6463 70.2802 58.3047 67.0167L57.9586 63.7597C57.5676 60.0793 55.9115 56.6486 53.273 54.0531L50.823 51.6475C50.4589 51.2961 50.1685 50.8756 49.9687 50.4107C49.769 49.9457 49.6638 49.4456 49.6594 48.9396C49.655 48.4336 49.7515 47.9318 49.9432 47.4635C50.1349 46.9951 50.418 46.5697 50.7759 46.212C51.1338 45.8542 51.5594 45.5714 52.0279 45.38C52.4963 45.1886 52.9982 45.0924 53.5042 45.097C54.0102 45.1017 54.5102 45.2071 54.9751 45.4072C55.4399 45.6072 55.8602 45.8979 56.2114 46.2621L69.3802 59.6805C69.6076 59.9109 69.9021 60.0632 70.2216 60.1158C70.541 60.1683 70.8688 60.1182 71.158 59.9728C71.4472 59.8273 71.6828 59.594 71.8311 59.3062C71.9794 59.0185 72.0327 58.6912 71.9833 58.3713L69.3664 41.6592V25.8046C72.7704 29.792 78.3748 37.2569 79.3885 44.1352V44.1306Z" fill="#FAFAFA"/>
<path d="M19.0005 62L22.7505 72L26.5005 62L30.2505 72L34.0005 62" stroke="#FAFAFA" stroke-width="3" stroke-linecap="round" stroke-linejoin="round"/>
<path d="M18.0005 68H21.0005" stroke="#FAFAFA" stroke-width="3" stroke-linecap="round" stroke-linejoin="round"/>
<path d="M32.0005 68H35.0005" stroke="#FAFAFA" stroke-width="3" stroke-linecap="round" stroke-linejoin="round"/>
<path d="M60.7251 21.4379C61.1312 21.4379 61.5207 21.2766 61.8079 20.9894C62.095 20.7023 62.2563 20.3128 62.2563 19.9067V12.0039C62.2563 11.5978 62.095 11.2083 61.8079 10.9211C61.5207 10.634 61.1312 10.4727 60.7251 10.4727C60.319 10.4727 59.9295 10.634 59.6423 10.9211C59.3552 11.2083 59.1938 11.5978 59.1938 12.0039V19.9067C59.1938 20.3128 59.3552 20.7023 59.6423 20.9894C59.9295 21.2766 60.319 21.4379 60.7251 21.4379Z" fill="#FAFAFA"/>
</svg>
