<svg width="243" height="214" viewBox="0 0 243 214" fill="none" xmlns="http://www.w3.org/2000/svg">
<g clip-path="url(#clip0_1109_23456)">
<path d="M89.1234 164.932C95.3592 177.503 104.132 181.652 110.227 182.728L103.709 184.731C102.029 182.371 98.7703 178.228 94.5699 174.764C94.0455 174.328 93.5042 173.92 92.9517 173.496C92.3992 173.066 91.8297 172.647 91.2546 172.251C90.0931 171.458 88.8866 170.745 87.6293 170.145C86.9978 169.845 86.3607 169.579 85.7066 169.347C85.0526 169.109 84.3986 168.849 83.7276 168.662C82.3857 168.266 80.9987 168.028 79.5497 167.994C80.7732 171.062 82.1828 173.66 83.7051 175.862C85.2274 178.041 86.8625 179.909 88.5314 181.267C90.2003 182.66 91.8861 183.724 93.5155 184.539C94.3274 184.941 95.128 185.297 95.9005 185.569C96.6673 185.824 97.4115 186.027 98.1163 186.186C95.7313 186.865 93.3013 187.278 90.8825 187.805C90.2115 186.678 89.1967 185.099 87.8999 183.367C86.6031 181.607 85.0244 179.631 83.2258 177.809C82.3237 176.898 81.3709 176.015 80.3616 175.205C79.3524 174.401 78.315 173.558 77.2155 172.879C76.1217 172.188 74.9772 171.6 73.7706 171.164C72.5979 170.643 71.3687 170.264 70.0663 170.071C70.8895 173.105 71.9438 175.709 73.1617 177.939C73.4661 178.499 73.7762 179.031 74.1032 179.546C74.4246 180.05 74.7629 180.514 75.1012 180.962C75.7834 181.862 76.4882 182.671 77.2099 183.401C78.6533 184.85 80.1587 186.05 81.6189 186.893C83.0792 187.72 84.5057 188.303 85.7912 188.716L81.8276 189.333C80.5026 189.52 79.172 189.61 77.8414 189.757C76.8547 187.578 74.7235 183.639 71.8142 179.773C70.3651 177.854 68.6737 176.128 66.8695 174.526C65.9561 173.75 64.9919 173.077 63.9658 172.534C62.9678 171.922 61.9191 171.418 60.7746 171.096C61.1523 174.05 61.812 176.62 62.6803 178.85C62.9002 179.405 63.1257 179.954 63.3682 180.458C63.6162 180.956 63.8756 181.431 64.1406 181.884C64.6762 182.795 65.2457 183.627 65.8433 184.392C68.2226 187.505 71.0135 189.124 73.3195 190.125L69.0007 190.301C68.279 190.352 67.563 190.295 66.8413 190.29L64.6819 190.244C64.3718 189.242 63.8587 187.748 63.1426 186.039C62.4322 184.312 61.547 182.292 60.4701 180.367C59.9345 179.399 59.3481 178.454 58.7167 177.543C58.1021 176.586 57.4481 175.675 56.732 174.849C55.2717 173.258 53.7381 171.741 51.7986 170.864C51.6689 173.7 51.917 176.145 52.4019 178.33C52.6443 179.422 52.9544 180.435 53.3153 181.386C53.6761 182.326 54.1103 183.141 54.5613 183.916C55.4747 185.45 56.5234 186.758 57.6003 187.765C58.6885 188.733 59.7879 189.474 60.7915 190.04L58.4799 189.842C57.7074 189.774 56.935 189.723 56.1738 189.582C54.6515 189.333 53.1123 189.135 51.59 188.846C51.3588 187.012 50.6879 183.124 49.3798 179.292C49.0697 178.301 48.7145 177.311 48.3198 176.36C48.1225 175.884 47.9083 175.42 47.6827 174.967C47.4459 174.509 47.2091 174.062 46.9836 173.626C46.51 172.726 45.9744 171.9 45.3542 171.169C45.0328 170.819 44.734 170.434 44.4013 170.088C44.0687 169.743 43.7134 169.42 43.3244 169.132C42.6929 171.73 42.4505 174.079 42.5182 176.207C42.6196 178.267 43.0312 180.084 43.6176 181.68C43.7642 182.077 43.9221 182.467 44.0912 182.835C44.266 183.186 44.4521 183.52 44.6438 183.843C45.0271 184.488 45.4387 185.076 45.8616 185.614C46.2845 186.152 46.7186 186.633 47.1527 187.069C47.5869 187.499 48.0323 187.822 48.4439 188.133L47.226 187.856L46.0364 187.499L43.6514 186.775C42.8452 186.559 42.0784 186.248 41.3003 185.948L38.9717 185.054C39.0789 183.565 39.2593 179.88 38.8421 176.184C38.7406 175.25 38.6391 174.26 38.4756 173.326C38.3177 172.375 38.0865 171.486 37.8272 170.586C37.5791 169.675 37.2634 168.815 36.8518 168.028C36.6319 167.649 36.4402 167.23 36.2034 166.851C35.9666 166.471 35.7016 166.109 35.4028 165.77C34.2977 168.056 33.6324 170.19 33.3054 172.166C33.0178 174.084 33.0742 175.833 33.3392 177.407C33.9312 180.458 35.3859 182.722 36.6826 184.001L35.4704 183.435L34.8671 183.152L34.2864 182.824L31.9522 181.516L31.3715 181.188L30.8133 180.82L29.6913 180.084C28.9471 179.592 28.1803 179.122 27.4811 178.562C27.6672 178.001 27.9998 176.937 28.3269 175.584C28.6595 174.226 28.9752 172.618 29.2402 170.852C29.494 169.103 29.5954 167.326 29.5165 165.555C29.4601 164.683 29.3248 163.851 29.1444 163.002C28.9471 162.164 28.6257 161.394 28.2423 160.596C27.4868 161.57 26.844 162.532 26.314 163.46C25.7953 164.383 25.3837 165.283 25.0623 166.16C24.741 167.038 24.5042 167.898 24.3576 168.713C24.2223 169.517 24.1659 170.286 24.1659 171.022C24.1659 171.758 24.2166 172.46 24.3237 173.111C24.4478 173.745 24.6057 174.333 24.7917 174.877C25.1582 175.964 25.6093 176.875 26.0716 177.503C23.0552 175.126 20.2643 172.437 17.7891 169.471C17.9864 169.171 18.4713 168.402 19.052 167.332C19.6384 166.256 20.2812 164.909 20.907 163.381C21.2115 162.623 21.4934 161.836 21.7302 161.043C21.9613 160.245 22.1925 159.413 22.3166 158.598C22.5759 156.962 22.621 155.315 22.1474 153.713C18.4262 156.838 16.8193 160.172 16.4585 162.906C16.233 164.292 16.3457 165.498 16.5261 166.517C16.6953 167.541 17.0336 168.305 17.276 168.837L16.3401 167.677L15.4662 166.471C15.1786 166.07 14.8798 165.673 14.5979 165.26L13.786 164.009C13.8254 163.89 13.9833 163.251 14.113 162.317C14.1807 161.847 14.237 161.309 14.2483 160.738C14.254 160.449 14.2483 160.155 14.2314 159.855C14.2201 159.549 14.2032 159.232 14.1637 158.915C13.9946 157.653 13.583 156.34 12.6809 155.083C11.7731 153.815 10.3636 152.661 8.18727 151.398C6.89049 153.595 6.6706 155.711 6.96942 157.415C7.26824 159.142 8.12525 160.506 9.10629 161.496C11.0853 163.5 13.521 163.992 13.7578 164.026L14.5189 165.311C14.7839 165.736 15.0658 166.143 15.3365 166.562L16.1597 167.807L17.0449 169.007C16.6051 168.628 15.8947 168.141 15.0151 167.587C14.1243 167.037 12.9628 166.483 11.604 165.956C8.8131 164.955 5.10318 164.094 -0.0332031 164.383C1.39326 166.636 3.18056 168.198 5.06371 169.171C6.01093 169.658 6.93559 170.026 7.8828 170.264C8.83002 170.502 9.74904 170.637 10.6173 170.694C12.3426 170.824 13.9439 170.598 15.1448 170.349C16.3514 170.094 17.2027 169.788 17.5354 169.669C19.8921 172.76 22.5928 175.59 25.5529 178.131C24.7917 177.854 23.8614 177.486 22.7056 177.192C22.1249 177.045 21.4877 176.915 20.7942 176.807C20.1177 176.682 19.396 176.575 18.601 176.501C17.8116 176.428 16.9659 176.394 16.0582 176.399C15.1673 176.388 14.2258 176.416 13.2165 176.501C12.2073 176.586 11.136 176.722 9.99712 176.931C8.87512 177.13 7.70238 177.379 6.45634 177.724C7.44303 178.788 8.55939 179.597 9.65883 180.265C10.7414 180.945 11.8916 181.403 13.0136 181.731C15.2237 182.416 17.4226 182.428 19.3227 182.178C21.2115 181.946 22.9029 181.341 24.1997 180.758C25.5021 180.175 26.4381 179.592 26.9286 179.263C27.6164 179.863 28.3663 180.373 29.1049 180.905L30.2156 181.703L30.7738 182.099L31.3546 182.461L33.6831 183.894L34.2639 184.25L34.8671 184.567L36.0794 185.201C34.1849 185.02 31.5575 184.861 28.1633 185.444C26.4944 185.688 24.6226 186.124 22.5534 186.814C20.5292 187.448 18.2965 188.342 15.889 189.605C16.5656 190.035 17.2422 190.42 17.9131 190.754C18.5897 191.088 19.2437 191.393 19.9316 191.597C21.2904 192.027 22.6097 192.288 23.8671 192.406C25.1356 192.508 26.376 192.406 27.5206 192.242C28.6708 192.061 29.7308 191.812 30.7287 191.444C34.7431 189.922 37.3198 187.505 38.3854 186.373L40.7309 187.386C41.5146 187.725 42.2926 188.076 43.1045 188.337L45.5177 189.18L46.7299 189.599L47.9646 189.933C47.4347 189.99 46.8539 190.108 46.2394 190.21C45.6248 190.301 44.9708 190.431 44.2716 190.601C43.5725 190.771 42.8339 190.986 42.0558 191.252C41.6668 191.382 41.2665 191.529 40.8605 191.688C40.4602 191.829 40.043 191.976 39.6258 192.146C37.94 192.808 36.0906 193.714 34.1116 194.914C32.1552 196.04 30.0578 197.472 27.8645 199.295C28.6764 199.601 29.477 199.855 30.2607 200.059C31.0445 200.263 31.8169 200.438 32.5837 200.495C34.1116 200.642 35.5606 200.625 36.9194 200.472C37.596 200.41 38.2557 200.257 38.8928 200.087C39.5299 199.917 40.1445 199.725 40.7309 199.504C41.9092 199.068 42.9805 198.548 43.9559 197.97C47.8744 195.52 50.1804 192.322 51.1615 190.805C52.712 191.161 54.2738 191.439 55.8355 191.761C56.6136 191.937 57.403 192.027 58.1923 192.129L60.5603 192.435C56.0611 193.957 49.081 197.087 41.4695 206.376C45.0835 206.942 48.3537 206.732 51.1164 205.759C52.5034 205.306 53.7776 204.74 54.9278 204.095C56.078 203.398 57.1098 202.617 58.0401 201.808C59.895 200.184 61.3102 198.468 62.3646 196.855C63.4189 195.225 64.118 193.782 64.5465 192.808L66.7623 192.95C67.5009 192.984 68.2395 193.074 68.9781 193.052L73.4154 193.063C71.1037 194.127 68.2734 196.001 65.2288 198.734C64.4676 199.436 63.6952 200.212 62.9115 201.067C62.5224 201.497 62.1278 201.944 61.7331 202.414C61.3384 202.878 60.9381 203.336 60.5434 203.829C58.9535 205.793 57.3466 208.119 55.8017 210.864C57.7074 210.864 59.506 210.689 61.1636 210.338C62.7987 209.913 64.3097 209.342 65.6854 208.668C68.4538 207.378 70.6132 205.408 72.3441 203.466C74.0694 201.502 75.338 199.482 76.2401 197.568C77.1535 195.684 77.723 194.025 78.0669 192.888C79.437 192.797 80.8127 192.763 82.1771 192.627L86.2648 192.169C85.1033 192.905 83.8235 193.85 82.4985 195.05C81.1679 196.233 79.764 197.568 78.3601 199.267C77.6609 200.11 76.9562 201.027 76.2627 202.034C75.9131 202.532 75.5692 203.065 75.2196 203.597C74.87 204.123 74.5205 204.666 74.1765 205.238C72.8008 207.519 71.4646 210.168 70.2524 213.236C72.2145 212.981 74.0356 212.551 75.7101 211.974C77.3452 211.317 78.8337 210.53 80.1812 209.647C81.5231 208.753 82.7409 207.825 83.7784 206.738C84.8214 205.657 85.7348 204.525 86.5298 203.387C88.1198 201.1 89.2474 198.802 90.0255 196.714C90.7979 194.597 91.2433 192.746 91.5027 191.45C93.9948 191.014 96.515 190.691 98.9733 190.108C98.3925 190.573 97.7893 191.093 97.1747 191.676C96.5545 192.248 95.9117 192.842 95.269 193.527C93.9778 194.886 92.6641 196.51 91.3843 198.451C90.1157 200.427 88.8302 202.555 87.6631 205.131C86.4903 207.689 85.4134 210.621 84.5226 213.966C86.5073 213.474 88.3284 212.806 89.986 212.013C90.8092 211.611 91.6154 211.204 92.3428 210.717C93.0701 210.225 93.7636 209.71 94.412 209.178C95.7144 208.102 96.8646 206.947 97.8795 205.753C98.3869 205.153 98.8549 204.542 99.2947 203.931C99.7288 203.314 100.118 202.657 100.484 202.017C103.405 196.867 104.408 191.716 104.764 188.869L111.501 187.108C110.334 188.167 109.099 189.463 107.865 191.037C107.25 191.823 106.636 192.689 106.027 193.606C105.406 194.506 104.798 195.48 104.206 196.538C101.832 200.761 99.7626 206.33 98.4489 213.366C99.4694 213.049 100.445 212.692 101.369 212.291C102.272 211.855 103.134 211.391 103.952 210.893C105.587 209.896 107.042 208.781 108.338 207.587C109.646 206.415 110.723 205.057 111.682 203.71C112.635 202.351 113.446 200.959 114.134 199.572C114.822 198.185 115.386 196.799 115.843 195.457C116.305 194.121 116.638 192.763 116.908 191.523C117.444 189.027 117.675 186.848 117.771 185.28L122.874 183.707L121.188 178.901L116.26 180.656C115.268 179.45 113.836 177.82 112.059 176.094C111.169 175.216 110.199 174.356 109.145 173.439C108.09 172.528 106.968 171.622 105.779 170.773C104.589 169.919 103.343 169.115 102.04 168.402C100.738 167.677 99.3792 167.1 97.9866 166.511C96.5883 165.956 95.1506 165.526 93.6621 165.266C92.9179 165.136 92.168 165.051 91.4012 165.017C90.64 164.943 89.8732 164.904 89.0895 164.926L89.1234 164.932Z" fill="url(#paint0_linear_1109_23456)"/>
<path d="M144.531 213.39C143.217 206.354 141.148 200.784 138.774 196.562C138.182 195.503 137.573 194.53 136.953 193.63C136.344 192.713 135.729 191.841 135.115 191.06C133.88 189.487 132.645 188.19 131.478 187.132L138.216 188.892C138.577 191.739 139.575 196.89 142.495 202.041C142.862 202.68 143.251 203.337 143.685 203.954C144.125 204.571 144.593 205.177 145.1 205.777C146.109 206.977 147.265 208.131 148.568 209.201C149.222 209.739 149.91 210.254 150.637 210.741C151.37 211.227 152.17 211.635 152.994 212.037C154.651 212.829 156.478 213.497 158.457 213.989C157.561 210.639 156.489 207.712 155.317 205.154C154.149 202.579 152.858 200.45 151.595 198.475C150.315 196.533 149.002 194.909 147.711 193.551C147.068 192.866 146.425 192.271 145.805 191.7C145.19 191.117 144.587 190.596 144.006 190.132C146.465 190.72 148.985 191.043 151.477 191.473C151.736 192.769 152.187 194.62 152.954 196.737C153.732 198.826 154.86 201.13 156.45 203.411C157.245 204.548 158.158 205.68 159.201 206.761C160.244 207.848 161.462 208.776 162.798 209.671C164.146 210.554 165.634 211.341 167.269 211.997C168.938 212.569 170.76 213.005 172.727 213.259C171.515 210.186 170.184 207.543 168.803 205.262C168.459 204.69 168.11 204.146 167.76 203.62C167.41 203.082 167.067 202.556 166.717 202.058C166.018 201.056 165.319 200.133 164.62 199.29C163.221 197.592 161.812 196.256 160.481 195.073C159.156 193.873 157.876 192.934 156.715 192.192L160.802 192.651C162.167 192.781 163.543 192.82 164.913 192.911C165.257 194.049 165.832 195.707 166.74 197.592C167.642 199.505 168.91 201.531 170.635 203.49C172.366 205.431 174.526 207.401 177.294 208.692C178.67 209.365 180.181 209.937 181.816 210.361C183.474 210.712 185.267 210.888 187.178 210.888C185.633 208.143 184.026 205.822 182.436 203.852C182.042 203.36 181.641 202.896 181.247 202.437C180.852 201.967 180.463 201.52 180.068 201.09C179.29 200.235 178.512 199.46 177.751 198.758C174.706 196.024 171.87 194.151 169.564 193.086L174.001 193.075C174.74 193.092 175.479 193.007 176.217 192.973L178.433 192.832C178.856 193.8 179.561 195.249 180.615 196.879C181.669 198.492 183.085 200.207 184.94 201.831C185.864 202.635 186.902 203.422 188.052 204.118C189.208 204.763 190.476 205.329 191.863 205.782C194.626 206.756 197.896 206.965 201.51 206.399C193.893 197.111 186.919 193.981 182.419 192.458L184.787 192.153C185.577 192.051 186.366 191.96 187.144 191.785C188.706 191.462 190.268 191.19 191.818 190.828C192.799 192.339 195.105 195.543 199.024 197.994C199.999 198.565 201.076 199.092 202.249 199.528C202.835 199.743 203.45 199.941 204.087 200.111C204.724 200.281 205.389 200.433 206.06 200.496C207.419 200.648 208.868 200.665 210.396 200.518C211.163 200.462 211.93 200.292 212.719 200.082C213.503 199.879 214.303 199.624 215.115 199.318C212.922 197.496 210.819 196.064 208.868 194.937C206.889 193.743 205.045 192.837 203.354 192.17C202.931 192.005 202.519 191.853 202.119 191.711C201.708 191.553 201.313 191.405 200.924 191.275C200.146 191.009 199.407 190.794 198.708 190.624C198.009 190.454 197.355 190.324 196.74 190.234C196.126 190.137 195.545 190.019 195.015 189.956L196.25 189.622L197.462 189.204L199.875 188.36C200.687 188.1 201.465 187.749 202.249 187.409L204.594 186.396C205.66 187.522 208.237 189.939 212.251 191.468C213.249 191.836 214.309 192.085 215.459 192.266C216.604 192.43 217.844 192.532 219.113 192.43C220.37 192.311 221.689 192.051 223.048 191.62C223.736 191.417 224.39 191.111 225.066 190.777C225.737 190.443 226.414 190.058 227.091 189.628C224.683 188.372 222.456 187.472 220.426 186.838C218.357 186.147 216.485 185.711 214.816 185.468C211.422 184.885 208.795 185.043 206.9 185.224L208.112 184.591L208.716 184.274L209.296 183.917L211.625 182.485L212.206 182.123L212.764 181.726L213.875 180.928C214.613 180.396 215.369 179.887 216.051 179.287C216.542 179.61 217.477 180.193 218.78 180.781C220.077 181.359 221.768 181.97 223.657 182.202C225.557 182.451 227.756 182.44 229.966 181.755C231.082 181.432 232.238 180.968 233.321 180.289C234.42 179.621 235.537 178.811 236.523 177.747C235.277 177.402 234.104 177.153 232.982 176.955C231.849 176.751 230.772 176.61 229.763 176.525C228.754 176.44 227.812 176.417 226.921 176.423C226.014 176.417 225.168 176.451 224.379 176.525C223.589 176.593 222.868 176.706 222.185 176.83C221.492 176.938 220.855 177.068 220.274 177.215C219.118 177.51 218.188 177.878 217.427 178.155C220.387 175.613 223.087 172.783 225.444 169.693C225.777 169.817 226.623 170.117 227.835 170.372C229.036 170.621 230.637 170.848 232.362 170.717C233.231 170.661 234.15 170.525 235.097 170.287C236.044 170.05 236.969 169.676 237.916 169.195C239.799 168.221 241.592 166.659 243.013 164.406C237.882 164.118 234.167 164.978 231.376 165.98C230.017 166.512 228.855 167.061 227.965 167.61C227.085 168.17 226.375 168.651 225.935 169.031L226.82 167.831L227.643 166.585C227.914 166.167 228.196 165.759 228.461 165.335L229.222 164.05C229.459 164.016 231.894 163.523 233.873 161.52C234.854 160.529 235.711 159.171 236.01 157.439C236.315 155.729 236.095 153.612 234.792 151.422C232.616 152.684 231.206 153.839 230.299 155.107C229.402 156.363 228.985 157.676 228.816 158.939C228.776 159.256 228.754 159.567 228.748 159.878C228.731 160.178 228.726 160.478 228.731 160.761C228.743 161.333 228.799 161.871 228.867 162.34C228.996 163.274 229.154 163.92 229.194 164.033L228.382 165.284C228.1 165.691 227.801 166.093 227.513 166.495L226.64 167.701L225.704 168.861C225.946 168.329 226.284 167.57 226.453 166.54C226.634 165.521 226.747 164.321 226.521 162.929C226.155 160.195 224.548 156.867 220.832 153.737C220.359 155.339 220.404 156.991 220.663 158.622C220.787 159.437 221.018 160.269 221.249 161.067C221.481 161.859 221.763 162.646 222.073 163.404C222.698 164.927 223.341 166.274 223.928 167.355C224.503 168.425 224.993 169.201 225.191 169.495C222.715 172.466 219.93 175.149 216.908 177.527C217.37 176.898 217.821 175.993 218.188 174.9C218.374 174.357 218.537 173.768 218.656 173.134C218.763 172.489 218.814 171.782 218.814 171.046C218.814 170.31 218.757 169.54 218.622 168.736C218.47 167.916 218.233 167.061 217.917 166.184C217.596 165.306 217.184 164.406 216.666 163.484C216.141 162.555 215.493 161.588 214.737 160.62C214.354 161.418 214.027 162.188 213.835 163.025C213.655 163.874 213.519 164.712 213.463 165.578C213.384 167.35 213.491 169.127 213.739 170.876C214.01 172.642 214.32 174.249 214.653 175.608C214.985 176.961 215.312 178.025 215.498 178.585C214.799 179.145 214.038 179.615 213.288 180.108L212.166 180.843L211.608 181.211L211.027 181.54L208.693 182.847L208.112 183.175L207.509 183.458L206.297 184.025C207.599 182.745 209.048 180.481 209.64 177.43C209.905 175.863 209.962 174.108 209.674 172.189C209.347 170.214 208.676 168.08 207.577 165.793C207.278 166.133 207.013 166.495 206.776 166.874C206.539 167.253 206.342 167.672 206.128 168.051C205.716 168.838 205.401 169.699 205.152 170.61C204.893 171.504 204.662 172.399 204.504 173.349C204.335 174.283 204.233 175.274 204.138 176.208C203.72 179.898 203.901 183.583 204.008 185.077L201.679 185.972C200.907 186.272 200.134 186.583 199.328 186.798L196.943 187.522L195.754 187.879L194.536 188.156C194.953 187.845 195.398 187.523 195.827 187.092C196.255 186.656 196.695 186.175 197.118 185.638C197.541 185.1 197.952 184.511 198.336 183.866C198.528 183.543 198.714 183.209 198.888 182.859C199.058 182.491 199.215 182.106 199.362 181.704C199.948 180.108 200.36 178.291 200.461 176.23C200.529 174.102 200.287 171.753 199.655 169.155C199.266 169.444 198.911 169.761 198.578 170.112C198.246 170.457 197.947 170.842 197.625 171.193C197.005 171.923 196.47 172.749 195.996 173.649C195.77 174.085 195.534 174.532 195.297 174.991C195.071 175.444 194.857 175.908 194.66 176.383C194.259 177.334 193.91 178.325 193.6 179.315C192.292 183.147 191.621 187.036 191.39 188.87C189.867 189.153 188.334 189.356 186.806 189.605C186.045 189.747 185.272 189.798 184.5 189.866L182.188 190.064C183.192 189.498 184.291 188.756 185.379 187.789C186.456 186.775 187.505 185.474 188.418 183.94C188.875 183.164 189.304 182.349 189.664 181.41C190.025 180.459 190.33 179.445 190.578 178.353C191.063 176.163 191.311 173.723 191.181 170.887C189.247 171.765 187.714 173.281 186.248 174.872C185.532 175.698 184.878 176.604 184.263 177.566C183.631 178.478 183.045 179.423 182.509 180.391C181.433 182.315 180.547 184.336 179.837 186.062C179.127 187.772 178.614 189.266 178.298 190.268L176.138 190.313C175.417 190.313 174.701 190.375 173.979 190.324L169.66 190.149C171.966 189.147 174.757 187.528 177.136 184.415C177.734 183.657 178.303 182.825 178.839 181.908C179.104 181.449 179.363 180.974 179.611 180.481C179.854 179.977 180.085 179.428 180.299 178.874C181.168 176.638 181.827 174.074 182.205 171.119C181.066 171.442 180.017 171.946 179.014 172.557C177.982 173.1 177.024 173.774 176.11 174.549C174.306 176.151 172.614 177.878 171.165 179.796C168.256 183.662 166.125 187.602 165.138 189.781C163.808 189.639 162.477 189.543 161.152 189.356L157.188 188.739C158.48 188.326 159.9 187.743 161.361 186.917C162.827 186.073 164.326 184.874 165.77 183.425C166.491 182.694 167.196 181.879 167.878 180.985C168.217 180.532 168.555 180.074 168.876 179.57C169.198 179.055 169.513 178.523 169.818 177.962C171.036 175.732 172.09 173.129 172.913 170.095C171.611 170.287 170.382 170.661 169.209 171.187C168.008 171.623 166.864 172.206 165.764 172.902C164.665 173.581 163.627 174.425 162.618 175.229C161.609 176.038 160.656 176.915 159.754 177.832C157.955 179.655 156.377 181.63 155.08 183.391C153.783 185.123 152.768 186.702 152.097 187.828C149.684 187.302 147.248 186.883 144.863 186.209C145.568 186.051 146.307 185.847 147.079 185.592C147.852 185.321 148.652 184.964 149.464 184.562C151.094 183.753 152.785 182.683 154.448 181.291C156.117 179.932 157.752 178.064 159.275 175.885C160.797 173.683 162.201 171.085 163.43 168.018C161.981 168.051 160.588 168.289 159.252 168.685C158.581 168.872 157.927 169.138 157.273 169.37C156.619 169.602 155.976 169.868 155.35 170.168C154.093 170.763 152.881 171.476 151.725 172.274C151.144 172.67 150.58 173.089 150.028 173.519C149.475 173.949 148.934 174.351 148.41 174.787C144.209 178.245 140.95 182.389 139.27 184.755L132.753 182.751C138.847 181.676 147.62 177.527 153.856 164.955C153.073 164.933 152.306 164.972 151.545 165.046C150.778 165.086 150.022 165.17 149.284 165.295C147.801 165.55 146.357 165.98 144.959 166.54C143.567 167.123 142.208 167.706 140.905 168.431C139.603 169.144 138.357 169.948 137.167 170.802C135.978 171.657 134.856 172.557 133.801 173.468C132.747 174.391 131.777 175.251 130.886 176.123C129.11 177.855 127.678 179.479 126.686 180.685L121.758 178.93L120.072 183.736L125.175 185.309C125.271 186.877 125.502 189.056 126.037 191.553C126.308 192.792 126.641 194.151 127.103 195.486C127.565 196.828 128.124 198.215 128.811 199.601C129.499 200.988 130.311 202.38 131.264 203.739C132.223 205.086 133.299 206.45 134.607 207.616C135.899 208.81 137.359 209.925 138.994 210.922C139.812 211.42 140.669 211.89 141.576 212.32C142.501 212.722 143.482 213.078 144.497 213.395L144.531 213.39Z" fill="url(#paint1_linear_1109_23456)"/>
<path d="M85.8015 43.7812L87.7974 49.9452H94.2531L89.0321 53.7545L91.0281 59.9184L85.8015 56.1091L80.5805 59.9184L82.5764 53.7545L77.3555 49.9452H83.8112L85.8015 43.7812Z" fill="url(#paint2_linear_1109_23456)"/>
<path d="M118.801 31.7812L120.797 37.9452H127.253L122.032 41.7545L124.028 47.9184L118.801 44.1091L113.581 47.9184L115.576 41.7545L110.355 37.9452H116.811L118.801 31.7812Z" fill="url(#paint3_linear_1109_23456)"/>
<path d="M152.213 43.7812L154.204 49.9452H160.659L155.438 53.7545L157.434 59.9184L152.213 56.1091L146.987 59.9184L148.983 53.7545L143.762 49.9452H150.217L152.213 43.7812Z" fill="url(#paint4_linear_1109_23456)"/>
<path d="M218.851 144.369C224.281 128.407 225.995 111.279 223.598 94.7684C221.371 78.2406 215.04 62.4035 205.517 48.8983L203.696 46.3908C203.397 45.9663 203.081 45.5588 202.754 45.1626L201.784 43.9569C201.13 43.1589 200.516 42.3325 199.828 41.557L197.781 39.2364C197.11 38.4496 196.394 37.7138 195.672 36.9723L193.53 34.7478L191.28 32.6253L190.158 31.5668C189.786 31.2102 189.38 30.8933 188.991 30.5536L186.646 28.5443C185.868 27.8707 185.027 27.2707 184.227 26.6311L183.009 25.6859C182.609 25.3633 182.197 25.0576 181.769 24.7689L179.243 22.9973C178.414 22.386 177.534 21.8539 176.666 21.3049L174.061 19.6578L171.383 18.1352L170.041 17.3767C169.59 17.1334 169.128 16.9126 168.671 16.6749L165.92 15.2881C165.001 14.8297 164.048 14.4391 163.118 14.0089L161.714 13.375C161.246 13.1599 160.778 12.9561 160.298 12.775L157.434 11.6486C156.487 11.2524 155.512 10.9355 154.536 10.6128L151.621 9.62796L148.661 8.79026C147.675 8.51291 146.693 8.21292 145.69 8.00915C137.717 6.08469 129.525 5.11114 121.322 5.09982C113.118 5.1168 104.926 6.08469 96.9534 8.00915C95.9499 8.21858 94.9688 8.51291 93.9821 8.79026L91.0221 9.62796L88.1071 10.6128C87.1374 10.9411 86.1563 11.2524 85.2091 11.6486L82.3449 12.775C81.8657 12.9561 81.3921 13.1599 80.9297 13.375L79.5258 14.0089C78.5955 14.4391 77.6427 14.8297 76.7293 15.2938L73.9779 16.6805C73.5212 16.9126 73.0588 17.1334 72.6078 17.3824L71.2659 18.1409L68.5877 19.6635L65.9829 21.3106C65.1146 21.8596 64.2351 22.3973 63.4063 23.003L60.8804 24.7746C60.4519 25.0633 60.0459 25.3746 59.64 25.6915L58.4221 26.6368C57.6158 27.2764 56.7814 27.8764 56.0033 28.5499L53.6578 30.5593C53.2688 30.8989 52.8685 31.2215 52.4907 31.5725L51.3687 32.6309L49.1191 34.7535L46.9766 36.9779L45.9053 38.093C45.5445 38.4666 45.2175 38.8628 44.8736 39.242L42.8269 41.5627C42.139 42.3325 41.5245 43.1645 40.8704 43.9626L39.9007 45.1682C39.5737 45.5644 39.2523 45.972 38.9591 46.3965L37.138 48.9039C27.6207 62.4091 21.289 78.2463 19.062 94.7684C16.6657 111.279 18.3797 128.401 23.8037 144.369C17.3141 128.792 14.8333 111.449 16.5924 94.474L16.9364 91.293C17.0886 90.2346 17.269 89.1874 17.4382 88.129C17.737 86.0121 18.2219 83.9291 18.6616 81.8349C18.8646 80.7821 19.1578 79.7576 19.4284 78.7218L20.2516 75.62L21.227 72.5635C21.554 71.5446 21.8641 70.5202 22.2588 69.524L23.3864 66.5128C23.7416 65.4996 24.2209 64.5373 24.6325 63.5525C25.0723 62.5733 25.4669 61.5771 25.9405 60.6148L27.367 57.7338C27.6094 57.2527 27.835 56.7716 28.0887 56.2961L28.8724 54.8924L30.4398 52.085L32.1313 49.3511C32.7007 48.4398 33.2533 47.5172 33.8791 46.6512C43.4189 32.3706 56.5897 20.5464 71.7451 12.4128L74.6037 10.9185C75.5565 10.4204 76.5545 10.0129 77.5243 9.55438L78.9902 8.88648C79.4751 8.66007 79.9712 8.43933 80.473 8.25254L83.4726 7.05824C84.4649 6.63939 85.4854 6.30544 86.5059 5.95451L89.5561 4.91303L92.6571 4.01873C93.6889 3.7244 94.7207 3.40743 95.7751 3.18102C104.125 1.10939 112.723 0.0452814 121.322 0C129.926 0.0509416 138.518 1.10939 146.874 3.1697C147.928 3.39611 148.954 3.70742 149.992 4.00741L153.093 4.90171L156.143 5.94319C157.164 6.28846 158.184 6.62807 159.176 7.04692L162.176 8.24122C162.678 8.43367 163.168 8.64875 163.659 8.87516L165.125 9.54306C166.1 9.99587 167.092 10.4147 168.045 10.9128L170.904 12.4071C186.059 20.5351 199.224 32.3649 208.764 46.6455C209.39 47.5172 209.943 48.4398 210.512 49.3454L212.204 52.0793L213.771 54.8867L214.555 56.2905C214.808 56.7603 215.034 57.247 215.276 57.7282L216.703 60.6092C217.176 61.5714 217.571 62.5676 218.011 63.5468C218.428 64.5317 218.896 65.4996 219.257 66.5071L220.385 69.5183C220.779 70.5145 221.095 71.539 221.416 72.5578L222.392 75.6143L223.215 78.7161C223.486 79.7519 223.779 80.7764 223.982 81.8292C224.421 83.9235 224.906 86.0007 225.205 88.1176C225.369 89.1704 225.555 90.2232 225.707 91.2817L226.051 94.4627C227.81 111.438 225.329 128.78 218.845 144.357L218.851 144.369Z" fill="url(#paint5_linear_1109_23456)"/>
<g clip-path="url(#clip1_1109_23456)">
<path d="M105 71.1855C105 70.092 105.237 69.2837 105.717 68.7726C106.191 68.2556 107.014 68 108.175 68H127.315C128.678 68 129.638 68.309 130.183 68.9271C130.727 69.5452 131 70.4664 131 71.7025V144.309C131 145.54 130.727 146.467 130.183 147.085C129.638 147.703 128.678 148.012 127.315 148.012H118.305C116.937 148.012 115.983 147.703 115.438 147.085C114.893 146.467 114.62 145.545 114.62 144.309V78.4777H108.175C107.014 78.4777 106.197 78.2221 105.717 77.7051C105.237 77.194 105 76.3857 105 75.2922V71.1855Z" fill="black"/>
<path d="M105 71.1855C105 70.092 105.237 69.2837 105.717 68.7726C106.191 68.2556 107.014 68 108.175 68H127.315C128.678 68 129.638 68.309 130.183 68.9271C130.727 69.5452 131 70.4664 131 71.7025V144.309C131 145.54 130.727 146.467 130.183 147.085C129.638 147.703 128.678 148.012 127.315 148.012H118.305C116.937 148.012 115.983 147.703 115.438 147.085C114.893 146.467 114.62 145.545 114.62 144.309V78.4777H108.175C107.014 78.4777 106.197 78.2221 105.717 77.7051C105.237 77.194 105 76.3857 105 75.2922V71.1855Z" fill="url(#paint6_linear_1109_23456)"/>
</g>
</g>
<defs>
<linearGradient id="paint0_linear_1109_23456" x1="61.4512" y1="162.068" x2="61.4512" y2="213.451" gradientUnits="userSpaceOnUse">
<stop stop-color="#C29145"/>
<stop offset="0.25" stop-color="#FBEF9B"/>
<stop offset="0.4" stop-color="#E1AF58"/>
<stop offset="0.51" stop-color="#E5BE6F"/>
<stop offset="0.66" stop-color="#DEAF53"/>
<stop offset="0.74" stop-color="#FBEF9B"/>
<stop offset="0.83" stop-color="#DEAF53"/>
<stop offset="0.91" stop-color="#8F5A26"/>
<stop offset="1" stop-color="#BA8430"/>
</linearGradient>
<linearGradient id="paint1_linear_1109_23456" x1="181.551" y1="162.069" x2="181.551" y2="213.452" gradientUnits="userSpaceOnUse">
<stop stop-color="#C29145"/>
<stop offset="0.25" stop-color="#FBEF9B"/>
<stop offset="0.4" stop-color="#E1AF58"/>
<stop offset="0.51" stop-color="#E5BE6F"/>
<stop offset="0.66" stop-color="#DEAF53"/>
<stop offset="0.74" stop-color="#FBEF9B"/>
<stop offset="0.83" stop-color="#DEAF53"/>
<stop offset="0.91" stop-color="#8F5A26"/>
<stop offset="1" stop-color="#BA8430"/>
</linearGradient>
<linearGradient id="paint2_linear_1109_23456" x1="85.8015" y1="42.6662" x2="85.8015" y2="62.5051" gradientUnits="userSpaceOnUse">
<stop stop-color="#C29145"/>
<stop offset="0.25" stop-color="#FBEF9B"/>
<stop offset="0.4" stop-color="#E1AF58"/>
<stop offset="0.51" stop-color="#E5BE6F"/>
<stop offset="0.66" stop-color="#DEAF53"/>
<stop offset="0.74" stop-color="#FBEF9B"/>
<stop offset="0.83" stop-color="#DEAF53"/>
<stop offset="0.91" stop-color="#8F5A26"/>
<stop offset="1" stop-color="#BA8430"/>
</linearGradient>
<linearGradient id="paint3_linear_1109_23456" x1="118.801" y1="30.6662" x2="118.801" y2="50.5051" gradientUnits="userSpaceOnUse">
<stop stop-color="#C29145"/>
<stop offset="0.25" stop-color="#FBEF9B"/>
<stop offset="0.4" stop-color="#E1AF58"/>
<stop offset="0.51" stop-color="#E5BE6F"/>
<stop offset="0.66" stop-color="#DEAF53"/>
<stop offset="0.74" stop-color="#FBEF9B"/>
<stop offset="0.83" stop-color="#DEAF53"/>
<stop offset="0.91" stop-color="#8F5A26"/>
<stop offset="1" stop-color="#BA8430"/>
</linearGradient>
<linearGradient id="paint4_linear_1109_23456" x1="152.213" y1="42.6662" x2="152.213" y2="62.5051" gradientUnits="userSpaceOnUse">
<stop stop-color="#C29145"/>
<stop offset="0.25" stop-color="#FBEF9B"/>
<stop offset="0.4" stop-color="#E1AF58"/>
<stop offset="0.51" stop-color="#E5BE6F"/>
<stop offset="0.66" stop-color="#DEAF53"/>
<stop offset="0.74" stop-color="#FBEF9B"/>
<stop offset="0.83" stop-color="#DEAF53"/>
<stop offset="0.91" stop-color="#8F5A26"/>
<stop offset="1" stop-color="#BA8430"/>
</linearGradient>
<linearGradient id="paint5_linear_1109_23456" x1="14.5007" y1="72.1843" x2="228.143" y2="72.1843" gradientUnits="userSpaceOnUse">
<stop stop-color="#C29145"/>
<stop offset="0.25" stop-color="#FBEF9B"/>
<stop offset="0.4" stop-color="#E1AF58"/>
<stop offset="0.51" stop-color="#E5BE6F"/>
<stop offset="0.66" stop-color="#DEAF53"/>
<stop offset="0.74" stop-color="#FBEF9B"/>
<stop offset="0.83" stop-color="#DEAF53"/>
<stop offset="0.91" stop-color="#8F5A26"/>
<stop offset="1" stop-color="#BA8430"/>
</linearGradient>
<linearGradient id="paint6_linear_1109_23456" x1="118.003" y1="70.2227" x2="118.003" y2="149.747" gradientUnits="userSpaceOnUse">
<stop stop-color="#C29145"/>
<stop offset="0.25" stop-color="#FBEF9B"/>
<stop offset="0.4" stop-color="#E1AF58"/>
<stop offset="0.51" stop-color="#E5BE6F"/>
<stop offset="0.66" stop-color="#DEAF53"/>
<stop offset="0.74" stop-color="#FBEF9B"/>
<stop offset="0.83" stop-color="#DEAF53"/>
<stop offset="0.91" stop-color="#8F5A26"/>
<stop offset="1" stop-color="#BA8430"/>
</linearGradient>
<clipPath id="clip0_1109_23456">
<rect width="243" height="214" fill="white"/>
</clipPath>
<clipPath id="clip1_1109_23456">
<rect width="26" height="80" fill="white" transform="translate(105 68)"/>
</clipPath>
</defs>
</svg>
