<svg width="183" height="183" viewBox="0 0 183 183" fill="none" xmlns="http://www.w3.org/2000/svg">
<circle cx="91.5" cy="91.5" r="91.5" fill="white"/>
<path d="M65.6339 123.724C65.5421 123.724 65.4633 123.711 65.3714 123.698C65.0302 123.632 64.7283 123.422 64.5446 123.12L51.1964 101.687C50.8421 101.109 50.9864 100.361 51.5508 99.9675L58.9271 94.8225C59.2158 94.6257 59.5571 94.5469 59.8983 94.6125C60.2396 94.6782 60.5414 94.8882 60.7252 95.1769L74.3621 116.466C74.7296 117.043 74.5721 117.804 74.0077 118.198L66.3558 123.488C66.1458 123.645 65.8964 123.724 65.6339 123.724ZM53.9921 101.359L66.0146 120.639L71.5664 116.807L59.2946 97.6575L53.9921 101.359Z" fill="#424242"/>
<path d="M61.4203 99.9031C61.0922 99.9031 60.7641 99.785 60.5147 99.5356C60.0159 99.0368 60.0159 98.2362 60.5147 97.7375L66.0666 92.1856C67.1559 91.0962 68.1928 89.9412 69.1509 88.7468L77.3803 78.4831C79.5853 75.7268 83.2997 74.69 86.6203 75.8843L97.8028 79.9662C98.4591 80.2025 98.8003 80.9375 98.5641 81.5937C98.3278 82.25 97.5928 82.5912 96.9366 82.355L85.7672 78.2731C83.4834 77.4462 80.9109 78.1681 79.3884 80.0712L71.1591 90.335C70.1484 91.595 69.0459 92.8287 67.8909 93.9706L62.3391 99.5225C62.0766 99.785 61.7484 99.9031 61.4203 99.9031Z" fill="#424242"/>
<path d="M71.4612 115.562C71.015 115.562 70.595 115.326 70.3587 114.919C70.0044 114.302 70.2275 113.528 70.8312 113.186L74.0862 111.336C75.5694 110.496 77.2494 110.102 78.9425 110.22C82.1187 110.43 84.5337 110.378 85.7412 110.076C87.5262 109.643 93.3669 104.826 96.6219 101.886C98.1575 100.547 99.9031 99.5365 101.57 98.6571C103.67 97.5284 105.258 95.4415 106.216 93.8927C106.781 92.9871 106.557 92.0159 106.164 91.4121C105.691 90.6771 104.93 90.3096 104.103 90.4146C101.727 90.7034 99.155 92.4358 99.1287 92.4621C92.7237 97.4627 87.0144 96.859 84.1794 96.0321C83.2344 95.7565 82.4731 95.1265 82.04 94.2602C81.6069 93.394 81.5675 92.3571 81.935 91.4383L83.7594 86.7921C84.3631 85.2302 86.0037 84.3377 87.6444 84.6527L93.6687 85.8209C94.3644 85.9521 94.8106 86.6215 94.6794 87.3171C94.5481 88.0127 93.8919 88.459 93.1831 88.3277L87.1587 87.1596C86.7256 87.0677 86.2925 87.3171 86.135 87.724L84.3106 92.3702C84.2056 92.6327 84.2187 92.9083 84.3237 93.1446C84.4025 93.3021 84.56 93.5121 84.8881 93.604C87.2506 94.2865 92.0544 94.7721 97.6325 90.4146C97.8294 90.2834 100.796 88.2752 103.788 87.9077C105.586 87.6846 107.319 88.5115 108.303 90.0602C109.327 91.6615 109.366 93.6433 108.369 95.2446C107.24 97.069 105.363 99.5365 102.751 100.928C100.992 101.873 99.5487 102.726 98.3019 103.815C96.8319 105.141 89.2587 111.848 86.3319 112.57C84.4681 113.029 81.1869 112.937 78.7587 112.78C77.5512 112.701 76.37 112.976 75.32 113.567L72.065 115.418C71.8944 115.51 71.6712 115.562 71.4612 115.562Z" fill="#424242"/>
<path d="M111.612 115.245C110.863 115.245 110.115 115.022 109.472 114.589L95.3628 105.112C94.7853 104.719 94.6278 103.931 95.0216 103.341C95.4153 102.763 96.2028 102.606 96.7934 102.999L110.903 112.476C111.205 112.672 111.559 112.738 111.913 112.672C112.268 112.594 112.557 112.384 112.74 112.082L132.27 79.965C132.638 79.3612 132.454 78.5737 131.863 78.1931L111.218 65.0156C110.627 64.635 109.827 64.8056 109.433 65.3962L88.9841 96.0168C88.5903 96.6075 87.8028 96.7518 87.2253 96.3712C86.6347 95.9775 86.4772 95.19 86.871 94.5993L107.32 63.9787C108.475 62.2462 110.837 61.7606 112.583 62.8762L133.228 76.0406C134.974 77.1562 135.525 79.5056 134.449 81.2906L114.919 113.394C114.368 114.3 113.488 114.93 112.452 115.153C112.176 115.219 111.887 115.245 111.612 115.245Z" fill="#424242"/>
<path d="M104.379 110.912C104.143 110.912 103.92 110.847 103.71 110.716C103.119 110.348 102.935 109.561 103.303 108.957L125.904 72.8893C126.285 72.2987 127.059 72.115 127.663 72.4825C128.253 72.85 128.437 73.6374 128.07 74.2412L105.455 110.309C105.219 110.702 104.799 110.912 104.379 110.912Z" fill="#424242"/>
<path d="M111.808 82.4606C111.572 82.4606 111.336 82.395 111.126 82.2637L105.876 78.93C105.285 78.5493 105.102 77.7618 105.482 77.1712L110.155 69.8081C110.338 69.5193 110.627 69.3225 110.955 69.2437C111.283 69.165 111.638 69.2306 111.913 69.4143L117.163 72.7481C117.452 72.9318 117.649 73.2206 117.728 73.5487C117.807 73.8768 117.741 74.2181 117.557 74.5068L112.885 81.87C112.648 82.2506 112.228 82.4606 111.808 82.4606ZM108.317 77.4468L111.428 79.4156L114.735 74.205L111.625 72.2362L108.317 77.4468Z" fill="#424242"/>
</svg>
