<svg width="183" height="183" viewBox="0 0 183 183" fill="none" xmlns="http://www.w3.org/2000/svg">
<circle cx="91.5" cy="91.5" r="91.5" fill="white"/>
<g clip-path="url(#clip0_1109_23521)">
<path d="M125.589 94.9108C125.063 94.3842 124.438 93.9666 123.75 93.6816C123.062 93.3967 122.325 93.25 121.58 93.25C120.836 93.25 120.099 93.3967 119.411 93.6816C118.723 93.9666 118.098 94.3842 117.572 94.9108L107.867 104.615C107.441 103.827 106.811 103.168 106.043 102.708C105.274 102.248 104.396 102.003 103.5 102H89.3045C88.0824 100.521 86.5648 99.3135 84.8489 98.4551C83.133 97.5968 81.2567 97.1064 79.3402 97.0154C77.4238 96.9245 75.5095 97.2349 73.72 97.9269C71.9305 98.6189 70.3053 99.6771 68.9487 101.034L63.5 106.482L61.8838 104.866C61.7678 104.75 61.63 104.658 61.4783 104.595C61.3267 104.532 61.1642 104.5 61 104.5C60.8359 104.5 60.6733 104.532 60.5217 104.595C60.37 104.658 60.2323 104.75 60.1162 104.866L55.1162 109.866C55.0001 109.982 54.908 110.12 54.8452 110.272C54.7823 110.423 54.75 110.586 54.75 110.75C54.75 110.914 54.7823 111.077 54.8452 111.228C54.908 111.38 55.0001 111.518 55.1162 111.634L75.1162 131.634C75.2323 131.75 75.37 131.842 75.5217 131.905C75.6733 131.968 75.8359 132 76 132C76.1642 132 76.3267 131.968 76.4783 131.905C76.63 131.842 76.7678 131.75 76.8838 131.634L81.8838 126.634C81.9999 126.518 82.092 126.38 82.1548 126.228C82.2177 126.077 82.25 125.914 82.25 125.75C82.25 125.586 82.2177 125.423 82.1548 125.272C82.092 125.12 81.9999 124.982 81.8838 124.866L80.2676 123.25L81.6696 121.848C82.3745 121.147 83.3271 120.753 84.321 120.75H102.59C104.232 120.755 105.859 120.433 107.376 119.805C108.894 119.176 110.271 118.253 111.429 117.089L125.589 102.928C126.116 102.402 126.533 101.777 126.818 101.089C127.103 100.401 127.25 99.6641 127.25 98.9196C127.25 98.175 127.103 97.4378 126.818 96.75C126.533 96.0621 126.116 95.4372 125.589 94.9108ZM76 128.982L57.7676 110.75L61 107.518L79.2325 125.75L76 128.982ZM123.822 101.161L109.662 115.321C108.735 116.252 107.633 116.991 106.419 117.494C105.205 117.997 103.904 118.254 102.59 118.25H84.321C83.5 118.248 82.6867 118.408 81.9281 118.723C81.1696 119.037 80.481 119.498 79.902 120.08L78.5 121.482L65.2676 108.25L70.7163 102.801C71.8412 101.677 73.1914 100.803 74.6782 100.237C76.165 99.6712 77.7547 99.4266 79.3427 99.5191C80.9308 99.6116 82.4813 100.039 83.8924 100.774C85.3034 101.508 86.543 102.533 87.5296 103.781L87.7219 104.025C87.8388 104.173 87.9878 104.293 88.1577 104.375C88.3276 104.457 88.5139 104.5 88.7027 104.5H103.5C104.163 104.5 104.799 104.763 105.268 105.232C105.737 105.701 106 106.337 106 107C106 107.663 105.737 108.299 105.268 108.768C104.799 109.237 104.163 109.5 103.5 109.5H86C85.6685 109.5 85.3506 109.632 85.1162 109.866C84.8817 110.101 84.75 110.418 84.75 110.75C84.75 111.082 84.8817 111.399 85.1162 111.634C85.3506 111.868 85.6685 112 86 112H103.5C104.723 111.996 105.902 111.543 106.812 110.728C107.723 109.912 108.303 108.791 108.442 107.576L119.339 96.6783C119.943 96.1018 120.746 95.7802 121.581 95.7802C122.415 95.7802 123.218 96.1018 123.822 96.6783C124.116 96.9726 124.35 97.322 124.509 97.7066C124.668 98.0911 124.75 98.5033 124.75 98.9195C124.75 99.3357 124.668 99.7479 124.509 100.132C124.35 100.517 124.116 100.866 123.822 101.161Z" fill="#424242"/>
<path d="M75.68 77.4713C75.6625 77.4957 75.6363 77.5096 75.6203 77.5356C75.6162 77.5424 75.6165 77.5503 75.6126 77.5571C71.8108 82.3856 69.7457 88.3536 69.75 94.4991C69.75 94.7036 69.7513 94.9068 69.7653 95.1107C69.7873 95.4262 69.928 95.7217 70.1592 95.9376C70.3903 96.1534 70.6947 96.2737 71.011 96.274C71.0403 96.274 71.0696 96.2728 71.0989 96.271C71.2626 96.2596 71.4226 96.2161 71.5695 96.1429C71.7164 96.0698 71.8475 95.9684 71.9553 95.8445C72.063 95.7207 72.1453 95.5768 72.1975 95.4212C72.2496 95.2655 72.2706 95.1011 72.2592 94.9374C72.2488 94.7909 72.25 94.645 72.25 94.4991C72.2511 89.2451 73.9185 84.1269 77.0124 79.8804C80.5475 82.1886 82.6166 84.4186 82.7017 86.0799C82.571 87.6602 82.0718 89.1879 81.2442 90.5404C80.8761 91.3003 80.4898 92.0998 80.1333 92.9562C80.0703 93.1077 80.0376 93.2702 80.0374 93.4344C80.0371 93.5986 80.0692 93.7612 80.1317 93.913C80.2581 94.2195 80.5011 94.4633 80.8072 94.5907C80.9587 94.6538 81.1212 94.6864 81.2854 94.6866C81.4496 94.6869 81.6122 94.6549 81.764 94.5923C82.0705 94.4659 82.3143 94.223 82.4417 93.9169C82.7792 93.1063 83.146 92.3495 83.4945 91.6299C84.5323 89.9096 85.1183 87.9549 85.198 85.9475C85.0688 83.4262 82.8295 80.7304 78.5852 77.925C80.499 75.7586 82.7722 73.9384 85.3047 72.5446C87.7393 77.2888 90.6688 79.7927 93.8675 79.7927C94.1002 79.7927 94.3327 79.7797 94.5639 79.7537C96.78 79.6125 98.8951 78.7759 100.608 77.3629C101.709 76.512 102.165 76.1605 104.688 77.0418C107.044 77.8623 109.529 76.8337 111.779 74.1644C113.727 75.56 115.465 77.2283 116.938 79.118C115.434 80.7249 114.25 82.6044 113.45 84.6554C112.384 86.9833 111.663 88.417 110.337 88.5415C109.476 88.595 108.612 88.5914 107.752 88.5305C104.453 88.3681 100.351 88.1759 97.421 93.9364C96.7565 95.2344 96.3101 96.6329 96.0995 98.0758C96.0536 98.4041 96.1399 98.7372 96.3395 99.0018C96.5391 99.2664 96.8357 99.4409 97.164 99.4869C97.222 99.4952 97.2805 99.4993 97.3391 99.4991C97.6403 99.4987 97.9312 99.3896 98.1583 99.1918C98.3854 98.9939 98.5334 98.7208 98.5751 98.4225C98.7451 97.2517 99.1087 96.1175 99.6511 95.0661C101.846 90.751 104.402 90.8773 107.633 91.0275C108.61 91.0958 109.59 91.0971 110.567 91.0311C113.402 90.7638 114.582 88.1875 115.723 85.696C116.369 84.0615 117.274 82.5415 118.403 81.1945C120.075 83.84 121.23 86.7782 121.809 89.8537C121.839 90.0152 121.9 90.1692 121.99 90.3069C122.079 90.4445 122.195 90.5632 122.331 90.6561C122.466 90.749 122.618 90.8143 122.779 90.8482C122.94 90.8822 123.106 90.8841 123.267 90.854C123.429 90.8238 123.582 90.7622 123.72 90.6725C123.858 90.5828 123.976 90.4669 124.069 90.3314C124.162 90.1959 124.227 90.0434 124.261 89.8827C124.295 89.722 124.296 89.5562 124.266 89.3948C123.115 83.3132 119.945 77.7983 115.268 73.7436C110.592 69.689 104.683 67.332 98.5 67.0546V65.6734C98.5001 64.9734 98.6971 64.2875 99.0683 63.6939C99.4396 63.1004 99.9702 62.6233 100.6 62.3169C101.295 63.1272 102.158 63.7777 103.128 64.2238C104.098 64.6699 105.153 64.901 106.221 64.9014C107.234 64.8927 108.237 64.7123 109.19 64.3679C110.784 63.8098 112.296 63.04 113.686 62.0791C114.287 61.5393 115.027 61.1776 115.822 61.0347C116.618 60.8917 117.438 60.9731 118.189 61.2698C118.443 61.3347 118.71 61.3187 118.953 61.2239C119.197 61.1291 119.405 60.9603 119.547 60.7413C119.69 60.5223 119.76 60.2641 119.749 60.0029C119.737 59.7418 119.644 59.4909 119.482 59.2856C119.214 58.9449 112.849 50.9719 106.723 52.1127C100.809 53.215 100.116 56.8019 99.8277 59.9126C98.8022 60.347 97.9121 61.0487 97.2501 61.9444C96.5881 61.0485 95.6978 60.3467 94.6722 59.9122C94.3838 56.8016 93.691 53.2149 87.7774 52.1127C81.65 50.9658 75.2859 58.9455 75.018 59.2855C74.8562 59.4909 74.763 59.7418 74.7513 60.0029C74.7396 60.264 74.81 60.5222 74.9527 60.7413C75.0954 60.9603 75.3031 61.129 75.5467 61.2238C75.7903 61.3186 76.0575 61.3347 76.3107 61.2698C77.0625 60.9729 77.8821 60.8914 78.6776 61.0344C79.4731 61.1773 80.213 61.5391 80.8144 62.0791C82.2038 63.04 83.7159 63.8098 85.3103 64.3679C86.2625 64.7126 87.2664 64.893 88.2791 64.9013C89.3469 64.9009 90.4021 64.6697 91.3723 64.2236C92.3426 63.7775 93.2049 63.1271 93.9004 62.3167C94.5299 62.6231 95.0605 63.1003 95.4317 63.6939C95.803 64.2874 95.9999 64.9734 96 65.6734V67.0309C92.0614 67.2075 88.2073 68.2316 84.7005 70.0334C81.1938 71.8351 78.117 74.3722 75.68 77.4713ZM107.18 54.5699C109.919 54.0554 113.193 56.4339 115.422 58.5635C114.292 58.7983 113.23 59.2855 112.315 59.9886C111.094 60.8374 109.765 61.5168 108.362 62.0083C107.497 62.3857 106.544 62.5159 105.61 62.3843C104.675 62.2527 103.795 61.8646 103.068 61.263L106.372 59.8763C106.524 59.8131 106.661 59.7205 106.777 59.6039C106.893 59.4874 106.985 59.349 107.048 59.1969C107.11 59.0447 107.142 58.8818 107.141 58.7173C107.14 58.5529 107.107 58.3902 107.044 58.2386C106.98 58.0869 106.887 57.9494 106.77 57.8338C106.653 57.7181 106.514 57.6267 106.362 57.5648C106.21 57.5028 106.047 57.4715 105.882 57.4727C105.718 57.4739 105.555 57.5075 105.404 57.5716L102.476 58.8005C102.824 56.6623 103.701 55.2187 107.18 54.5699ZM86.1379 62.0083C84.7352 61.5168 83.4055 60.8374 82.1853 59.9886C81.2694 59.2844 80.2057 58.7969 79.0743 58.5629C81.2997 56.4328 84.5638 54.0579 87.3196 54.57C90.7985 55.2186 91.6762 56.6625 92.0236 58.8003L89.0963 57.5716C88.945 57.5081 88.7826 57.4749 88.6185 57.4741C88.4544 57.4733 88.2917 57.5048 88.1397 57.5669C87.9878 57.629 87.8495 57.7203 87.7329 57.8358C87.6163 57.9513 87.5235 58.0886 87.46 58.24C87.3964 58.3913 87.3633 58.5537 87.3625 58.7178C87.3617 58.8819 87.3932 59.0446 87.4552 59.1966C87.5173 59.3485 87.6087 59.4867 87.7242 59.6034C87.8397 59.72 87.977 59.8128 88.1283 59.8763L91.4327 61.263C90.7051 61.8643 89.8252 62.2522 88.8906 62.3837C87.956 62.5153 87.0032 62.3853 86.1379 62.0083ZM105.512 74.681C101.974 73.4469 100.667 74.1579 99.0792 75.3848C97.7273 76.5139 96.0462 77.1749 94.2873 77.2689C91.3257 77.6084 88.942 74.1741 87.54 71.4626C91.0823 69.9692 94.9213 69.3129 98.7585 69.5446C102.596 69.7763 106.328 70.8898 109.665 72.7986C108.582 74.0182 107.053 75.2197 105.512 74.681Z" fill="#424242"/>
</g>
<defs>
<clipPath id="clip0_1109_23521">
<rect width="80" height="80" fill="white" transform="translate(51 52)"/>
</clipPath>
</defs>
</svg>
