<svg width="183" height="183" viewBox="0 0 183 183" fill="none" xmlns="http://www.w3.org/2000/svg">
<circle cx="91.5" cy="91.5" r="91.5" fill="white"/>
<g clip-path="url(#clip0_1109_23517)">
<path d="M109.377 101.515C113.488 97.6328 115.931 92.3319 116.334 86.3657C117.79 85.0885 118.711 83.2239 118.711 81.1494V79.7828C118.711 77.7392 117.818 75.8991 116.398 74.6251V72.9607C116.398 64.9688 113.707 58.2443 108.612 53.5129C104.093 49.3136 98.015 47 91.5 47C84.985 47 78.9067 49.3136 74.3866 53.5129C69.2934 58.2443 66.6008 64.9688 66.6008 72.9607V74.6284C65.1838 75.9023 64.2923 77.7409 64.2923 79.7828V81.1494C64.2923 83.2223 65.2117 85.0852 66.6648 86.3624C67.067 92.3303 69.5102 97.6328 73.6215 101.515C68.7598 103.894 64 107.357 64 113.732V129H66.2954V113.732C66.2954 108.099 70.6579 105.291 76.6672 102.626L73.7233 110.899C73.5903 111.274 73.6625 111.689 73.9154 111.996C74.1682 112.304 74.5639 112.458 74.9596 112.404L79.6488 111.773L90.574 126.698C90.7907 126.992 91.1355 127.168 91.5033 127.168C91.8711 127.168 92.2159 126.994 92.4326 126.698L103.358 111.773L108.042 112.404C108.439 112.458 108.833 112.304 109.086 111.996C109.339 111.689 109.411 111.274 109.278 110.899L106.334 102.626C112.344 105.291 116.706 108.099 116.706 113.732V129H119.002V113.732C119.002 107.356 114.243 103.894 109.379 101.515H109.377ZM107.119 100.477C106.436 100.179 105.766 99.8976 105.123 99.6275L100.222 97.5742V95.0279C100.762 94.683 101.32 94.3071 101.901 93.9004H105.563C109.017 93.9004 111.886 91.3687 112.377 88.0805C112.9 88.0301 113.408 87.9211 113.892 87.7616C113.214 92.8786 110.899 97.2325 107.119 100.477ZM81.2316 91.18C77.585 88.4824 75.5753 84.4019 75.5753 79.6916V71.8624C76.1533 71.9422 76.7411 71.9828 77.3354 71.9828C82.9211 71.9828 88.4625 68.4864 91.5016 63.249C94.5375 68.4864 100.077 71.9828 105.665 71.9828C106.259 71.9828 106.848 71.9422 107.425 71.8624V79.6916C107.425 84.4019 105.417 88.4824 101.773 91.18C101.566 91.3329 101.363 91.481 101.163 91.6258H91.2931C90.6593 91.6258 90.1454 92.1351 90.1454 92.7631C90.1454 93.3911 90.6593 93.9004 91.2931 93.9004H97.6883C95.2287 95.3061 93.2585 95.9097 91.3801 95.8935C88.6201 95.8658 85.7764 94.5447 81.2316 91.1816V91.18ZM107.538 88.1131H110.035C109.561 90.1224 107.737 91.6242 105.563 91.6242H104.776C105.871 90.5748 106.796 89.3968 107.538 88.1131ZM116.417 81.1494C116.417 83.7364 114.296 85.8401 111.689 85.8401H108.618C109.342 83.943 109.718 81.8751 109.718 79.69V75.0969H111.687C114.294 75.0969 116.416 77.1991 116.416 79.7828V81.1494H116.417ZM68.8961 72.9607C68.8961 56.6873 80.6126 49.2746 91.5 49.2746C97.4305 49.2746 102.951 51.3702 107.045 55.1725C111.664 59.4629 114.106 65.6147 114.106 72.9607V73.247C113.352 72.9721 112.539 72.8224 111.69 72.8224H109.722V70.4746C109.722 70.1215 109.556 69.7896 109.273 69.5732C108.991 69.3585 108.625 69.2852 108.28 69.3764C107.446 69.596 106.568 69.7066 105.666 69.7066C100.253 69.7066 94.8659 65.8132 92.5656 60.2374C92.3899 59.8095 91.9696 59.5313 91.5033 59.5297C91.037 59.5297 90.6183 59.8079 90.441 60.2358C88.1374 65.8116 82.7487 69.7066 77.3354 69.7066C76.434 69.7066 75.5556 69.596 74.7215 69.3764C74.3767 69.2852 74.0106 69.3585 73.7282 69.5732C73.4458 69.788 73.28 70.1215 73.28 70.4746V72.8224H71.3146C70.4641 72.8224 69.6497 72.9737 68.8945 73.2487V72.9607H68.8961ZM66.5876 79.7828C66.5876 77.1991 68.7089 75.0969 71.3163 75.0969H73.2816V79.69C73.2816 81.8751 73.6576 83.943 74.3817 85.8401H71.3163C68.7089 85.8401 66.5876 83.7364 66.5876 81.1494V79.7828ZM69.1096 87.76C69.8041 87.9878 70.5462 88.1147 71.3163 88.1147H75.4637C76.5506 89.9939 78.0267 91.647 79.859 93.0023C80.8655 93.7474 81.8358 94.4324 82.7849 95.0425V97.5742L77.8772 99.6291C77.2336 99.8992 76.5637 100.181 75.8807 100.478C72.1011 97.2325 69.786 92.8786 69.1079 87.76H69.1096ZM102.987 109.43C102.568 109.373 102.151 109.551 101.903 109.889L91.5033 124.095L81.1036 109.889C80.8556 109.551 80.4402 109.373 80.0199 109.43L76.5112 109.902L79.5372 101.401L83.1937 99.8699L88.1456 116.651C88.2917 117.147 88.7498 117.469 89.2457 117.469C89.3524 117.469 89.4608 117.455 89.5675 117.424C90.175 117.248 90.5247 116.617 90.3458 116.013L85.0786 98.1632V96.3881C87.19 97.4928 89.2325 98.142 91.3572 98.1632C91.3949 98.1632 91.431 98.1632 91.4688 98.1632C93.4883 98.1632 95.5308 97.61 97.9264 96.3621V98.1583L92.4474 116.212C92.2651 116.814 92.6083 117.447 93.2158 117.627C93.3258 117.66 93.4374 117.676 93.5458 117.676C94.0384 117.676 94.4948 117.359 94.6442 116.866L99.803 99.865L103.463 101.399L106.487 109.9L102.983 109.429L102.987 109.43ZM91.5016 87.9341C89.7087 87.9341 88.0258 87.0571 86.6334 85.3976C86.2279 84.9144 86.2952 84.1985 86.7828 83.7966C87.2705 83.3947 87.9929 83.4614 88.3985 83.9447C89.0552 84.7273 90.1257 85.6612 91.5016 85.6612C92.8775 85.6612 93.9448 84.7289 94.5982 83.9463C95.0021 83.4631 95.7246 83.3947 96.2139 83.795C96.7015 84.1952 96.7705 84.9127 96.3666 85.396C95.0005 87.0327 93.2716 87.9341 91.5016 87.9341ZM86.686 77.6465C86.0522 77.6465 85.5383 77.1372 85.5383 76.5092C85.5383 75.7168 84.8881 75.0725 84.0885 75.0725C83.2889 75.0725 82.6436 75.7168 82.6436 76.5092C82.6436 77.1372 82.1297 77.6465 81.496 77.6465C80.8622 77.6465 80.3483 77.1372 80.3483 76.5092C80.3483 74.464 82.0263 72.7996 84.0869 72.7996C86.1474 72.7996 87.8304 74.464 87.8304 76.5092C87.8304 77.1372 87.3165 77.6465 86.6827 77.6465H86.686ZM95.168 76.5092C95.168 74.464 96.8476 72.7996 98.9115 72.7996C100.975 72.7996 102.655 74.464 102.655 76.5092C102.655 77.1372 102.141 77.6465 101.507 77.6465C100.874 77.6465 100.36 77.1372 100.36 76.5092C100.36 75.7168 99.7094 75.0725 98.9098 75.0725C98.1102 75.0725 97.4601 75.7168 97.4601 76.5092C97.4601 77.1372 96.9461 77.6465 96.3124 77.6465C95.6786 77.6465 95.1647 77.1372 95.1647 76.5092H95.168Z" fill="#424242"/>
</g>
<defs>
<clipPath id="clip0_1109_23517">
<rect width="55" height="82" fill="white" transform="translate(64 47)"/>
</clipPath>
</defs>
</svg>
