<svg width="61" height="79" viewBox="0 0 61 79" fill="none" xmlns="http://www.w3.org/2000/svg">
<g clip-path="url(#clip0_1109_23474)">
<mask id="path-1-inside-1_1109_23474" fill="white">
<path d="M7.375 78.2487H53.2083C55.0317 78.2487 56.7804 77.5244 58.0697 76.235C59.359 74.9457 60.0833 73.1971 60.0833 71.3737V7.20703C60.0833 5.38367 59.359 3.63498 58.0697 2.34567C56.7804 1.05636 55.0317 0.332031 53.2083 0.332031H7.375C5.55164 0.332031 3.80295 1.05636 2.51364 2.34567C1.22433 3.63498 0.5 5.38367 0.5 7.20703V71.3737C0.5 73.1971 1.22433 74.9457 2.51364 76.235C3.80295 77.5244 5.55164 78.2487 7.375 78.2487ZM23.4167 4.91536H37.1667V7.20703C37.1667 7.81482 36.9252 8.39771 36.4955 8.82748C36.0657 9.25725 35.4828 9.4987 34.875 9.4987H25.7083C25.1005 9.4987 24.5177 9.25725 24.0879 8.82748C23.6581 8.39771 23.4167 7.81482 23.4167 7.20703V4.91536ZM5.08333 7.20703C5.08333 6.59924 5.32478 6.01635 5.75455 5.58658C6.18432 5.15681 6.76721 4.91536 7.375 4.91536H18.8333V7.20703C18.8333 9.03039 19.5577 10.7791 20.847 12.0684C22.1363 13.3577 23.885 14.082 25.7083 14.082H34.875C36.6984 14.082 38.4471 13.3577 39.7364 12.0684C41.0257 10.7791 41.75 9.03039 41.75 7.20703V4.91536H53.2083C53.8161 4.91536 54.399 5.15681 54.8288 5.58658C55.2586 6.01635 55.5 6.59924 55.5 7.20703V71.3737C55.5 71.9815 55.2586 72.5644 54.8288 72.9941C54.399 73.4239 53.8161 73.6654 53.2083 73.6654H7.375C6.76721 73.6654 6.18432 73.4239 5.75455 72.9941C5.32478 72.5644 5.08333 71.9815 5.08333 71.3737V7.20703ZM12.6275 31.7462C12.1972 31.3159 11.9554 30.7323 11.9554 30.1237C11.9554 29.5151 12.1972 28.9315 12.6275 28.5012C13.0578 28.0709 13.6414 27.8291 14.25 27.8291C14.8586 27.8291 15.4422 28.0709 15.8725 28.5012L18.8333 31.4666L24.0858 26.2095C24.5161 25.7792 25.0998 25.5375 25.7083 25.5375C26.3169 25.5375 26.9005 25.7792 27.3308 26.2095C27.7611 26.6398 28.0029 27.2235 28.0029 27.832C28.0029 28.4406 27.7611 29.0242 27.3308 29.4545L20.4558 36.3295C20.243 36.5429 19.9901 36.7123 19.7117 36.8278C19.4332 36.9433 19.1348 37.0028 18.8333 37.0028C18.5319 37.0028 18.2334 36.9433 17.955 36.8278C17.6766 36.7123 17.4237 36.5429 17.2108 36.3295L12.6275 31.7462ZM32.5833 32.4154C32.5833 31.8076 32.8248 31.2247 33.2545 30.7949C33.6843 30.3651 34.2672 30.1237 34.875 30.1237H46.3333C46.9411 30.1237 47.524 30.3651 47.9538 30.7949C48.3836 31.2247 48.625 31.8076 48.625 32.4154C48.625 33.0232 48.3836 33.606 47.9538 34.0358C47.524 34.4656 46.9411 34.707 46.3333 34.707H34.875C34.2672 34.707 33.6843 34.4656 33.2545 34.0358C32.8248 33.606 32.5833 33.0232 32.5833 32.4154ZM12.6275 45.4962C12.1972 45.0659 11.9554 44.4823 11.9554 43.8737C11.9554 43.2651 12.1972 42.6815 12.6275 42.2512C13.0578 41.8209 13.6414 41.5791 14.25 41.5791C14.8586 41.5791 15.4422 41.8209 15.8725 42.2512L18.8333 45.2166L24.0858 39.9595C24.5161 39.5292 25.0998 39.2875 25.7083 39.2875C26.3169 39.2875 26.9005 39.5292 27.3308 39.9595C27.7611 40.3898 28.0029 40.9735 28.0029 41.582C28.0029 42.1906 27.7611 42.7742 27.3308 43.2045L20.4558 50.0795C20.243 50.2929 19.9901 50.4623 19.7117 50.5778C19.4332 50.6933 19.1348 50.7528 18.8333 50.7528C18.5319 50.7528 18.2334 50.6933 17.955 50.5778C17.6766 50.4623 17.4237 50.2929 17.2108 50.0795L12.6275 45.4962ZM32.5833 46.1654C32.5833 45.5576 32.8248 44.9747 33.2545 44.5449C33.6843 44.1151 34.2672 43.8737 34.875 43.8737H46.3333C46.9411 43.8737 47.524 44.1151 47.9538 44.5449C48.3836 44.9747 48.625 45.5576 48.625 46.1654C48.625 46.7731 48.3836 47.356 47.9538 47.7858C47.524 48.2156 46.9411 48.457 46.3333 48.457H34.875C34.2672 48.457 33.6843 48.2156 33.2545 47.7858C32.8248 47.356 32.5833 46.7731 32.5833 46.1654ZM12.6275 59.2462C12.1972 58.8159 11.9554 58.2323 11.9554 57.6237C11.9554 57.0151 12.1972 56.4315 12.6275 56.0012C13.0578 55.5709 13.6414 55.3291 14.25 55.3291C14.8586 55.3291 15.4422 55.5709 15.8725 56.0012L18.8333 58.9666L24.0858 53.7095C24.5161 53.2792 25.0998 53.0375 25.7083 53.0375C26.3169 53.0375 26.9005 53.2792 27.3308 53.7095C27.7611 54.1398 28.0029 54.7235 28.0029 55.332C28.0029 55.9406 27.7611 56.5242 27.3308 56.9545L20.4558 63.8295C20.243 64.0429 19.9901 64.2123 19.7117 64.3278C19.4332 64.4433 19.1348 64.5028 18.8333 64.5028C18.5319 64.5028 18.2334 64.4433 17.955 64.3278C17.6766 64.2123 17.4237 64.0429 17.2108 63.8295L12.6275 59.2462ZM32.5833 59.9154C32.5833 59.3076 32.8248 58.7247 33.2545 58.2949C33.6843 57.8651 34.2672 57.6237 34.875 57.6237H46.3333C46.9411 57.6237 47.524 57.8651 47.9538 58.2949C48.3836 58.7247 48.625 59.3076 48.625 59.9154C48.625 60.5231 48.3836 61.106 47.9538 61.5358C47.524 61.9656 46.9411 62.207 46.3333 62.207H34.875C34.2672 62.207 33.6843 61.9656 33.2545 61.5358C32.8248 61.106 32.5833 60.5231 32.5833 59.9154Z"/>
</mask>
<path d="M7.375 78.2487H53.2083C55.0317 78.2487 56.7804 77.5244 58.0697 76.235C59.359 74.9457 60.0833 73.1971 60.0833 71.3737V7.20703C60.0833 5.38367 59.359 3.63498 58.0697 2.34567C56.7804 1.05636 55.0317 0.332031 53.2083 0.332031H7.375C5.55164 0.332031 3.80295 1.05636 2.51364 2.34567C1.22433 3.63498 0.5 5.38367 0.5 7.20703V71.3737C0.5 73.1971 1.22433 74.9457 2.51364 76.235C3.80295 77.5244 5.55164 78.2487 7.375 78.2487ZM23.4167 4.91536H37.1667V7.20703C37.1667 7.81482 36.9252 8.39771 36.4955 8.82748C36.0657 9.25725 35.4828 9.4987 34.875 9.4987H25.7083C25.1005 9.4987 24.5177 9.25725 24.0879 8.82748C23.6581 8.39771 23.4167 7.81482 23.4167 7.20703V4.91536ZM5.08333 7.20703C5.08333 6.59924 5.32478 6.01635 5.75455 5.58658C6.18432 5.15681 6.76721 4.91536 7.375 4.91536H18.8333V7.20703C18.8333 9.03039 19.5577 10.7791 20.847 12.0684C22.1363 13.3577 23.885 14.082 25.7083 14.082H34.875C36.6984 14.082 38.4471 13.3577 39.7364 12.0684C41.0257 10.7791 41.75 9.03039 41.75 7.20703V4.91536H53.2083C53.8161 4.91536 54.399 5.15681 54.8288 5.58658C55.2586 6.01635 55.5 6.59924 55.5 7.20703V71.3737C55.5 71.9815 55.2586 72.5644 54.8288 72.9941C54.399 73.4239 53.8161 73.6654 53.2083 73.6654H7.375C6.76721 73.6654 6.18432 73.4239 5.75455 72.9941C5.32478 72.5644 5.08333 71.9815 5.08333 71.3737V7.20703ZM12.6275 31.7462C12.1972 31.3159 11.9554 30.7323 11.9554 30.1237C11.9554 29.5151 12.1972 28.9315 12.6275 28.5012C13.0578 28.0709 13.6414 27.8291 14.25 27.8291C14.8586 27.8291 15.4422 28.0709 15.8725 28.5012L18.8333 31.4666L24.0858 26.2095C24.5161 25.7792 25.0998 25.5375 25.7083 25.5375C26.3169 25.5375 26.9005 25.7792 27.3308 26.2095C27.7611 26.6398 28.0029 27.2235 28.0029 27.832C28.0029 28.4406 27.7611 29.0242 27.3308 29.4545L20.4558 36.3295C20.243 36.5429 19.9901 36.7123 19.7117 36.8278C19.4332 36.9433 19.1348 37.0028 18.8333 37.0028C18.5319 37.0028 18.2334 36.9433 17.955 36.8278C17.6766 36.7123 17.4237 36.5429 17.2108 36.3295L12.6275 31.7462ZM32.5833 32.4154C32.5833 31.8076 32.8248 31.2247 33.2545 30.7949C33.6843 30.3651 34.2672 30.1237 34.875 30.1237H46.3333C46.9411 30.1237 47.524 30.3651 47.9538 30.7949C48.3836 31.2247 48.625 31.8076 48.625 32.4154C48.625 33.0232 48.3836 33.606 47.9538 34.0358C47.524 34.4656 46.9411 34.707 46.3333 34.707H34.875C34.2672 34.707 33.6843 34.4656 33.2545 34.0358C32.8248 33.606 32.5833 33.0232 32.5833 32.4154ZM12.6275 45.4962C12.1972 45.0659 11.9554 44.4823 11.9554 43.8737C11.9554 43.2651 12.1972 42.6815 12.6275 42.2512C13.0578 41.8209 13.6414 41.5791 14.25 41.5791C14.8586 41.5791 15.4422 41.8209 15.8725 42.2512L18.8333 45.2166L24.0858 39.9595C24.5161 39.5292 25.0998 39.2875 25.7083 39.2875C26.3169 39.2875 26.9005 39.5292 27.3308 39.9595C27.7611 40.3898 28.0029 40.9735 28.0029 41.582C28.0029 42.1906 27.7611 42.7742 27.3308 43.2045L20.4558 50.0795C20.243 50.2929 19.9901 50.4623 19.7117 50.5778C19.4332 50.6933 19.1348 50.7528 18.8333 50.7528C18.5319 50.7528 18.2334 50.6933 17.955 50.5778C17.6766 50.4623 17.4237 50.2929 17.2108 50.0795L12.6275 45.4962ZM32.5833 46.1654C32.5833 45.5576 32.8248 44.9747 33.2545 44.5449C33.6843 44.1151 34.2672 43.8737 34.875 43.8737H46.3333C46.9411 43.8737 47.524 44.1151 47.9538 44.5449C48.3836 44.9747 48.625 45.5576 48.625 46.1654C48.625 46.7731 48.3836 47.356 47.9538 47.7858C47.524 48.2156 46.9411 48.457 46.3333 48.457H34.875C34.2672 48.457 33.6843 48.2156 33.2545 47.7858C32.8248 47.356 32.5833 46.7731 32.5833 46.1654ZM12.6275 59.2462C12.1972 58.8159 11.9554 58.2323 11.9554 57.6237C11.9554 57.0151 12.1972 56.4315 12.6275 56.0012C13.0578 55.5709 13.6414 55.3291 14.25 55.3291C14.8586 55.3291 15.4422 55.5709 15.8725 56.0012L18.8333 58.9666L24.0858 53.7095C24.5161 53.2792 25.0998 53.0375 25.7083 53.0375C26.3169 53.0375 26.9005 53.2792 27.3308 53.7095C27.7611 54.1398 28.0029 54.7235 28.0029 55.332C28.0029 55.9406 27.7611 56.5242 27.3308 56.9545L20.4558 63.8295C20.243 64.0429 19.9901 64.2123 19.7117 64.3278C19.4332 64.4433 19.1348 64.5028 18.8333 64.5028C18.5319 64.5028 18.2334 64.4433 17.955 64.3278C17.6766 64.2123 17.4237 64.0429 17.2108 63.8295L12.6275 59.2462ZM32.5833 59.9154C32.5833 59.3076 32.8248 58.7247 33.2545 58.2949C33.6843 57.8651 34.2672 57.6237 34.875 57.6237H46.3333C46.9411 57.6237 47.524 57.8651 47.9538 58.2949C48.3836 58.7247 48.625 59.3076 48.625 59.9154C48.625 60.5231 48.3836 61.106 47.9538 61.5358C47.524 61.9656 46.9411 62.207 46.3333 62.207H34.875C34.2672 62.207 33.6843 61.9656 33.2545 61.5358C32.8248 61.106 32.5833 60.5231 32.5833 59.9154Z" fill="#FAFAFA" stroke="#141414" mask="url(#path-1-inside-1_1109_23474)"/>
</g>
<defs>
<clipPath id="clip0_1109_23474">
<rect width="61" height="79" fill="white"/>
</clipPath>
</defs>
</svg>
