<svg width="82" height="82" viewBox="0 0 82 82" fill="none" xmlns="http://www.w3.org/2000/svg">
<path d="M4.89062 69.5186C4.89062 71.1979 6.25616 72.5635 7.93555 72.5635H16.0947L15.9971 72.084C14.9104 66.7522 10.7019 62.5437 5.37012 61.457L4.89062 61.3594V69.5186ZM76.6299 61.457C71.2981 62.5437 67.0896 66.7522 66.0029 72.084L65.9053 72.5635H74.0645C75.7438 72.5635 77.1094 71.1979 77.1094 69.5186V61.3594L76.6299 61.457ZM18.5166 47.4346H19.8389C21.0788 47.4347 22.0839 48.4398 22.084 49.6797C22.084 50.9197 21.0788 51.9247 19.8389 51.9248H18.5166C17.2766 51.9248 16.2705 50.9197 16.2705 49.6797C16.2706 48.4398 17.2766 47.4346 18.5166 47.4346ZM62.1611 47.4346H63.4834C64.7234 47.4346 65.7294 48.4398 65.7295 49.6797C65.7295 50.9197 64.7234 51.9248 63.4834 51.9248H62.1611C60.9212 51.9247 59.916 50.9197 59.916 49.6797C59.9161 48.4398 60.9212 47.4347 62.1611 47.4346ZM7.93555 26.7959C6.25631 26.7959 4.89085 28.1614 4.89062 29.8408V38L5.37012 37.9023C10.7018 36.8157 14.9103 32.608 15.9971 27.2764L16.0947 26.7959H7.93555ZM66.0029 27.2764C67.0897 32.608 71.2982 36.8157 76.6299 37.9023L77.1094 38V29.8408C77.1092 28.1616 75.7437 26.7959 74.0645 26.7959H65.9053L66.0029 27.2764ZM39.4121 5.60449C40.2888 4.72777 41.7112 4.72777 42.5879 5.60449L48.043 11.0605C48.9198 11.9373 48.9198 13.3587 48.043 14.2354C47.1661 15.1119 45.7448 15.1119 44.8682 14.2354L43.2451 12.6123V26.2041C43.2451 27.4441 42.24 28.4492 41 28.4492C39.76 28.4492 38.7549 27.4441 38.7549 26.2041V12.6123L37.1318 14.2354C36.2552 15.1118 34.8338 15.1119 33.957 14.2354C33.0802 13.3587 33.0803 11.9373 33.957 11.0605L39.4121 5.60449ZM77.1094 42.5303L76.7666 42.4814C68.8457 41.3433 62.5631 35.0607 61.4248 27.1396L61.375 26.7959H50.2578C49.0179 26.7958 48.0127 25.7907 48.0127 24.5508C48.0128 23.3109 49.0179 22.3058 50.2578 22.3057H74.0645C78.2192 22.3057 81.5994 25.6862 81.5996 29.8408V69.5186C81.5996 73.6734 78.2193 77.0537 74.0645 77.0537H7.93555C3.7807 77.0537 0.400391 73.6734 0.400391 69.5186V29.8408C0.400612 25.6862 3.78084 22.3057 7.93555 22.3057H31.7422C32.9821 22.3058 33.9872 23.3109 33.9873 24.5508C33.9873 25.7907 32.9821 26.7958 31.7422 26.7959H20.625L20.5752 27.1396C19.4369 35.0607 13.1545 41.3433 5.2334 42.4814L4.89062 42.5303V56.8291L5.2334 56.8789C13.1545 58.017 19.4371 64.2995 20.5752 72.2207L20.625 72.5635H61.375L61.4248 72.2207C62.5629 64.2995 68.8454 58.017 76.7666 56.8789L77.1094 56.8291V42.5303Z" fill="#FAFAFA" stroke="#141414" stroke-width="0.8"/>
<path d="M40.9072 38.75C41.3002 38.7501 41.6758 38.9096 41.9521 39.1914C42.2283 39.4731 42.3827 39.8538 42.3828 40.25V41.9951H45.3818C45.7747 41.9952 46.1504 42.1539 46.4268 42.4355C46.703 42.7173 46.8574 43.0988 46.8574 43.4951C46.8574 43.8914 46.7029 44.272 46.4268 44.5537C46.1504 44.8356 45.7748 44.9951 45.3818 44.9951H37.9023V48.5156H45.3818C45.7747 48.5157 46.1504 48.6744 46.4268 48.9561C46.703 49.2378 46.8574 49.6193 46.8574 50.0156V56.5049C46.8574 56.9012 46.703 57.2827 46.4268 57.5645C46.1504 57.8461 45.7747 58.0048 45.3818 58.0049H42.3828V59.75C42.3827 60.1462 42.2283 60.5269 41.9521 60.8086C41.6758 61.0904 41.3002 61.2499 40.9072 61.25C40.5142 61.25 40.1377 61.0905 39.8613 60.8086C39.5853 60.527 39.4308 60.1461 39.4307 59.75V58.0049H36.4258C36.033 58.0048 35.6572 57.8461 35.3809 57.5645C35.1046 57.2827 34.9502 56.9012 34.9502 56.5049C34.9502 56.1087 35.1048 55.728 35.3809 55.4463C35.6572 55.1645 36.0329 55.005 36.4258 55.0049H43.9053V51.5156H36.4258C36.033 51.5155 35.6571 51.3568 35.3809 51.0752C35.1046 50.7935 34.9502 50.412 34.9502 50.0156V43.4951C34.9502 43.0988 35.1046 42.7173 35.3809 42.4355C35.6572 42.1539 36.033 41.9952 36.4258 41.9951H39.4307V40.25C39.4308 39.8539 39.5853 39.473 39.8613 39.1914C40.1377 38.9095 40.5142 38.75 40.9072 38.75Z" fill="#FAFAFA" stroke="#FAFAFA" stroke-width="0.5"/>
<path d="M40.5 34.6504C48.6553 34.6504 55.3496 41.4757 55.3496 50C55.3496 58.5243 48.6553 65.3496 40.5 65.3496C32.3447 65.3496 25.6504 58.5243 25.6504 50C25.6504 41.4757 32.3447 34.6504 40.5 34.6504Z" stroke="#FAFAFA" stroke-width="3.3"/>
</svg>
