<svg width="183" height="183" viewBox="0 0 183 183" fill="none" xmlns="http://www.w3.org/2000/svg">
<circle cx="91.5" cy="91.5" r="91.5" fill="white"/>
<path d="M128.846 93.6738L126.025 84.6239C125.029 81.4316 122.113 79.287 118.77 79.287H114.06V75.0956C114.06 72.0662 111.596 69.6014 108.567 69.6014H102.516V67.4295C102.516 66.7394 101.957 66.1797 101.266 66.1797C100.576 66.1797 100.017 66.7394 100.017 67.4295V69.6016H68.0505V67.4295C68.0505 66.7394 67.4915 66.1797 66.8007 66.1797C66.1099 66.1797 65.5509 66.7394 65.5509 67.4295V69.6016H59.5007C56.4713 69.6016 54.0059 72.0664 54.0059 75.0958V109.589C54.0059 111.839 55.8354 113.668 58.0849 113.668H66.202C66.7988 117.157 69.8371 119.823 73.493 119.823C77.149 119.823 80.1863 117.157 80.7831 113.668H109.431C110.028 117.157 113.066 119.823 116.722 119.823C120.378 119.823 123.416 117.157 124.012 113.668H129.916C132.166 113.668 133.996 111.839 133.996 109.589V99.1333C133.995 96.2222 131.712 93.8561 128.846 93.6738ZM118.77 81.7867C121.014 81.7867 122.97 83.2264 123.638 85.3678L126.216 93.6389H117.055C115.404 93.6389 114.06 92.2956 114.06 90.6444C114.06 90.3756 114.06 81.4644 114.06 81.7869H118.77V81.7867ZM73.4929 117.323C70.7882 117.323 68.5876 115.123 68.5876 112.418C68.5876 109.714 70.7882 107.514 73.4929 107.514C76.1976 107.514 78.3971 109.714 78.3971 112.418C78.3971 115.123 76.1977 117.323 73.4929 117.323ZM116.722 117.323C114.018 117.323 111.817 115.123 111.817 112.418C111.817 109.714 114.018 107.514 116.722 107.514C119.427 107.514 121.626 109.714 121.626 112.418C121.626 115.123 119.427 117.323 116.722 117.323ZM131.496 109.589C131.496 110.46 130.788 111.168 129.916 111.168H124.012C123.415 107.68 120.378 105.014 116.722 105.014C113.066 105.014 110.028 107.68 109.431 111.168H80.7829C80.1862 107.68 77.1488 105.014 73.4929 105.014C69.837 105.014 66.7987 107.68 66.2018 111.168H58.0848C57.2134 111.168 56.5054 110.46 56.5054 109.589V75.0958C56.5054 73.4444 57.8491 72.1012 59.5005 72.1012H108.566C110.218 72.1012 111.561 73.4445 111.561 75.0958V90.6444C111.561 93.6738 114.026 96.1386 117.055 96.1386C118.865 96.1386 128.683 96.1381 128.5 96.1386C130.152 96.1386 131.496 97.4819 131.496 99.1331V109.589H131.496Z" fill="#424242"/>
<path d="M69.4951 83.4763C70.1859 83.4763 70.7449 82.9166 70.7449 82.2264C70.7449 81.5363 70.1859 80.9766 69.4951 80.9766H64.0916C63.4009 80.9766 62.8418 81.5363 62.8418 82.2264V93.2028C62.8418 93.893 63.4009 94.4527 64.0916 94.4527C64.7824 94.4527 65.3415 93.893 65.3415 93.2028V88.9645H69.4949C70.1857 88.9645 70.7448 88.4048 70.7448 87.7147C70.7448 87.0245 70.1857 86.4648 69.4949 86.4648H65.3415V83.4764H69.4951V83.4763Z" fill="#424242"/>
<path d="M92.8575 83.4763C93.5483 83.4763 94.1073 82.9166 94.1073 82.2264C94.1073 81.5363 93.5483 80.9766 92.8575 80.9766H87.453C86.7622 80.9766 86.2031 81.5363 86.2031 82.2264V93.2028C86.2031 93.893 86.7622 94.4527 87.453 94.4527H92.8575C93.5483 94.4527 94.1073 93.893 94.1073 93.2028C94.1073 92.5127 93.5483 91.953 92.8575 91.953H88.7028V88.9645H92.8575C93.5483 88.9645 94.1073 88.4048 94.1073 87.7147C94.1073 87.0245 93.5483 86.4648 92.8575 86.4648H88.7028V83.4764H92.8575V83.4763Z" fill="#424242"/>
<path d="M103.973 83.4763C104.664 83.4763 105.223 82.9166 105.223 82.2264C105.223 81.5363 104.664 80.9766 103.973 80.9766H98.5702C97.8794 80.9766 97.3203 81.5363 97.3203 82.2264V93.2028C97.3203 93.893 97.8794 94.4527 98.5702 94.4527H103.973C104.664 94.4527 105.223 93.893 105.223 93.2028C105.223 92.5127 104.664 91.953 103.973 91.953H99.82V88.9645H103.973C104.664 88.9645 105.223 88.4048 105.223 87.7147C105.223 87.0245 104.664 86.4648 103.973 86.4648H99.82V83.4764H103.973V83.4763Z" fill="#424242"/>
<path d="M82.9897 84.9702C82.9897 82.7683 81.198 80.9766 78.9961 80.9766H74.9647C74.2739 80.9766 73.7148 81.5363 73.7148 82.2264V93.2028C73.7148 93.893 74.2739 94.4527 74.9647 94.4527C75.6555 94.4527 76.2145 93.893 76.2145 93.2028V88.9645H78.2234L80.6219 93.7619C80.9313 94.3822 81.6856 94.6275 82.2989 94.3209C82.9166 94.0122 83.1667 93.2616 82.858 92.6439L80.7947 88.5167C82.0908 87.8558 82.9897 86.5223 82.9897 84.9702ZM76.2144 83.4763H78.9959C79.8198 83.4763 80.4898 84.1464 80.4898 84.9702C80.4898 85.7939 79.8198 86.4647 78.9959 86.4647H76.2144V83.4763Z" fill="#424242"/>
</svg>
