<svg width="183" height="183" viewBox="0 0 183 183" fill="none" xmlns="http://www.w3.org/2000/svg">
<circle cx="91.5" cy="91.5" r="91.5" fill="white"/>
<path d="M61.0566 61.6426H76.5596C77.2833 61.6427 77.876 62.2352 77.876 62.959V70.457H108.125V62.959C108.125 62.2352 108.719 61.6426 109.442 61.6426H124.944C125.668 61.6426 126.262 62.2352 126.262 62.959V117.728H128.2C128.926 117.728 129.517 118.308 129.518 119.029C129.518 119.753 128.924 120.346 128.2 120.346H57.8008C57.077 120.346 56.4844 119.753 56.4844 119.029C56.4845 118.306 57.077 117.713 57.8008 117.713H59.7402V62.959C59.7402 62.2352 60.3328 61.6426 61.0566 61.6426ZM77.876 117.728H84.4385V106.519C84.4386 105.795 85.0314 105.202 85.7549 105.202H100.261C100.984 105.202 101.577 105.795 101.577 106.519V117.728H108.14V73.1045H77.876V117.728ZM87.0723 117.728H91.6836V107.836H87.0723V117.728ZM94.3174 117.728H98.9443V107.836H94.3174V117.728ZM110.759 117.728H123.628V64.29H110.759V117.728ZM62.373 117.713H75.2422V64.2754H62.373V117.713Z" fill="#424242" stroke="white" stroke-width="0.3"/>
<path d="M83.3789 78.4785H89.3184C90.0422 78.4785 90.6357 79.0711 90.6357 79.7949V85.7344C90.6357 86.4582 90.0422 87.0518 89.3184 87.0518H83.3789C82.6551 87.0518 82.0625 86.4582 82.0625 85.7344V79.7949C82.0625 79.0711 82.6551 78.4785 83.3789 78.4785ZM84.6953 84.418H88.002V81.1113H84.6953V84.418Z" fill="#424242" stroke="white" stroke-width="0.3"/>
<path d="M96.6816 78.4785H102.621C103.345 78.4785 103.938 79.0711 103.938 79.7949V85.7344C103.938 86.4582 103.345 87.0518 102.621 87.0518H96.6816C95.9441 87.0518 95.3652 86.4592 95.3652 85.7344V79.7949C95.3652 79.0711 95.9578 78.4785 96.6816 78.4785ZM97.998 84.418H101.305V81.1113H97.998V84.418Z" fill="#424242" stroke="white" stroke-width="0.3"/>
<path d="M83.3789 91.252H89.3184C90.0422 91.252 90.6357 91.8445 90.6357 92.5684V98.5078C90.6357 99.2316 90.0422 99.8252 89.3184 99.8252H83.3789C82.6551 99.8252 82.0625 99.2316 82.0625 98.5078V92.5684C82.0625 91.8445 82.6551 91.252 83.3789 91.252ZM84.6953 97.1768H88.002V93.8701H84.6953V97.1768Z" fill="#424242" stroke="white" stroke-width="0.3"/>
<path d="M96.6816 91.252H102.621C103.345 91.252 103.938 91.8445 103.938 92.5684V98.5078C103.938 99.2316 103.345 99.8252 102.621 99.8252H96.6816C95.9441 99.8252 95.3652 99.2326 95.3652 98.5078V92.5684C95.3652 91.8445 95.9578 91.252 96.6816 91.252ZM97.998 97.1768H101.305V93.8701H97.998V97.1768Z" fill="#424242" stroke="white" stroke-width="0.3"/>
<path d="M114.824 70.4707H119.562C120.285 70.4708 120.878 71.0633 120.878 71.7871C120.878 72.5108 120.285 73.1035 119.562 73.1035H114.824C114.1 73.1035 113.508 72.5109 113.508 71.7871C113.508 71.0633 114.1 70.4707 114.824 70.4707Z" fill="#424242" stroke="white" stroke-width="0.3"/>
<path d="M114.824 80.0762H119.562C120.285 80.0762 120.878 80.6688 120.878 81.3926C120.878 82.1163 120.285 82.7089 119.562 82.709H114.824C114.1 82.709 113.508 82.1163 113.508 81.3926C113.508 80.6688 114.1 80.0762 114.824 80.0762Z" fill="#424242" stroke="white" stroke-width="0.3"/>
<path d="M114.824 89.6855H119.562C120.285 89.6856 120.878 90.2782 120.878 91.002C120.878 91.7257 120.285 92.3183 119.562 92.3184H114.824C114.1 92.3184 113.508 91.7257 113.508 91.002C113.508 90.2781 114.1 89.6855 114.824 89.6855Z" fill="#424242" stroke="white" stroke-width="0.3"/>
<path d="M114.824 99.291H119.562C120.285 99.2911 120.878 99.8836 120.878 100.607C120.878 101.331 120.285 101.924 119.562 101.924H114.824C114.1 101.924 113.508 101.331 113.508 100.607C113.508 99.8836 114.1 99.291 114.824 99.291Z" fill="#424242" stroke="white" stroke-width="0.3"/>
<path d="M114.824 108.896H119.562C120.285 108.897 120.878 109.489 120.878 110.213C120.878 110.937 120.285 111.529 119.562 111.529H114.824C114.1 111.529 113.508 110.937 113.508 110.213C113.508 109.489 114.1 108.896 114.824 108.896Z" fill="#424242" stroke="white" stroke-width="0.3"/>
<path d="M66.4395 70.4707H71.1768C71.9005 70.4708 72.4932 71.0633 72.4932 71.7871C72.4931 72.5108 71.9005 73.1035 71.1768 73.1035H66.4395C65.7157 73.1035 65.1231 72.5109 65.123 71.7871C65.123 71.0633 65.7156 70.4707 66.4395 70.4707Z" fill="#424242" stroke="white" stroke-width="0.3"/>
<path d="M66.4395 80.0762H71.1768C71.9005 80.0762 72.4932 80.6688 72.4932 81.3926C72.4931 82.1163 71.9005 82.7089 71.1768 82.709H66.4395C65.7157 82.709 65.1231 82.1163 65.123 81.3926C65.123 80.6688 65.7156 80.0762 66.4395 80.0762Z" fill="#424242" stroke="white" stroke-width="0.3"/>
<path d="M66.4395 89.6855H71.1768C71.9005 89.6856 72.4932 90.2782 72.4932 91.002C72.4931 91.7257 71.9005 92.3183 71.1768 92.3184H66.4395C65.7157 92.3184 65.1231 91.7257 65.123 91.002C65.123 90.2781 65.7156 89.6855 66.4395 89.6855Z" fill="#424242" stroke="white" stroke-width="0.3"/>
<path d="M66.4395 99.291H71.1768C71.9005 99.2911 72.4932 99.8836 72.4932 100.607C72.4931 101.331 71.9005 101.924 71.1768 101.924H66.4395C65.7157 101.924 65.1231 101.331 65.123 100.607C65.123 99.8836 65.7156 99.291 66.4395 99.291Z" fill="#424242" stroke="white" stroke-width="0.3"/>
<path d="M66.4395 108.896H71.1768C71.9005 108.897 72.4932 109.489 72.4932 110.213C72.4931 110.937 71.9005 111.529 71.1768 111.529H66.4395C65.7157 111.529 65.1231 110.937 65.123 110.213C65.123 109.489 65.7156 108.896 66.4395 108.896Z" fill="#424242" stroke="white" stroke-width="0.3"/>
</svg>
